<?xml version="1.0" encoding="UTF-8" standalone="no"?>
<!DOCTYPE svg PUBLIC "-//W3C//DTD SVG 1.1//EN"
 "http://www.w3.org/Graphics/SVG/1.1/DTD/svg11.dtd">
<!-- Generated by graphviz version 2.40.1 (20161225.0304)
 -->
<!-- Title: Readout Pages: 1 -->
<svg width="236pt" height="95pt"
 viewBox="0.00 0.00 235.50 95.00" xmlns="http://www.w3.org/2000/svg" xmlns:xlink="http://www.w3.org/1999/xlink">
<g id="graph0" class="graph" transform="scale(1 1) rotate(0) translate(4 91)">
<title>Readout</title>
<!-- Node0 -->
<g id="node1" class="node">
<title>Node0</title>
<polygon fill="#bfbfbf" stroke="#000000" points="85.5,-.5 85.5,-19.5 138.5,-19.5 138.5,-.5 85.5,-.5"/>
<text text-anchor="middle" x="112" y="-7.5" font-family="Helvetica,sans-Serif" font-size="10.00" fill="#000000">Readout</text>
</g>
<!-- Node1 -->
<g id="node2" class="node">
<title>Node1</title>
<g id="a_node2"><a xlink:href="classParameter_1_1Listener.html" target="_top" xlink:title="Parameter::Listener">
<polygon fill="none" stroke="#000000" points="0,-62 0,-81 102,-81 102,-62 0,-62"/>
<text text-anchor="middle" x="51" y="-69" font-family="Helvetica,sans-Serif" font-size="10.00" fill="#000000">Parameter::Listener</text>
</a>
</g>
</g>
<!-- Node1&#45;&gt;Node0 -->
<g id="edge1" class="edge">
<title>Node1&#45;&gt;Node0</title>
<path fill="none" stroke="#8b1a1a" d="M67.6383,-54.7253C78.7696,-43.5028 93.0297,-29.1258 102.3344,-19.7449"/>
<polygon fill="#8b1a1a" stroke="#8b1a1a" points="65.0885,-52.326 60.5313,-61.8906 70.0584,-57.2555 65.0885,-52.326"/>
</g>
<!-- Node2 -->
<g id="node3" class="node">
<title>Node2</title>
<g id="a_node3"><a xlink:href="classSingleLineTextEditor_1_1Listener.html" target="_top" xlink:title="Receives callbacks from a TextEditor component when it changes. ">
<polygon fill="none" stroke="#000000" points="120.5,-56.5 120.5,-86.5 227.5,-86.5 227.5,-56.5 120.5,-56.5"/>
<text text-anchor="start" x="128.5" y="-74.5" font-family="Helvetica,sans-Serif" font-size="10.00" fill="#000000">SingleLineTextEditor</text>
<text text-anchor="middle" x="174" y="-63.5" font-family="Helvetica,sans-Serif" font-size="10.00" fill="#000000">::Listener</text>
</a>
</g>
</g>
<!-- Node2&#45;&gt;Node0 -->
<g id="edge2" class="edge">
<title>Node2&#45;&gt;Node0</title>
<path fill="none" stroke="#8b1a1a" d="M151.2786,-48.9618C141.1829,-38.9475 129.8231,-27.6794 121.927,-19.8469"/>
<polygon fill="#8b1a1a" stroke="#8b1a1a" points="149.1096,-51.7402 158.6742,-56.2977 154.0393,-46.7705 149.1096,-51.7402"/>
</g>
</g>
</svg>
