<?xml version="1.0" encoding="UTF-8" standalone="no"?>
<!DOCTYPE svg PUBLIC "-//W3C//DTD SVG 1.1//EN"
 "http://www.w3.org/Graphics/SVG/1.1/DTD/svg11.dtd">
<!-- Generated by graphviz version 2.43.0 (0)
 -->
<!-- Title: MultiParamComponent Pages: 1 -->
<svg width="494pt" height="323pt"
 viewBox="0.00 0.00 494.00 323.00" xmlns="http://www.w3.org/2000/svg" xmlns:xlink="http://www.w3.org/1999/xlink">
<g id="graph0" class="graph" transform="scale(1 1) rotate(0) translate(4 319)">
<title>MultiParamComponent</title>
<!-- Node1 -->
<g id="Node000001" class="node">
<title>Node1</title>
<g id="a_Node000001"><a xlink:title="A base component for controlling multiple parameters at once.">
<polygon fill="#999999" stroke="#666666" points="326,-167 198,-167 198,-148 326,-148 326,-167"/>
<text text-anchor="middle" x="262" y="-155" font-family="Helvetica,sans-Serif" font-size="10.00">MultiParamComponent</text>
</a>
</g>
</g>
<!-- Node3 -->
<g id="Node000003" class="node">
<title>Node3</title>
<g id="a_Node000003"><a xlink:href="classADSRComponent.html" target="_top" xlink:title="Interactive visual editor for ADSR envelope parameters.">
<polygon fill="white" stroke="#666666" points="474,-315 374,-315 374,-296 474,-296 474,-315"/>
<text text-anchor="middle" x="424" y="-303" font-family="Helvetica,sans-Serif" font-size="10.00">ADSRComponent</text>
</a>
</g>
</g>
<!-- Node1&#45;&gt;Node3 -->
<g id="edge2_Node000001_Node000003" class="edge">
<title>Node1&#45;&gt;Node3</title>
<g id="a_edge2_Node000001_Node000003"><a xlink:title=" ">
<path fill="none" stroke="#63b8ff" d="M272.45,-176.61C287.49,-205.04 319.56,-258.25 362,-287.5 366.91,-290.88 372.46,-293.64 378.17,-295.88"/>
<polygon fill="#63b8ff" stroke="#63b8ff" points="275.38,-174.64 267.7,-167.35 269.15,-177.84 275.38,-174.64"/>
</a>
</g>
</g>
<!-- Node4 -->
<g id="Node000004" class="node">
<title>Node4</title>
<g id="a_Node000004"><a xlink:href="classControlBox.html" target="_top" xlink:title="Container for organizing plugin controls on a grid layout with page support.">
<polygon fill="white" stroke="#666666" points="459.5,-278 388.5,-278 388.5,-259 459.5,-259 459.5,-278"/>
<text text-anchor="middle" x="424" y="-266" font-family="Helvetica,sans-Serif" font-size="10.00">ControlBox</text>
</a>
</g>
</g>
<!-- Node1&#45;&gt;Node4 -->
<g id="edge3_Node000001_Node000004" class="edge">
<title>Node1&#45;&gt;Node4</title>
<g id="a_edge3_Node000001_Node000004"><a xlink:title=" ">
<path fill="none" stroke="#63b8ff" d="M277.08,-175C294.78,-195.89 327.12,-230.5 362,-250.5 370.05,-255.11 379.38,-258.64 388.29,-261.29"/>
<polygon fill="#63b8ff" stroke="#63b8ff" points="279.7,-172.68 270.62,-167.22 274.32,-177.15 279.7,-172.68"/>
</a>
</g>
</g>
<!-- Node5 -->
<g id="Node000005" class="node">
<title>Node5</title>
<g id="a_Node000005"><a xlink:href="classGateEffectComponent.html" target="_top" xlink:title="An editor for the gate effect pattern.">
<polygon fill="white" stroke="#666666" points="486,-241 362,-241 362,-222 486,-222 486,-241"/>
<text text-anchor="middle" x="424" y="-229" font-family="Helvetica,sans-Serif" font-size="10.00">GateEffectComponent</text>
</a>
</g>
</g>
<!-- Node1&#45;&gt;Node5 -->
<g id="edge4_Node000001_Node000005" class="edge">
<title>Node1&#45;&gt;Node5</title>
<g id="a_edge4_Node000001_Node000005"><a xlink:title=" ">
<path fill="none" stroke="#63b8ff" d="M286.09,-172.57C305.68,-184.85 334.85,-201.99 362,-213.5 369.52,-216.69 377.79,-219.54 385.75,-221.98"/>
<polygon fill="#63b8ff" stroke="#63b8ff" points="287.87,-169.55 277.55,-167.14 284.11,-175.46 287.87,-169.55"/>
</a>
</g>
</g>
<!-- Node6 -->
<g id="Node000006" class="node">
<title>Node6</title>
<g id="a_Node000006"><a xlink:href="classLFOComponent.html" target="_top" xlink:title="Visual display of LFO waveform with animated phase indicators.">
<polygon fill="white" stroke="#666666" points="470,-204 378,-204 378,-185 470,-185 470,-204"/>
<text text-anchor="middle" x="424" y="-192" font-family="Helvetica,sans-Serif" font-size="10.00">LFOComponent</text>
</a>
</g>
</g>
<!-- Node1&#45;&gt;Node6 -->
<g id="edge5_Node000001_Node000006" class="edge">
<title>Node1&#45;&gt;Node6</title>
<g id="a_edge5_Node000001_Node000006"><a xlink:title=" ">
<path fill="none" stroke="#63b8ff" d="M313.98,-169.29C335.82,-174.34 361,-180.16 381.66,-184.94"/>
<polygon fill="#63b8ff" stroke="#63b8ff" points="314.74,-165.87 304.2,-167.03 313.16,-172.69 314.74,-165.87"/>
</a>
</g>
</g>
<!-- Node7 -->
<g id="Node000007" class="node">
<title>Node7</title>
<g id="a_Node000007"><a xlink:href="classMSEGComponent.html" target="_top" xlink:title="Draws an MSEG LFO curve and shows a little dot moving long.">
<polygon fill="white" stroke="#666666" points="474.5,-167 373.5,-167 373.5,-148 474.5,-148 474.5,-167"/>
<text text-anchor="middle" x="424" y="-155" font-family="Helvetica,sans-Serif" font-size="10.00">MSEGComponent</text>
</a>
</g>
</g>
<!-- Node1&#45;&gt;Node7 -->
<g id="edge6_Node000001_Node000007" class="edge">
<title>Node1&#45;&gt;Node7</title>
<g id="a_edge6_Node000001_Node000007"><a xlink:title=" ">
<path fill="none" stroke="#63b8ff" d="M336.54,-157.5C348.9,-157.5 361.46,-157.5 373.04,-157.5"/>
<polygon fill="#63b8ff" stroke="#63b8ff" points="336.24,-154 326.24,-157.5 336.24,-161 336.24,-154"/>
</a>
</g>
</g>
<!-- Node8 -->
<g id="Node000008" class="node">
<title>Node8</title>
<g id="a_Node000008"><a xlink:href="classPagedControlBox.html" target="_top" xlink:title="Advanced container with sliding page transitions for organizing controls.">
<polygon fill="white" stroke="#666666" points="474,-130 374,-130 374,-111 474,-111 474,-130"/>
<text text-anchor="middle" x="424" y="-118" font-family="Helvetica,sans-Serif" font-size="10.00">PagedControlBox</text>
</a>
</g>
</g>
<!-- Node1&#45;&gt;Node8 -->
<g id="edge7_Node000001_Node000008" class="edge">
<title>Node1&#45;&gt;Node8</title>
<g id="a_edge7_Node000001_Node000008"><a xlink:title=" ">
<path fill="none" stroke="#63b8ff" d="M313.98,-145.71C335.82,-140.66 361,-134.84 381.66,-130.06"/>
<polygon fill="#63b8ff" stroke="#63b8ff" points="313.16,-142.31 304.2,-147.97 314.74,-149.13 313.16,-142.31"/>
</a>
</g>
</g>
<!-- Node9 -->
<g id="Node000009" class="node">
<title>Node9</title>
<g id="a_Node000009"><a xlink:href="classParamArea.html" target="_top" xlink:title="A box for graphs without a header.">
<polygon fill="white" stroke="#666666" points="459,-93 389,-93 389,-74 459,-74 459,-93"/>
<text text-anchor="middle" x="424" y="-81" font-family="Helvetica,sans-Serif" font-size="10.00">ParamArea</text>
</a>
</g>
</g>
<!-- Node1&#45;&gt;Node9 -->
<g id="edge8_Node000001_Node000009" class="edge">
<title>Node1&#45;&gt;Node9</title>
<g id="a_edge8_Node000001_Node000009"><a xlink:title=" ">
<path fill="none" stroke="#63b8ff" d="M286.09,-142.43C305.68,-130.15 334.85,-113.01 362,-101.5 370.54,-97.88 380.04,-94.7 388.96,-92.06"/>
<polygon fill="#63b8ff" stroke="#63b8ff" points="284.11,-139.54 277.55,-147.86 287.87,-145.45 284.11,-139.54"/>
</a>
</g>
</g>
<!-- Node10 -->
<g id="Node000010" class="node">
<title>Node10</title>
<g id="a_Node000010"><a xlink:href="classParamBox.html" target="_top" xlink:title="A box for knobs with a header.">
<polygon fill="white" stroke="#666666" points="457,-56 391,-56 391,-37 457,-37 457,-56"/>
<text text-anchor="middle" x="424" y="-44" font-family="Helvetica,sans-Serif" font-size="10.00">ParamBox</text>
</a>
</g>
</g>
<!-- Node1&#45;&gt;Node10 -->
<g id="edge9_Node000001_Node000010" class="edge">
<title>Node1&#45;&gt;Node10</title>
<g id="a_edge9_Node000001_Node000010"><a xlink:title=" ">
<path fill="none" stroke="#63b8ff" d="M277.08,-140C294.78,-119.11 327.12,-84.5 362,-64.5 370.81,-59.45 381.17,-55.7 390.82,-52.98"/>
<polygon fill="#63b8ff" stroke="#63b8ff" points="274.32,-137.85 270.62,-147.78 279.7,-142.32 274.32,-137.85"/>
</a>
</g>
</g>
<!-- Node11 -->
<g id="Node000011" class="node">
<title>Node11</title>
<g id="a_Node000011"><a xlink:href="classStepLFOComponent.html" target="_top" xlink:title="Draws a step LFO curve and shows a little dot moving long.">
<polygon fill="white" stroke="#666666" points="480.5,-19 367.5,-19 367.5,0 480.5,0 480.5,-19"/>
<text text-anchor="middle" x="424" y="-7" font-family="Helvetica,sans-Serif" font-size="10.00">StepLFOComponent</text>
</a>
</g>
</g>
<!-- Node1&#45;&gt;Node11 -->
<g id="edge10_Node000001_Node000011" class="edge">
<title>Node1&#45;&gt;Node11</title>
<g id="a_edge10_Node000001_Node000011"><a xlink:title=" ">
<path fill="none" stroke="#63b8ff" d="M272.45,-138.39C287.49,-109.96 319.56,-56.75 362,-27.5 366.91,-24.12 372.46,-21.36 378.17,-19.12"/>
<polygon fill="#63b8ff" stroke="#63b8ff" points="269.15,-137.16 267.7,-147.65 275.38,-140.36 269.15,-137.16"/>
</a>
</g>
</g>
<!-- Node2 -->
<g id="Node000002" class="node">
<title>Node2</title>
<g id="a_Node000002"><a xlink:href="classParameter_1_1ParameterListener.html" target="_top" xlink:title=" ">
<polygon fill="white" stroke="#666666" points="162,-167 0,-167 0,-148 162,-148 162,-167"/>
<text text-anchor="middle" x="81" y="-155" font-family="Helvetica,sans-Serif" font-size="10.00">Parameter::ParameterListener</text>
</a>
</g>
</g>
<!-- Node2&#45;&gt;Node1 -->
<g id="edge1_Node000001_Node000002" class="edge">
<title>Node2&#45;&gt;Node1</title>
<g id="a_edge1_Node000001_Node000002"><a xlink:title=" ">
<path fill="none" stroke="#63b8ff" d="M172.24,-157.5C180.92,-157.5 189.58,-157.5 197.91,-157.5"/>
<polygon fill="#63b8ff" stroke="#63b8ff" points="172.08,-154 162.08,-157.5 172.08,-161 172.08,-154"/>
</a>
</g>
</g>
</g>
</svg>
