<?xml version="1.0" encoding="UTF-8" standalone="no"?>
<!DOCTYPE svg PUBLIC "-//W3C//DTD SVG 1.1//EN"
 "http://www.w3.org/Graphics/SVG/1.1/DTD/svg11.dtd">
<!-- Generated by graphviz version 2.40.1 (20161225.0304)
 -->
<!-- Title: Knob Pages: 1 -->
<svg width="244pt" height="84pt"
 viewBox="0.00 0.00 243.50 84.00" xmlns="http://www.w3.org/2000/svg" xmlns:xlink="http://www.w3.org/1999/xlink">
<g id="graph0" class="graph" transform="scale(1 1) rotate(0) translate(4 80)">
<title>Knob</title>
<!-- Node0 -->
<g id="node1" class="node">
<title>Node0</title>
<polygon fill="#bfbfbf" stroke="#000000" points="94.5,-.5 94.5,-19.5 135.5,-19.5 135.5,-.5 94.5,-.5"/>
<text text-anchor="middle" x="115" y="-7.5" font-family="Helvetica,sans-Serif" font-size="10.00" fill="#000000">Knob</text>
</g>
<!-- Node1 -->
<g id="node2" class="node">
<title>Node1</title>
<g id="a_node2"><a xlink:href="classParamComponent.html" target="_top" xlink:title="Base class for a control showing a parameter with label. ">
<polygon fill="none" stroke="#000000" points="0,-56.5 0,-75.5 104,-75.5 104,-56.5 0,-56.5"/>
<text text-anchor="middle" x="52" y="-63.5" font-family="Helvetica,sans-Serif" font-size="10.00" fill="#000000">ParamComponent</text>
</a>
</g>
</g>
<!-- Node1&#45;&gt;Node0 -->
<g id="edge1" class="edge">
<title>Node1&#45;&gt;Node0</title>
<path fill="none" stroke="#191970" d="M70.7192,-49.3607C81.6182,-39.6727 94.9755,-27.7995 104.152,-19.6427"/>
<polygon fill="#191970" stroke="#191970" points="68.1226,-46.9859 62.9738,-56.2455 72.7732,-52.2178 68.1226,-46.9859"/>
</g>
<!-- Node2 -->
<g id="node3" class="node">
<title>Node2</title>
<g id="a_node3"><a xlink:href="classModMatrix_1_1Listener.html" target="_top" xlink:title="ModMatrix::Listener">
<polygon fill="none" stroke="#000000" points="122.5,-56.5 122.5,-75.5 235.5,-75.5 235.5,-56.5 122.5,-56.5"/>
<text text-anchor="middle" x="179" y="-63.5" font-family="Helvetica,sans-Serif" font-size="10.00" fill="#000000">ModMatrix::Listener</text>
</a>
</g>
</g>
<!-- Node2&#45;&gt;Node0 -->
<g id="edge2" class="edge">
<title>Node2&#45;&gt;Node0</title>
<path fill="none" stroke="#8b1a1a" d="M160.3086,-49.645C149.1781,-39.9058 135.4337,-27.8795 126.0202,-19.6427"/>
<polygon fill="#8b1a1a" stroke="#8b1a1a" points="158.0215,-52.2945 167.8521,-56.2455 162.631,-47.0264 158.0215,-52.2945"/>
</g>
</g>
</svg>
