<?xml version="1.0" encoding="UTF-8" standalone="no"?>
<!DOCTYPE svg PUBLIC "-//W3C//DTD SVG 1.1//EN"
 "http://www.w3.org/Graphics/SVG/1.1/DTD/svg11.dtd">
<!-- Generated by graphviz version 2.43.0 (0)
 -->
<!-- Title: ModMatrix::Listener Pages: 1 -->
<svg width="447pt" height="82pt"
 viewBox="0.00 0.00 447.00 82.00" xmlns="http://www.w3.org/2000/svg" xmlns:xlink="http://www.w3.org/1999/xlink">
<g id="graph0" class="graph" transform="scale(1 1) rotate(0) translate(4 78)">
<title>ModMatrix::Listener</title>
<!-- Node1 -->
<g id="Node000001" class="node">
<title>Node1</title>
<g id="a_Node000001"><a xlink:title=" ">
<polygon fill="#999999" stroke="#666666" points="220.5,-74 106.5,-74 106.5,-55 220.5,-55 220.5,-74"/>
<text text-anchor="middle" x="163.5" y="-62" font-family="Helvetica,sans-Serif" font-size="10.00">ModMatrix::Listener</text>
</a>
</g>
</g>
<!-- Node2 -->
<g id="Node000002" class="node">
<title>Node2</title>
<g id="a_Node000002"><a xlink:href="classKnob.html" target="_top" xlink:title="Complete parameter control combining rotary slider, value readout, and modulation.">
<polygon fill="white" stroke="#666666" points="41,-19 0,-19 0,0 41,0 41,-19"/>
<text text-anchor="middle" x="20.5" y="-7" font-family="Helvetica,sans-Serif" font-size="10.00">Knob</text>
</a>
</g>
</g>
<!-- Node1&#45;&gt;Node2 -->
<g id="edge1_Node000001_Node000002" class="edge">
<title>Node1&#45;&gt;Node2</title>
<g id="a_edge1_Node000001_Node000002"><a xlink:title=" ">
<path fill="none" stroke="#8b1a1a" d="M130.91,-51.42C103.31,-41.19 64.59,-26.84 41.1,-18.13"/>
<polygon fill="#8b1a1a" stroke="#8b1a1a" points="129.93,-54.79 140.52,-54.98 132.36,-48.23 129.93,-54.79"/>
</a>
</g>
</g>
<!-- Node3 -->
<g id="Node000003" class="node">
<title>Node3</title>
<g id="a_Node000003"><a xlink:href="classModMatrixBox.html" target="_top" xlink:title="A list box of all assigned modulations.">
<polygon fill="white" stroke="#666666" points="147.5,-19 59.5,-19 59.5,0 147.5,0 147.5,-19"/>
<text text-anchor="middle" x="103.5" y="-7" font-family="Helvetica,sans-Serif" font-size="10.00">ModMatrixBox</text>
</a>
</g>
</g>
<!-- Node1&#45;&gt;Node3 -->
<g id="edge2_Node000001_Node000003" class="edge">
<title>Node1&#45;&gt;Node3</title>
<g id="a_edge2_Node000001_Node000003"><a xlink:title=" ">
<path fill="none" stroke="#8b1a1a" d="M146.32,-48.32C135.62,-38.87 122.24,-27.06 113.32,-19.17"/>
<polygon fill="#8b1a1a" stroke="#8b1a1a" points="144.05,-50.99 153.86,-54.98 148.68,-45.74 144.05,-50.99"/>
</a>
</g>
</g>
<!-- Node4 -->
<g id="Node000004" class="node">
<title>Node4</title>
<g id="a_Node000004"><a xlink:href="classModulationOverview.html" target="_top" xlink:title="A button and text readout that shows the current modulation source.">
<polygon fill="white" stroke="#666666" points="283.5,-19 165.5,-19 165.5,0 283.5,0 283.5,-19"/>
<text text-anchor="middle" x="224.5" y="-7" font-family="Helvetica,sans-Serif" font-size="10.00">ModulationOverview</text>
</a>
</g>
</g>
<!-- Node1&#45;&gt;Node4 -->
<g id="edge3_Node000001_Node000004" class="edge">
<title>Node1&#45;&gt;Node4</title>
<g id="a_edge3_Node000001_Node000004"><a xlink:title=" ">
<path fill="none" stroke="#8b1a1a" d="M180.97,-48.32C191.84,-38.87 205.44,-27.06 214.52,-19.17"/>
<polygon fill="#8b1a1a" stroke="#8b1a1a" points="178.55,-45.78 173.3,-54.98 183.15,-51.07 178.55,-45.78"/>
</a>
</g>
</g>
<!-- Node5 -->
<g id="Node000005" class="node">
<title>Node5</title>
<g id="a_Node000005"><a xlink:href="classModulationSourceButton.html" target="_top" xlink:title="A button for enabling modulation learn.">
<polygon fill="white" stroke="#666666" points="439,-19 302,-19 302,0 439,0 439,-19"/>
<text text-anchor="middle" x="370.5" y="-7" font-family="Helvetica,sans-Serif" font-size="10.00">ModulationSourceButton</text>
</a>
</g>
</g>
<!-- Node1&#45;&gt;Node5 -->
<g id="edge4_Node000001_Node000005" class="edge">
<title>Node1&#45;&gt;Node5</title>
<g id="a_edge4_Node000001_Node000005"><a xlink:title=" ">
<path fill="none" stroke="#8b1a1a" d="M206.71,-52.44C245.46,-42.52 301.53,-28.16 336.98,-19.08"/>
<polygon fill="#8b1a1a" stroke="#8b1a1a" points="205.58,-49.11 196.76,-54.98 207.31,-55.89 205.58,-49.11"/>
</a>
</g>
</g>
</g>
</svg>
