<?xml version="1.0" encoding="UTF-8" standalone="no"?>
<!DOCTYPE svg PUBLIC "-//W3C//DTD SVG 1.1//EN"
 "http://www.w3.org/Graphics/SVG/1.1/DTD/svg11.dtd">
<!-- Generated by graphviz version 2.43.0 (0)
 -->
<!-- Title: Parameter::ParameterListener Pages: 1 -->
<svg width="494pt" height="455pt"
 viewBox="0.00 0.00 494.00 455.00" xmlns="http://www.w3.org/2000/svg" xmlns:xlink="http://www.w3.org/1999/xlink">
<g id="graph0" class="graph" transform="scale(1 1) rotate(0) translate(4 451)">
<title>Parameter::ParameterListener</title>
<!-- Node1 -->
<g id="node1" class="node">
<title>Node1</title>
<g id="a_node1"><a xlink:title=" ">
<polygon fill="#bfbfbf" stroke="black" points="0,-95.5 0,-114.5 162,-114.5 162,-95.5 0,-95.5"/>
<text text-anchor="middle" x="81" y="-102.5" font-family="Helvetica,sans-Serif" font-size="10.00">Parameter::ParameterListener</text>
</a>
</g>
</g>
<!-- Node2 -->
<g id="node2" class="node">
<title>Node2</title>
<g id="a_node2"><a xlink:href="classMultiParamComponent.html" target="_top" xlink:title="A base component for controlling multiple parameters at once.">
<polygon fill="none" stroke="black" points="198,-256.5 198,-275.5 326,-275.5 326,-256.5 198,-256.5"/>
<text text-anchor="middle" x="262" y="-263.5" font-family="Helvetica,sans-Serif" font-size="10.00">MultiParamComponent</text>
</a>
</g>
</g>
<!-- Node1&#45;&gt;Node2 -->
<g id="edge1" class="edge">
<title>Node1&#45;&gt;Node2</title>
<path fill="none" stroke="midnightblue" d="M100.24,-121.4C137.3,-154.74 220.43,-229.51 250.17,-256.26"/>
<polygon fill="midnightblue" stroke="midnightblue" points="102.44,-118.67 92.66,-114.59 97.76,-123.88 102.44,-118.67"/>
</g>
<!-- Node12 -->
<g id="node12" class="node">
<title>Node12</title>
<g id="a_node12"><a xlink:href="classPluginButton.html" target="_top" xlink:title="Button for toggling a parameter.">
<polygon fill="none" stroke="black" points="222.5,-152.5 222.5,-171.5 301.5,-171.5 301.5,-152.5 222.5,-152.5"/>
<text text-anchor="middle" x="262" y="-159.5" font-family="Helvetica,sans-Serif" font-size="10.00">PluginButton</text>
</a>
</g>
</g>
<!-- Node1&#45;&gt;Node12 -->
<g id="edge11" class="edge">
<title>Node1&#45;&gt;Node12</title>
<path fill="none" stroke="#8b1a1a" d="M120.11,-117.73C142.71,-125.22 171.94,-134.8 198,-143 208.03,-146.15 218.98,-149.49 228.91,-152.48"/>
<polygon fill="#8b1a1a" stroke="#8b1a1a" points="121.14,-114.39 110.54,-114.56 118.93,-121.03 121.14,-114.39"/>
</g>
<!-- Node14 -->
<g id="node14" class="node">
<title>Node14</title>
<g id="a_node14"><a xlink:href="classPluginComboBox.html" target="_top" xlink:title="A control for selecting param values from a dropbox.">
<polygon fill="none" stroke="black" points="212,-114.5 212,-133.5 312,-133.5 312,-114.5 212,-114.5"/>
<text text-anchor="middle" x="262" y="-121.5" font-family="Helvetica,sans-Serif" font-size="10.00">PluginComboBox</text>
</a>
</g>
</g>
<!-- Node1&#45;&gt;Node14 -->
<g id="edge13" class="edge">
<title>Node1&#45;&gt;Node14</title>
<path fill="none" stroke="#8b1a1a" d="M172.04,-114.56C185.74,-116.01 199.42,-117.46 211.8,-118.78"/>
<polygon fill="#8b1a1a" stroke="#8b1a1a" points="172.39,-111.07 162.08,-113.5 171.65,-118.04 172.39,-111.07"/>
</g>
<!-- Node15 -->
<g id="node15" class="node">
<title>Node15</title>
<g id="a_node15"><a xlink:href="classPluginSlider.html" target="_top" xlink:title="A slider for controlling a parameter.">
<polygon fill="none" stroke="black" points="225,-76.5 225,-95.5 299,-95.5 299,-76.5 225,-76.5"/>
<text text-anchor="middle" x="262" y="-83.5" font-family="Helvetica,sans-Serif" font-size="10.00">PluginSlider</text>
</a>
</g>
</g>
<!-- Node1&#45;&gt;Node15 -->
<g id="edge14" class="edge">
<title>Node1&#45;&gt;Node15</title>
<path fill="none" stroke="#8b1a1a" d="M172.15,-95.43C190.86,-93.44 209.54,-91.46 224.9,-89.83"/>
<polygon fill="#8b1a1a" stroke="#8b1a1a" points="171.65,-91.96 162.08,-96.5 172.39,-98.93 171.65,-91.96"/>
</g>
<!-- Node16 -->
<g id="node16" class="node">
<title>Node16</title>
<g id="a_node16"><a xlink:href="classReadout.html" target="_top" xlink:title="A control for displaying a parameter.">
<polygon fill="none" stroke="black" points="233.5,-38.5 233.5,-57.5 290.5,-57.5 290.5,-38.5 233.5,-38.5"/>
<text text-anchor="middle" x="262" y="-45.5" font-family="Helvetica,sans-Serif" font-size="10.00">Readout</text>
</a>
</g>
</g>
<!-- Node1&#45;&gt;Node16 -->
<g id="edge15" class="edge">
<title>Node1&#45;&gt;Node16</title>
<path fill="none" stroke="#8b1a1a" d="M120.11,-92.27C142.71,-84.78 171.94,-75.2 198,-67 209.55,-63.37 222.34,-59.48 233.36,-56.18"/>
<polygon fill="#8b1a1a" stroke="#8b1a1a" points="118.93,-88.97 110.54,-95.44 121.14,-95.61 118.93,-88.97"/>
</g>
<!-- Node17 -->
<g id="node17" class="node">
<title>Node17</title>
<g id="a_node17"><a xlink:href="classSVGPluginButton.html" target="_top" xlink:title="Button for toggling a parameter.">
<polygon fill="none" stroke="black" points="212.5,-0.5 212.5,-19.5 311.5,-19.5 311.5,-0.5 212.5,-0.5"/>
<text text-anchor="middle" x="262" y="-7.5" font-family="Helvetica,sans-Serif" font-size="10.00">SVGPluginButton</text>
</a>
</g>
</g>
<!-- Node1&#45;&gt;Node17 -->
<g id="edge16" class="edge">
<title>Node1&#45;&gt;Node17</title>
<path fill="none" stroke="#8b1a1a" d="M102.23,-89.14C124.58,-72.25 162.17,-45.71 198,-29 205.87,-25.33 214.62,-22.16 223.03,-19.53"/>
<polygon fill="#8b1a1a" stroke="#8b1a1a" points="99.99,-86.45 94.17,-95.31 104.24,-92.01 99.99,-86.45"/>
</g>
<!-- Node3 -->
<g id="node3" class="node">
<title>Node3</title>
<g id="a_node3"><a xlink:href="classADSRComponent.html" target="_top" xlink:title="Component for adjuting ADSR curves.">
<polygon fill="none" stroke="black" points="374,-427.5 374,-446.5 474,-446.5 474,-427.5 374,-427.5"/>
<text text-anchor="middle" x="424" y="-434.5" font-family="Helvetica,sans-Serif" font-size="10.00">ADSRComponent</text>
</a>
</g>
</g>
<!-- Node2&#45;&gt;Node3 -->
<g id="edge2" class="edge">
<title>Node2&#45;&gt;Node3</title>
<path fill="none" stroke="midnightblue" d="M270.49,-285.5C283.9,-317.83 315.07,-382.49 362,-418 367.13,-421.88 373.07,-424.98 379.18,-427.45"/>
<polygon fill="midnightblue" stroke="midnightblue" points="273.6,-283.84 266.63,-275.86 267.1,-286.44 273.6,-283.84"/>
</g>
<!-- Node4 -->
<g id="node4" class="node">
<title>Node4</title>
<g id="a_node4"><a xlink:href="classControlBox.html" target="_top" xlink:title="A box for holding controls on a grid.">
<polygon fill="none" stroke="black" points="388.5,-389.5 388.5,-408.5 459.5,-408.5 459.5,-389.5 388.5,-389.5"/>
<text text-anchor="middle" x="424" y="-396.5" font-family="Helvetica,sans-Serif" font-size="10.00">ControlBox</text>
</a>
</g>
</g>
<!-- Node2&#45;&gt;Node4 -->
<g id="edge3" class="edge">
<title>Node2&#45;&gt;Node4</title>
<path fill="none" stroke="midnightblue" d="M274.03,-284.09C290.25,-309.21 322.89,-354.44 362,-380 369.89,-385.16 379.27,-388.98 388.27,-391.8"/>
<polygon fill="midnightblue" stroke="midnightblue" points="276.93,-282.13 268.64,-275.53 271.01,-285.86 276.93,-282.13"/>
</g>
<!-- Node5 -->
<g id="node5" class="node">
<title>Node5</title>
<g id="a_node5"><a xlink:href="classGateEffectComponent.html" target="_top" xlink:title="An editor for the gate effect pattern.">
<polygon fill="none" stroke="black" points="362,-351.5 362,-370.5 486,-370.5 486,-351.5 362,-351.5"/>
<text text-anchor="middle" x="424" y="-358.5" font-family="Helvetica,sans-Serif" font-size="10.00">GateEffectComponent</text>
</a>
</g>
</g>
<!-- Node2&#45;&gt;Node5 -->
<g id="edge4" class="edge">
<title>Node2&#45;&gt;Node5</title>
<path fill="none" stroke="midnightblue" d="M280.33,-282.4C299.12,-299.41 330.67,-325.75 362,-342 369.19,-345.73 377.24,-348.87 385.07,-351.47"/>
<polygon fill="midnightblue" stroke="midnightblue" points="282.59,-279.72 272.86,-275.52 277.84,-284.87 282.59,-279.72"/>
</g>
<!-- Node6 -->
<g id="node6" class="node">
<title>Node6</title>
<g id="a_node6"><a xlink:href="classLFOComponent.html" target="_top" xlink:title="Draws an LFO curve and shows a little dot moving long.">
<polygon fill="none" stroke="black" points="378,-313.5 378,-332.5 470,-332.5 470,-313.5 378,-313.5"/>
<text text-anchor="middle" x="424" y="-320.5" font-family="Helvetica,sans-Serif" font-size="10.00">LFOComponent</text>
</a>
</g>
</g>
<!-- Node2&#45;&gt;Node6 -->
<g id="edge5" class="edge">
<title>Node2&#45;&gt;Node6</title>
<path fill="none" stroke="midnightblue" d="M296.31,-279.4C315.42,-286.94 339.93,-296.34 362,-304 371.33,-307.24 381.54,-310.52 390.9,-313.43"/>
<polygon fill="midnightblue" stroke="midnightblue" points="297.43,-276.08 286.85,-275.65 294.85,-282.59 297.43,-276.08"/>
</g>
<!-- Node7 -->
<g id="node7" class="node">
<title>Node7</title>
<g id="a_node7"><a xlink:href="classMSEGComponent.html" target="_top" xlink:title="Draws an MSEG LFO curve and shows a little dot moving long.">
<polygon fill="none" stroke="black" points="373.5,-275.5 373.5,-294.5 474.5,-294.5 474.5,-275.5 373.5,-275.5"/>
<text text-anchor="middle" x="424" y="-282.5" font-family="Helvetica,sans-Serif" font-size="10.00">MSEGComponent</text>
</a>
</g>
</g>
<!-- Node2&#45;&gt;Node7 -->
<g id="edge6" class="edge">
<title>Node2&#45;&gt;Node7</title>
<path fill="none" stroke="midnightblue" d="M336.17,-274.69C348.65,-276.17 361.34,-277.68 373.04,-279.07"/>
<polygon fill="midnightblue" stroke="midnightblue" points="336.58,-271.21 326.24,-273.51 335.75,-278.16 336.58,-271.21"/>
</g>
<!-- Node8 -->
<g id="node8" class="node">
<title>Node8</title>
<g id="a_node8"><a xlink:href="classPagedControlBox.html" target="_top" xlink:title="A control for holding pags of controls on a grid Pages slide over top of each other to make room.">
<polygon fill="none" stroke="black" points="374,-237.5 374,-256.5 474,-256.5 474,-237.5 374,-237.5"/>
<text text-anchor="middle" x="424" y="-244.5" font-family="Helvetica,sans-Serif" font-size="10.00">PagedControlBox</text>
</a>
</g>
</g>
<!-- Node2&#45;&gt;Node8 -->
<g id="edge7" class="edge">
<title>Node2&#45;&gt;Node8</title>
<path fill="none" stroke="midnightblue" d="M336.28,-257.3C348.9,-255.8 361.74,-254.27 373.54,-252.87"/>
<polygon fill="midnightblue" stroke="midnightblue" points="335.75,-253.84 326.24,-258.49 336.58,-260.79 335.75,-253.84"/>
</g>
<!-- Node9 -->
<g id="node9" class="node">
<title>Node9</title>
<g id="a_node9"><a xlink:href="classParamArea.html" target="_top" xlink:title="A box for graphs without a header.">
<polygon fill="none" stroke="black" points="389,-199.5 389,-218.5 459,-218.5 459,-199.5 389,-199.5"/>
<text text-anchor="middle" x="424" y="-206.5" font-family="Helvetica,sans-Serif" font-size="10.00">ParamArea</text>
</a>
</g>
</g>
<!-- Node2&#45;&gt;Node9 -->
<g id="edge8" class="edge">
<title>Node2&#45;&gt;Node9</title>
<path fill="none" stroke="midnightblue" d="M296.31,-252.6C315.42,-245.06 339.93,-235.66 362,-228 371.33,-224.76 381.54,-221.48 390.9,-218.57"/>
<polygon fill="midnightblue" stroke="midnightblue" points="294.85,-249.41 286.85,-256.35 297.43,-255.92 294.85,-249.41"/>
</g>
<!-- Node10 -->
<g id="node10" class="node">
<title>Node10</title>
<g id="a_node10"><a xlink:href="classParamBox.html" target="_top" xlink:title="A box for knobs with a header.">
<polygon fill="none" stroke="black" points="391,-161.5 391,-180.5 457,-180.5 457,-161.5 391,-161.5"/>
<text text-anchor="middle" x="424" y="-168.5" font-family="Helvetica,sans-Serif" font-size="10.00">ParamBox</text>
</a>
</g>
</g>
<!-- Node2&#45;&gt;Node10 -->
<g id="edge9" class="edge">
<title>Node2&#45;&gt;Node10</title>
<path fill="none" stroke="midnightblue" d="M280.33,-249.6C299.12,-232.59 330.67,-206.25 362,-190 370.96,-185.35 381.26,-181.61 390.81,-178.71"/>
<polygon fill="midnightblue" stroke="midnightblue" points="277.84,-247.13 272.86,-256.48 282.59,-252.28 277.84,-247.13"/>
</g>
<!-- Node11 -->
<g id="node11" class="node">
<title>Node11</title>
<g id="a_node11"><a xlink:href="classStepLFOComponent.html" target="_top" xlink:title="Draws a step LFO curve and shows a little dot moving long.">
<polygon fill="none" stroke="black" points="367.5,-123.5 367.5,-142.5 480.5,-142.5 480.5,-123.5 367.5,-123.5"/>
<text text-anchor="middle" x="424" y="-130.5" font-family="Helvetica,sans-Serif" font-size="10.00">StepLFOComponent</text>
</a>
</g>
</g>
<!-- Node2&#45;&gt;Node11 -->
<g id="edge10" class="edge">
<title>Node2&#45;&gt;Node11</title>
<path fill="none" stroke="midnightblue" d="M274.03,-247.91C290.25,-222.79 322.89,-177.56 362,-152 367.85,-148.18 374.51,-145.09 381.24,-142.6"/>
<polygon fill="midnightblue" stroke="midnightblue" points="271.01,-246.14 268.64,-256.47 276.93,-249.87 271.01,-246.14"/>
</g>
<!-- Node13 -->
<g id="node13" class="node">
<title>Node13</title>
<g id="a_node13"><a xlink:href="classPowerButton.html" target="_top" xlink:title="Button for toggling a parameter, drawn as a power button.">
<polygon fill="none" stroke="black" points="384.5,-85.5 384.5,-104.5 463.5,-104.5 463.5,-85.5 384.5,-85.5"/>
<text text-anchor="middle" x="424" y="-92.5" font-family="Helvetica,sans-Serif" font-size="10.00">PowerButton</text>
</a>
</g>
</g>
<!-- Node12&#45;&gt;Node13 -->
<g id="edge12" class="edge">
<title>Node12&#45;&gt;Node13</title>
<path fill="none" stroke="midnightblue" d="M311.34,-149.53C316.41,-147.61 321.38,-145.44 326,-143 344.17,-133.41 343.87,-123.67 362,-114 369.05,-110.24 376.95,-107.09 384.68,-104.51"/>
<polygon fill="midnightblue" stroke="midnightblue" points="309.87,-146.34 301.58,-152.93 312.18,-152.95 309.87,-146.34"/>
</g>
</g>
</svg>
