<?xml version="1.0" encoding="UTF-8" standalone="no"?>
<!DOCTYPE svg PUBLIC "-//W3C//DTD SVG 1.1//EN"
 "http://www.w3.org/Graphics/SVG/1.1/DTD/svg11.dtd">
<!-- Generated by graphviz version 2.40.1 (20161225.0304)
 -->
<!-- Title: GinLookAndFeel Pages: 1 -->
<svg width="287pt" height="196pt"
 viewBox="0.00 0.00 286.50 196.00" xmlns="http://www.w3.org/2000/svg" xmlns:xlink="http://www.w3.org/1999/xlink">
<g id="graph0" class="graph" transform="scale(1 1) rotate(0) translate(4 192)">
<title>GinLookAndFeel</title>
<!-- Node0 -->
<g id="node1" class="node">
<title>Node0</title>
<polygon fill="#bfbfbf" stroke="#000000" points="95.5,-168.5 95.5,-187.5 184.5,-187.5 184.5,-168.5 95.5,-168.5"/>
<text text-anchor="middle" x="140" y="-175.5" font-family="Helvetica,sans-Serif" font-size="10.00" fill="#000000">GinLookAndFeel</text>
</g>
<!-- Node1 -->
<g id="node2" class="node">
<title>Node1</title>
<g id="a_node2"><a xlink:href="classPluginLookAndFeel.html" target="_top" xlink:title="Plugin specific addition to GinLookAndFeel Still black and white. ">
<polygon fill="none" stroke="#000000" points="89.5,-112.5 89.5,-131.5 190.5,-131.5 190.5,-112.5 89.5,-112.5"/>
<text text-anchor="middle" x="140" y="-119.5" font-family="Helvetica,sans-Serif" font-size="10.00" fill="#000000">PluginLookAndFeel</text>
</a>
</g>
</g>
<!-- Node0&#45;&gt;Node1 -->
<g id="edge1" class="edge">
<title>Node0&#45;&gt;Node1</title>
<path fill="none" stroke="#191970" d="M140,-158.1575C140,-149.155 140,-138.9199 140,-131.6427"/>
<polygon fill="#191970" stroke="#191970" points="136.5001,-158.2455 140,-168.2455 143.5001,-158.2456 136.5001,-158.2455"/>
</g>
<!-- Node2 -->
<g id="node3" class="node">
<title>Node2</title>
<g id="a_node3"><a xlink:href="classCopperLookAndFeel.html" target="_top" xlink:title="Plugin specific addition to GinLookAndFeel Still black and white. ">
<polygon fill="none" stroke="#000000" points="18.5,-56.5 18.5,-75.5 123.5,-75.5 123.5,-56.5 18.5,-56.5"/>
<text text-anchor="middle" x="71" y="-63.5" font-family="Helvetica,sans-Serif" font-size="10.00" fill="#000000">CopperLookAndFeel</text>
</a>
</g>
</g>
<!-- Node1&#45;&gt;Node2 -->
<g id="edge2" class="edge">
<title>Node1&#45;&gt;Node2</title>
<path fill="none" stroke="#191970" d="M120.197,-105.928C108.1364,-96.1397 93.1286,-83.9595 82.8812,-75.6427"/>
<polygon fill="#191970" stroke="#191970" points="118.0109,-108.6614 127.9811,-112.2455 122.4221,-103.2262 118.0109,-108.6614"/>
</g>
<!-- Node4 -->
<g id="node5" class="node">
<title>Node4</title>
<g id="a_node5"><a xlink:href="classPluginLookAndFeelWrapper.html" target="_top" xlink:title="Auto sets and clears PluginLookAndFeel as default. ">
<polygon fill="none" stroke="#000000" points="141.5,-56.5 141.5,-75.5 278.5,-75.5 278.5,-56.5 141.5,-56.5"/>
<text text-anchor="middle" x="210" y="-63.5" font-family="Helvetica,sans-Serif" font-size="10.00" fill="#000000">PluginLookAndFeelWrapper</text>
</a>
</g>
</g>
<!-- Node1&#45;&gt;Node4 -->
<g id="edge4" class="edge">
<title>Node1&#45;&gt;Node4</title>
<path fill="none" stroke="#191970" d="M160.09,-105.928C172.3253,-96.1397 187.5507,-83.9595 197.9467,-75.6427"/>
<polygon fill="#191970" stroke="#191970" points="157.8153,-103.2655 152.1931,-112.2455 162.1882,-108.7316 157.8153,-103.2655"/>
</g>
<!-- Node3 -->
<g id="node4" class="node">
<title>Node3</title>
<g id="a_node4"><a xlink:href="classCopperLookAndFeelWrapper.html" target="_top" xlink:title="Auto sets and clears CopperLookAndFeel as default. ">
<polygon fill="none" stroke="#000000" points="0,-.5 0,-19.5 142,-19.5 142,-.5 0,-.5"/>
<text text-anchor="middle" x="71" y="-7.5" font-family="Helvetica,sans-Serif" font-size="10.00" fill="#000000">CopperLookAndFeelWrapper</text>
</a>
</g>
</g>
<!-- Node2&#45;&gt;Node3 -->
<g id="edge3" class="edge">
<title>Node2&#45;&gt;Node3</title>
<path fill="none" stroke="#191970" d="M71,-46.1575C71,-37.155 71,-26.9199 71,-19.6427"/>
<polygon fill="#191970" stroke="#191970" points="67.5001,-46.2455 71,-56.2455 74.5001,-46.2456 67.5001,-46.2455"/>
</g>
</g>
</svg>
