<?xml version="1.0" encoding="UTF-8" standalone="no"?>
<!DOCTYPE svg PUBLIC "-//W3C//DTD SVG 1.1//EN"
 "http://www.w3.org/Graphics/SVG/1.1/DTD/svg11.dtd">
<!-- Generated by graphviz version 2.40.1 (20161225.0304)
 -->
<!-- Title: Parameter::Listener Pages: 1 -->
<svg width="412pt" height="332pt"
 viewBox="0.00 0.00 412.00 332.00" xmlns="http://www.w3.org/2000/svg" xmlns:xlink="http://www.w3.org/1999/xlink">
<g id="graph0" class="graph" transform="scale(1 1) rotate(0) translate(4 328)">
<title>Parameter::Listener</title>
<!-- Node0 -->
<g id="node1" class="node">
<title>Node0</title>
<polygon fill="#bfbfbf" stroke="#000000" points="0,-76.5 0,-95.5 102,-95.5 102,-76.5 0,-76.5"/>
<text text-anchor="middle" x="51" y="-83.5" font-family="Helvetica,sans-Serif" font-size="10.00" fill="#000000">Parameter::Listener</text>
</g>
<!-- Node1 -->
<g id="node2" class="node">
<title>Node1</title>
<g id="a_node2"><a xlink:href="classMultiParamComponent.html" target="_top" xlink:title="A base component for controlling multiple parameters at once. ">
<polygon fill="none" stroke="#000000" points="138,-190.5 138,-209.5 254,-209.5 254,-190.5 138,-190.5"/>
<text text-anchor="middle" x="196" y="-197.5" font-family="Helvetica,sans-Serif" font-size="10.00" fill="#000000">MultiParamComponent</text>
</a>
</g>
</g>
<!-- Node0&#45;&gt;Node1 -->
<g id="edge1" class="edge">
<title>Node0&#45;&gt;Node1</title>
<path fill="none" stroke="#191970" d="M71.6148,-102.2075C102.2268,-126.2749 158.7618,-170.7231 183.6687,-190.305"/>
<polygon fill="#191970" stroke="#191970" points="73.3872,-99.1488 63.3626,-95.7196 69.0607,-104.6517 73.3872,-99.1488"/>
</g>
<!-- Node8 -->
<g id="node9" class="node">
<title>Node8</title>
<g id="a_node9"><a xlink:href="classPluginButton.html" target="_top" xlink:title="Button for toggling a parameter. ">
<polygon fill="none" stroke="#000000" points="160,-114.5 160,-133.5 232,-133.5 232,-114.5 160,-114.5"/>
<text text-anchor="middle" x="196" y="-121.5" font-family="Helvetica,sans-Serif" font-size="10.00" fill="#000000">PluginButton</text>
</a>
</g>
</g>
<!-- Node0&#45;&gt;Node8 -->
<g id="edge8" class="edge">
<title>Node0&#45;&gt;Node8</title>
<path fill="none" stroke="#8b1a1a" d="M97.5316,-98.1945C117.743,-103.4913 141.0568,-109.6011 159.9244,-114.5457"/>
<polygon fill="#8b1a1a" stroke="#8b1a1a" points="98.1503,-94.7385 87.5896,-95.589 96.3757,-101.5098 98.1503,-94.7385"/>
</g>
<!-- Node10 -->
<g id="node11" class="node">
<title>Node10</title>
<g id="a_node11"><a xlink:href="classPluginComboBox.html" target="_top" xlink:title="A control for selecting param values from a dropbox. ">
<polygon fill="none" stroke="#000000" points="150,-76.5 150,-95.5 242,-95.5 242,-76.5 150,-76.5"/>
<text text-anchor="middle" x="196" y="-83.5" font-family="Helvetica,sans-Serif" font-size="10.00" fill="#000000">PluginComboBox</text>
</a>
</g>
</g>
<!-- Node0&#45;&gt;Node10 -->
<g id="edge10" class="edge">
<title>Node0&#45;&gt;Node10</title>
<path fill="none" stroke="#8b1a1a" d="M112.46,-86C124.9323,-86 137.8511,-86 149.6928,-86"/>
<polygon fill="#8b1a1a" stroke="#8b1a1a" points="112.1216,-82.5001 102.1216,-86 112.1215,-89.5001 112.1216,-82.5001"/>
</g>
<!-- Node11 -->
<g id="node12" class="node">
<title>Node11</title>
<g id="a_node12"><a xlink:href="classPluginSlider.html" target="_top" xlink:title="A slider for controlling a parameter. ">
<polygon fill="none" stroke="#000000" points="162,-38.5 162,-57.5 230,-57.5 230,-38.5 162,-38.5"/>
<text text-anchor="middle" x="196" y="-45.5" font-family="Helvetica,sans-Serif" font-size="10.00" fill="#000000">PluginSlider</text>
</a>
</g>
</g>
<!-- Node0&#45;&gt;Node11 -->
<g id="edge11" class="edge">
<title>Node0&#45;&gt;Node11</title>
<path fill="none" stroke="#8b1a1a" d="M97.2717,-73.8736C118.2579,-68.3738 142.6329,-61.9859 161.9123,-56.9333"/>
<polygon fill="#8b1a1a" stroke="#8b1a1a" points="96.3757,-70.4902 87.5896,-76.411 98.1503,-77.2615 96.3757,-70.4902"/>
</g>
<!-- Node12 -->
<g id="node13" class="node">
<title>Node12</title>
<g id="a_node13"><a xlink:href="classReadout.html" target="_top" xlink:title="A control for displaying a parameter. ">
<polygon fill="none" stroke="#000000" points="169.5,-.5 169.5,-19.5 222.5,-19.5 222.5,-.5 169.5,-.5"/>
<text text-anchor="middle" x="196" y="-7.5" font-family="Helvetica,sans-Serif" font-size="10.00" fill="#000000">Readout</text>
</a>
</g>
</g>
<!-- Node0&#45;&gt;Node12 -->
<g id="edge12" class="edge">
<title>Node0&#45;&gt;Node12</title>
<path fill="none" stroke="#8b1a1a" d="M71.4689,-70.3534C88.5424,-57.8643 113.888,-40.5965 138,-29 147.931,-24.2238 159.3653,-20.1925 169.4425,-17.0891"/>
<polygon fill="#8b1a1a" stroke="#8b1a1a" points="69.2816,-67.6182 63.3449,-76.3935 73.4582,-73.2357 69.2816,-67.6182"/>
</g>
<!-- Node2 -->
<g id="node3" class="node">
<title>Node2</title>
<g id="a_node3"><a xlink:href="classADSRComponent.html" target="_top" xlink:title="Component for adjuting ADSR curves. ">
<polygon fill="none" stroke="#000000" points="299.5,-304.5 299.5,-323.5 394.5,-323.5 394.5,-304.5 299.5,-304.5"/>
<text text-anchor="middle" x="347" y="-311.5" font-family="Helvetica,sans-Serif" font-size="10.00" fill="#000000">ADSRComponent</text>
</a>
</g>
</g>
<!-- Node1&#45;&gt;Node2 -->
<g id="edge2" class="edge">
<title>Node1&#45;&gt;Node2</title>
<path fill="none" stroke="#191970" d="M209.1728,-217.6761C225.8176,-238.8568 256.3789,-274.0979 290,-295 296.1125,-298.8001 303.0709,-301.932 309.9751,-304.4799"/>
<polygon fill="#191970" stroke="#191970" points="211.7912,-215.3393 202.923,-209.5422 206.2405,-219.6043 211.7912,-215.3393"/>
</g>
<!-- Node3 -->
<g id="node4" class="node">
<title>Node3</title>
<g id="a_node4"><a xlink:href="classControlBox.html" target="_top" xlink:title="A box for holding controls on a grid. ">
<polygon fill="none" stroke="#000000" points="314.5,-266.5 314.5,-285.5 379.5,-285.5 379.5,-266.5 314.5,-266.5"/>
<text text-anchor="middle" x="347" y="-273.5" font-family="Helvetica,sans-Serif" font-size="10.00" fill="#000000">ControlBox</text>
</a>
</g>
</g>
<!-- Node1&#45;&gt;Node3 -->
<g id="edge3" class="edge">
<title>Node1&#45;&gt;Node3</title>
<path fill="none" stroke="#191970" d="M217.8134,-215.1573C236.386,-227.5832 264.1003,-245.0143 290,-257 297.6679,-260.5485 306.1899,-263.7536 314.2579,-266.4774"/>
<polygon fill="#191970" stroke="#191970" points="219.7192,-212.2209 209.4783,-209.5052 215.7905,-218.0145 219.7192,-212.2209"/>
</g>
<!-- Node4 -->
<g id="node5" class="node">
<title>Node4</title>
<g id="a_node5"><a xlink:href="classGateEffectComponent.html" target="_top" xlink:title="An editor for the gate effect pattern. ">
<polygon fill="none" stroke="#000000" points="290,-228.5 290,-247.5 404,-247.5 404,-228.5 290,-228.5"/>
<text text-anchor="middle" x="347" y="-235.5" font-family="Helvetica,sans-Serif" font-size="10.00" fill="#000000">GateEffectComponent</text>
</a>
</g>
</g>
<!-- Node1&#45;&gt;Node4 -->
<g id="edge4" class="edge">
<title>Node1&#45;&gt;Node4</title>
<path fill="none" stroke="#191970" d="M243.8431,-212.04C264.9386,-217.3488 289.3766,-223.4988 309.1703,-228.4799"/>
<polygon fill="#191970" stroke="#191970" points="244.6555,-208.6354 234.1037,-209.589 242.9471,-215.4237 244.6555,-208.6354"/>
</g>
<!-- Node5 -->
<g id="node6" class="node">
<title>Node5</title>
<g id="a_node6"><a xlink:href="classLFOComponent.html" target="_top" xlink:title="Draws an LFO curve and shows a little dot moving long. ">
<polygon fill="none" stroke="#000000" points="304,-190.5 304,-209.5 390,-209.5 390,-190.5 304,-190.5"/>
<text text-anchor="middle" x="347" y="-197.5" font-family="Helvetica,sans-Serif" font-size="10.00" fill="#000000">LFOComponent</text>
</a>
</g>
</g>
<!-- Node1&#45;&gt;Node5 -->
<g id="edge5" class="edge">
<title>Node1&#45;&gt;Node5</title>
<path fill="none" stroke="#191970" d="M264.5073,-200C277.8616,-200 291.5102,-200 303.7626,-200"/>
<polygon fill="#191970" stroke="#191970" points="264.3806,-196.5001 254.3805,-200 264.3805,-203.5001 264.3806,-196.5001"/>
</g>
<!-- Node6 -->
<g id="node7" class="node">
<title>Node6</title>
<g id="a_node7"><a xlink:href="classPagedControlBox.html" target="_top" xlink:title="A control for holding pags of controls on a grid Pages slide over top of each other to make room...">
<polygon fill="none" stroke="#000000" points="300.5,-152.5 300.5,-171.5 393.5,-171.5 393.5,-152.5 300.5,-152.5"/>
<text text-anchor="middle" x="347" y="-159.5" font-family="Helvetica,sans-Serif" font-size="10.00" fill="#000000">PagedControlBox</text>
</a>
</g>
</g>
<!-- Node1&#45;&gt;Node6 -->
<g id="edge6" class="edge">
<title>Node1&#45;&gt;Node6</title>
<path fill="none" stroke="#191970" d="M243.8431,-187.96C264.9386,-182.6512 289.3766,-176.5012 309.1703,-171.5201"/>
<polygon fill="#191970" stroke="#191970" points="242.9471,-184.5763 234.1037,-190.411 244.6555,-191.3646 242.9471,-184.5763"/>
</g>
<!-- Node7 -->
<g id="node8" class="node">
<title>Node7</title>
<g id="a_node8"><a xlink:href="classStepLFOComponent.html" target="_top" xlink:title="Draws a step LFO curve and shows a little dot moving long. ">
<polygon fill="none" stroke="#000000" points="294,-114.5 294,-133.5 400,-133.5 400,-114.5 294,-114.5"/>
<text text-anchor="middle" x="347" y="-121.5" font-family="Helvetica,sans-Serif" font-size="10.00" fill="#000000">StepLFOComponent</text>
</a>
</g>
</g>
<!-- Node1&#45;&gt;Node7 -->
<g id="edge7" class="edge">
<title>Node1&#45;&gt;Node7</title>
<path fill="none" stroke="#191970" d="M217.8134,-184.8427C236.386,-172.4168 264.1003,-154.9857 290,-143 297.6679,-139.4515 306.1899,-136.2464 314.2579,-133.5226"/>
<polygon fill="#191970" stroke="#191970" points="215.7905,-181.9855 209.4783,-190.4948 219.7192,-187.7791 215.7905,-181.9855"/>
</g>
<!-- Node9 -->
<g id="node10" class="node">
<title>Node9</title>
<g id="a_node10"><a xlink:href="classPowerButton.html" target="_top" xlink:title="Circle with line power button for controlling a Parameter. ">
<polygon fill="none" stroke="#000000" points="310.5,-76.5 310.5,-95.5 383.5,-95.5 383.5,-76.5 310.5,-76.5"/>
<text text-anchor="middle" x="347" y="-83.5" font-family="Helvetica,sans-Serif" font-size="10.00" fill="#000000">PowerButton</text>
</a>
</g>
</g>
<!-- Node8&#45;&gt;Node9 -->
<g id="edge9" class="edge">
<title>Node8&#45;&gt;Node9</title>
<path fill="none" stroke="#191970" d="M241.9339,-112.4405C263.8661,-106.9211 289.7516,-100.4069 310.341,-95.2255"/>
<polygon fill="#191970" stroke="#191970" points="241.0117,-109.0633 232.1683,-114.8981 242.7201,-115.8517 241.0117,-109.0633"/>
</g>
</g>
</svg>
