<?xml version="1.0" encoding="UTF-8" standalone="no"?>
<!DOCTYPE svg PUBLIC "-//W3C//DTD SVG 1.1//EN"
 "http://www.w3.org/Graphics/SVG/1.1/DTD/svg11.dtd">
<!-- Generated by graphviz version 2.40.1 (20161225.0304)
 -->
<!-- Title: ParamComponent Pages: 1 -->
<svg width="292pt" height="84pt"
 viewBox="0.00 0.00 292.00 84.00" xmlns="http://www.w3.org/2000/svg" xmlns:xlink="http://www.w3.org/1999/xlink">
<g id="graph0" class="graph" transform="scale(1 1) rotate(0) translate(4 80)">
<title>ParamComponent</title>
<!-- Node0 -->
<g id="node1" class="node">
<title>Node0</title>
<polygon fill="#bfbfbf" stroke="#000000" points="110.5,-56.5 110.5,-75.5 214.5,-75.5 214.5,-56.5 110.5,-56.5"/>
<text text-anchor="middle" x="162.5" y="-63.5" font-family="Helvetica,sans-Serif" font-size="10.00" fill="#000000">ParamComponent</text>
</g>
<!-- Node1 -->
<g id="node2" class="node">
<title>Node1</title>
<g id="a_node2"><a xlink:href="classHorizontalFader.html" target="_top" xlink:title="Horizontal slider wth text for controlling a param. ">
<polygon fill="none" stroke="#000000" points="0,-.5 0,-19.5 93,-19.5 93,-.5 0,-.5"/>
<text text-anchor="middle" x="46.5" y="-7.5" font-family="Helvetica,sans-Serif" font-size="10.00" fill="#000000">HorizontalFader</text>
</a>
</g>
</g>
<!-- Node0&#45;&gt;Node1 -->
<g id="edge1" class="edge">
<title>Node0&#45;&gt;Node1</title>
<path fill="none" stroke="#191970" d="M133.4463,-51.9741C112.4435,-41.8348 84.6309,-28.408 66.1809,-19.5011"/>
<polygon fill="#191970" stroke="#191970" points="132.0317,-55.1776 142.5589,-56.3733 135.075,-48.8738 132.0317,-55.1776"/>
</g>
<!-- Node2 -->
<g id="node3" class="node">
<title>Node2</title>
<g id="a_node3"><a xlink:href="classKnob.html" target="_top" xlink:title="Slider + editable text for showing a param. ">
<polygon fill="none" stroke="#000000" points="111,-.5 111,-19.5 152,-19.5 152,-.5 111,-.5"/>
<text text-anchor="middle" x="131.5" y="-7.5" font-family="Helvetica,sans-Serif" font-size="10.00" fill="#000000">Knob</text>
</a>
</g>
</g>
<!-- Node0&#45;&gt;Node2 -->
<g id="edge2" class="edge">
<title>Node0&#45;&gt;Node2</title>
<path fill="none" stroke="#191970" d="M152.1688,-47.3372C147.0335,-38.0605 141.0434,-27.2398 136.8379,-19.6427"/>
<polygon fill="#191970" stroke="#191970" points="149.1949,-49.1917 157.1002,-56.2455 155.3191,-45.8015 149.1949,-49.1917"/>
</g>
<!-- Node3 -->
<g id="node4" class="node">
<title>Node3</title>
<g id="a_node4"><a xlink:href="classSelect.html" target="_top" xlink:title="Control for picking param value with label. ">
<polygon fill="none" stroke="#000000" points="170,-.5 170,-19.5 217,-19.5 217,-.5 170,-.5"/>
<text text-anchor="middle" x="193.5" y="-7.5" font-family="Helvetica,sans-Serif" font-size="10.00" fill="#000000">Select</text>
</a>
</g>
</g>
<!-- Node0&#45;&gt;Node3 -->
<g id="edge3" class="edge">
<title>Node0&#45;&gt;Node3</title>
<path fill="none" stroke="#191970" d="M172.8312,-47.3372C177.9665,-38.0605 183.9566,-27.2398 188.1621,-19.6427"/>
<polygon fill="#191970" stroke="#191970" points="169.6809,-45.8015 167.8998,-56.2455 175.8051,-49.1917 169.6809,-45.8015"/>
</g>
<!-- Node4 -->
<g id="node5" class="node">
<title>Node4</title>
<g id="a_node5"><a xlink:href="classSwitch.html" target="_top" xlink:title="Control for toggling param with label. ">
<polygon fill="none" stroke="#000000" points="235,-.5 235,-19.5 284,-19.5 284,-.5 235,-.5"/>
<text text-anchor="middle" x="259.5" y="-7.5" font-family="Helvetica,sans-Serif" font-size="10.00" fill="#000000">Switch</text>
</a>
</g>
</g>
<!-- Node0&#45;&gt;Node4 -->
<g id="edge4" class="edge">
<title>Node0&#45;&gt;Node4</title>
<path fill="none" stroke="#191970" d="M188.4016,-51.0465C205.6609,-41.0824 227.8376,-28.2794 242.7975,-19.6427"/>
<polygon fill="#191970" stroke="#191970" points="186.3065,-48.2146 179.3961,-56.2455 189.8064,-54.2768 186.3065,-48.2146"/>
</g>
</g>
</svg>
