<?xml version="1.0" encoding="UTF-8" standalone="no"?>
<!DOCTYPE svg PUBLIC "-//W3C//DTD SVG 1.1//EN"
 "http://www.w3.org/Graphics/SVG/1.1/DTD/svg11.dtd">
<!-- Generated by graphviz version 2.43.0 (0)
 -->
<!-- Title: AudioEquationParser Pages: 1 -->
<svg width="224pt" height="82pt"
 viewBox="0.00 0.00 223.50 82.00" xmlns="http://www.w3.org/2000/svg" xmlns:xlink="http://www.w3.org/1999/xlink">
<g id="graph0" class="graph" transform="scale(1 1) rotate(0) translate(4 78)">
<title>AudioEquationParser</title>
<!-- Node1 -->
<g id="Node000001" class="node">
<title>Node1</title>
<g id="a_Node000001"><a xlink:title="Equation parser with audio&#45;specific functions for DSP processing.">
<polygon fill="#999999" stroke="#666666" points="161,-19 44,-19 44,0 161,0 161,-19"/>
<text text-anchor="middle" x="102.5" y="-7" font-family="Helvetica,sans-Serif" font-size="10.00">AudioEquationParser</text>
</a>
</g>
</g>
<!-- Node2 -->
<g id="Node000002" class="node">
<title>Node2</title>
<g id="a_Node000002"><a xlink:href="classEquationParser.html" target="_top" xlink:title="Mathematical equation parser and evaluator with variable and function support.">
<polygon fill="white" stroke="#666666" points="89,-74 0,-74 0,-55 89,-55 89,-74"/>
<text text-anchor="middle" x="44.5" y="-62" font-family="Helvetica,sans-Serif" font-size="10.00">EquationParser</text>
</a>
</g>
</g>
<!-- Node2&#45;&gt;Node1 -->
<g id="edge1_Node000001_Node000002" class="edge">
<title>Node2&#45;&gt;Node1</title>
<g id="a_edge1_Node000001_Node000002"><a xlink:title=" ">
<path fill="none" stroke="#63b8ff" d="M61.41,-48.04C71.7,-38.64 84.47,-26.98 93.01,-19.17"/>
<polygon fill="#63b8ff" stroke="#63b8ff" points="58.84,-45.66 53.82,-54.98 63.56,-50.82 58.84,-45.66"/>
</a>
</g>
</g>
<!-- Node3 -->
<g id="Node000003" class="node">
<title>Node3</title>
<g id="a_Node000003"><a xlink:href="classAudioFunctionHost.html" target="_top" xlink:title="State management for audio functions in AudioEquationParser.">
<polygon fill="white" stroke="#666666" points="215.5,-74 107.5,-74 107.5,-55 215.5,-55 215.5,-74"/>
<text text-anchor="middle" x="161.5" y="-62" font-family="Helvetica,sans-Serif" font-size="10.00">AudioFunctionHost</text>
</a>
</g>
</g>
<!-- Node3&#45;&gt;Node1 -->
<g id="edge2_Node000001_Node000003" class="edge">
<title>Node3&#45;&gt;Node1</title>
<g id="a_edge2_Node000001_Node000003"><a xlink:title=" ">
<path fill="none" stroke="#63b8ff" d="M144.3,-48.04C133.83,-38.64 120.85,-26.98 112.15,-19.17"/>
<polygon fill="#63b8ff" stroke="#63b8ff" points="142.24,-50.91 152.02,-54.98 146.92,-45.7 142.24,-50.91"/>
</a>
</g>
</g>
</g>
</svg>
