<?xml version="1.0" encoding="UTF-8" standalone="no"?>
<!DOCTYPE svg PUBLIC "-//W3C//DTD SVG 1.1//EN"
 "http://www.w3.org/Graphics/SVG/1.1/DTD/svg11.dtd">
<!-- Generated by graphviz version 2.43.0 (0)
 -->
<!-- Title: Parameter::ParameterListener Pages: 1 -->
<svg width="494pt" height="443pt"
 viewBox="0.00 0.00 494.00 443.00" xmlns="http://www.w3.org/2000/svg" xmlns:xlink="http://www.w3.org/1999/xlink">
<g id="graph0" class="graph" transform="scale(1 1) rotate(0) translate(4 439)">
<title>Parameter::ParameterListener</title>
<!-- Node1 -->
<g id="Node000001" class="node">
<title>Node1</title>
<g id="a_Node000001"><a xlink:title=" ">
<polygon fill="#999999" stroke="#666666" points="162,-111 0,-111 0,-92 162,-92 162,-111"/>
<text text-anchor="middle" x="81" y="-99" font-family="Helvetica,sans-Serif" font-size="10.00">Parameter::ParameterListener</text>
</a>
</g>
</g>
<!-- Node2 -->
<g id="Node000002" class="node">
<title>Node2</title>
<g id="a_Node000002"><a xlink:href="classMultiParamComponent.html" target="_top" xlink:title="A base component for controlling multiple parameters at once.">
<polygon fill="white" stroke="#666666" points="326,-269 198,-269 198,-250 326,-250 326,-269"/>
<text text-anchor="middle" x="262" y="-257" font-family="Helvetica,sans-Serif" font-size="10.00">MultiParamComponent</text>
</a>
</g>
</g>
<!-- Node1&#45;&gt;Node2 -->
<g id="edge1_Node000001_Node000002" class="edge">
<title>Node1&#45;&gt;Node2</title>
<g id="a_edge1_Node000001_Node000002"><a xlink:title=" ">
<path fill="none" stroke="#63b8ff" d="M100.55,-117.88C137.79,-150.75 220.61,-223.84 250.22,-249.98"/>
<polygon fill="#63b8ff" stroke="#63b8ff" points="102.74,-115.14 92.93,-111.15 98.11,-120.39 102.74,-115.14"/>
</a>
</g>
</g>
<!-- Node12 -->
<g id="Node000012" class="node">
<title>Node12</title>
<g id="a_Node000012"><a xlink:href="classPluginButton.html" target="_top" xlink:title="Button for toggling a parameter.">
<polygon fill="white" stroke="#666666" points="301.5,-167 222.5,-167 222.5,-148 301.5,-148 301.5,-167"/>
<text text-anchor="middle" x="262" y="-155" font-family="Helvetica,sans-Serif" font-size="10.00">PluginButton</text>
</a>
</g>
</g>
<!-- Node1&#45;&gt;Node12 -->
<g id="edge11_Node000001_Node000012" class="edge">
<title>Node1&#45;&gt;Node12</title>
<g id="a_edge11_Node000001_Node000012"><a xlink:title=" ">
<path fill="none" stroke="#8b1a1a" d="M119.61,-114.22C142.25,-121.78 171.7,-131.44 198,-139.5 207.24,-142.33 217.3,-145.27 226.6,-147.93"/>
<polygon fill="#8b1a1a" stroke="#8b1a1a" points="120.63,-110.87 110.03,-111.02 118.4,-117.51 120.63,-110.87"/>
</a>
</g>
</g>
<!-- Node14 -->
<g id="Node000014" class="node">
<title>Node14</title>
<g id="a_Node000014"><a xlink:href="classPluginComboBox.html" target="_top" xlink:title="A control for selecting param values from a dropbox.">
<polygon fill="white" stroke="#666666" points="312,-130 212,-130 212,-111 312,-111 312,-130"/>
<text text-anchor="middle" x="262" y="-118" font-family="Helvetica,sans-Serif" font-size="10.00">PluginComboBox</text>
</a>
</g>
</g>
<!-- Node1&#45;&gt;Node14 -->
<g id="edge13_Node000001_Node000014" class="edge">
<title>Node1&#45;&gt;Node14</title>
<g id="a_edge13_Node000001_Node000014"><a xlink:title=" ">
<path fill="none" stroke="#8b1a1a" d="M172.04,-111.06C185.74,-112.51 199.42,-113.96 211.8,-115.28"/>
<polygon fill="#8b1a1a" stroke="#8b1a1a" points="172.39,-107.57 162.08,-110 171.65,-114.54 172.39,-107.57"/>
</a>
</g>
</g>
<!-- Node15 -->
<g id="Node000015" class="node">
<title>Node15</title>
<g id="a_Node000015"><a xlink:href="classPluginSlider.html" target="_top" xlink:title="A slider for controlling a parameter.">
<polygon fill="white" stroke="#666666" points="299,-93 225,-93 225,-74 299,-74 299,-93"/>
<text text-anchor="middle" x="262" y="-81" font-family="Helvetica,sans-Serif" font-size="10.00">PluginSlider</text>
</a>
</g>
</g>
<!-- Node1&#45;&gt;Node15 -->
<g id="edge14_Node000001_Node000015" class="edge">
<title>Node1&#45;&gt;Node15</title>
<g id="a_edge14_Node000001_Node000015"><a xlink:title=" ">
<path fill="none" stroke="#8b1a1a" d="M172.15,-92.43C190.86,-90.55 209.54,-88.67 224.9,-87.13"/>
<polygon fill="#8b1a1a" stroke="#8b1a1a" points="171.68,-88.96 162.08,-93.45 172.38,-95.93 171.68,-88.96"/>
</a>
</g>
</g>
<!-- Node16 -->
<g id="Node000016" class="node">
<title>Node16</title>
<g id="a_Node000016"><a xlink:href="classReadout.html" target="_top" xlink:title="A control for displaying a parameter.">
<polygon fill="white" stroke="#666666" points="290.5,-56 233.5,-56 233.5,-37 290.5,-37 290.5,-56"/>
<text text-anchor="middle" x="262" y="-44" font-family="Helvetica,sans-Serif" font-size="10.00">Readout</text>
</a>
</g>
</g>
<!-- Node1&#45;&gt;Node16 -->
<g id="edge15_Node000001_Node000016" class="edge">
<title>Node1&#45;&gt;Node16</title>
<g id="a_edge15_Node000001_Node000016"><a xlink:title=" ">
<path fill="none" stroke="#8b1a1a" d="M120.55,-88.88C143.08,-81.59 172.09,-72.33 198,-64.5 209.54,-61.01 222.33,-57.33 233.35,-54.2"/>
<polygon fill="#8b1a1a" stroke="#8b1a1a" points="119.43,-85.56 111,-91.98 121.6,-92.22 119.43,-85.56"/>
</a>
</g>
</g>
<!-- Node17 -->
<g id="Node000017" class="node">
<title>Node17</title>
<g id="a_Node000017"><a xlink:href="classSVGPluginButton.html" target="_top" xlink:title="Button for toggling a parameter.">
<polygon fill="white" stroke="#666666" points="311.5,-19 212.5,-19 212.5,0 311.5,0 311.5,-19"/>
<text text-anchor="middle" x="262" y="-7" font-family="Helvetica,sans-Serif" font-size="10.00">SVGPluginButton</text>
</a>
</g>
</g>
<!-- Node1&#45;&gt;Node17 -->
<g id="edge16_Node000001_Node000017" class="edge">
<title>Node1&#45;&gt;Node17</title>
<g id="a_edge16_Node000001_Node000017"><a xlink:title=" ">
<path fill="none" stroke="#8b1a1a" d="M102.62,-85.72C125.03,-69.22 162.43,-43.52 198,-27.5 205.26,-24.23 213.26,-21.4 221.05,-19.02"/>
<polygon fill="#8b1a1a" stroke="#8b1a1a" points="100.44,-82.98 94.52,-91.77 104.63,-88.59 100.44,-82.98"/>
</a>
</g>
</g>
<!-- Node3 -->
<g id="Node000003" class="node">
<title>Node3</title>
<g id="a_Node000003"><a xlink:href="classADSRComponent.html" target="_top" xlink:title="Interactive visual editor for ADSR envelope parameters.">
<polygon fill="white" stroke="#666666" points="474,-435 374,-435 374,-416 474,-416 474,-435"/>
<text text-anchor="middle" x="424" y="-423" font-family="Helvetica,sans-Serif" font-size="10.00">ADSRComponent</text>
</a>
</g>
</g>
<!-- Node2&#45;&gt;Node3 -->
<g id="edge2_Node000002_Node000003" class="edge">
<title>Node2&#45;&gt;Node3</title>
<g id="a_edge2_Node000002_Node000003"><a xlink:title=" ">
<path fill="none" stroke="#63b8ff" d="M270.58,-278.56C284.11,-310.15 315.46,-373.28 362,-407.5 366.63,-410.9 371.89,-413.66 377.34,-415.91"/>
<polygon fill="#63b8ff" stroke="#63b8ff" points="273.74,-277.04 266.67,-269.14 267.27,-279.72 273.74,-277.04"/>
</a>
</g>
</g>
<!-- Node4 -->
<g id="Node000004" class="node">
<title>Node4</title>
<g id="a_Node000004"><a xlink:href="classControlBox.html" target="_top" xlink:title="Container for organizing plugin controls on a grid layout with page support.">
<polygon fill="white" stroke="#666666" points="459.5,-398 388.5,-398 388.5,-379 459.5,-379 459.5,-398"/>
<text text-anchor="middle" x="424" y="-386" font-family="Helvetica,sans-Serif" font-size="10.00">ControlBox</text>
</a>
</g>
</g>
<!-- Node2&#45;&gt;Node4 -->
<g id="edge3_Node000002_Node000004" class="edge">
<title>Node2&#45;&gt;Node4</title>
<g id="a_edge3_Node000002_Node000004"><a xlink:title=" ">
<path fill="none" stroke="#63b8ff" d="M274.34,-277.56C290.72,-302.17 323.32,-345.99 362,-370.5 369.93,-375.52 379.32,-379.19 388.32,-381.86"/>
<polygon fill="#63b8ff" stroke="#63b8ff" points="277.26,-275.62 268.88,-269.14 271.39,-279.44 277.26,-275.62"/>
</a>
</g>
</g>
<!-- Node5 -->
<g id="Node000005" class="node">
<title>Node5</title>
<g id="a_Node000005"><a xlink:href="classGateEffectComponent.html" target="_top" xlink:title="An editor for the gate effect pattern.">
<polygon fill="white" stroke="#666666" points="486,-361 362,-361 362,-342 486,-342 486,-361"/>
<text text-anchor="middle" x="424" y="-349" font-family="Helvetica,sans-Serif" font-size="10.00">GateEffectComponent</text>
</a>
</g>
</g>
<!-- Node2&#45;&gt;Node5 -->
<g id="edge4_Node000002_Node000005" class="edge">
<title>Node2&#45;&gt;Node5</title>
<g id="a_edge4_Node000002_Node000005"><a xlink:title=" ">
<path fill="none" stroke="#63b8ff" d="M280.66,-275.8C299.52,-292.42 330.91,-317.93 362,-333.5 368.61,-336.81 375.94,-339.63 383.16,-341.97"/>
<polygon fill="#63b8ff" stroke="#63b8ff" points="282.93,-273.14 273.15,-269.06 278.26,-278.35 282.93,-273.14"/>
</a>
</g>
</g>
<!-- Node6 -->
<g id="Node000006" class="node">
<title>Node6</title>
<g id="a_Node000006"><a xlink:href="classLFOComponent.html" target="_top" xlink:title="Visual display of LFO waveform with animated phase indicators.">
<polygon fill="white" stroke="#666666" points="470,-324 378,-324 378,-305 470,-305 470,-324"/>
<text text-anchor="middle" x="424" y="-312" font-family="Helvetica,sans-Serif" font-size="10.00">LFOComponent</text>
</a>
</g>
</g>
<!-- Node2&#45;&gt;Node6 -->
<g id="edge5_Node000002_Node000006" class="edge">
<title>Node2&#45;&gt;Node6</title>
<g id="a_edge5_Node000002_Node000006"><a xlink:title=" ">
<path fill="none" stroke="#63b8ff" d="M296.68,-272.76C315.73,-280.09 340.07,-289.18 362,-296.5 370.69,-299.4 380.16,-302.32 388.99,-304.93"/>
<polygon fill="#63b8ff" stroke="#63b8ff" points="297.83,-269.45 287.24,-269.11 295.3,-275.98 297.83,-269.45"/>
</a>
</g>
</g>
<!-- Node7 -->
<g id="Node000007" class="node">
<title>Node7</title>
<g id="a_Node000007"><a xlink:href="classMSEGComponent.html" target="_top" xlink:title="Draws an MSEG LFO curve and shows a little dot moving long.">
<polygon fill="white" stroke="#666666" points="474.5,-287 373.5,-287 373.5,-268 474.5,-268 474.5,-287"/>
<text text-anchor="middle" x="424" y="-275" font-family="Helvetica,sans-Serif" font-size="10.00">MSEGComponent</text>
</a>
</g>
</g>
<!-- Node2&#45;&gt;Node7 -->
<g id="edge6_Node000002_Node000007" class="edge">
<title>Node2&#45;&gt;Node7</title>
<g id="a_edge6_Node000002_Node000007"><a xlink:title=" ">
<path fill="none" stroke="#63b8ff" d="M336.54,-267.77C348.9,-269.16 361.46,-270.58 373.04,-271.88"/>
<polygon fill="#63b8ff" stroke="#63b8ff" points="336.56,-264.25 326.24,-266.61 335.78,-271.21 336.56,-264.25"/>
</a>
</g>
</g>
<!-- Node8 -->
<g id="Node000008" class="node">
<title>Node8</title>
<g id="a_Node000008"><a xlink:href="classPagedControlBox.html" target="_top" xlink:title="Advanced container with sliding page transitions for organizing controls.">
<polygon fill="white" stroke="#666666" points="474,-250 374,-250 374,-231 474,-231 474,-250"/>
<text text-anchor="middle" x="424" y="-238" font-family="Helvetica,sans-Serif" font-size="10.00">PagedControlBox</text>
</a>
</g>
</g>
<!-- Node2&#45;&gt;Node8 -->
<g id="edge7_Node000002_Node000008" class="edge">
<title>Node2&#45;&gt;Node8</title>
<g id="a_edge7_Node000002_Node000008"><a xlink:title=" ">
<path fill="none" stroke="#63b8ff" d="M336.28,-250.8C348.9,-249.3 361.74,-247.77 373.54,-246.37"/>
<polygon fill="#63b8ff" stroke="#63b8ff" points="335.75,-247.34 326.24,-251.99 336.58,-254.29 335.75,-247.34"/>
</a>
</g>
</g>
<!-- Node9 -->
<g id="Node000009" class="node">
<title>Node9</title>
<g id="a_Node000009"><a xlink:href="classParamArea.html" target="_top" xlink:title="A box for graphs without a header.">
<polygon fill="white" stroke="#666666" points="459,-213 389,-213 389,-194 459,-194 459,-213"/>
<text text-anchor="middle" x="424" y="-201" font-family="Helvetica,sans-Serif" font-size="10.00">ParamArea</text>
</a>
</g>
</g>
<!-- Node2&#45;&gt;Node9 -->
<g id="edge8_Node000002_Node000009" class="edge">
<title>Node2&#45;&gt;Node9</title>
<g id="a_edge8_Node000002_Node000009"><a xlink:title=" ">
<path fill="none" stroke="#63b8ff" d="M296.72,-246.36C315.79,-239.07 340.12,-229.99 362,-222.5 371.44,-219.27 381.79,-215.96 391.23,-213.03"/>
<polygon fill="#63b8ff" stroke="#63b8ff" points="295.35,-243.14 287.27,-250 297.86,-249.68 295.35,-243.14"/>
</a>
</g>
</g>
<!-- Node10 -->
<g id="Node000010" class="node">
<title>Node10</title>
<g id="a_Node000010"><a xlink:href="classParamBox.html" target="_top" xlink:title="A box for knobs with a header.">
<polygon fill="white" stroke="#666666" points="457,-176 391,-176 391,-157 457,-157 457,-176"/>
<text text-anchor="middle" x="424" y="-164" font-family="Helvetica,sans-Serif" font-size="10.00">ParamBox</text>
</a>
</g>
</g>
<!-- Node2&#45;&gt;Node10 -->
<g id="edge9_Node000002_Node000010" class="edge">
<title>Node2&#45;&gt;Node10</title>
<g id="a_edge9_Node000002_Node000010"><a xlink:title=" ">
<path fill="none" stroke="#63b8ff" d="M280.71,-243.29C299.61,-226.75 331.03,-201.31 362,-185.5 370.99,-180.91 381.3,-177.18 390.85,-174.29"/>
<polygon fill="#63b8ff" stroke="#63b8ff" points="278.32,-240.73 273.18,-250 282.98,-245.96 278.32,-240.73"/>
</a>
</g>
</g>
<!-- Node11 -->
<g id="Node000011" class="node">
<title>Node11</title>
<g id="a_Node000011"><a xlink:href="classStepLFOComponent.html" target="_top" xlink:title="Draws a step LFO curve and shows a little dot moving long.">
<polygon fill="white" stroke="#666666" points="480.5,-139 367.5,-139 367.5,-120 480.5,-120 480.5,-139"/>
<text text-anchor="middle" x="424" y="-127" font-family="Helvetica,sans-Serif" font-size="10.00">StepLFOComponent</text>
</a>
</g>
</g>
<!-- Node2&#45;&gt;Node11 -->
<g id="edge10_Node000002_Node000011" class="edge">
<title>Node2&#45;&gt;Node11</title>
<g id="a_edge10_Node000002_Node000011"><a xlink:title=" ">
<path fill="none" stroke="#63b8ff" d="M274.39,-241.53C290.83,-217.01 323.5,-173.3 362,-148.5 367.97,-144.66 374.76,-141.55 381.6,-139.04"/>
<polygon fill="#63b8ff" stroke="#63b8ff" points="271.46,-239.62 268.91,-249.9 277.31,-243.45 271.46,-239.62"/>
</a>
</g>
</g>
<!-- Node13 -->
<g id="Node000013" class="node">
<title>Node13</title>
<g id="a_Node000013"><a xlink:href="classPowerButton.html" target="_top" xlink:title="Button for toggling a parameter, drawn as a power button.">
<polygon fill="white" stroke="#666666" points="463.5,-102 384.5,-102 384.5,-83 463.5,-83 463.5,-102"/>
<text text-anchor="middle" x="424" y="-90" font-family="Helvetica,sans-Serif" font-size="10.00">PowerButton</text>
</a>
</g>
</g>
<!-- Node12&#45;&gt;Node13 -->
<g id="edge12_Node000012_Node000013" class="edge">
<title>Node12&#45;&gt;Node13</title>
<g id="a_edge12_Node000012_Node000013"><a xlink:title=" ">
<path fill="none" stroke="#63b8ff" d="M311.31,-145.78C316.38,-143.94 321.36,-141.85 326,-139.5 344.07,-130.33 344.03,-120.89 362,-111.5 369.08,-107.8 377,-104.68 384.73,-102.1"/>
<polygon fill="#63b8ff" stroke="#63b8ff" points="309.93,-142.55 301.54,-149.02 312.13,-149.19 309.93,-142.55"/>
</a>
</g>
</g>
</g>
</svg>
