<?xml version="1.0" encoding="UTF-8" standalone="no"?>
<!DOCTYPE svg PUBLIC "-//W3C//DTD SVG 1.1//EN"
 "http://www.w3.org/Graphics/SVG/1.1/DTD/svg11.dtd">
<!-- Generated by graphviz version 2.43.0 (0)
 -->
<!-- Title: FaderSlider Pages: 1 -->
<svg width="170pt" height="137pt"
 viewBox="0.00 0.00 170.00 137.00" xmlns="http://www.w3.org/2000/svg" xmlns:xlink="http://www.w3.org/1999/xlink">
<g id="graph0" class="graph" transform="scale(1 1) rotate(0) translate(4 133)">
<title>FaderSlider</title>
<!-- Node1 -->
<g id="Node000001" class="node">
<title>Node1</title>
<g id="a_Node000001"><a xlink:title="A vertical fader slider for controlling a parameter with custom drawing.">
<polygon fill="#999999" stroke="#666666" points="116.5,-19 45.5,-19 45.5,0 116.5,0 116.5,-19"/>
<text text-anchor="middle" x="81" y="-7" font-family="Helvetica,sans-Serif" font-size="10.00">FaderSlider</text>
</a>
</g>
</g>
<!-- Node2 -->
<g id="Node000002" class="node">
<title>Node2</title>
<g id="a_Node000002"><a xlink:href="classPluginSlider.html" target="_top" xlink:title="A slider for controlling a parameter.">
<polygon fill="white" stroke="#666666" points="118,-74 44,-74 44,-55 118,-55 118,-74"/>
<text text-anchor="middle" x="81" y="-62" font-family="Helvetica,sans-Serif" font-size="10.00">PluginSlider</text>
</a>
</g>
</g>
<!-- Node2&#45;&gt;Node1 -->
<g id="edge1_Node000001_Node000002" class="edge">
<title>Node2&#45;&gt;Node1</title>
<g id="a_edge1_Node000001_Node000002"><a xlink:title=" ">
<path fill="none" stroke="#63b8ff" d="M81,-44.66C81,-35.93 81,-25.99 81,-19.09"/>
<polygon fill="#63b8ff" stroke="#63b8ff" points="77.5,-44.75 81,-54.75 84.5,-44.75 77.5,-44.75"/>
</a>
</g>
</g>
<!-- Node3 -->
<g id="Node000003" class="node">
<title>Node3</title>
<g id="a_Node000003"><a xlink:href="classParameter_1_1ParameterListener.html" target="_top" xlink:title=" ">
<polygon fill="white" stroke="#666666" points="162,-129 0,-129 0,-110 162,-110 162,-129"/>
<text text-anchor="middle" x="81" y="-117" font-family="Helvetica,sans-Serif" font-size="10.00">Parameter::ParameterListener</text>
</a>
</g>
</g>
<!-- Node3&#45;&gt;Node2 -->
<g id="edge2_Node000002_Node000003" class="edge">
<title>Node3&#45;&gt;Node2</title>
<g id="a_edge2_Node000002_Node000003"><a xlink:title=" ">
<path fill="none" stroke="#8b1a1a" d="M81,-99.66C81,-90.93 81,-80.99 81,-74.09"/>
<polygon fill="#8b1a1a" stroke="#8b1a1a" points="77.5,-99.75 81,-109.75 84.5,-99.75 77.5,-99.75"/>
</a>
</g>
</g>
</g>
</svg>
