<?xml version="1.0" encoding="UTF-8" standalone="no"?>
<!DOCTYPE svg PUBLIC "-//W3C//DTD SVG 1.1//EN"
 "http://www.w3.org/Graphics/SVG/1.1/DTD/svg11.dtd">
<!-- Generated by graphviz version 2.43.0 (0)
 -->
<!-- Title: ParamComponent Pages: 1 -->
<svg width="353pt" height="82pt"
 viewBox="0.00 0.00 353.00 82.00" xmlns="http://www.w3.org/2000/svg" xmlns:xlink="http://www.w3.org/1999/xlink">
<g id="graph0" class="graph" transform="scale(1 1) rotate(0) translate(4 78)">
<title>ParamComponent</title>
<!-- Node1 -->
<g id="Node000001" class="node">
<title>Node1</title>
<g id="a_Node000001"><a xlink:title="Base class for a control showing a parameter with label.">
<polygon fill="#999999" stroke="#666666" points="244.5,-74 140.5,-74 140.5,-55 244.5,-55 244.5,-74"/>
<text text-anchor="middle" x="192.5" y="-62" font-family="Helvetica,sans-Serif" font-size="10.00">ParamComponent</text>
</a>
</g>
</g>
<!-- Node2 -->
<g id="Node000002" class="node">
<title>Node2</title>
<g id="a_Node000002"><a xlink:href="classFader.html" target="_top" xlink:title="Vertical fader with label for controlling a parameter.">
<polygon fill="white" stroke="#666666" points="43,-19 0,-19 0,0 43,0 43,-19"/>
<text text-anchor="middle" x="21.5" y="-7" font-family="Helvetica,sans-Serif" font-size="10.00">Fader</text>
</a>
</g>
</g>
<!-- Node1&#45;&gt;Node2 -->
<g id="edge1_Node000001_Node000002" class="edge">
<title>Node1&#45;&gt;Node2</title>
<g id="a_edge1_Node000001_Node000002"><a xlink:title=" ">
<path fill="none" stroke="#63b8ff" d="M155.37,-51.99C121.11,-41.37 71.42,-25.97 43.21,-17.23"/>
<polygon fill="#63b8ff" stroke="#63b8ff" points="154.44,-55.37 165.03,-54.98 156.51,-48.68 154.44,-55.37"/>
</a>
</g>
</g>
<!-- Node3 -->
<g id="Node000003" class="node">
<title>Node3</title>
<g id="a_Node000003"><a xlink:href="classHorizontalFader.html" target="_top" xlink:title="Horizontal slider wth text for controlling a param.">
<polygon fill="white" stroke="#666666" points="154,-19 61,-19 61,0 154,0 154,-19"/>
<text text-anchor="middle" x="107.5" y="-7" font-family="Helvetica,sans-Serif" font-size="10.00">HorizontalFader</text>
</a>
</g>
</g>
<!-- Node1&#45;&gt;Node3 -->
<g id="edge2_Node000001_Node000003" class="edge">
<title>Node1&#45;&gt;Node3</title>
<g id="a_edge2_Node000001_Node000003"><a xlink:title=" ">
<path fill="none" stroke="#63b8ff" d="M169.93,-49.42C154.5,-39.81 134.55,-27.37 121.41,-19.17"/>
<polygon fill="#63b8ff" stroke="#63b8ff" points="168.51,-52.66 178.84,-54.98 172.21,-46.72 168.51,-52.66"/>
</a>
</g>
</g>
<!-- Node4 -->
<g id="Node000004" class="node">
<title>Node4</title>
<g id="a_Node000004"><a xlink:href="classKnob.html" target="_top" xlink:title="Complete parameter control combining rotary slider, value readout, and modulation.">
<polygon fill="white" stroke="#666666" points="213,-19 172,-19 172,0 213,0 213,-19"/>
<text text-anchor="middle" x="192.5" y="-7" font-family="Helvetica,sans-Serif" font-size="10.00">Knob</text>
</a>
</g>
</g>
<!-- Node1&#45;&gt;Node4 -->
<g id="edge3_Node000001_Node000004" class="edge">
<title>Node1&#45;&gt;Node4</title>
<g id="a_edge3_Node000001_Node000004"><a xlink:title=" ">
<path fill="none" stroke="#63b8ff" d="M192.5,-44.66C192.5,-35.93 192.5,-25.99 192.5,-19.09"/>
<polygon fill="#63b8ff" stroke="#63b8ff" points="189,-44.75 192.5,-54.75 196,-44.75 189,-44.75"/>
</a>
</g>
</g>
<!-- Node5 -->
<g id="Node000005" class="node">
<title>Node5</title>
<g id="a_Node000005"><a xlink:href="classSelect.html" target="_top" xlink:title="Control for picking param value with label.">
<polygon fill="white" stroke="#666666" points="278,-19 231,-19 231,0 278,0 278,-19"/>
<text text-anchor="middle" x="254.5" y="-7" font-family="Helvetica,sans-Serif" font-size="10.00">Select</text>
</a>
</g>
</g>
<!-- Node1&#45;&gt;Node5 -->
<g id="edge4_Node000001_Node000005" class="edge">
<title>Node1&#45;&gt;Node5</title>
<g id="a_edge4_Node000001_Node000005"><a xlink:title=" ">
<path fill="none" stroke="#63b8ff" d="M210.25,-48.32C221.31,-38.87 235.13,-27.06 244.36,-19.17"/>
<polygon fill="#63b8ff" stroke="#63b8ff" points="207.79,-45.83 202.46,-54.98 212.34,-51.15 207.79,-45.83"/>
</a>
</g>
</g>
<!-- Node6 -->
<g id="Node000006" class="node">
<title>Node6</title>
<g id="a_Node000006"><a xlink:href="classSwitch.html" target="_top" xlink:title="Control for toggling param with label.">
<polygon fill="white" stroke="#666666" points="345,-19 296,-19 296,0 345,0 345,-19"/>
<text text-anchor="middle" x="320.5" y="-7" font-family="Helvetica,sans-Serif" font-size="10.00">Switch</text>
</a>
</g>
</g>
<!-- Node1&#45;&gt;Node6 -->
<g id="edge5_Node000001_Node000006" class="edge">
<title>Node1&#45;&gt;Node6</title>
<g id="a_edge5_Node000001_Node000006"><a xlink:title=" ">
<path fill="none" stroke="#63b8ff" d="M222.62,-51.03C246.29,-41.23 278.65,-27.83 299.56,-19.17"/>
<polygon fill="#63b8ff" stroke="#63b8ff" points="220.97,-47.93 213.07,-54.98 223.64,-54.39 220.97,-47.93"/>
</a>
</g>
</g>
</g>
</svg>
