<?xml version="1.0" encoding="UTF-8" standalone="no"?>
<!DOCTYPE svg PUBLIC "-//W3C//DTD SVG 1.1//EN"
 "http://www.w3.org/Graphics/SVG/1.1/DTD/svg11.dtd">
<!-- Generated by graphviz version 2.40.1 (20161225.0304)
 -->
<!-- Title: CopperLookAndFeelWrapper Pages: 1 -->
<svg width="161pt" height="196pt"
 viewBox="0.00 0.00 161.00 196.00" xmlns="http://www.w3.org/2000/svg" xmlns:xlink="http://www.w3.org/1999/xlink">
<g id="graph0" class="graph" transform="scale(1 1) rotate(0) translate(4 192)">
<title>CopperLookAndFeelWrapper</title>
<!-- Node0 -->
<g id="node1" class="node">
<title>Node0</title>
<polygon fill="#bfbfbf" stroke="#000000" points="0,-.5 0,-19.5 153,-19.5 153,-.5 0,-.5"/>
<text text-anchor="middle" x="76.5" y="-7.5" font-family="Helvetica,sans-Serif" font-size="10.00" fill="#000000">CopperLookAndFeelWrapper</text>
</g>
<!-- Node1 -->
<g id="node2" class="node">
<title>Node1</title>
<g id="a_node2"><a xlink:href="classCopperLookAndFeel.html" target="_top" xlink:title="Plugin specific addition to GinLookAndFeel Still black and white. ">
<polygon fill="none" stroke="#000000" points="20,-56.5 20,-75.5 133,-75.5 133,-56.5 20,-56.5"/>
<text text-anchor="middle" x="76.5" y="-63.5" font-family="Helvetica,sans-Serif" font-size="10.00" fill="#000000">CopperLookAndFeel</text>
</a>
</g>
</g>
<!-- Node1&#45;&gt;Node0 -->
<g id="edge1" class="edge">
<title>Node1&#45;&gt;Node0</title>
<path fill="none" stroke="#191970" d="M76.5,-46.1575C76.5,-37.155 76.5,-26.9199 76.5,-19.6427"/>
<polygon fill="#191970" stroke="#191970" points="73.0001,-46.2455 76.5,-56.2455 80.0001,-46.2456 73.0001,-46.2455"/>
</g>
<!-- Node2 -->
<g id="node3" class="node">
<title>Node2</title>
<g id="a_node3"><a xlink:href="classPluginLookAndFeel.html" target="_top" xlink:title="Plugin specific addition to GinLookAndFeel Still black and white. ">
<polygon fill="none" stroke="#000000" points="22.5,-112.5 22.5,-131.5 130.5,-131.5 130.5,-112.5 22.5,-112.5"/>
<text text-anchor="middle" x="76.5" y="-119.5" font-family="Helvetica,sans-Serif" font-size="10.00" fill="#000000">PluginLookAndFeel</text>
</a>
</g>
</g>
<!-- Node2&#45;&gt;Node1 -->
<g id="edge2" class="edge">
<title>Node2&#45;&gt;Node1</title>
<path fill="none" stroke="#191970" d="M76.5,-102.1575C76.5,-93.155 76.5,-82.9199 76.5,-75.6427"/>
<polygon fill="#191970" stroke="#191970" points="73.0001,-102.2455 76.5,-112.2455 80.0001,-102.2456 73.0001,-102.2455"/>
</g>
<!-- Node3 -->
<g id="node4" class="node">
<title>Node3</title>
<g id="a_node4"><a xlink:href="classGinLookAndFeel.html" target="_top" xlink:title="The GinLookAndFeel. ">
<polygon fill="none" stroke="#000000" points="29,-168.5 29,-187.5 124,-187.5 124,-168.5 29,-168.5"/>
<text text-anchor="middle" x="76.5" y="-175.5" font-family="Helvetica,sans-Serif" font-size="10.00" fill="#000000">GinLookAndFeel</text>
</a>
</g>
</g>
<!-- Node3&#45;&gt;Node2 -->
<g id="edge3" class="edge">
<title>Node3&#45;&gt;Node2</title>
<path fill="none" stroke="#191970" d="M76.5,-158.1575C76.5,-149.155 76.5,-138.9199 76.5,-131.6427"/>
<polygon fill="#191970" stroke="#191970" points="73.0001,-158.2455 76.5,-168.2455 80.0001,-158.2456 73.0001,-158.2455"/>
</g>
</g>
</svg>
