<?xml version="1.0" encoding="UTF-8" standalone="no"?>
<!DOCTYPE svg PUBLIC "-//W3C//DTD SVG 1.1//EN"
 "http://www.w3.org/Graphics/SVG/1.1/DTD/svg11.dtd">
<!-- Generated by graphviz version 2.40.1 (20161225.0304)
 -->
<!-- Title: Parameter::Listener Pages: 1 -->
<svg width="711pt" height="140pt"
 viewBox="0.00 0.00 711.00 140.00" xmlns="http://www.w3.org/2000/svg" xmlns:xlink="http://www.w3.org/1999/xlink">
<g id="graph0" class="graph" transform="scale(1 1) rotate(0) translate(4 136)">
<title>Parameter::Listener</title>
<!-- Node0 -->
<g id="node1" class="node">
<title>Node0</title>
<polygon fill="#bfbfbf" stroke="#000000" points="448.5,-112.5 448.5,-131.5 550.5,-131.5 550.5,-112.5 448.5,-112.5"/>
<text text-anchor="middle" x="499.5" y="-119.5" font-family="Helvetica,sans-Serif" font-size="10.00" fill="#000000">Parameter::Listener</text>
</g>
<!-- Node1 -->
<g id="node2" class="node">
<title>Node1</title>
<g id="a_node2"><a xlink:href="classMultiParamComponent.html" target="_top" xlink:title="MultiParamComponent">
<polygon fill="none" stroke="#000000" points="181.5,-56.5 181.5,-75.5 297.5,-75.5 297.5,-56.5 181.5,-56.5"/>
<text text-anchor="middle" x="239.5" y="-63.5" font-family="Helvetica,sans-Serif" font-size="10.00" fill="#000000">MultiParamComponent</text>
</a>
</g>
</g>
<!-- Node0&#45;&gt;Node1 -->
<g id="edge1" class="edge">
<title>Node0&#45;&gt;Node1</title>
<path fill="none" stroke="#191970" d="M445.2124,-110.3073C397.3029,-99.9883 328.3345,-85.1336 283.717,-75.5237"/>
<polygon fill="#191970" stroke="#191970" points="444.587,-113.7528 455.0998,-112.4369 446.061,-106.9097 444.587,-113.7528"/>
</g>
<!-- Node6 -->
<g id="node7" class="node">
<title>Node6</title>
<g id="a_node7"><a xlink:href="classPluginButton.html" target="_top" xlink:title="PluginButton">
<polygon fill="none" stroke="#000000" points="363.5,-56.5 363.5,-75.5 435.5,-75.5 435.5,-56.5 363.5,-56.5"/>
<text text-anchor="middle" x="399.5" y="-63.5" font-family="Helvetica,sans-Serif" font-size="10.00" fill="#000000">PluginButton</text>
</a>
</g>
</g>
<!-- Node0&#45;&gt;Node6 -->
<g id="edge6" class="edge">
<title>Node0&#45;&gt;Node6</title>
<path fill="none" stroke="#8b1a1a" d="M473.2902,-107.3225C455.4283,-97.3198 432.2845,-84.3593 416.7191,-75.6427"/>
<polygon fill="#8b1a1a" stroke="#8b1a1a" points="471.6461,-110.4132 482.0813,-112.2455 475.0664,-104.3057 471.6461,-110.4132"/>
</g>
<!-- Node8 -->
<g id="node9" class="node">
<title>Node8</title>
<g id="a_node9"><a xlink:href="classPluginComboBox.html" target="_top" xlink:title="PluginComboBox">
<polygon fill="none" stroke="#000000" points="453.5,-56.5 453.5,-75.5 545.5,-75.5 545.5,-56.5 453.5,-56.5"/>
<text text-anchor="middle" x="499.5" y="-63.5" font-family="Helvetica,sans-Serif" font-size="10.00" fill="#000000">PluginComboBox</text>
</a>
</g>
</g>
<!-- Node0&#45;&gt;Node8 -->
<g id="edge8" class="edge">
<title>Node0&#45;&gt;Node8</title>
<path fill="none" stroke="#8b1a1a" d="M499.5,-102.1575C499.5,-93.155 499.5,-82.9199 499.5,-75.6427"/>
<polygon fill="#8b1a1a" stroke="#8b1a1a" points="496.0001,-102.2455 499.5,-112.2455 503.0001,-102.2456 496.0001,-102.2455"/>
</g>
<!-- Node9 -->
<g id="node10" class="node">
<title>Node9</title>
<g id="a_node10"><a xlink:href="classPluginSlider.html" target="_top" xlink:title="PluginSlider">
<polygon fill="none" stroke="#000000" points="563.5,-56.5 563.5,-75.5 631.5,-75.5 631.5,-56.5 563.5,-56.5"/>
<text text-anchor="middle" x="597.5" y="-63.5" font-family="Helvetica,sans-Serif" font-size="10.00" fill="#000000">PluginSlider</text>
</a>
</g>
</g>
<!-- Node0&#45;&gt;Node9 -->
<g id="edge9" class="edge">
<title>Node0&#45;&gt;Node9</title>
<path fill="none" stroke="#8b1a1a" d="M525.6686,-107.0465C543.1058,-97.0824 565.5111,-84.2794 580.6253,-75.6427"/>
<polygon fill="#8b1a1a" stroke="#8b1a1a" points="523.5162,-104.2453 516.5703,-112.2455 526.9892,-110.323 523.5162,-104.2453"/>
</g>
<!-- Node10 -->
<g id="node11" class="node">
<title>Node10</title>
<g id="a_node11"><a xlink:href="classReadout.html" target="_top" xlink:title="Readout">
<polygon fill="none" stroke="#000000" points="650,-56.5 650,-75.5 703,-75.5 703,-56.5 650,-56.5"/>
<text text-anchor="middle" x="676.5" y="-63.5" font-family="Helvetica,sans-Serif" font-size="10.00" fill="#000000">Readout</text>
</a>
</g>
</g>
<!-- Node0&#45;&gt;Node10 -->
<g id="edge10" class="edge">
<title>Node0&#45;&gt;Node10</title>
<path fill="none" stroke="#8b1a1a" d="M539.4981,-109.3452C573.2653,-98.6618 620.6628,-83.666 649.934,-74.4051"/>
<polygon fill="#8b1a1a" stroke="#8b1a1a" points="538.4058,-106.0197 529.9274,-112.3733 540.5174,-112.6937 538.4058,-106.0197"/>
</g>
<!-- Node2 -->
<g id="node3" class="node">
<title>Node2</title>
<g id="a_node3"><a xlink:href="classADSRComponent.html" target="_top" xlink:title="ADSRComponent">
<polygon fill="none" stroke="#000000" points="0,-.5 0,-19.5 95,-19.5 95,-.5 0,-.5"/>
<text text-anchor="middle" x="47.5" y="-7.5" font-family="Helvetica,sans-Serif" font-size="10.00" fill="#000000">ADSRComponent</text>
</a>
</g>
</g>
<!-- Node1&#45;&gt;Node2 -->
<g id="edge2" class="edge">
<title>Node1&#45;&gt;Node2</title>
<path fill="none" stroke="#191970" d="M196.4923,-53.4561C161.2479,-43.1765 112.1264,-28.8494 80.0753,-19.5011"/>
<polygon fill="#191970" stroke="#191970" points="195.914,-56.9332 206.494,-56.3733 197.874,-50.2132 195.914,-56.9332"/>
</g>
<!-- Node3 -->
<g id="node4" class="node">
<title>Node3</title>
<g id="a_node4"><a xlink:href="classControlBox.html" target="_top" xlink:title="ControlBox">
<polygon fill="none" stroke="#000000" points="113,-.5 113,-19.5 178,-19.5 178,-.5 113,-.5"/>
<text text-anchor="middle" x="145.5" y="-7.5" font-family="Helvetica,sans-Serif" font-size="10.00" fill="#000000">ControlBox</text>
</a>
</g>
</g>
<!-- Node1&#45;&gt;Node3 -->
<g id="edge3" class="edge">
<title>Node1&#45;&gt;Node3</title>
<path fill="none" stroke="#191970" d="M214.3995,-51.0465C197.674,-41.0824 176.1832,-28.2794 161.6859,-19.6427"/>
<polygon fill="#191970" stroke="#191970" points="212.7441,-54.1343 223.1264,-56.2455 216.3268,-48.1206 212.7441,-54.1343"/>
</g>
<!-- Node4 -->
<g id="node5" class="node">
<title>Node4</title>
<g id="a_node5"><a xlink:href="classLFOComponent.html" target="_top" xlink:title="LFOComponent">
<polygon fill="none" stroke="#000000" points="196.5,-.5 196.5,-19.5 282.5,-19.5 282.5,-.5 196.5,-.5"/>
<text text-anchor="middle" x="239.5" y="-7.5" font-family="Helvetica,sans-Serif" font-size="10.00" fill="#000000">LFOComponent</text>
</a>
</g>
</g>
<!-- Node1&#45;&gt;Node4 -->
<g id="edge4" class="edge">
<title>Node1&#45;&gt;Node4</title>
<path fill="none" stroke="#191970" d="M239.5,-46.1575C239.5,-37.155 239.5,-26.9199 239.5,-19.6427"/>
<polygon fill="#191970" stroke="#191970" points="236.0001,-46.2455 239.5,-56.2455 243.0001,-46.2456 236.0001,-46.2455"/>
</g>
<!-- Node5 -->
<g id="node6" class="node">
<title>Node5</title>
<g id="a_node6"><a xlink:href="classPagedControlBox.html" target="_top" xlink:title="PagedControlBox">
<polygon fill="none" stroke="#000000" points="301,-.5 301,-19.5 394,-19.5 394,-.5 301,-.5"/>
<text text-anchor="middle" x="347.5" y="-7.5" font-family="Helvetica,sans-Serif" font-size="10.00" fill="#000000">PagedControlBox</text>
</a>
</g>
</g>
<!-- Node1&#45;&gt;Node5 -->
<g id="edge5" class="edge">
<title>Node1&#45;&gt;Node5</title>
<path fill="none" stroke="#191970" d="M267.2771,-51.5971C286.6382,-41.558 311.9385,-28.4393 328.9034,-19.6427"/>
<polygon fill="#191970" stroke="#191970" points="265.5786,-48.5352 258.3122,-56.2455 268.8008,-54.7495 265.5786,-48.5352"/>
</g>
<!-- Node7 -->
<g id="node8" class="node">
<title>Node7</title>
<g id="a_node8"><a xlink:href="classPowerButton.html" target="_top" xlink:title="PowerButton">
<polygon fill="none" stroke="#000000" points="412,-.5 412,-19.5 485,-19.5 485,-.5 412,-.5"/>
<text text-anchor="middle" x="448.5" y="-7.5" font-family="Helvetica,sans-Serif" font-size="10.00" fill="#000000">PowerButton</text>
</a>
</g>
</g>
<!-- Node6&#45;&gt;Node7 -->
<g id="edge7" class="edge">
<title>Node6&#45;&gt;Node7</title>
<path fill="none" stroke="#191970" d="M414.8122,-48.5004C423.1447,-38.9775 433.1353,-27.5596 440.0627,-19.6427"/>
<polygon fill="#191970" stroke="#191970" points="411.9862,-46.415 408.0351,-56.2455 417.2543,-51.0245 411.9862,-46.415"/>
</g>
</g>
</svg>
