<?xml version="1.0" encoding="UTF-8" standalone="no"?>
<!DOCTYPE svg PUBLIC "-//W3C//DTD SVG 1.1//EN"
 "http://www.w3.org/Graphics/SVG/1.1/DTD/svg11.dtd">
<!-- Generated by graphviz version 2.40.1 (20161225.0304)
 -->
<!-- Title: MultiParamComponent Pages: 1 -->
<svg width="412pt" height="218pt"
 viewBox="0.00 0.00 412.00 218.00" xmlns="http://www.w3.org/2000/svg" xmlns:xlink="http://www.w3.org/1999/xlink">
<g id="graph0" class="graph" transform="scale(1 1) rotate(0) translate(4 214)">
<title>MultiParamComponent</title>
<!-- Node0 -->
<g id="node1" class="node">
<title>Node0</title>
<polygon fill="#bfbfbf" stroke="#000000" points="138,-95.5 138,-114.5 254,-114.5 254,-95.5 138,-95.5"/>
<text text-anchor="middle" x="196" y="-102.5" font-family="Helvetica,sans-Serif" font-size="10.00" fill="#000000">MultiParamComponent</text>
</g>
<!-- Node2 -->
<g id="node3" class="node">
<title>Node2</title>
<g id="a_node3"><a xlink:href="classADSRComponent.html" target="_top" xlink:title="Component for adjuting ADSR curves. ">
<polygon fill="none" stroke="#000000" points="299.5,-190.5 299.5,-209.5 394.5,-209.5 394.5,-190.5 299.5,-190.5"/>
<text text-anchor="middle" x="347" y="-197.5" font-family="Helvetica,sans-Serif" font-size="10.00" fill="#000000">ADSRComponent</text>
</a>
</g>
</g>
<!-- Node0&#45;&gt;Node2 -->
<g id="edge2" class="edge">
<title>Node0&#45;&gt;Node2</title>
<path fill="none" stroke="#191970" d="M212.8839,-121.8341C230.7149,-138.8041 260.3073,-164.7468 290,-181 296.771,-184.7063 304.3903,-187.8575 311.8017,-190.4648"/>
<polygon fill="#191970" stroke="#191970" points="215.1772,-119.1826 205.5608,-114.7356 210.3051,-124.2088 215.1772,-119.1826"/>
</g>
<!-- Node3 -->
<g id="node4" class="node">
<title>Node3</title>
<g id="a_node4"><a xlink:href="classControlBox.html" target="_top" xlink:title="A box for holding controls on a grid. ">
<polygon fill="none" stroke="#000000" points="314.5,-152.5 314.5,-171.5 379.5,-171.5 379.5,-152.5 314.5,-152.5"/>
<text text-anchor="middle" x="347" y="-159.5" font-family="Helvetica,sans-Serif" font-size="10.00" fill="#000000">ControlBox</text>
</a>
</g>
</g>
<!-- Node0&#45;&gt;Node3 -->
<g id="edge3" class="edge">
<title>Node0&#45;&gt;Node3</title>
<path fill="none" stroke="#191970" d="M228.1222,-118.5643C246.1947,-126.0496 269.2346,-135.3503 290,-143 298.8093,-146.2452 308.4695,-149.557 317.2936,-152.4874"/>
<polygon fill="#191970" stroke="#191970" points="229.216,-115.2285 218.639,-114.6146 226.5246,-121.6904 229.216,-115.2285"/>
</g>
<!-- Node4 -->
<g id="node5" class="node">
<title>Node4</title>
<g id="a_node5"><a xlink:href="classGateEffectComponent.html" target="_top" xlink:title="An editor for the gate effect pattern. ">
<polygon fill="none" stroke="#000000" points="290,-114.5 290,-133.5 404,-133.5 404,-114.5 290,-114.5"/>
<text text-anchor="middle" x="347" y="-121.5" font-family="Helvetica,sans-Serif" font-size="10.00" fill="#000000">GateEffectComponent</text>
</a>
</g>
</g>
<!-- Node0&#45;&gt;Node4 -->
<g id="edge4" class="edge">
<title>Node0&#45;&gt;Node4</title>
<path fill="none" stroke="#191970" d="M264.5708,-113.6281C272.9955,-114.6882 281.5363,-115.7628 289.7687,-116.7987"/>
<polygon fill="#191970" stroke="#191970" points="264.7393,-110.1218 254.3805,-112.3459 263.8653,-117.067 264.7393,-110.1218"/>
</g>
<!-- Node5 -->
<g id="node6" class="node">
<title>Node5</title>
<g id="a_node6"><a xlink:href="classLFOComponent.html" target="_top" xlink:title="Draws an LFO curve and shows a little dot moving long. ">
<polygon fill="none" stroke="#000000" points="304,-76.5 304,-95.5 390,-95.5 390,-76.5 304,-76.5"/>
<text text-anchor="middle" x="347" y="-83.5" font-family="Helvetica,sans-Serif" font-size="10.00" fill="#000000">LFOComponent</text>
</a>
</g>
</g>
<!-- Node0&#45;&gt;Node5 -->
<g id="edge5" class="edge">
<title>Node0&#45;&gt;Node5</title>
<path fill="none" stroke="#191970" d="M264.5073,-96.3799C277.8616,-94.6995 291.5102,-92.9822 303.7626,-91.4405"/>
<polygon fill="#191970" stroke="#191970" points="263.8653,-92.933 254.3805,-97.6541 264.7393,-99.8782 263.8653,-92.933"/>
</g>
<!-- Node6 -->
<g id="node7" class="node">
<title>Node6</title>
<g id="a_node7"><a xlink:href="classPagedControlBox.html" target="_top" xlink:title="A control for holding pags of controls on a grid Pages slide over top of each other to make room...">
<polygon fill="none" stroke="#000000" points="300.5,-38.5 300.5,-57.5 393.5,-57.5 393.5,-38.5 300.5,-38.5"/>
<text text-anchor="middle" x="347" y="-45.5" font-family="Helvetica,sans-Serif" font-size="10.00" fill="#000000">PagedControlBox</text>
</a>
</g>
</g>
<!-- Node0&#45;&gt;Node6 -->
<g id="edge6" class="edge">
<title>Node0&#45;&gt;Node6</title>
<path fill="none" stroke="#191970" d="M228.1222,-91.4357C246.1947,-83.9504 269.2346,-74.6497 290,-67 298.8093,-63.7548 308.4695,-60.443 317.2936,-57.5126"/>
<polygon fill="#191970" stroke="#191970" points="226.5246,-88.3096 218.639,-95.3854 229.216,-94.7715 226.5246,-88.3096"/>
</g>
<!-- Node7 -->
<g id="node8" class="node">
<title>Node7</title>
<g id="a_node8"><a xlink:href="classStepLFOComponent.html" target="_top" xlink:title="Draws a step LFO curve and shows a little dot moving long. ">
<polygon fill="none" stroke="#000000" points="294,-.5 294,-19.5 400,-19.5 400,-.5 294,-.5"/>
<text text-anchor="middle" x="347" y="-7.5" font-family="Helvetica,sans-Serif" font-size="10.00" fill="#000000">StepLFOComponent</text>
</a>
</g>
</g>
<!-- Node0&#45;&gt;Node7 -->
<g id="edge7" class="edge">
<title>Node0&#45;&gt;Node7</title>
<path fill="none" stroke="#191970" d="M212.8839,-88.1659C230.7149,-71.1959 260.3073,-45.2532 290,-29 296.771,-25.2937 304.3903,-22.1425 311.8017,-19.5352"/>
<polygon fill="#191970" stroke="#191970" points="210.3051,-85.7912 205.5608,-95.2644 215.1772,-90.8174 210.3051,-85.7912"/>
</g>
<!-- Node1 -->
<g id="node2" class="node">
<title>Node1</title>
<g id="a_node2"><a xlink:href="classParameter_1_1Listener.html" target="_top" xlink:title="Parameter::Listener">
<polygon fill="none" stroke="#000000" points="0,-95.5 0,-114.5 102,-114.5 102,-95.5 0,-95.5"/>
<text text-anchor="middle" x="51" y="-102.5" font-family="Helvetica,sans-Serif" font-size="10.00" fill="#000000">Parameter::Listener</text>
</a>
</g>
</g>
<!-- Node1&#45;&gt;Node0 -->
<g id="edge1" class="edge">
<title>Node1&#45;&gt;Node0</title>
<path fill="none" stroke="#191970" d="M112.33,-105C120.8104,-105 129.4997,-105 137.9187,-105"/>
<polygon fill="#191970" stroke="#191970" points="112.1216,-101.5001 102.1216,-105 112.1215,-108.5001 112.1216,-101.5001"/>
</g>
</g>
</svg>
