<?xml version="1.0" encoding="UTF-8" standalone="no"?>
<!DOCTYPE svg PUBLIC "-//W3C//DTD SVG 1.1//EN"
 "http://www.w3.org/Graphics/SVG/1.1/DTD/svg11.dtd">
<!-- Generated by graphviz version 2.40.1 (20161225.0304)
 -->
<!-- Title: AudioEquationParser Pages: 1 -->
<svg width="210pt" height="84pt"
 viewBox="0.00 0.00 209.50 84.00" xmlns="http://www.w3.org/2000/svg" xmlns:xlink="http://www.w3.org/1999/xlink">
<g id="graph0" class="graph" transform="scale(1 1) rotate(0) translate(4 80)">
<title>AudioEquationParser</title>
<!-- Node0 -->
<g id="node1" class="node">
<title>Node0</title>
<polygon fill="#bfbfbf" stroke="#000000" points="42.5,-.5 42.5,-19.5 150.5,-19.5 150.5,-.5 42.5,-.5"/>
<text text-anchor="middle" x="96.5" y="-7.5" font-family="Helvetica,sans-Serif" font-size="10.00" fill="#000000">AudioEquationParser</text>
</g>
<!-- Node1 -->
<g id="node2" class="node">
<title>Node1</title>
<g id="a_node2"><a xlink:href="classEquationParser.html" target="_top" xlink:title="EquationParser">
<polygon fill="none" stroke="#000000" points="0,-56.5 0,-75.5 83,-75.5 83,-56.5 0,-56.5"/>
<text text-anchor="middle" x="41.5" y="-63.5" font-family="Helvetica,sans-Serif" font-size="10.00" fill="#000000">EquationParser</text>
</a>
</g>
</g>
<!-- Node1&#45;&gt;Node0 -->
<g id="edge1" class="edge">
<title>Node1&#45;&gt;Node0</title>
<path fill="none" stroke="#191970" d="M58.1226,-49.0751C67.5855,-39.4402 79.0969,-27.7196 87.0295,-19.6427"/>
<polygon fill="#191970" stroke="#191970" points="55.5903,-46.6585 51.0803,-56.2455 60.5845,-51.5635 55.5903,-46.6585"/>
</g>
<!-- Node2 -->
<g id="node3" class="node">
<title>Node2</title>
<g id="a_node3"><a xlink:href="classAudioFunctionHost.html" target="_top" xlink:title="State managment for audio functions. ">
<polygon fill="none" stroke="#000000" points="101.5,-56.5 101.5,-75.5 201.5,-75.5 201.5,-56.5 101.5,-56.5"/>
<text text-anchor="middle" x="151.5" y="-63.5" font-family="Helvetica,sans-Serif" font-size="10.00" fill="#000000">AudioFunctionHost</text>
</a>
</g>
</g>
<!-- Node2&#45;&gt;Node0 -->
<g id="edge2" class="edge">
<title>Node2&#45;&gt;Node0</title>
<path fill="none" stroke="#191970" d="M134.8774,-49.0751C125.4145,-39.4402 113.9031,-27.7196 105.9705,-19.6427"/>
<polygon fill="#191970" stroke="#191970" points="132.4155,-51.5635 141.9197,-56.2455 137.4097,-46.6585 132.4155,-51.5635"/>
</g>
</g>
</svg>
