<?xml version="1.0" encoding="UTF-8" standalone="no"?>
<!DOCTYPE svg PUBLIC "-//W3C//DTD SVG 1.1//EN"
 "http://www.w3.org/Graphics/SVG/1.1/DTD/svg11.dtd">
<!-- Generated by graphviz version 2.43.0 (0)
 -->
<!-- Title: MultiParamComponent Pages: 1 -->
<svg width="444pt" height="294pt"
 viewBox="0.00 0.00 444.00 294.00" xmlns="http://www.w3.org/2000/svg" xmlns:xlink="http://www.w3.org/1999/xlink">
<g id="graph0" class="graph" transform="scale(1 1) rotate(0) translate(4 290)">
<title>MultiParamComponent</title>
<!-- Node1 -->
<g id="node1" class="node">
<title>Node1</title>
<g id="a_node1"><a xlink:title="A base component for controlling multiple parameters at once.">
<polygon fill="#bfbfbf" stroke="black" points="148,-133.5 148,-152.5 276,-152.5 276,-133.5 148,-133.5"/>
<text text-anchor="middle" x="212" y="-140.5" font-family="Helvetica,sans-Serif" font-size="10.00">MultiParamComponent</text>
</a>
</g>
</g>
<!-- Node3 -->
<g id="node3" class="node">
<title>Node3</title>
<g id="a_node3"><a xlink:href="classADSRComponent.html" target="_top" xlink:title="Component for adjuting ADSR curves.">
<polygon fill="none" stroke="black" points="324,-266.5 324,-285.5 424,-285.5 424,-266.5 324,-266.5"/>
<text text-anchor="middle" x="374" y="-273.5" font-family="Helvetica,sans-Serif" font-size="10.00">ADSRComponent</text>
</a>
</g>
</g>
<!-- Node1&#45;&gt;Node3 -->
<g id="edge2" class="edge">
<title>Node1&#45;&gt;Node3</title>
<path fill="none" stroke="midnightblue" d="M224.03,-161.09C240.25,-186.21 272.89,-231.44 312,-257 317.85,-260.82 324.51,-263.91 331.24,-266.4"/>
<polygon fill="midnightblue" stroke="midnightblue" points="226.93,-159.13 218.64,-152.53 221.01,-162.86 226.93,-159.13"/>
</g>
<!-- Node4 -->
<g id="node4" class="node">
<title>Node4</title>
<g id="a_node4"><a xlink:href="classControlBox.html" target="_top" xlink:title="A box for holding controls on a grid.">
<polygon fill="none" stroke="black" points="338.5,-228.5 338.5,-247.5 409.5,-247.5 409.5,-228.5 338.5,-228.5"/>
<text text-anchor="middle" x="374" y="-235.5" font-family="Helvetica,sans-Serif" font-size="10.00">ControlBox</text>
</a>
</g>
</g>
<!-- Node1&#45;&gt;Node4 -->
<g id="edge3" class="edge">
<title>Node1&#45;&gt;Node4</title>
<path fill="none" stroke="midnightblue" d="M230.33,-159.4C249.12,-176.41 280.67,-202.75 312,-219 320.17,-223.24 329.46,-226.72 338.28,-229.5"/>
<polygon fill="midnightblue" stroke="midnightblue" points="232.59,-156.72 222.86,-152.52 227.84,-161.87 232.59,-156.72"/>
</g>
<!-- Node5 -->
<g id="node5" class="node">
<title>Node5</title>
<g id="a_node5"><a xlink:href="classGateEffectComponent.html" target="_top" xlink:title="An editor for the gate effect pattern.">
<polygon fill="none" stroke="black" points="312,-190.5 312,-209.5 436,-209.5 436,-190.5 312,-190.5"/>
<text text-anchor="middle" x="374" y="-197.5" font-family="Helvetica,sans-Serif" font-size="10.00">GateEffectComponent</text>
</a>
</g>
</g>
<!-- Node1&#45;&gt;Node5 -->
<g id="edge4" class="edge">
<title>Node1&#45;&gt;Node5</title>
<path fill="none" stroke="midnightblue" d="M246.31,-156.4C265.42,-163.94 289.93,-173.34 312,-181 321.33,-184.24 331.54,-187.52 340.9,-190.43"/>
<polygon fill="midnightblue" stroke="midnightblue" points="247.43,-153.08 236.85,-152.65 244.85,-159.59 247.43,-153.08"/>
</g>
<!-- Node6 -->
<g id="node6" class="node">
<title>Node6</title>
<g id="a_node6"><a xlink:href="classLFOComponent.html" target="_top" xlink:title="Draws an LFO curve and shows a little dot moving long.">
<polygon fill="none" stroke="black" points="328,-152.5 328,-171.5 420,-171.5 420,-152.5 328,-152.5"/>
<text text-anchor="middle" x="374" y="-159.5" font-family="Helvetica,sans-Serif" font-size="10.00">LFOComponent</text>
</a>
</g>
</g>
<!-- Node1&#45;&gt;Node6 -->
<g id="edge5" class="edge">
<title>Node1&#45;&gt;Node6</title>
<path fill="none" stroke="midnightblue" d="M286.47,-151.72C300.63,-153.41 315.06,-155.12 327.97,-156.65"/>
<polygon fill="midnightblue" stroke="midnightblue" points="286.58,-148.21 276.24,-150.51 285.75,-155.16 286.58,-148.21"/>
</g>
<!-- Node7 -->
<g id="node7" class="node">
<title>Node7</title>
<g id="a_node7"><a xlink:href="classPagedControlBox.html" target="_top" xlink:title="A control for holding pags of controls on a grid Pages slide over top of each other to make room.">
<polygon fill="none" stroke="black" points="324,-114.5 324,-133.5 424,-133.5 424,-114.5 324,-114.5"/>
<text text-anchor="middle" x="374" y="-121.5" font-family="Helvetica,sans-Serif" font-size="10.00">PagedControlBox</text>
</a>
</g>
</g>
<!-- Node1&#45;&gt;Node7 -->
<g id="edge6" class="edge">
<title>Node1&#45;&gt;Node7</title>
<path fill="none" stroke="midnightblue" d="M286.28,-134.3C298.9,-132.8 311.74,-131.27 323.54,-129.87"/>
<polygon fill="midnightblue" stroke="midnightblue" points="285.75,-130.84 276.24,-135.49 286.58,-137.79 285.75,-130.84"/>
</g>
<!-- Node8 -->
<g id="node8" class="node">
<title>Node8</title>
<g id="a_node8"><a xlink:href="classParamArea.html" target="_top" xlink:title="A box for graphs without a header.">
<polygon fill="none" stroke="black" points="339,-76.5 339,-95.5 409,-95.5 409,-76.5 339,-76.5"/>
<text text-anchor="middle" x="374" y="-83.5" font-family="Helvetica,sans-Serif" font-size="10.00">ParamArea</text>
</a>
</g>
</g>
<!-- Node1&#45;&gt;Node8 -->
<g id="edge7" class="edge">
<title>Node1&#45;&gt;Node8</title>
<path fill="none" stroke="midnightblue" d="M246.31,-129.6C265.42,-122.06 289.93,-112.66 312,-105 321.33,-101.76 331.54,-98.48 340.9,-95.57"/>
<polygon fill="midnightblue" stroke="midnightblue" points="244.85,-126.41 236.85,-133.35 247.43,-132.92 244.85,-126.41"/>
</g>
<!-- Node9 -->
<g id="node9" class="node">
<title>Node9</title>
<g id="a_node9"><a xlink:href="classParamBox.html" target="_top" xlink:title="A box for knobs with a header.">
<polygon fill="none" stroke="black" points="341,-38.5 341,-57.5 407,-57.5 407,-38.5 341,-38.5"/>
<text text-anchor="middle" x="374" y="-45.5" font-family="Helvetica,sans-Serif" font-size="10.00">ParamBox</text>
</a>
</g>
</g>
<!-- Node1&#45;&gt;Node9 -->
<g id="edge8" class="edge">
<title>Node1&#45;&gt;Node9</title>
<path fill="none" stroke="midnightblue" d="M230.33,-126.6C249.12,-109.59 280.67,-83.25 312,-67 320.96,-62.35 331.26,-58.61 340.81,-55.71"/>
<polygon fill="midnightblue" stroke="midnightblue" points="227.84,-124.13 222.86,-133.48 232.59,-129.28 227.84,-124.13"/>
</g>
<!-- Node10 -->
<g id="node10" class="node">
<title>Node10</title>
<g id="a_node10"><a xlink:href="classStepLFOComponent.html" target="_top" xlink:title="Draws a step LFO curve and shows a little dot moving long.">
<polygon fill="none" stroke="black" points="317.5,-0.5 317.5,-19.5 430.5,-19.5 430.5,-0.5 317.5,-0.5"/>
<text text-anchor="middle" x="374" y="-7.5" font-family="Helvetica,sans-Serif" font-size="10.00">StepLFOComponent</text>
</a>
</g>
</g>
<!-- Node1&#45;&gt;Node10 -->
<g id="edge9" class="edge">
<title>Node1&#45;&gt;Node10</title>
<path fill="none" stroke="midnightblue" d="M224.03,-124.91C240.25,-99.79 272.89,-54.56 312,-29 317.85,-25.18 324.51,-22.09 331.24,-19.6"/>
<polygon fill="midnightblue" stroke="midnightblue" points="221.01,-123.14 218.64,-133.47 226.93,-126.87 221.01,-123.14"/>
</g>
<!-- Node2 -->
<g id="node2" class="node">
<title>Node2</title>
<g id="a_node2"><a xlink:href="classParameter_1_1Listener.html" target="_top" xlink:title=" ">
<polygon fill="none" stroke="black" points="0,-133.5 0,-152.5 112,-152.5 112,-133.5 0,-133.5"/>
<text text-anchor="middle" x="56" y="-140.5" font-family="Helvetica,sans-Serif" font-size="10.00">Parameter::Listener</text>
</a>
</g>
</g>
<!-- Node2&#45;&gt;Node1 -->
<g id="edge1" class="edge">
<title>Node2&#45;&gt;Node1</title>
<path fill="none" stroke="midnightblue" d="M122.34,-143C130.79,-143 139.43,-143 147.84,-143"/>
<polygon fill="midnightblue" stroke="midnightblue" points="122.16,-139.5 112.16,-143 122.16,-146.5 122.16,-139.5"/>
</g>
</g>
</svg>
