<?xml version="1.0" encoding="UTF-8" standalone="no"?>
<!DOCTYPE svg PUBLIC "-//W3C//DTD SVG 1.1//EN"
 "http://www.w3.org/Graphics/SVG/1.1/DTD/svg11.dtd">
<!-- Generated by graphviz version 2.43.0 (0)
 -->
<!-- Title: GinLookAndFeel Pages: 1 -->
<svg width="311pt" height="196pt"
 viewBox="0.00 0.00 310.50 196.00" xmlns="http://www.w3.org/2000/svg" xmlns:xlink="http://www.w3.org/1999/xlink">
<g id="graph0" class="graph" transform="scale(1 1) rotate(0) translate(4 192)">
<title>GinLookAndFeel</title>
<!-- Node1 -->
<g id="node1" class="node">
<title>Node1</title>
<g id="a_node1"><a xlink:title="The GinLookAndFeel.">
<polygon fill="#bfbfbf" stroke="black" points="105,-168.5 105,-187.5 200,-187.5 200,-168.5 105,-168.5"/>
<text text-anchor="middle" x="152.5" y="-175.5" font-family="Helvetica,sans-Serif" font-size="10.00">GinLookAndFeel</text>
</a>
</g>
</g>
<!-- Node2 -->
<g id="node2" class="node">
<title>Node2</title>
<g id="a_node2"><a xlink:href="classPluginLookAndFeel.html" target="_top" xlink:title="Plugin specific addition to GinLookAndFeel Still black and white.">
<polygon fill="none" stroke="black" points="98,-112.5 98,-131.5 207,-131.5 207,-112.5 98,-112.5"/>
<text text-anchor="middle" x="152.5" y="-119.5" font-family="Helvetica,sans-Serif" font-size="10.00">PluginLookAndFeel</text>
</a>
</g>
</g>
<!-- Node1&#45;&gt;Node2 -->
<g id="edge1" class="edge">
<title>Node1&#45;&gt;Node2</title>
<path fill="none" stroke="midnightblue" d="M152.5,-157.8C152.5,-148.91 152.5,-138.78 152.5,-131.75"/>
<polygon fill="midnightblue" stroke="midnightblue" points="149,-158.08 152.5,-168.08 156,-158.08 149,-158.08"/>
</g>
<!-- Node3 -->
<g id="node3" class="node">
<title>Node3</title>
<g id="a_node3"><a xlink:href="classCopperLookAndFeel.html" target="_top" xlink:title="Plugin specific addition to GinLookAndFeel Still black and white.">
<polygon fill="none" stroke="black" points="21,-56.5 21,-75.5 134,-75.5 134,-56.5 21,-56.5"/>
<text text-anchor="middle" x="77.5" y="-63.5" font-family="Helvetica,sans-Serif" font-size="10.00">CopperLookAndFeel</text>
</a>
</g>
</g>
<!-- Node2&#45;&gt;Node3 -->
<g id="edge2" class="edge">
<title>Node2&#45;&gt;Node3</title>
<path fill="none" stroke="midnightblue" d="M132.19,-106.38C118.64,-96.62 101.26,-84.11 89.77,-75.83"/>
<polygon fill="midnightblue" stroke="midnightblue" points="130.29,-109.32 140.45,-112.32 134.38,-103.64 130.29,-109.32"/>
</g>
<!-- Node5 -->
<g id="node5" class="node">
<title>Node5</title>
<g id="a_node5"><a xlink:href="classPluginLookAndFeelWrapper.html" target="_top" xlink:title="Auto sets and clears PluginLookAndFeel as default.">
<polygon fill="none" stroke="black" points="152.5,-56.5 152.5,-75.5 302.5,-75.5 302.5,-56.5 152.5,-56.5"/>
<text text-anchor="middle" x="227.5" y="-63.5" font-family="Helvetica,sans-Serif" font-size="10.00">PluginLookAndFeelWrapper</text>
</a>
</g>
</g>
<!-- Node2&#45;&gt;Node5 -->
<g id="edge4" class="edge">
<title>Node2&#45;&gt;Node5</title>
<path fill="none" stroke="midnightblue" d="M172.81,-106.38C186.36,-96.62 203.74,-84.11 215.23,-75.83"/>
<polygon fill="midnightblue" stroke="midnightblue" points="170.62,-103.64 164.55,-112.32 174.71,-109.32 170.62,-103.64"/>
</g>
<!-- Node4 -->
<g id="node4" class="node">
<title>Node4</title>
<g id="a_node4"><a xlink:href="classCopperLookAndFeelWrapper.html" target="_top" xlink:title="Auto sets and clears CopperLookAndFeel as default.">
<polygon fill="none" stroke="black" points="0,-0.5 0,-19.5 155,-19.5 155,-0.5 0,-0.5"/>
<text text-anchor="middle" x="77.5" y="-7.5" font-family="Helvetica,sans-Serif" font-size="10.00">CopperLookAndFeelWrapper</text>
</a>
</g>
</g>
<!-- Node3&#45;&gt;Node4 -->
<g id="edge3" class="edge">
<title>Node3&#45;&gt;Node4</title>
<path fill="none" stroke="midnightblue" d="M77.5,-45.8C77.5,-36.91 77.5,-26.78 77.5,-19.75"/>
<polygon fill="midnightblue" stroke="midnightblue" points="74,-46.08 77.5,-56.08 81,-46.08 74,-46.08"/>
</g>
</g>
</svg>
