<?xml version="1.0" encoding="UTF-8" standalone="no"?>
<!DOCTYPE svg PUBLIC "-//W3C//DTD SVG 1.1//EN"
 "http://www.w3.org/Graphics/SVG/1.1/DTD/svg11.dtd">
<!-- Generated by graphviz version 2.40.1 (20161225.0304)
 -->
<!-- Title: Parameter::Listener Pages: 1 -->
<svg width="412pt" height="389pt"
 viewBox="0.00 0.00 412.00 389.00" xmlns="http://www.w3.org/2000/svg" xmlns:xlink="http://www.w3.org/1999/xlink">
<g id="graph0" class="graph" transform="scale(1 1) rotate(0) translate(4 385)">
<title>Parameter::Listener</title>
<!-- Node0 -->
<g id="node1" class="node">
<title>Node0</title>
<polygon fill="#bfbfbf" stroke="#000000" points="0,-76.5 0,-95.5 102,-95.5 102,-76.5 0,-76.5"/>
<text text-anchor="middle" x="51" y="-83.5" font-family="Helvetica,sans-Serif" font-size="10.00" fill="#000000">Parameter::Listener</text>
</g>
<!-- Node1 -->
<g id="node2" class="node">
<title>Node1</title>
<g id="a_node2"><a xlink:href="classMultiParamComponent.html" target="_top" xlink:title="A base component for controlling multiple parameters at once. ">
<polygon fill="none" stroke="#000000" points="138,-209.5 138,-228.5 254,-228.5 254,-209.5 138,-209.5"/>
<text text-anchor="middle" x="196" y="-216.5" font-family="Helvetica,sans-Serif" font-size="10.00" fill="#000000">MultiParamComponent</text>
</a>
</g>
</g>
<!-- Node0&#45;&gt;Node1 -->
<g id="edge1" class="edge">
<title>Node0&#45;&gt;Node1</title>
<path fill="none" stroke="#191970" d="M68.8132,-102.339C99.2902,-130.2938 160.5406,-186.4752 185.2752,-209.1628"/>
<polygon fill="#191970" stroke="#191970" points="71.1634,-99.7453 61.428,-95.565 66.4316,-104.9039 71.1634,-99.7453"/>
</g>
<!-- Node10 -->
<g id="node11" class="node">
<title>Node10</title>
<g id="a_node11"><a xlink:href="classPluginButton.html" target="_top" xlink:title="Button for toggling a parameter. ">
<polygon fill="none" stroke="#000000" points="160,-114.5 160,-133.5 232,-133.5 232,-114.5 160,-114.5"/>
<text text-anchor="middle" x="196" y="-121.5" font-family="Helvetica,sans-Serif" font-size="10.00" fill="#000000">PluginButton</text>
</a>
</g>
</g>
<!-- Node0&#45;&gt;Node10 -->
<g id="edge10" class="edge">
<title>Node0&#45;&gt;Node10</title>
<path fill="none" stroke="#8b1a1a" d="M97.5316,-98.1945C117.743,-103.4913 141.0568,-109.6011 159.9244,-114.5457"/>
<polygon fill="#8b1a1a" stroke="#8b1a1a" points="98.1503,-94.7385 87.5896,-95.589 96.3757,-101.5098 98.1503,-94.7385"/>
</g>
<!-- Node12 -->
<g id="node13" class="node">
<title>Node12</title>
<g id="a_node13"><a xlink:href="classPluginComboBox.html" target="_top" xlink:title="A control for selecting param values from a dropbox. ">
<polygon fill="none" stroke="#000000" points="150,-76.5 150,-95.5 242,-95.5 242,-76.5 150,-76.5"/>
<text text-anchor="middle" x="196" y="-83.5" font-family="Helvetica,sans-Serif" font-size="10.00" fill="#000000">PluginComboBox</text>
</a>
</g>
</g>
<!-- Node0&#45;&gt;Node12 -->
<g id="edge12" class="edge">
<title>Node0&#45;&gt;Node12</title>
<path fill="none" stroke="#8b1a1a" d="M112.46,-86C124.9323,-86 137.8511,-86 149.6928,-86"/>
<polygon fill="#8b1a1a" stroke="#8b1a1a" points="112.1216,-82.5001 102.1216,-86 112.1215,-89.5001 112.1216,-82.5001"/>
</g>
<!-- Node13 -->
<g id="node14" class="node">
<title>Node13</title>
<g id="a_node14"><a xlink:href="classPluginSlider.html" target="_top" xlink:title="A slider for controlling a parameter. ">
<polygon fill="none" stroke="#000000" points="162,-38.5 162,-57.5 230,-57.5 230,-38.5 162,-38.5"/>
<text text-anchor="middle" x="196" y="-45.5" font-family="Helvetica,sans-Serif" font-size="10.00" fill="#000000">PluginSlider</text>
</a>
</g>
</g>
<!-- Node0&#45;&gt;Node13 -->
<g id="edge13" class="edge">
<title>Node0&#45;&gt;Node13</title>
<path fill="none" stroke="#8b1a1a" d="M97.2717,-73.8736C118.2579,-68.3738 142.6329,-61.9859 161.9123,-56.9333"/>
<polygon fill="#8b1a1a" stroke="#8b1a1a" points="96.3757,-70.4902 87.5896,-76.411 98.1503,-77.2615 96.3757,-70.4902"/>
</g>
<!-- Node14 -->
<g id="node15" class="node">
<title>Node14</title>
<g id="a_node15"><a xlink:href="classReadout.html" target="_top" xlink:title="A control for displaying a parameter. ">
<polygon fill="none" stroke="#000000" points="169.5,-.5 169.5,-19.5 222.5,-19.5 222.5,-.5 169.5,-.5"/>
<text text-anchor="middle" x="196" y="-7.5" font-family="Helvetica,sans-Serif" font-size="10.00" fill="#000000">Readout</text>
</a>
</g>
</g>
<!-- Node0&#45;&gt;Node14 -->
<g id="edge14" class="edge">
<title>Node0&#45;&gt;Node14</title>
<path fill="none" stroke="#8b1a1a" d="M71.4689,-70.3534C88.5424,-57.8643 113.888,-40.5965 138,-29 147.931,-24.2238 159.3653,-20.1925 169.4425,-17.0891"/>
<polygon fill="#8b1a1a" stroke="#8b1a1a" points="69.2816,-67.6182 63.3449,-76.3935 73.4582,-73.2357 69.2816,-67.6182"/>
</g>
<!-- Node2 -->
<g id="node3" class="node">
<title>Node2</title>
<g id="a_node3"><a xlink:href="classADSRComponent.html" target="_top" xlink:title="Component for adjuting ADSR curves. ">
<polygon fill="none" stroke="#000000" points="299.5,-361.5 299.5,-380.5 394.5,-380.5 394.5,-361.5 299.5,-361.5"/>
<text text-anchor="middle" x="347" y="-368.5" font-family="Helvetica,sans-Serif" font-size="10.00" fill="#000000">ADSRComponent</text>
</a>
</g>
</g>
<!-- Node1&#45;&gt;Node2 -->
<g id="edge2" class="edge">
<title>Node1&#45;&gt;Node2</title>
<path fill="none" stroke="#191970" d="M204.5327,-237.951C218.4114,-266.6977 248.5507,-321.2263 290,-352 295.1926,-355.8552 301.2134,-358.9575 307.3566,-361.4454"/>
<polygon fill="#191970" stroke="#191970" points="207.5737,-236.1916 200.1644,-228.6184 201.2338,-239.1591 207.5737,-236.1916"/>
</g>
<!-- Node3 -->
<g id="node4" class="node">
<title>Node3</title>
<g id="a_node4"><a xlink:href="classControlBox.html" target="_top" xlink:title="A box for holding controls on a grid. ">
<polygon fill="none" stroke="#000000" points="314.5,-323.5 314.5,-342.5 379.5,-342.5 379.5,-323.5 314.5,-323.5"/>
<text text-anchor="middle" x="347" y="-330.5" font-family="Helvetica,sans-Serif" font-size="10.00" fill="#000000">ControlBox</text>
</a>
</g>
</g>
<!-- Node1&#45;&gt;Node3 -->
<g id="edge3" class="edge">
<title>Node1&#45;&gt;Node3</title>
<path fill="none" stroke="#191970" d="M209.1728,-236.6761C225.8176,-257.8568 256.3789,-293.0979 290,-314 297.4413,-318.6262 306.1362,-322.2622 314.4609,-325.0596"/>
<polygon fill="#191970" stroke="#191970" points="211.7912,-234.3393 202.923,-228.5422 206.2405,-238.6043 211.7912,-234.3393"/>
</g>
<!-- Node4 -->
<g id="node5" class="node">
<title>Node4</title>
<g id="a_node5"><a xlink:href="classGateEffectComponent.html" target="_top" xlink:title="An editor for the gate effect pattern. ">
<polygon fill="none" stroke="#000000" points="290,-285.5 290,-304.5 404,-304.5 404,-285.5 290,-285.5"/>
<text text-anchor="middle" x="347" y="-292.5" font-family="Helvetica,sans-Serif" font-size="10.00" fill="#000000">GateEffectComponent</text>
</a>
</g>
</g>
<!-- Node1&#45;&gt;Node4 -->
<g id="edge4" class="edge">
<title>Node1&#45;&gt;Node4</title>
<path fill="none" stroke="#191970" d="M217.8134,-234.1573C236.386,-246.5832 264.1003,-264.0143 290,-276 297.6679,-279.5485 306.1899,-282.7536 314.2579,-285.4774"/>
<polygon fill="#191970" stroke="#191970" points="219.7192,-231.2209 209.4783,-228.5052 215.7905,-237.0145 219.7192,-231.2209"/>
</g>
<!-- Node5 -->
<g id="node6" class="node">
<title>Node5</title>
<g id="a_node6"><a xlink:href="classLFOComponent.html" target="_top" xlink:title="Draws an LFO curve and shows a little dot moving long. ">
<polygon fill="none" stroke="#000000" points="304,-247.5 304,-266.5 390,-266.5 390,-247.5 304,-247.5"/>
<text text-anchor="middle" x="347" y="-254.5" font-family="Helvetica,sans-Serif" font-size="10.00" fill="#000000">LFOComponent</text>
</a>
</g>
</g>
<!-- Node1&#45;&gt;Node5 -->
<g id="edge5" class="edge">
<title>Node1&#45;&gt;Node5</title>
<path fill="none" stroke="#191970" d="M243.8431,-231.04C264.9386,-236.3488 289.3766,-242.4988 309.1703,-247.4799"/>
<polygon fill="#191970" stroke="#191970" points="244.6555,-227.6354 234.1037,-228.589 242.9471,-234.4237 244.6555,-227.6354"/>
</g>
<!-- Node6 -->
<g id="node7" class="node">
<title>Node6</title>
<g id="a_node7"><a xlink:href="classPagedControlBox.html" target="_top" xlink:title="A control for holding pags of controls on a grid Pages slide over top of each other to make room...">
<polygon fill="none" stroke="#000000" points="300.5,-209.5 300.5,-228.5 393.5,-228.5 393.5,-209.5 300.5,-209.5"/>
<text text-anchor="middle" x="347" y="-216.5" font-family="Helvetica,sans-Serif" font-size="10.00" fill="#000000">PagedControlBox</text>
</a>
</g>
</g>
<!-- Node1&#45;&gt;Node6 -->
<g id="edge6" class="edge">
<title>Node1&#45;&gt;Node6</title>
<path fill="none" stroke="#191970" d="M264.5152,-219C276.6821,-219 289.0929,-219 300.4693,-219"/>
<polygon fill="#191970" stroke="#191970" points="264.3806,-215.5001 254.3805,-219 264.3805,-222.5001 264.3806,-215.5001"/>
</g>
<!-- Node7 -->
<g id="node8" class="node">
<title>Node7</title>
<g id="a_node8"><a xlink:href="classParamArea.html" target="_top" xlink:title="A box for graphs without a header. ">
<polygon fill="none" stroke="#000000" points="314.5,-171.5 314.5,-190.5 379.5,-190.5 379.5,-171.5 314.5,-171.5"/>
<text text-anchor="middle" x="347" y="-178.5" font-family="Helvetica,sans-Serif" font-size="10.00" fill="#000000">ParamArea</text>
</a>
</g>
</g>
<!-- Node1&#45;&gt;Node7 -->
<g id="edge7" class="edge">
<title>Node1&#45;&gt;Node7</title>
<path fill="none" stroke="#191970" d="M243.9531,-206.9323C266.7898,-201.1853 293.5232,-194.4577 314.0373,-189.2952"/>
<polygon fill="#191970" stroke="#191970" points="242.9471,-203.5763 234.1037,-209.411 244.6555,-210.3646 242.9471,-203.5763"/>
</g>
<!-- Node8 -->
<g id="node9" class="node">
<title>Node8</title>
<g id="a_node9"><a xlink:href="classParamBox.html" target="_top" xlink:title="A box for knobs with a header. ">
<polygon fill="none" stroke="#000000" points="316,-133.5 316,-152.5 378,-152.5 378,-133.5 316,-133.5"/>
<text text-anchor="middle" x="347" y="-140.5" font-family="Helvetica,sans-Serif" font-size="10.00" fill="#000000">ParamBox</text>
</a>
</g>
</g>
<!-- Node1&#45;&gt;Node8 -->
<g id="edge8" class="edge">
<title>Node1&#45;&gt;Node8</title>
<path fill="none" stroke="#191970" d="M217.8134,-203.8427C236.386,-191.4168 264.1003,-173.9857 290,-162 298.1413,-158.2324 307.2453,-154.852 315.7465,-152.0237"/>
<polygon fill="#191970" stroke="#191970" points="215.7905,-200.9855 209.4783,-209.4948 219.7192,-206.7791 215.7905,-200.9855"/>
</g>
<!-- Node9 -->
<g id="node10" class="node">
<title>Node9</title>
<g id="a_node10"><a xlink:href="classStepLFOComponent.html" target="_top" xlink:title="Draws a step LFO curve and shows a little dot moving long. ">
<polygon fill="none" stroke="#000000" points="294,-95.5 294,-114.5 400,-114.5 400,-95.5 294,-95.5"/>
<text text-anchor="middle" x="347" y="-102.5" font-family="Helvetica,sans-Serif" font-size="10.00" fill="#000000">StepLFOComponent</text>
</a>
</g>
</g>
<!-- Node1&#45;&gt;Node9 -->
<g id="edge9" class="edge">
<title>Node1&#45;&gt;Node9</title>
<path fill="none" stroke="#191970" d="M209.1728,-201.3239C225.8176,-180.1432 256.3789,-144.9021 290,-124 296.1125,-120.1999 303.0709,-117.068 309.9751,-114.5201"/>
<polygon fill="#191970" stroke="#191970" points="206.2405,-199.3957 202.923,-209.4578 211.7912,-203.6607 206.2405,-199.3957"/>
</g>
<!-- Node11 -->
<g id="node12" class="node">
<title>Node11</title>
<g id="a_node12"><a xlink:href="classPowerButton.html" target="_top" xlink:title="Circle with line power button for controlling a Parameter. ">
<polygon fill="none" stroke="#000000" points="310.5,-57.5 310.5,-76.5 383.5,-76.5 383.5,-57.5 310.5,-57.5"/>
<text text-anchor="middle" x="347" y="-64.5" font-family="Helvetica,sans-Serif" font-size="10.00" fill="#000000">PowerButton</text>
</a>
</g>
</g>
<!-- Node10&#45;&gt;Node11 -->
<g id="edge11" class="edge">
<title>Node10&#45;&gt;Node11</title>
<path fill="none" stroke="#191970" d="M238.1684,-111.1176C243.5485,-109.2025 248.9396,-107.146 254,-105 270.6558,-97.9365 273.3625,-93.1066 290,-86 298.0578,-82.5581 306.9647,-79.3293 315.2958,-76.5444"/>
<polygon fill="#191970" stroke="#191970" points="236.8991,-107.8526 228.5702,-114.4009 239.1647,-114.4759 236.8991,-107.8526"/>
</g>
</g>
</svg>
