<?xml version="1.0" encoding="UTF-8" standalone="no"?>
<!DOCTYPE svg PUBLIC "-//W3C//DTD SVG 1.1//EN"
 "http://www.w3.org/Graphics/SVG/1.1/DTD/svg11.dtd">
<!-- Generated by graphviz version 2.43.0 (0)
 -->
<!-- Title: MultiParamComponent Pages: 1 -->
<svg width="494pt" height="332pt"
 viewBox="0.00 0.00 494.00 332.00" xmlns="http://www.w3.org/2000/svg" xmlns:xlink="http://www.w3.org/1999/xlink">
<g id="graph0" class="graph" transform="scale(1 1) rotate(0) translate(4 328)">
<title>MultiParamComponent</title>
<!-- Node1 -->
<g id="node1" class="node">
<title>Node1</title>
<g id="a_node1"><a xlink:title="A base component for controlling multiple parameters at once.">
<polygon fill="#bfbfbf" stroke="black" points="198,-152.5 198,-171.5 326,-171.5 326,-152.5 198,-152.5"/>
<text text-anchor="middle" x="262" y="-159.5" font-family="Helvetica,sans-Serif" font-size="10.00">MultiParamComponent</text>
</a>
</g>
</g>
<!-- Node3 -->
<g id="node3" class="node">
<title>Node3</title>
<g id="a_node3"><a xlink:href="classADSRComponent.html" target="_top" xlink:title="Component for adjuting ADSR curves.">
<polygon fill="none" stroke="black" points="374,-304.5 374,-323.5 474,-323.5 474,-304.5 374,-304.5"/>
<text text-anchor="middle" x="424" y="-311.5" font-family="Helvetica,sans-Serif" font-size="10.00">ADSRComponent</text>
</a>
</g>
</g>
<!-- Node1&#45;&gt;Node3 -->
<g id="edge2" class="edge">
<title>Node1&#45;&gt;Node3</title>
<path fill="none" stroke="midnightblue" d="M271.98,-180.67C286.77,-209.44 318.93,-264.48 362,-295 367.43,-298.85 373.67,-301.94 380.03,-304.41"/>
<polygon fill="midnightblue" stroke="midnightblue" points="275.09,-179.05 267.49,-171.67 268.83,-182.18 275.09,-179.05"/>
</g>
<!-- Node4 -->
<g id="node4" class="node">
<title>Node4</title>
<g id="a_node4"><a xlink:href="classControlBox.html" target="_top" xlink:title="A box for holding controls on a grid.">
<polygon fill="none" stroke="black" points="388.5,-266.5 388.5,-285.5 459.5,-285.5 459.5,-266.5 388.5,-266.5"/>
<text text-anchor="middle" x="424" y="-273.5" font-family="Helvetica,sans-Serif" font-size="10.00">ControlBox</text>
</a>
</g>
</g>
<!-- Node1&#45;&gt;Node4 -->
<g id="edge3" class="edge">
<title>Node1&#45;&gt;Node4</title>
<path fill="none" stroke="midnightblue" d="M276.77,-179.47C294.39,-200.7 326.84,-236.24 362,-257 370.02,-261.74 379.35,-265.41 388.26,-268.21"/>
<polygon fill="midnightblue" stroke="midnightblue" points="279.39,-177.14 270.37,-171.59 273.96,-181.56 279.39,-177.14"/>
</g>
<!-- Node5 -->
<g id="node5" class="node">
<title>Node5</title>
<g id="a_node5"><a xlink:href="classGateEffectComponent.html" target="_top" xlink:title="An editor for the gate effect pattern.">
<polygon fill="none" stroke="black" points="362,-228.5 362,-247.5 486,-247.5 486,-228.5 362,-228.5"/>
<text text-anchor="middle" x="424" y="-235.5" font-family="Helvetica,sans-Serif" font-size="10.00">GateEffectComponent</text>
</a>
</g>
</g>
<!-- Node1&#45;&gt;Node5 -->
<g id="edge4" class="edge">
<title>Node1&#45;&gt;Node5</title>
<path fill="none" stroke="midnightblue" d="M285.76,-177.04C305.36,-189.51 334.7,-207.07 362,-219 370.13,-222.55 379.14,-225.74 387.68,-228.45"/>
<polygon fill="midnightblue" stroke="midnightblue" points="287.53,-174.02 277.23,-171.54 283.74,-179.9 287.53,-174.02"/>
</g>
<!-- Node6 -->
<g id="node6" class="node">
<title>Node6</title>
<g id="a_node6"><a xlink:href="classLFOComponent.html" target="_top" xlink:title="Draws an LFO curve and shows a little dot moving long.">
<polygon fill="none" stroke="black" points="378,-190.5 378,-209.5 470,-209.5 470,-190.5 378,-190.5"/>
<text text-anchor="middle" x="424" y="-197.5" font-family="Helvetica,sans-Serif" font-size="10.00">LFOComponent</text>
</a>
</g>
</g>
<!-- Node1&#45;&gt;Node6 -->
<g id="edge5" class="edge">
<title>Node1&#45;&gt;Node6</title>
<path fill="none" stroke="midnightblue" d="M313.39,-173.97C335.81,-179.29 361.85,-185.48 382.92,-190.48"/>
<polygon fill="midnightblue" stroke="midnightblue" points="313.91,-170.49 303.37,-171.59 312.3,-177.31 313.91,-170.49"/>
</g>
<!-- Node7 -->
<g id="node7" class="node">
<title>Node7</title>
<g id="a_node7"><a xlink:href="classMSEGComponent.html" target="_top" xlink:title="Draws an MSEG LFO curve and shows a little dot moving long.">
<polygon fill="none" stroke="black" points="373.5,-152.5 373.5,-171.5 474.5,-171.5 474.5,-152.5 373.5,-152.5"/>
<text text-anchor="middle" x="424" y="-159.5" font-family="Helvetica,sans-Serif" font-size="10.00">MSEGComponent</text>
</a>
</g>
</g>
<!-- Node1&#45;&gt;Node7 -->
<g id="edge6" class="edge">
<title>Node1&#45;&gt;Node7</title>
<path fill="none" stroke="midnightblue" d="M336.54,-162C348.9,-162 361.46,-162 373.04,-162"/>
<polygon fill="midnightblue" stroke="midnightblue" points="336.24,-158.5 326.24,-162 336.24,-165.5 336.24,-158.5"/>
</g>
<!-- Node8 -->
<g id="node8" class="node">
<title>Node8</title>
<g id="a_node8"><a xlink:href="classPagedControlBox.html" target="_top" xlink:title="A control for holding pags of controls on a grid Pages slide over top of each other to make room.">
<polygon fill="none" stroke="black" points="374,-114.5 374,-133.5 474,-133.5 474,-114.5 374,-114.5"/>
<text text-anchor="middle" x="424" y="-121.5" font-family="Helvetica,sans-Serif" font-size="10.00">PagedControlBox</text>
</a>
</g>
</g>
<!-- Node1&#45;&gt;Node8 -->
<g id="edge7" class="edge">
<title>Node1&#45;&gt;Node8</title>
<path fill="none" stroke="midnightblue" d="M313.39,-150.03C335.81,-144.71 361.85,-138.52 382.92,-133.52"/>
<polygon fill="midnightblue" stroke="midnightblue" points="312.3,-146.69 303.37,-152.41 313.91,-153.51 312.3,-146.69"/>
</g>
<!-- Node9 -->
<g id="node9" class="node">
<title>Node9</title>
<g id="a_node9"><a xlink:href="classParamArea.html" target="_top" xlink:title="A box for graphs without a header.">
<polygon fill="none" stroke="black" points="389,-76.5 389,-95.5 459,-95.5 459,-76.5 389,-76.5"/>
<text text-anchor="middle" x="424" y="-83.5" font-family="Helvetica,sans-Serif" font-size="10.00">ParamArea</text>
</a>
</g>
</g>
<!-- Node1&#45;&gt;Node9 -->
<g id="edge8" class="edge">
<title>Node1&#45;&gt;Node9</title>
<path fill="none" stroke="midnightblue" d="M285.76,-146.96C305.36,-134.49 334.7,-116.93 362,-105 370.54,-101.27 380.04,-97.94 388.95,-95.15"/>
<polygon fill="midnightblue" stroke="midnightblue" points="283.74,-144.1 277.23,-152.46 287.53,-149.98 283.74,-144.1"/>
</g>
<!-- Node10 -->
<g id="node10" class="node">
<title>Node10</title>
<g id="a_node10"><a xlink:href="classParamBox.html" target="_top" xlink:title="A box for knobs with a header.">
<polygon fill="none" stroke="black" points="391,-38.5 391,-57.5 457,-57.5 457,-38.5 391,-38.5"/>
<text text-anchor="middle" x="424" y="-45.5" font-family="Helvetica,sans-Serif" font-size="10.00">ParamBox</text>
</a>
</g>
</g>
<!-- Node1&#45;&gt;Node10 -->
<g id="edge9" class="edge">
<title>Node1&#45;&gt;Node10</title>
<path fill="none" stroke="midnightblue" d="M276.77,-144.53C294.39,-123.3 326.84,-87.76 362,-67 370.79,-61.81 381.14,-57.9 390.79,-55.01"/>
<polygon fill="midnightblue" stroke="midnightblue" points="273.96,-142.44 270.37,-152.41 279.39,-146.86 273.96,-142.44"/>
</g>
<!-- Node11 -->
<g id="node11" class="node">
<title>Node11</title>
<g id="a_node11"><a xlink:href="classStepLFOComponent.html" target="_top" xlink:title="Draws a step LFO curve and shows a little dot moving long.">
<polygon fill="none" stroke="black" points="367.5,-0.5 367.5,-19.5 480.5,-19.5 480.5,-0.5 367.5,-0.5"/>
<text text-anchor="middle" x="424" y="-7.5" font-family="Helvetica,sans-Serif" font-size="10.00">StepLFOComponent</text>
</a>
</g>
</g>
<!-- Node1&#45;&gt;Node11 -->
<g id="edge10" class="edge">
<title>Node1&#45;&gt;Node11</title>
<path fill="none" stroke="midnightblue" d="M271.98,-143.33C286.77,-114.56 318.93,-59.52 362,-29 367.43,-25.15 373.67,-22.06 380.03,-19.59"/>
<polygon fill="midnightblue" stroke="midnightblue" points="268.83,-141.82 267.49,-152.33 275.09,-144.95 268.83,-141.82"/>
</g>
<!-- Node2 -->
<g id="node2" class="node">
<title>Node2</title>
<g id="a_node2"><a xlink:href="classParameter_1_1ParameterListener.html" target="_top" xlink:title=" ">
<polygon fill="none" stroke="black" points="0,-152.5 0,-171.5 162,-171.5 162,-152.5 0,-152.5"/>
<text text-anchor="middle" x="81" y="-159.5" font-family="Helvetica,sans-Serif" font-size="10.00">Parameter::ParameterListener</text>
</a>
</g>
</g>
<!-- Node2&#45;&gt;Node1 -->
<g id="edge1" class="edge">
<title>Node2&#45;&gt;Node1</title>
<path fill="none" stroke="midnightblue" d="M172.24,-162C180.92,-162 189.58,-162 197.91,-162"/>
<polygon fill="midnightblue" stroke="midnightblue" points="172.08,-158.5 162.08,-162 172.08,-165.5 172.08,-158.5"/>
</g>
</g>
</svg>
