<?xml version="1.0" encoding="UTF-8" standalone="no"?>
<!DOCTYPE svg PUBLIC "-//W3C//DTD SVG 1.1//EN"
 "http://www.w3.org/Graphics/SVG/1.1/DTD/svg11.dtd">
<!-- Generated by graphviz version 2.40.1 (20161225.0304)
 -->
<!-- Title: MultiParamComponent Pages: 1 -->
<svg width="444pt" height="294pt"
 viewBox="0.00 0.00 444.00 294.00" xmlns="http://www.w3.org/2000/svg" xmlns:xlink="http://www.w3.org/1999/xlink">
<g id="graph0" class="graph" transform="scale(1 1) rotate(0) translate(4 290)">
<title>MultiParamComponent</title>
<!-- Node0 -->
<g id="node1" class="node">
<title>Node0</title>
<polygon fill="#bfbfbf" stroke="#000000" points="148,-133.5 148,-152.5 276,-152.5 276,-133.5 148,-133.5"/>
<text text-anchor="middle" x="212" y="-140.5" font-family="Helvetica,sans-Serif" font-size="10.00" fill="#000000">MultiParamComponent</text>
</g>
<!-- Node2 -->
<g id="node3" class="node">
<title>Node2</title>
<g id="a_node3"><a xlink:href="classADSRComponent.html" target="_top" xlink:title="Component for adjuting ADSR curves. ">
<polygon fill="none" stroke="#000000" points="324.5,-266.5 324.5,-285.5 423.5,-285.5 423.5,-266.5 324.5,-266.5"/>
<text text-anchor="middle" x="374" y="-273.5" font-family="Helvetica,sans-Serif" font-size="10.00" fill="#000000">ADSRComponent</text>
</a>
</g>
</g>
<!-- Node0&#45;&gt;Node2 -->
<g id="edge2" class="edge">
<title>Node0&#45;&gt;Node2</title>
<path fill="none" stroke="#191970" d="M223.1701,-161.1153C239.5893,-186.2614 272.5983,-231.5193 312,-257 317.9557,-260.8515 324.7349,-263.958 331.5716,-266.4529"/>
<polygon fill="#191970" stroke="#191970" points="226.0357,-159.0993 217.7109,-152.5458 220.1319,-162.8603 226.0357,-159.0993"/>
</g>
<!-- Node3 -->
<g id="node4" class="node">
<title>Node3</title>
<g id="a_node4"><a xlink:href="classControlBox.html" target="_top" xlink:title="A box for holding controls on a grid. ">
<polygon fill="none" stroke="#000000" points="338.5,-228.5 338.5,-247.5 409.5,-247.5 409.5,-228.5 338.5,-228.5"/>
<text text-anchor="middle" x="374" y="-235.5" font-family="Helvetica,sans-Serif" font-size="10.00" fill="#000000">ControlBox</text>
</a>
</g>
</g>
<!-- Node0&#45;&gt;Node3 -->
<g id="edge3" class="edge">
<title>Node0&#45;&gt;Node3</title>
<path fill="none" stroke="#191970" d="M229.5167,-159.417C248.5181,-176.444 280.3892,-202.7987 312,-219 320.2154,-223.2106 329.529,-226.6732 338.3944,-229.4349"/>
<polygon fill="#191970" stroke="#191970" points="231.7165,-156.6862 221.9692,-152.5338 226.9996,-161.8583 231.7165,-156.6862"/>
</g>
<!-- Node4 -->
<g id="node5" class="node">
<title>Node4</title>
<g id="a_node5"><a xlink:href="classGateEffectComponent.html" target="_top" xlink:title="An editor for the gate effect pattern. ">
<polygon fill="none" stroke="#000000" points="312,-190.5 312,-209.5 436,-209.5 436,-190.5 312,-190.5"/>
<text text-anchor="middle" x="374" y="-197.5" font-family="Helvetica,sans-Serif" font-size="10.00" fill="#000000">GateEffectComponent</text>
</a>
</g>
</g>
<!-- Node0&#45;&gt;Node4 -->
<g id="edge4" class="edge">
<title>Node0&#45;&gt;Node4</title>
<path fill="none" stroke="#191970" d="M244.9887,-156.1614C264.387,-163.7433 289.4558,-173.2716 312,-181 321.4781,-184.2492 331.8596,-187.5356 341.3708,-190.4407"/>
<polygon fill="#191970" stroke="#191970" points="246.2691,-152.904 235.6818,-152.5032 243.7083,-159.4188 246.2691,-152.904"/>
</g>
<!-- Node5 -->
<g id="node6" class="node">
<title>Node5</title>
<g id="a_node6"><a xlink:href="classLFOComponent.html" target="_top" xlink:title="Draws an LFO curve and shows a little dot moving long. ">
<polygon fill="none" stroke="#000000" points="328.5,-152.5 328.5,-171.5 419.5,-171.5 419.5,-152.5 328.5,-152.5"/>
<text text-anchor="middle" x="374" y="-159.5" font-family="Helvetica,sans-Serif" font-size="10.00" fill="#000000">LFOComponent</text>
</a>
</g>
</g>
<!-- Node0&#45;&gt;Node5 -->
<g id="edge5" class="edge">
<title>Node0&#45;&gt;Node5</title>
<path fill="none" stroke="#191970" d="M285.9708,-151.6756C300.4371,-153.3722 315.2046,-155.1042 328.4091,-156.6529"/>
<polygon fill="#191970" stroke="#191970" points="286.3663,-148.1981 276.0267,-150.5093 285.5509,-155.1504 286.3663,-148.1981"/>
</g>
<!-- Node6 -->
<g id="node7" class="node">
<title>Node6</title>
<g id="a_node7"><a xlink:href="classPagedControlBox.html" target="_top" xlink:title="A control for holding pags of controls on a grid Pages slide over top of each other to make room...">
<polygon fill="none" stroke="#000000" points="324,-114.5 324,-133.5 424,-133.5 424,-114.5 324,-114.5"/>
<text text-anchor="middle" x="374" y="-121.5" font-family="Helvetica,sans-Serif" font-size="10.00" fill="#000000">PagedControlBox</text>
</a>
</g>
</g>
<!-- Node0&#45;&gt;Node6 -->
<g id="edge6" class="edge">
<title>Node0&#45;&gt;Node6</title>
<path fill="none" stroke="#191970" d="M286.1984,-134.2977C298.973,-132.7995 311.9747,-131.2746 323.9208,-129.8735"/>
<polygon fill="#191970" stroke="#191970" points="285.5509,-130.8496 276.0267,-135.4907 286.3663,-137.8019 285.5509,-130.8496"/>
</g>
<!-- Node7 -->
<g id="node8" class="node">
<title>Node7</title>
<g id="a_node8"><a xlink:href="classParamArea.html" target="_top" xlink:title="A box for graphs without a header. ">
<polygon fill="none" stroke="#000000" points="339,-76.5 339,-95.5 409,-95.5 409,-76.5 339,-76.5"/>
<text text-anchor="middle" x="374" y="-83.5" font-family="Helvetica,sans-Serif" font-size="10.00" fill="#000000">ParamArea</text>
</a>
</g>
</g>
<!-- Node0&#45;&gt;Node7 -->
<g id="edge7" class="edge">
<title>Node0&#45;&gt;Node7</title>
<path fill="none" stroke="#191970" d="M244.9887,-129.8386C264.387,-122.2567 289.4558,-112.7284 312,-105 321.4781,-101.7508 331.8596,-98.4644 341.3708,-95.5593"/>
<polygon fill="#191970" stroke="#191970" points="243.7083,-126.5812 235.6818,-133.4968 246.2691,-133.096 243.7083,-126.5812"/>
</g>
<!-- Node8 -->
<g id="node9" class="node">
<title>Node8</title>
<g id="a_node9"><a xlink:href="classParamBox.html" target="_top" xlink:title="A box for knobs with a header. ">
<polygon fill="none" stroke="#000000" points="341,-38.5 341,-57.5 407,-57.5 407,-38.5 341,-38.5"/>
<text text-anchor="middle" x="374" y="-45.5" font-family="Helvetica,sans-Serif" font-size="10.00" fill="#000000">ParamBox</text>
</a>
</g>
</g>
<!-- Node0&#45;&gt;Node8 -->
<g id="edge8" class="edge">
<title>Node0&#45;&gt;Node8</title>
<path fill="none" stroke="#191970" d="M229.5167,-126.583C248.5181,-109.556 280.3892,-83.2013 312,-67 321.0169,-62.3786 331.3567,-58.6583 340.9749,-55.7767"/>
<polygon fill="#191970" stroke="#191970" points="226.9996,-124.1417 221.9692,-133.4662 231.7165,-129.3138 226.9996,-124.1417"/>
</g>
<!-- Node9 -->
<g id="node10" class="node">
<title>Node9</title>
<g id="a_node10"><a xlink:href="classStepLFOComponent.html" target="_top" xlink:title="Draws a step LFO curve and shows a little dot moving long. ">
<polygon fill="none" stroke="#000000" points="317.5,-.5 317.5,-19.5 430.5,-19.5 430.5,-.5 317.5,-.5"/>
<text text-anchor="middle" x="374" y="-7.5" font-family="Helvetica,sans-Serif" font-size="10.00" fill="#000000">StepLFOComponent</text>
</a>
</g>
</g>
<!-- Node0&#45;&gt;Node9 -->
<g id="edge9" class="edge">
<title>Node0&#45;&gt;Node9</title>
<path fill="none" stroke="#191970" d="M223.1701,-124.8847C239.5893,-99.7386 272.5983,-54.4807 312,-29 317.9557,-25.1485 324.7349,-22.042 331.5716,-19.5471"/>
<polygon fill="#191970" stroke="#191970" points="220.1319,-123.1397 217.7109,-133.4542 226.0357,-126.9007 220.1319,-123.1397"/>
</g>
<!-- Node1 -->
<g id="node2" class="node">
<title>Node1</title>
<g id="a_node2"><a xlink:href="classParameter_1_1Listener.html" target="_top" xlink:title="Parameter::Listener">
<polygon fill="none" stroke="#000000" points="0,-133.5 0,-152.5 112,-152.5 112,-133.5 0,-133.5"/>
<text text-anchor="middle" x="56" y="-140.5" font-family="Helvetica,sans-Serif" font-size="10.00" fill="#000000">Parameter::Listener</text>
</a>
</g>
</g>
<!-- Node1&#45;&gt;Node0 -->
<g id="edge1" class="edge">
<title>Node1&#45;&gt;Node0</title>
<path fill="none" stroke="#191970" d="M122.4545,-143C130.8599,-143 139.4481,-143 147.8172,-143"/>
<polygon fill="#191970" stroke="#191970" points="122.3196,-139.5001 112.3196,-143 122.3195,-146.5001 122.3196,-139.5001"/>
</g>
</g>
</svg>
