<?xml version="1.0" encoding="UTF-8" standalone="no"?>
<!DOCTYPE svg PUBLIC "-//W3C//DTD SVG 1.1//EN"
 "http://www.w3.org/Graphics/SVG/1.1/DTD/svg11.dtd">
<!-- Generated by graphviz version 2.40.1 (20161225.0304)
 -->
<!-- Title: Parameter::Listener Pages: 1 -->
<svg width="801pt" height="140pt"
 viewBox="0.00 0.00 801.00 140.00" xmlns="http://www.w3.org/2000/svg" xmlns:xlink="http://www.w3.org/1999/xlink">
<g id="graph0" class="graph" transform="scale(1 1) rotate(0) translate(4 136)">
<title>Parameter::Listener</title>
<!-- Node0 -->
<g id="node1" class="node">
<title>Node0</title>
<polygon fill="#bfbfbf" stroke="#000000" points="538.5,-112.5 538.5,-131.5 640.5,-131.5 640.5,-112.5 538.5,-112.5"/>
<text text-anchor="middle" x="589.5" y="-119.5" font-family="Helvetica,sans-Serif" font-size="10.00" fill="#000000">Parameter::Listener</text>
</g>
<!-- Node1 -->
<g id="node2" class="node">
<title>Node1</title>
<g id="a_node2"><a xlink:href="classMultiParamComponent.html" target="_top" xlink:title="A base component for controlling multiple parameters at once. ">
<polygon fill="none" stroke="#000000" points="235.5,-56.5 235.5,-75.5 351.5,-75.5 351.5,-56.5 235.5,-56.5"/>
<text text-anchor="middle" x="293.5" y="-63.5" font-family="Helvetica,sans-Serif" font-size="10.00" fill="#000000">MultiParamComponent</text>
</a>
</g>
</g>
<!-- Node0&#45;&gt;Node1 -->
<g id="edge1" class="edge">
<title>Node0&#45;&gt;Node1</title>
<path fill="none" stroke="#191970" d="M529.0599,-110.5654C474.4686,-100.2373 395.0597,-85.214 343.8394,-75.5237"/>
<polygon fill="#191970" stroke="#191970" points="528.4758,-114.0169 538.9521,-112.4369 529.7771,-107.1389 528.4758,-114.0169"/>
</g>
<!-- Node7 -->
<g id="node8" class="node">
<title>Node7</title>
<g id="a_node8"><a xlink:href="classPluginButton.html" target="_top" xlink:title="Button for toggling a parameter. ">
<polygon fill="none" stroke="#000000" points="453.5,-56.5 453.5,-75.5 525.5,-75.5 525.5,-56.5 453.5,-56.5"/>
<text text-anchor="middle" x="489.5" y="-63.5" font-family="Helvetica,sans-Serif" font-size="10.00" fill="#000000">PluginButton</text>
</a>
</g>
</g>
<!-- Node0&#45;&gt;Node7 -->
<g id="edge7" class="edge">
<title>Node0&#45;&gt;Node7</title>
<path fill="none" stroke="#8b1a1a" d="M563.2902,-107.3225C545.4283,-97.3198 522.2845,-84.3593 506.7191,-75.6427"/>
<polygon fill="#8b1a1a" stroke="#8b1a1a" points="561.6461,-110.4132 572.0813,-112.2455 565.0664,-104.3057 561.6461,-110.4132"/>
</g>
<!-- Node9 -->
<g id="node10" class="node">
<title>Node9</title>
<g id="a_node10"><a xlink:href="classPluginComboBox.html" target="_top" xlink:title="A control for selecting param values from a dropbox. ">
<polygon fill="none" stroke="#000000" points="543.5,-56.5 543.5,-75.5 635.5,-75.5 635.5,-56.5 543.5,-56.5"/>
<text text-anchor="middle" x="589.5" y="-63.5" font-family="Helvetica,sans-Serif" font-size="10.00" fill="#000000">PluginComboBox</text>
</a>
</g>
</g>
<!-- Node0&#45;&gt;Node9 -->
<g id="edge9" class="edge">
<title>Node0&#45;&gt;Node9</title>
<path fill="none" stroke="#8b1a1a" d="M589.5,-102.1575C589.5,-93.155 589.5,-82.9199 589.5,-75.6427"/>
<polygon fill="#8b1a1a" stroke="#8b1a1a" points="586.0001,-102.2455 589.5,-112.2455 593.0001,-102.2456 586.0001,-102.2455"/>
</g>
<!-- Node10 -->
<g id="node11" class="node">
<title>Node10</title>
<g id="a_node11"><a xlink:href="classPluginSlider.html" target="_top" xlink:title="A slider for controlling a parameter. ">
<polygon fill="none" stroke="#000000" points="653.5,-56.5 653.5,-75.5 721.5,-75.5 721.5,-56.5 653.5,-56.5"/>
<text text-anchor="middle" x="687.5" y="-63.5" font-family="Helvetica,sans-Serif" font-size="10.00" fill="#000000">PluginSlider</text>
</a>
</g>
</g>
<!-- Node0&#45;&gt;Node10 -->
<g id="edge10" class="edge">
<title>Node0&#45;&gt;Node10</title>
<path fill="none" stroke="#8b1a1a" d="M615.6686,-107.0465C633.1058,-97.0824 655.5111,-84.2794 670.6253,-75.6427"/>
<polygon fill="#8b1a1a" stroke="#8b1a1a" points="613.5162,-104.2453 606.5703,-112.2455 616.9892,-110.323 613.5162,-104.2453"/>
</g>
<!-- Node11 -->
<g id="node12" class="node">
<title>Node11</title>
<g id="a_node12"><a xlink:href="classReadout.html" target="_top" xlink:title="A control for displaying a parameter. ">
<polygon fill="none" stroke="#000000" points="740,-56.5 740,-75.5 793,-75.5 793,-56.5 740,-56.5"/>
<text text-anchor="middle" x="766.5" y="-63.5" font-family="Helvetica,sans-Serif" font-size="10.00" fill="#000000">Readout</text>
</a>
</g>
</g>
<!-- Node0&#45;&gt;Node11 -->
<g id="edge11" class="edge">
<title>Node0&#45;&gt;Node11</title>
<path fill="none" stroke="#8b1a1a" d="M629.4981,-109.3452C663.2653,-98.6618 710.6628,-83.666 739.934,-74.4051"/>
<polygon fill="#8b1a1a" stroke="#8b1a1a" points="628.4058,-106.0197 619.9274,-112.3733 630.5174,-112.6937 628.4058,-106.0197"/>
</g>
<!-- Node2 -->
<g id="node3" class="node">
<title>Node2</title>
<g id="a_node3"><a xlink:href="classADSRComponent.html" target="_top" xlink:title="Component for adjuting ADSR curves. ">
<polygon fill="none" stroke="#000000" points="0,-.5 0,-19.5 95,-19.5 95,-.5 0,-.5"/>
<text text-anchor="middle" x="47.5" y="-7.5" font-family="Helvetica,sans-Serif" font-size="10.00" fill="#000000">ADSRComponent</text>
</a>
</g>
</g>
<!-- Node1&#45;&gt;Node2 -->
<g id="edge2" class="edge">
<title>Node1&#45;&gt;Node2</title>
<path fill="none" stroke="#191970" d="M241.5656,-54.1775C196.2602,-43.8641 131.3745,-29.0934 89.3361,-19.5237"/>
<polygon fill="#191970" stroke="#191970" points="240.9632,-57.6299 251.4906,-56.4369 242.517,-50.8045 240.9632,-57.6299"/>
</g>
<!-- Node3 -->
<g id="node4" class="node">
<title>Node3</title>
<g id="a_node4"><a xlink:href="classControlBox.html" target="_top" xlink:title="A box for holding controls on a grid. ">
<polygon fill="none" stroke="#000000" points="113,-.5 113,-19.5 178,-19.5 178,-.5 113,-.5"/>
<text text-anchor="middle" x="145.5" y="-7.5" font-family="Helvetica,sans-Serif" font-size="10.00" fill="#000000">ControlBox</text>
</a>
</g>
</g>
<!-- Node1&#45;&gt;Node3 -->
<g id="edge3" class="edge">
<title>Node1&#45;&gt;Node3</title>
<path fill="none" stroke="#191970" d="M258.5847,-52.7888C231.5617,-42.5639 194.786,-28.6488 170.6101,-19.5011"/>
<polygon fill="#191970" stroke="#191970" points="257.4664,-56.1078 268.0579,-56.3733 259.9437,-49.5608 257.4664,-56.1078"/>
</g>
<!-- Node4 -->
<g id="node5" class="node">
<title>Node4</title>
<g id="a_node5"><a xlink:href="classLFOComponent.html" target="_top" xlink:title="Draws an LFO curve and shows a little dot moving long. ">
<polygon fill="none" stroke="#000000" points="196.5,-.5 196.5,-19.5 282.5,-19.5 282.5,-.5 196.5,-.5"/>
<text text-anchor="middle" x="239.5" y="-7.5" font-family="Helvetica,sans-Serif" font-size="10.00" fill="#000000">LFOComponent</text>
</a>
</g>
</g>
<!-- Node1&#45;&gt;Node4 -->
<g id="edge4" class="edge">
<title>Node1&#45;&gt;Node4</title>
<path fill="none" stroke="#191970" d="M276.9031,-48.7884C267.6653,-39.2085 256.5096,-27.6396 248.7983,-19.6427"/>
<polygon fill="#191970" stroke="#191970" points="274.6331,-51.4766 284.0939,-56.2455 279.672,-46.6176 274.6331,-51.4766"/>
</g>
<!-- Node5 -->
<g id="node6" class="node">
<title>Node5</title>
<g id="a_node6"><a xlink:href="classPagedControlBox.html" target="_top" xlink:title="A control for holding pags of controls on a grid Pages slide over top of each other to make room...">
<polygon fill="none" stroke="#000000" points="301,-.5 301,-19.5 394,-19.5 394,-.5 301,-.5"/>
<text text-anchor="middle" x="347.5" y="-7.5" font-family="Helvetica,sans-Serif" font-size="10.00" fill="#000000">PagedControlBox</text>
</a>
</g>
</g>
<!-- Node1&#45;&gt;Node5 -->
<g id="edge5" class="edge">
<title>Node1&#45;&gt;Node5</title>
<path fill="none" stroke="#191970" d="M310.0969,-48.7884C319.3347,-39.2085 330.4904,-27.6396 338.2017,-19.6427"/>
<polygon fill="#191970" stroke="#191970" points="307.328,-46.6176 302.9061,-56.2455 312.3669,-51.4766 307.328,-46.6176"/>
</g>
<!-- Node6 -->
<g id="node7" class="node">
<title>Node6</title>
<g id="a_node7"><a xlink:href="classStepLFOComponent.html" target="_top" xlink:title="Draws a step LFO curve and shows a little dot moving long. ">
<polygon fill="none" stroke="#000000" points="412.5,-.5 412.5,-19.5 518.5,-19.5 518.5,-.5 412.5,-.5"/>
<text text-anchor="middle" x="465.5" y="-7.5" font-family="Helvetica,sans-Serif" font-size="10.00" fill="#000000">StepLFOComponent</text>
</a>
</g>
</g>
<!-- Node1&#45;&gt;Node6 -->
<g id="edge6" class="edge">
<title>Node1&#45;&gt;Node6</title>
<path fill="none" stroke="#191970" d="M332.8435,-53.1905C364.3551,-42.9309 407.8519,-28.7691 436.318,-19.5011"/>
<polygon fill="#191970" stroke="#191970" points="331.493,-49.9493 323.0679,-56.3733 333.6601,-56.6054 331.493,-49.9493"/>
</g>
<!-- Node8 -->
<g id="node9" class="node">
<title>Node8</title>
<g id="a_node9"><a xlink:href="classPowerButton.html" target="_top" xlink:title="Circle with line power button for controlling a Parameter. ">
<polygon fill="none" stroke="#000000" points="537,-.5 537,-19.5 610,-19.5 610,-.5 537,-.5"/>
<text text-anchor="middle" x="573.5" y="-7.5" font-family="Helvetica,sans-Serif" font-size="10.00" fill="#000000">PowerButton</text>
</a>
</g>
</g>
<!-- Node7&#45;&gt;Node8 -->
<g id="edge8" class="edge">
<title>Node7&#45;&gt;Node8</title>
<path fill="none" stroke="#191970" d="M512.7649,-50.49C527.5856,-40.6096 546.3209,-28.1194 559.036,-19.6427"/>
<polygon fill="#191970" stroke="#191970" points="510.5107,-47.7863 504.1317,-56.2455 514.3937,-53.6107 510.5107,-47.7863"/>
</g>
</g>
</svg>
