<?xml version="1.0" encoding="UTF-8" standalone="no"?>
<!DOCTYPE svg PUBLIC "-//W3C//DTD SVG 1.1//EN"
 "http://www.w3.org/Graphics/SVG/1.1/DTD/svg11.dtd">
<!-- Generated by graphviz version 2.43.0 (0)
 -->
<!-- Title: SVGPluginButton Pages: 1 -->
<svg width="258pt" height="82pt"
 viewBox="0.00 0.00 257.50 82.00" xmlns="http://www.w3.org/2000/svg" xmlns:xlink="http://www.w3.org/1999/xlink">
<g id="graph0" class="graph" transform="scale(1 1) rotate(0) translate(4 78)">
<title>SVGPluginButton</title>
<!-- Node1 -->
<g id="Node000001" class="node">
<title>Node1</title>
<g id="a_Node000001"><a xlink:title="Button for toggling a parameter.">
<polygon fill="#999999" stroke="#666666" points="151,-19 52,-19 52,0 151,0 151,-19"/>
<text text-anchor="middle" x="101.5" y="-7" font-family="Helvetica,sans-Serif" font-size="10.00">SVGPluginButton</text>
</a>
</g>
</g>
<!-- Node2 -->
<g id="Node000002" class="node">
<title>Node2</title>
<g id="a_Node000002"><a xlink:href="classSVGButton.html" target="_top" xlink:title="Button that displays an SVG graphic instead of or alongside text.">
<polygon fill="white" stroke="#666666" points="69,-74 0,-74 0,-55 69,-55 69,-74"/>
<text text-anchor="middle" x="34.5" y="-62" font-family="Helvetica,sans-Serif" font-size="10.00">SVGButton</text>
</a>
</g>
</g>
<!-- Node2&#45;&gt;Node1 -->
<g id="edge1_Node000001_Node000002" class="edge">
<title>Node2&#45;&gt;Node1</title>
<g id="a_edge1_Node000001_Node000002"><a xlink:title=" ">
<path fill="none" stroke="#63b8ff" d="M53.33,-48.6C65.34,-39.11 80.47,-27.13 90.54,-19.17"/>
<polygon fill="#63b8ff" stroke="#63b8ff" points="50.94,-46.04 45.26,-54.98 55.28,-51.53 50.94,-46.04"/>
</a>
</g>
</g>
<!-- Node3 -->
<g id="Node000003" class="node">
<title>Node3</title>
<g id="a_Node000003"><a xlink:href="classParameter_1_1ParameterListener.html" target="_top" xlink:title=" ">
<polygon fill="white" stroke="#666666" points="249.5,-74 87.5,-74 87.5,-55 249.5,-55 249.5,-74"/>
<text text-anchor="middle" x="168.5" y="-62" font-family="Helvetica,sans-Serif" font-size="10.00">Parameter::ParameterListener</text>
</a>
</g>
</g>
<!-- Node3&#45;&gt;Node1 -->
<g id="edge2_Node000001_Node000003" class="edge">
<title>Node3&#45;&gt;Node1</title>
<g id="a_edge2_Node000001_Node000003"><a xlink:title=" ">
<path fill="none" stroke="#8b1a1a" d="M149.67,-48.6C137.66,-39.11 122.53,-27.13 112.46,-19.17"/>
<polygon fill="#8b1a1a" stroke="#8b1a1a" points="147.72,-51.53 157.74,-54.98 152.06,-46.04 147.72,-51.53"/>
</a>
</g>
</g>
</g>
</svg>
