<?xml version="1.0" encoding="UTF-8" standalone="no"?>
<!DOCTYPE svg PUBLIC "-//W3C//DTD SVG 1.1//EN"
 "http://www.w3.org/Graphics/SVG/1.1/DTD/svg11.dtd">
<!-- Generated by graphviz version 2.43.0 (0)
 -->
<!-- Title: MultiParamComponent Pages: 1 -->
<svg width="494pt" height="294pt"
 viewBox="0.00 0.00 494.00 294.00" xmlns="http://www.w3.org/2000/svg" xmlns:xlink="http://www.w3.org/1999/xlink">
<g id="graph0" class="graph" transform="scale(1 1) rotate(0) translate(4 290)">
<title>MultiParamComponent</title>
<!-- Node1 -->
<g id="node1" class="node">
<title>Node1</title>
<g id="a_node1"><a xlink:title="A base component for controlling multiple parameters at once.">
<polygon fill="#bfbfbf" stroke="black" points="198,-133.5 198,-152.5 326,-152.5 326,-133.5 198,-133.5"/>
<text text-anchor="middle" x="262" y="-140.5" font-family="Helvetica,sans-Serif" font-size="10.00">MultiParamComponent</text>
</a>
</g>
</g>
<!-- Node3 -->
<g id="node3" class="node">
<title>Node3</title>
<g id="a_node3"><a xlink:href="classADSRComponent.html" target="_top" xlink:title="Component for adjuting ADSR curves.">
<polygon fill="none" stroke="black" points="374,-266.5 374,-285.5 474,-285.5 474,-266.5 374,-266.5"/>
<text text-anchor="middle" x="424" y="-273.5" font-family="Helvetica,sans-Serif" font-size="10.00">ADSRComponent</text>
</a>
</g>
</g>
<!-- Node1&#45;&gt;Node3 -->
<g id="edge2" class="edge">
<title>Node1&#45;&gt;Node3</title>
<path fill="none" stroke="midnightblue" d="M274.03,-161.09C290.25,-186.21 322.89,-231.44 362,-257 367.85,-260.82 374.51,-263.91 381.24,-266.4"/>
<polygon fill="midnightblue" stroke="midnightblue" points="276.93,-159.13 268.64,-152.53 271.01,-162.86 276.93,-159.13"/>
</g>
<!-- Node4 -->
<g id="node4" class="node">
<title>Node4</title>
<g id="a_node4"><a xlink:href="classControlBox.html" target="_top" xlink:title="A box for holding controls on a grid.">
<polygon fill="none" stroke="black" points="388.5,-228.5 388.5,-247.5 459.5,-247.5 459.5,-228.5 388.5,-228.5"/>
<text text-anchor="middle" x="424" y="-235.5" font-family="Helvetica,sans-Serif" font-size="10.00">ControlBox</text>
</a>
</g>
</g>
<!-- Node1&#45;&gt;Node4 -->
<g id="edge3" class="edge">
<title>Node1&#45;&gt;Node4</title>
<path fill="none" stroke="midnightblue" d="M280.33,-159.4C299.12,-176.41 330.67,-202.75 362,-219 370.17,-223.24 379.46,-226.72 388.28,-229.5"/>
<polygon fill="midnightblue" stroke="midnightblue" points="282.59,-156.72 272.86,-152.52 277.84,-161.87 282.59,-156.72"/>
</g>
<!-- Node5 -->
<g id="node5" class="node">
<title>Node5</title>
<g id="a_node5"><a xlink:href="classGateEffectComponent.html" target="_top" xlink:title="An editor for the gate effect pattern.">
<polygon fill="none" stroke="black" points="362,-190.5 362,-209.5 486,-209.5 486,-190.5 362,-190.5"/>
<text text-anchor="middle" x="424" y="-197.5" font-family="Helvetica,sans-Serif" font-size="10.00">GateEffectComponent</text>
</a>
</g>
</g>
<!-- Node1&#45;&gt;Node5 -->
<g id="edge4" class="edge">
<title>Node1&#45;&gt;Node5</title>
<path fill="none" stroke="midnightblue" d="M296.31,-156.4C315.42,-163.94 339.93,-173.34 362,-181 371.33,-184.24 381.54,-187.52 390.9,-190.43"/>
<polygon fill="midnightblue" stroke="midnightblue" points="297.43,-153.08 286.85,-152.65 294.85,-159.59 297.43,-153.08"/>
</g>
<!-- Node6 -->
<g id="node6" class="node">
<title>Node6</title>
<g id="a_node6"><a xlink:href="classLFOComponent.html" target="_top" xlink:title="Draws an LFO curve and shows a little dot moving long.">
<polygon fill="none" stroke="black" points="378,-152.5 378,-171.5 470,-171.5 470,-152.5 378,-152.5"/>
<text text-anchor="middle" x="424" y="-159.5" font-family="Helvetica,sans-Serif" font-size="10.00">LFOComponent</text>
</a>
</g>
</g>
<!-- Node1&#45;&gt;Node6 -->
<g id="edge5" class="edge">
<title>Node1&#45;&gt;Node6</title>
<path fill="none" stroke="midnightblue" d="M336.47,-151.72C350.63,-153.41 365.06,-155.12 377.97,-156.65"/>
<polygon fill="midnightblue" stroke="midnightblue" points="336.58,-148.21 326.24,-150.51 335.75,-155.16 336.58,-148.21"/>
</g>
<!-- Node7 -->
<g id="node7" class="node">
<title>Node7</title>
<g id="a_node7"><a xlink:href="classPagedControlBox.html" target="_top" xlink:title="A control for holding pags of controls on a grid Pages slide over top of each other to make room.">
<polygon fill="none" stroke="black" points="374,-114.5 374,-133.5 474,-133.5 474,-114.5 374,-114.5"/>
<text text-anchor="middle" x="424" y="-121.5" font-family="Helvetica,sans-Serif" font-size="10.00">PagedControlBox</text>
</a>
</g>
</g>
<!-- Node1&#45;&gt;Node7 -->
<g id="edge6" class="edge">
<title>Node1&#45;&gt;Node7</title>
<path fill="none" stroke="midnightblue" d="M336.28,-134.3C348.9,-132.8 361.74,-131.27 373.54,-129.87"/>
<polygon fill="midnightblue" stroke="midnightblue" points="335.75,-130.84 326.24,-135.49 336.58,-137.79 335.75,-130.84"/>
</g>
<!-- Node8 -->
<g id="node8" class="node">
<title>Node8</title>
<g id="a_node8"><a xlink:href="classParamArea.html" target="_top" xlink:title="A box for graphs without a header.">
<polygon fill="none" stroke="black" points="389,-76.5 389,-95.5 459,-95.5 459,-76.5 389,-76.5"/>
<text text-anchor="middle" x="424" y="-83.5" font-family="Helvetica,sans-Serif" font-size="10.00">ParamArea</text>
</a>
</g>
</g>
<!-- Node1&#45;&gt;Node8 -->
<g id="edge7" class="edge">
<title>Node1&#45;&gt;Node8</title>
<path fill="none" stroke="midnightblue" d="M296.31,-129.6C315.42,-122.06 339.93,-112.66 362,-105 371.33,-101.76 381.54,-98.48 390.9,-95.57"/>
<polygon fill="midnightblue" stroke="midnightblue" points="294.85,-126.41 286.85,-133.35 297.43,-132.92 294.85,-126.41"/>
</g>
<!-- Node9 -->
<g id="node9" class="node">
<title>Node9</title>
<g id="a_node9"><a xlink:href="classParamBox.html" target="_top" xlink:title="A box for knobs with a header.">
<polygon fill="none" stroke="black" points="391,-38.5 391,-57.5 457,-57.5 457,-38.5 391,-38.5"/>
<text text-anchor="middle" x="424" y="-45.5" font-family="Helvetica,sans-Serif" font-size="10.00">ParamBox</text>
</a>
</g>
</g>
<!-- Node1&#45;&gt;Node9 -->
<g id="edge8" class="edge">
<title>Node1&#45;&gt;Node9</title>
<path fill="none" stroke="midnightblue" d="M280.33,-126.6C299.12,-109.59 330.67,-83.25 362,-67 370.96,-62.35 381.26,-58.61 390.81,-55.71"/>
<polygon fill="midnightblue" stroke="midnightblue" points="277.84,-124.13 272.86,-133.48 282.59,-129.28 277.84,-124.13"/>
</g>
<!-- Node10 -->
<g id="node10" class="node">
<title>Node10</title>
<g id="a_node10"><a xlink:href="classStepLFOComponent.html" target="_top" xlink:title="Draws a step LFO curve and shows a little dot moving long.">
<polygon fill="none" stroke="black" points="367.5,-0.5 367.5,-19.5 480.5,-19.5 480.5,-0.5 367.5,-0.5"/>
<text text-anchor="middle" x="424" y="-7.5" font-family="Helvetica,sans-Serif" font-size="10.00">StepLFOComponent</text>
</a>
</g>
</g>
<!-- Node1&#45;&gt;Node10 -->
<g id="edge9" class="edge">
<title>Node1&#45;&gt;Node10</title>
<path fill="none" stroke="midnightblue" d="M274.03,-124.91C290.25,-99.79 322.89,-54.56 362,-29 367.85,-25.18 374.51,-22.09 381.24,-19.6"/>
<polygon fill="midnightblue" stroke="midnightblue" points="271.01,-123.14 268.64,-133.47 276.93,-126.87 271.01,-123.14"/>
</g>
<!-- Node2 -->
<g id="node2" class="node">
<title>Node2</title>
<g id="a_node2"><a xlink:href="classParameter_1_1ParameterListener.html" target="_top" xlink:title=" ">
<polygon fill="none" stroke="black" points="0,-133.5 0,-152.5 162,-152.5 162,-133.5 0,-133.5"/>
<text text-anchor="middle" x="81" y="-140.5" font-family="Helvetica,sans-Serif" font-size="10.00">Parameter::ParameterListener</text>
</a>
</g>
</g>
<!-- Node2&#45;&gt;Node1 -->
<g id="edge1" class="edge">
<title>Node2&#45;&gt;Node1</title>
<path fill="none" stroke="midnightblue" d="M172.24,-143C180.92,-143 189.58,-143 197.91,-143"/>
<polygon fill="midnightblue" stroke="midnightblue" points="172.08,-139.5 162.08,-143 172.08,-146.5 172.08,-139.5"/>
</g>
</g>
</svg>
