<?xml version="1.0" encoding="UTF-8" standalone="no"?>
<!DOCTYPE svg PUBLIC "-//W3C//DTD SVG 1.1//EN"
 "http://www.w3.org/Graphics/SVG/1.1/DTD/svg11.dtd">
<!-- Generated by graphviz version 2.43.0 (0)
 -->
<!-- Title: ParamComponent Pages: 1 -->
<svg width="292pt" height="82pt"
 viewBox="0.00 0.00 292.00 82.00" xmlns="http://www.w3.org/2000/svg" xmlns:xlink="http://www.w3.org/1999/xlink">
<g id="graph0" class="graph" transform="scale(1 1) rotate(0) translate(4 78)">
<title>ParamComponent</title>
<!-- Node1 -->
<g id="Node000001" class="node">
<title>Node1</title>
<g id="a_Node000001"><a xlink:title="Base class for a control showing a parameter with label.">
<polygon fill="#999999" stroke="#666666" points="214.5,-74 110.5,-74 110.5,-55 214.5,-55 214.5,-74"/>
<text text-anchor="middle" x="162.5" y="-62" font-family="Helvetica,sans-Serif" font-size="10.00">ParamComponent</text>
</a>
</g>
</g>
<!-- Node2 -->
<g id="Node000002" class="node">
<title>Node2</title>
<g id="a_Node000002"><a xlink:href="classHorizontalFader.html" target="_top" xlink:title="Horizontal slider wth text for controlling a param.">
<polygon fill="white" stroke="#666666" points="93,-19 0,-19 0,0 93,0 93,-19"/>
<text text-anchor="middle" x="46.5" y="-7" font-family="Helvetica,sans-Serif" font-size="10.00">HorizontalFader</text>
</a>
</g>
</g>
<!-- Node1&#45;&gt;Node2 -->
<g id="edge1_Node000001_Node000002" class="edge">
<title>Node1&#45;&gt;Node2</title>
<g id="a_edge1_Node000001_Node000002"><a xlink:title=" ">
<path fill="none" stroke="#63b8ff" d="M134.63,-50.77C113.23,-40.99 84.26,-27.75 65.48,-19.17"/>
<polygon fill="#63b8ff" stroke="#63b8ff" points="133.31,-54.01 143.86,-54.98 136.22,-47.65 133.31,-54.01"/>
</a>
</g>
</g>
<!-- Node3 -->
<g id="Node000003" class="node">
<title>Node3</title>
<g id="a_Node000003"><a xlink:href="classKnob.html" target="_top" xlink:title="Complete parameter control combining rotary slider, value readout, and modulation.">
<polygon fill="white" stroke="#666666" points="152,-19 111,-19 111,0 152,0 152,-19"/>
<text text-anchor="middle" x="131.5" y="-7" font-family="Helvetica,sans-Serif" font-size="10.00">Knob</text>
</a>
</g>
</g>
<!-- Node1&#45;&gt;Node3 -->
<g id="edge2_Node000001_Node000003" class="edge">
<title>Node1&#45;&gt;Node3</title>
<g id="a_edge2_Node000001_Node000003"><a xlink:title=" ">
<path fill="none" stroke="#63b8ff" d="M152.32,-46.1C147.03,-37.04 140.78,-26.37 136.52,-19.09"/>
<polygon fill="#63b8ff" stroke="#63b8ff" points="149.31,-47.88 157.38,-54.75 155.35,-44.35 149.31,-47.88"/>
</a>
</g>
</g>
<!-- Node4 -->
<g id="Node000004" class="node">
<title>Node4</title>
<g id="a_Node000004"><a xlink:href="classSelect.html" target="_top" xlink:title="Control for picking param value with label.">
<polygon fill="white" stroke="#666666" points="217,-19 170,-19 170,0 217,0 217,-19"/>
<text text-anchor="middle" x="193.5" y="-7" font-family="Helvetica,sans-Serif" font-size="10.00">Select</text>
</a>
</g>
</g>
<!-- Node1&#45;&gt;Node4 -->
<g id="edge3_Node000001_Node000004" class="edge">
<title>Node1&#45;&gt;Node4</title>
<g id="a_edge3_Node000001_Node000004"><a xlink:title=" ">
<path fill="none" stroke="#63b8ff" d="M172.68,-46.1C177.97,-37.04 184.22,-26.37 188.48,-19.09"/>
<polygon fill="#63b8ff" stroke="#63b8ff" points="169.65,-44.35 167.62,-54.75 175.69,-47.88 169.65,-44.35"/>
</a>
</g>
</g>
<!-- Node5 -->
<g id="Node000005" class="node">
<title>Node5</title>
<g id="a_Node000005"><a xlink:href="classSwitch.html" target="_top" xlink:title="Control for toggling param with label.">
<polygon fill="white" stroke="#666666" points="284,-19 235,-19 235,0 284,0 284,-19"/>
<text text-anchor="middle" x="259.5" y="-7" font-family="Helvetica,sans-Serif" font-size="10.00">Switch</text>
</a>
</g>
</g>
<!-- Node1&#45;&gt;Node5 -->
<g id="edge4_Node000001_Node000005" class="edge">
<title>Node1&#45;&gt;Node5</title>
<g id="a_edge4_Node000001_Node000005"><a xlink:title=" ">
<path fill="none" stroke="#63b8ff" d="M187.27,-49.97C205,-40.28 228.35,-27.52 243.63,-19.17"/>
<polygon fill="#63b8ff" stroke="#63b8ff" points="185.18,-47.12 178.08,-54.98 188.54,-53.26 185.18,-47.12"/>
</a>
</g>
</g>
</g>
</svg>
