<?xml version="1.0" encoding="UTF-8" standalone="no"?>
<!DOCTYPE svg PUBLIC "-//W3C//DTD SVG 1.1//EN"
 "http://www.w3.org/Graphics/SVG/1.1/DTD/svg11.dtd">
<!-- Generated by graphviz version 2.43.0 (0)
 -->
<!-- Title: ModMatrix::Listener Pages: 1 -->
<svg width="447pt" height="84pt"
 viewBox="0.00 0.00 447.00 84.00" xmlns="http://www.w3.org/2000/svg" xmlns:xlink="http://www.w3.org/1999/xlink">
<g id="graph0" class="graph" transform="scale(1 1) rotate(0) translate(4 80)">
<title>ModMatrix::Listener</title>
<!-- Node1 -->
<g id="node1" class="node">
<title>Node1</title>
<g id="a_node1"><a xlink:title=" ">
<polygon fill="#bfbfbf" stroke="black" points="106.5,-56.5 106.5,-75.5 220.5,-75.5 220.5,-56.5 106.5,-56.5"/>
<text text-anchor="middle" x="163.5" y="-63.5" font-family="Helvetica,sans-Serif" font-size="10.00">ModMatrix::Listener</text>
</a>
</g>
</g>
<!-- Node2 -->
<g id="node2" class="node">
<title>Node2</title>
<g id="a_node2"><a xlink:href="classKnob.html" target="_top" xlink:title="Slider + editable text for showing a param.">
<polygon fill="none" stroke="black" points="0,-0.5 0,-19.5 41,-19.5 41,-0.5 0,-0.5"/>
<text text-anchor="middle" x="20.5" y="-7.5" font-family="Helvetica,sans-Serif" font-size="10.00">Knob</text>
</a>
</g>
</g>
<!-- Node1&#45;&gt;Node2 -->
<g id="edge1" class="edge">
<title>Node1&#45;&gt;Node2</title>
<path fill="none" stroke="#8b1a1a" d="M131.24,-52.82C103.66,-42.4 64.79,-27.73 41.2,-18.82"/>
<polygon fill="#8b1a1a" stroke="#8b1a1a" points="130.25,-56.19 140.84,-56.44 132.72,-49.64 130.25,-56.19"/>
</g>
<!-- Node3 -->
<g id="node3" class="node">
<title>Node3</title>
<g id="a_node3"><a xlink:href="classModMatrixBox.html" target="_top" xlink:title="A list box of all assigned.">
<polygon fill="none" stroke="black" points="59.5,-0.5 59.5,-19.5 147.5,-19.5 147.5,-0.5 59.5,-0.5"/>
<text text-anchor="middle" x="103.5" y="-7.5" font-family="Helvetica,sans-Serif" font-size="10.00">ModMatrixBox</text>
</a>
</g>
</g>
<!-- Node1&#45;&gt;Node3 -->
<g id="edge2" class="edge">
<title>Node1&#45;&gt;Node3</title>
<path fill="none" stroke="#8b1a1a" d="M146.32,-49.54C135.62,-39.91 122.24,-27.87 113.32,-19.83"/>
<polygon fill="#8b1a1a" stroke="#8b1a1a" points="144.09,-52.24 153.86,-56.32 148.77,-47.03 144.09,-52.24"/>
</g>
<!-- Node4 -->
<g id="node4" class="node">
<title>Node4</title>
<g id="a_node4"><a xlink:href="classModulationOverview.html" target="_top" xlink:title="A button and text readout that shows the current modulation source.">
<polygon fill="none" stroke="black" points="165.5,-0.5 165.5,-19.5 283.5,-19.5 283.5,-0.5 165.5,-0.5"/>
<text text-anchor="middle" x="224.5" y="-7.5" font-family="Helvetica,sans-Serif" font-size="10.00">ModulationOverview</text>
</a>
</g>
</g>
<!-- Node1&#45;&gt;Node4 -->
<g id="edge3" class="edge">
<title>Node1&#45;&gt;Node4</title>
<path fill="none" stroke="#8b1a1a" d="M180.97,-49.54C191.84,-39.91 205.44,-27.87 214.52,-19.83"/>
<polygon fill="#8b1a1a" stroke="#8b1a1a" points="178.47,-47.07 173.3,-56.32 183.11,-52.32 178.47,-47.07"/>
</g>
<!-- Node5 -->
<g id="node5" class="node">
<title>Node5</title>
<g id="a_node5"><a xlink:href="classModulationSourceButton.html" target="_top" xlink:title="A button for enabling modulation learn.">
<polygon fill="none" stroke="black" points="302,-0.5 302,-19.5 439,-19.5 439,-0.5 302,-0.5"/>
<text text-anchor="middle" x="370.5" y="-7.5" font-family="Helvetica,sans-Serif" font-size="10.00">ModulationSourceButton</text>
</a>
</g>
</g>
<!-- Node1&#45;&gt;Node5 -->
<g id="edge4" class="edge">
<title>Node1&#45;&gt;Node5</title>
<path fill="none" stroke="#8b1a1a" d="M206.32,-53.83C245.41,-43.63 302.33,-28.78 337.85,-19.52"/>
<polygon fill="#8b1a1a" stroke="#8b1a1a" points="205.09,-50.53 196.3,-56.44 206.86,-57.31 205.09,-50.53"/>
</g>
</g>
</svg>
