<?xml version="1.0" encoding="UTF-8" standalone="no"?>
<!DOCTYPE svg PUBLIC "-//W3C//DTD SVG 1.1//EN"
 "http://www.w3.org/Graphics/SVG/1.1/DTD/svg11.dtd">
<!-- Generated by graphviz version 2.43.0 (0)
 -->
<!-- Title: Knob Pages: 1 -->
<svg width="248pt" height="82pt"
 viewBox="0.00 0.00 247.50 82.00" xmlns="http://www.w3.org/2000/svg" xmlns:xlink="http://www.w3.org/1999/xlink">
<g id="graph0" class="graph" transform="scale(1 1) rotate(0) translate(4 78)">
<title>Knob</title>
<!-- Node1 -->
<g id="Node000001" class="node">
<title>Node1</title>
<g id="a_Node000001"><a xlink:title="Complete parameter control combining rotary slider, value readout, and modulation.">
<polygon fill="#999999" stroke="#666666" points="136.5,-19 95.5,-19 95.5,0 136.5,0 136.5,-19"/>
<text text-anchor="middle" x="116" y="-7" font-family="Helvetica,sans-Serif" font-size="10.00">Knob</text>
</a>
</g>
</g>
<!-- Node2 -->
<g id="Node000002" class="node">
<title>Node2</title>
<g id="a_Node000002"><a xlink:href="classParamComponent.html" target="_top" xlink:title="Base class for a control showing a parameter with label.">
<polygon fill="white" stroke="#666666" points="104,-74 0,-74 0,-55 104,-55 104,-74"/>
<text text-anchor="middle" x="52" y="-62" font-family="Helvetica,sans-Serif" font-size="10.00">ParamComponent</text>
</a>
</g>
</g>
<!-- Node2&#45;&gt;Node1 -->
<g id="edge1_Node000001_Node000002" class="edge">
<title>Node2&#45;&gt;Node1</title>
<g id="a_edge1_Node000001_Node000002"><a xlink:title=" ">
<path fill="none" stroke="#63b8ff" d="M69.99,-48.6C81.46,-39.11 95.91,-27.13 105.53,-19.17"/>
<polygon fill="#63b8ff" stroke="#63b8ff" points="67.75,-45.91 62.28,-54.98 72.22,-51.3 67.75,-45.91"/>
</a>
</g>
</g>
<!-- Node3 -->
<g id="Node000003" class="node">
<title>Node3</title>
<g id="a_Node000003"><a xlink:href="classIModMatrix_1_1Listener.html" target="_top" xlink:title="Listener interface for modulation matrix changes.">
<polygon fill="white" stroke="#666666" points="239.5,-74 122.5,-74 122.5,-55 239.5,-55 239.5,-74"/>
<text text-anchor="middle" x="181" y="-62" font-family="Helvetica,sans-Serif" font-size="10.00">IModMatrix::Listener</text>
</a>
</g>
</g>
<!-- Node3&#45;&gt;Node1 -->
<g id="edge2_Node000001_Node000003" class="edge">
<title>Node3&#45;&gt;Node1</title>
<g id="a_edge2_Node000001_Node000003"><a xlink:title=" ">
<path fill="none" stroke="#8b1a1a" d="M162.73,-48.6C151.08,-39.11 136.4,-27.13 126.63,-19.17"/>
<polygon fill="#8b1a1a" stroke="#8b1a1a" points="160.59,-51.38 170.56,-54.98 165.02,-45.95 160.59,-51.38"/>
</a>
</g>
</g>
</g>
</svg>
