<?xml version="1.0" encoding="UTF-8" standalone="no"?>
<!DOCTYPE svg PUBLIC "-//W3C//DTD SVG 1.1//EN"
 "http://www.w3.org/Graphics/SVG/1.1/DTD/svg11.dtd">
<!-- Generated by graphviz version 2.43.0 (0)
 -->
<!-- Title: Parameter::ParameterListener Pages: 1 -->
<svg width="494pt" height="389pt"
 viewBox="0.00 0.00 494.00 389.00" xmlns="http://www.w3.org/2000/svg" xmlns:xlink="http://www.w3.org/1999/xlink">
<g id="graph0" class="graph" transform="scale(1 1) rotate(0) translate(4 385)">
<title>Parameter::ParameterListener</title>
<!-- Node1 -->
<g id="node1" class="node">
<title>Node1</title>
<g id="a_node1"><a xlink:title=" ">
<polygon fill="#bfbfbf" stroke="black" points="0,-76.5 0,-95.5 162,-95.5 162,-76.5 0,-76.5"/>
<text text-anchor="middle" x="81" y="-83.5" font-family="Helvetica,sans-Serif" font-size="10.00">Parameter::ParameterListener</text>
</a>
</g>
</g>
<!-- Node2 -->
<g id="node2" class="node">
<title>Node2</title>
<g id="a_node2"><a xlink:href="classMultiParamComponent.html" target="_top" xlink:title="A base component for controlling multiple parameters at once.">
<polygon fill="none" stroke="black" points="198,-209.5 198,-228.5 326,-228.5 326,-209.5 198,-209.5"/>
<text text-anchor="middle" x="262" y="-216.5" font-family="Helvetica,sans-Serif" font-size="10.00">MultiParamComponent</text>
</a>
</g>
</g>
<!-- Node1&#45;&gt;Node2 -->
<g id="edge1" class="edge">
<title>Node1&#45;&gt;Node2</title>
<path fill="none" stroke="midnightblue" d="M103.04,-101.63C140.32,-129.34 216.97,-186.28 247.76,-209.16"/>
<polygon fill="midnightblue" stroke="midnightblue" points="104.99,-98.72 94.87,-95.57 100.81,-104.34 104.99,-98.72"/>
</g>
<!-- Node11 -->
<g id="node11" class="node">
<title>Node11</title>
<g id="a_node11"><a xlink:href="classPluginButton.html" target="_top" xlink:title="Button for toggling a parameter.">
<polygon fill="none" stroke="black" points="222.5,-114.5 222.5,-133.5 301.5,-133.5 301.5,-114.5 222.5,-114.5"/>
<text text-anchor="middle" x="262" y="-121.5" font-family="Helvetica,sans-Serif" font-size="10.00">PluginButton</text>
</a>
</g>
</g>
<!-- Node1&#45;&gt;Node11 -->
<g id="edge10" class="edge">
<title>Node1&#45;&gt;Node11</title>
<path fill="none" stroke="#8b1a1a" d="M137.07,-97.69C164.63,-103.54 197.33,-110.48 222.22,-115.77"/>
<polygon fill="#8b1a1a" stroke="#8b1a1a" points="137.68,-94.24 127.17,-95.59 136.22,-101.09 137.68,-94.24"/>
</g>
<!-- Node13 -->
<g id="node13" class="node">
<title>Node13</title>
<g id="a_node13"><a xlink:href="classPluginComboBox.html" target="_top" xlink:title="A control for selecting param values from a dropbox.">
<polygon fill="none" stroke="black" points="212,-76.5 212,-95.5 312,-95.5 312,-76.5 212,-76.5"/>
<text text-anchor="middle" x="262" y="-83.5" font-family="Helvetica,sans-Serif" font-size="10.00">PluginComboBox</text>
</a>
</g>
</g>
<!-- Node1&#45;&gt;Node13 -->
<g id="edge12" class="edge">
<title>Node1&#45;&gt;Node13</title>
<path fill="none" stroke="#8b1a1a" d="M172.44,-86C186,-86 199.54,-86 211.8,-86"/>
<polygon fill="#8b1a1a" stroke="#8b1a1a" points="172.08,-82.5 162.08,-86 172.08,-89.5 172.08,-82.5"/>
</g>
<!-- Node14 -->
<g id="node14" class="node">
<title>Node14</title>
<g id="a_node14"><a xlink:href="classPluginSlider.html" target="_top" xlink:title="A slider for controlling a parameter.">
<polygon fill="none" stroke="black" points="225,-38.5 225,-57.5 299,-57.5 299,-38.5 225,-38.5"/>
<text text-anchor="middle" x="262" y="-45.5" font-family="Helvetica,sans-Serif" font-size="10.00">PluginSlider</text>
</a>
</g>
</g>
<!-- Node1&#45;&gt;Node14 -->
<g id="edge13" class="edge">
<title>Node1&#45;&gt;Node14</title>
<path fill="none" stroke="#8b1a1a" d="M137.02,-74.32C165.57,-68.26 199.66,-61.02 224.86,-55.67"/>
<polygon fill="#8b1a1a" stroke="#8b1a1a" points="136.22,-70.91 127.17,-76.41 137.68,-77.76 136.22,-70.91"/>
</g>
<!-- Node15 -->
<g id="node15" class="node">
<title>Node15</title>
<g id="a_node15"><a xlink:href="classReadout.html" target="_top" xlink:title="A control for displaying a parameter.">
<polygon fill="none" stroke="black" points="233.5,-0.5 233.5,-19.5 290.5,-19.5 290.5,-0.5 233.5,-0.5"/>
<text text-anchor="middle" x="262" y="-7.5" font-family="Helvetica,sans-Serif" font-size="10.00">Readout</text>
</a>
</g>
</g>
<!-- Node1&#45;&gt;Node15 -->
<g id="edge14" class="edge">
<title>Node1&#45;&gt;Node15</title>
<path fill="none" stroke="#8b1a1a" d="M108.14,-71.62C131.29,-59.25 166.25,-41.49 198,-29 209.38,-24.52 222.25,-20.47 233.38,-17.27"/>
<polygon fill="#8b1a1a" stroke="#8b1a1a" points="106.42,-68.57 99.28,-76.39 109.75,-74.73 106.42,-68.57"/>
</g>
<!-- Node3 -->
<g id="node3" class="node">
<title>Node3</title>
<g id="a_node3"><a xlink:href="classADSRComponent.html" target="_top" xlink:title="Component for adjuting ADSR curves.">
<polygon fill="none" stroke="black" points="374,-361.5 374,-380.5 474,-380.5 474,-361.5 374,-361.5"/>
<text text-anchor="middle" x="424" y="-368.5" font-family="Helvetica,sans-Serif" font-size="10.00">ADSRComponent</text>
</a>
</g>
</g>
<!-- Node2&#45;&gt;Node3 -->
<g id="edge2" class="edge">
<title>Node2&#45;&gt;Node3</title>
<path fill="none" stroke="midnightblue" d="M271.98,-237.67C286.77,-266.44 318.93,-321.48 362,-352 367.43,-355.85 373.67,-358.94 380.03,-361.41"/>
<polygon fill="midnightblue" stroke="midnightblue" points="275.09,-236.05 267.49,-228.67 268.83,-239.18 275.09,-236.05"/>
</g>
<!-- Node4 -->
<g id="node4" class="node">
<title>Node4</title>
<g id="a_node4"><a xlink:href="classControlBox.html" target="_top" xlink:title="A box for holding controls on a grid.">
<polygon fill="none" stroke="black" points="388.5,-323.5 388.5,-342.5 459.5,-342.5 459.5,-323.5 388.5,-323.5"/>
<text text-anchor="middle" x="424" y="-330.5" font-family="Helvetica,sans-Serif" font-size="10.00">ControlBox</text>
</a>
</g>
</g>
<!-- Node2&#45;&gt;Node4 -->
<g id="edge3" class="edge">
<title>Node2&#45;&gt;Node4</title>
<path fill="none" stroke="midnightblue" d="M276.77,-236.47C294.39,-257.7 326.84,-293.24 362,-314 370.02,-318.74 379.35,-322.41 388.26,-325.21"/>
<polygon fill="midnightblue" stroke="midnightblue" points="279.39,-234.14 270.37,-228.59 273.96,-238.56 279.39,-234.14"/>
</g>
<!-- Node5 -->
<g id="node5" class="node">
<title>Node5</title>
<g id="a_node5"><a xlink:href="classGateEffectComponent.html" target="_top" xlink:title="An editor for the gate effect pattern.">
<polygon fill="none" stroke="black" points="362,-285.5 362,-304.5 486,-304.5 486,-285.5 362,-285.5"/>
<text text-anchor="middle" x="424" y="-292.5" font-family="Helvetica,sans-Serif" font-size="10.00">GateEffectComponent</text>
</a>
</g>
</g>
<!-- Node2&#45;&gt;Node5 -->
<g id="edge4" class="edge">
<title>Node2&#45;&gt;Node5</title>
<path fill="none" stroke="midnightblue" d="M285.76,-234.04C305.36,-246.51 334.7,-264.07 362,-276 370.13,-279.55 379.14,-282.74 387.68,-285.45"/>
<polygon fill="midnightblue" stroke="midnightblue" points="287.53,-231.02 277.23,-228.54 283.74,-236.9 287.53,-231.02"/>
</g>
<!-- Node6 -->
<g id="node6" class="node">
<title>Node6</title>
<g id="a_node6"><a xlink:href="classLFOComponent.html" target="_top" xlink:title="Draws an LFO curve and shows a little dot moving long.">
<polygon fill="none" stroke="black" points="378,-247.5 378,-266.5 470,-266.5 470,-247.5 378,-247.5"/>
<text text-anchor="middle" x="424" y="-254.5" font-family="Helvetica,sans-Serif" font-size="10.00">LFOComponent</text>
</a>
</g>
</g>
<!-- Node2&#45;&gt;Node6 -->
<g id="edge5" class="edge">
<title>Node2&#45;&gt;Node6</title>
<path fill="none" stroke="midnightblue" d="M313.39,-230.97C335.81,-236.29 361.85,-242.48 382.92,-247.48"/>
<polygon fill="midnightblue" stroke="midnightblue" points="313.91,-227.49 303.37,-228.59 312.3,-234.31 313.91,-227.49"/>
</g>
<!-- Node7 -->
<g id="node7" class="node">
<title>Node7</title>
<g id="a_node7"><a xlink:href="classPagedControlBox.html" target="_top" xlink:title="A control for holding pags of controls on a grid Pages slide over top of each other to make room.">
<polygon fill="none" stroke="black" points="374,-209.5 374,-228.5 474,-228.5 474,-209.5 374,-209.5"/>
<text text-anchor="middle" x="424" y="-216.5" font-family="Helvetica,sans-Serif" font-size="10.00">PagedControlBox</text>
</a>
</g>
</g>
<!-- Node2&#45;&gt;Node7 -->
<g id="edge6" class="edge">
<title>Node2&#45;&gt;Node7</title>
<path fill="none" stroke="midnightblue" d="M336.28,-219C348.9,-219 361.74,-219 373.54,-219"/>
<polygon fill="midnightblue" stroke="midnightblue" points="336.24,-215.5 326.24,-219 336.24,-222.5 336.24,-215.5"/>
</g>
<!-- Node8 -->
<g id="node8" class="node">
<title>Node8</title>
<g id="a_node8"><a xlink:href="classParamArea.html" target="_top" xlink:title="A box for graphs without a header.">
<polygon fill="none" stroke="black" points="389,-171.5 389,-190.5 459,-190.5 459,-171.5 389,-171.5"/>
<text text-anchor="middle" x="424" y="-178.5" font-family="Helvetica,sans-Serif" font-size="10.00">ParamArea</text>
</a>
</g>
</g>
<!-- Node2&#45;&gt;Node8 -->
<g id="edge7" class="edge">
<title>Node2&#45;&gt;Node8</title>
<path fill="none" stroke="midnightblue" d="M313.27,-207.06C337.88,-201.22 366.87,-194.33 388.87,-189.11"/>
<polygon fill="midnightblue" stroke="midnightblue" points="312.3,-203.69 303.37,-209.41 313.91,-210.51 312.3,-203.69"/>
</g>
<!-- Node9 -->
<g id="node9" class="node">
<title>Node9</title>
<g id="a_node9"><a xlink:href="classParamBox.html" target="_top" xlink:title="A box for knobs with a header.">
<polygon fill="none" stroke="black" points="391,-133.5 391,-152.5 457,-152.5 457,-133.5 391,-133.5"/>
<text text-anchor="middle" x="424" y="-140.5" font-family="Helvetica,sans-Serif" font-size="10.00">ParamBox</text>
</a>
</g>
</g>
<!-- Node2&#45;&gt;Node9 -->
<g id="edge8" class="edge">
<title>Node2&#45;&gt;Node9</title>
<path fill="none" stroke="midnightblue" d="M285.76,-203.96C305.36,-191.49 334.7,-173.93 362,-162 371.15,-158 381.4,-154.47 390.85,-151.56"/>
<polygon fill="midnightblue" stroke="midnightblue" points="283.74,-201.1 277.23,-209.46 287.53,-206.98 283.74,-201.1"/>
</g>
<!-- Node10 -->
<g id="node10" class="node">
<title>Node10</title>
<g id="a_node10"><a xlink:href="classStepLFOComponent.html" target="_top" xlink:title="Draws a step LFO curve and shows a little dot moving long.">
<polygon fill="none" stroke="black" points="367.5,-95.5 367.5,-114.5 480.5,-114.5 480.5,-95.5 367.5,-95.5"/>
<text text-anchor="middle" x="424" y="-102.5" font-family="Helvetica,sans-Serif" font-size="10.00">StepLFOComponent</text>
</a>
</g>
</g>
<!-- Node2&#45;&gt;Node10 -->
<g id="edge9" class="edge">
<title>Node2&#45;&gt;Node10</title>
<path fill="none" stroke="midnightblue" d="M276.77,-201.53C294.39,-180.3 326.84,-144.76 362,-124 368.4,-120.22 375.63,-117.12 382.81,-114.6"/>
<polygon fill="midnightblue" stroke="midnightblue" points="273.96,-199.44 270.37,-209.41 279.39,-203.86 273.96,-199.44"/>
</g>
<!-- Node12 -->
<g id="node12" class="node">
<title>Node12</title>
<g id="a_node12"><a xlink:href="classPowerButton.html" target="_top" xlink:title="Button for toggling a parameter, drawn as a power button.">
<polygon fill="none" stroke="black" points="384.5,-57.5 384.5,-76.5 463.5,-76.5 463.5,-57.5 384.5,-57.5"/>
<text text-anchor="middle" x="424" y="-64.5" font-family="Helvetica,sans-Serif" font-size="10.00">PowerButton</text>
</a>
</g>
</g>
<!-- Node11&#45;&gt;Node12 -->
<g id="edge11" class="edge">
<title>Node11&#45;&gt;Node12</title>
<path fill="none" stroke="midnightblue" d="M308.82,-111.32C314.67,-109.37 320.52,-107.25 326,-105 342.74,-98.13 345.29,-92.94 362,-86 370.4,-82.51 379.68,-79.31 388.41,-76.56"/>
<polygon fill="midnightblue" stroke="midnightblue" points="307.53,-108.05 299.07,-114.43 309.66,-114.72 307.53,-108.05"/>
</g>
</g>
</svg>
