<?xml version="1.0" encoding="UTF-8" standalone="no"?>
<!DOCTYPE svg PUBLIC "-//W3C//DTD SVG 1.1//EN"
 "http://www.w3.org/Graphics/SVG/1.1/DTD/svg11.dtd">
<!-- Generated by graphviz version 2.43.0 (0)
 -->
<!-- Title: Parameter::Listener Pages: 1 -->
<svg width="444pt" height="389pt"
 viewBox="0.00 0.00 444.00 389.00" xmlns="http://www.w3.org/2000/svg" xmlns:xlink="http://www.w3.org/1999/xlink">
<g id="graph0" class="graph" transform="scale(1 1) rotate(0) translate(4 385)">
<title>Parameter::Listener</title>
<!-- Node1 -->
<g id="node1" class="node">
<title>Node1</title>
<g id="a_node1"><a xlink:title=" ">
<polygon fill="#bfbfbf" stroke="black" points="0,-76.5 0,-95.5 112,-95.5 112,-76.5 0,-76.5"/>
<text text-anchor="middle" x="56" y="-83.5" font-family="Helvetica,sans-Serif" font-size="10.00">Parameter::Listener</text>
</a>
</g>
</g>
<!-- Node2 -->
<g id="node2" class="node">
<title>Node2</title>
<g id="a_node2"><a xlink:href="classMultiParamComponent.html" target="_top" xlink:title="A base component for controlling multiple parameters at once.">
<polygon fill="none" stroke="black" points="148,-209.5 148,-228.5 276,-228.5 276,-209.5 148,-209.5"/>
<text text-anchor="middle" x="212" y="-216.5" font-family="Helvetica,sans-Serif" font-size="10.00">MultiParamComponent</text>
</a>
</g>
</g>
<!-- Node1&#45;&gt;Node2 -->
<g id="edge1" class="edge">
<title>Node1&#45;&gt;Node2</title>
<path fill="none" stroke="midnightblue" d="M75.92,-102.34C108.29,-130.29 173.34,-186.48 199.61,-209.16"/>
<polygon fill="midnightblue" stroke="midnightblue" points="77.93,-99.45 68.08,-95.57 73.36,-104.75 77.93,-99.45"/>
</g>
<!-- Node11 -->
<g id="node11" class="node">
<title>Node11</title>
<g id="a_node11"><a xlink:href="classPluginButton.html" target="_top" xlink:title="Button for toggling a parameter.">
<polygon fill="none" stroke="black" points="172.5,-114.5 172.5,-133.5 251.5,-133.5 251.5,-114.5 172.5,-114.5"/>
<text text-anchor="middle" x="212" y="-121.5" font-family="Helvetica,sans-Serif" font-size="10.00">PluginButton</text>
</a>
</g>
</g>
<!-- Node1&#45;&gt;Node11 -->
<g id="edge10" class="edge">
<title>Node1&#45;&gt;Node11</title>
<path fill="none" stroke="#8b1a1a" d="M105.79,-98.04C127.31,-103.35 152.23,-109.5 172.42,-114.48"/>
<polygon fill="#8b1a1a" stroke="#8b1a1a" points="106.41,-94.59 95.86,-95.59 104.73,-101.38 106.41,-94.59"/>
</g>
<!-- Node13 -->
<g id="node13" class="node">
<title>Node13</title>
<g id="a_node13"><a xlink:href="classPluginComboBox.html" target="_top" xlink:title="A control for selecting param values from a dropbox.">
<polygon fill="none" stroke="black" points="162,-76.5 162,-95.5 262,-95.5 262,-76.5 162,-76.5"/>
<text text-anchor="middle" x="212" y="-83.5" font-family="Helvetica,sans-Serif" font-size="10.00">PluginComboBox</text>
</a>
</g>
</g>
<!-- Node1&#45;&gt;Node13 -->
<g id="edge12" class="edge">
<title>Node1&#45;&gt;Node13</title>
<path fill="none" stroke="#8b1a1a" d="M122.2,-86C135.48,-86 149.24,-86 161.85,-86"/>
<polygon fill="#8b1a1a" stroke="#8b1a1a" points="122.16,-82.5 112.16,-86 122.16,-89.5 122.16,-82.5"/>
</g>
<!-- Node14 -->
<g id="node14" class="node">
<title>Node14</title>
<g id="a_node14"><a xlink:href="classPluginSlider.html" target="_top" xlink:title="A slider for controlling a parameter.">
<polygon fill="none" stroke="black" points="175,-38.5 175,-57.5 249,-57.5 249,-38.5 175,-38.5"/>
<text text-anchor="middle" x="212" y="-45.5" font-family="Helvetica,sans-Serif" font-size="10.00">PluginSlider</text>
</a>
</g>
</g>
<!-- Node1&#45;&gt;Node14 -->
<g id="edge13" class="edge">
<title>Node1&#45;&gt;Node14</title>
<path fill="none" stroke="#8b1a1a" d="M105.84,-73.95C128.2,-68.43 154.23,-62.01 174.8,-56.93"/>
<polygon fill="#8b1a1a" stroke="#8b1a1a" points="104.73,-70.62 95.86,-76.41 106.41,-77.41 104.73,-70.62"/>
</g>
<!-- Node15 -->
<g id="node15" class="node">
<title>Node15</title>
<g id="a_node15"><a xlink:href="classReadout.html" target="_top" xlink:title="A control for displaying a parameter.">
<polygon fill="none" stroke="black" points="183.5,-0.5 183.5,-19.5 240.5,-19.5 240.5,-0.5 183.5,-0.5"/>
<text text-anchor="middle" x="212" y="-7.5" font-family="Helvetica,sans-Serif" font-size="10.00">Readout</text>
</a>
</g>
</g>
<!-- Node1&#45;&gt;Node15 -->
<g id="edge14" class="edge">
<title>Node1&#45;&gt;Node15</title>
<path fill="none" stroke="#8b1a1a" d="M78.45,-70.26C96.33,-57.72 122.85,-40.42 148,-29 159.23,-23.9 172.2,-19.72 183.44,-16.59"/>
<polygon fill="#8b1a1a" stroke="#8b1a1a" points="76.05,-67.67 69.94,-76.33 80.11,-73.37 76.05,-67.67"/>
</g>
<!-- Node3 -->
<g id="node3" class="node">
<title>Node3</title>
<g id="a_node3"><a xlink:href="classADSRComponent.html" target="_top" xlink:title="Component for adjuting ADSR curves.">
<polygon fill="none" stroke="black" points="324,-361.5 324,-380.5 424,-380.5 424,-361.5 324,-361.5"/>
<text text-anchor="middle" x="374" y="-368.5" font-family="Helvetica,sans-Serif" font-size="10.00">ADSRComponent</text>
</a>
</g>
</g>
<!-- Node2&#45;&gt;Node3 -->
<g id="edge2" class="edge">
<title>Node2&#45;&gt;Node3</title>
<path fill="none" stroke="midnightblue" d="M221.98,-237.67C236.77,-266.44 268.93,-321.48 312,-352 317.43,-355.85 323.67,-358.94 330.03,-361.41"/>
<polygon fill="midnightblue" stroke="midnightblue" points="225.09,-236.05 217.49,-228.67 218.83,-239.18 225.09,-236.05"/>
</g>
<!-- Node4 -->
<g id="node4" class="node">
<title>Node4</title>
<g id="a_node4"><a xlink:href="classControlBox.html" target="_top" xlink:title="A box for holding controls on a grid.">
<polygon fill="none" stroke="black" points="338.5,-323.5 338.5,-342.5 409.5,-342.5 409.5,-323.5 338.5,-323.5"/>
<text text-anchor="middle" x="374" y="-330.5" font-family="Helvetica,sans-Serif" font-size="10.00">ControlBox</text>
</a>
</g>
</g>
<!-- Node2&#45;&gt;Node4 -->
<g id="edge3" class="edge">
<title>Node2&#45;&gt;Node4</title>
<path fill="none" stroke="midnightblue" d="M226.77,-236.47C244.39,-257.7 276.84,-293.24 312,-314 320.02,-318.74 329.35,-322.41 338.26,-325.21"/>
<polygon fill="midnightblue" stroke="midnightblue" points="229.39,-234.14 220.37,-228.59 223.96,-238.56 229.39,-234.14"/>
</g>
<!-- Node5 -->
<g id="node5" class="node">
<title>Node5</title>
<g id="a_node5"><a xlink:href="classGateEffectComponent.html" target="_top" xlink:title="An editor for the gate effect pattern.">
<polygon fill="none" stroke="black" points="312,-285.5 312,-304.5 436,-304.5 436,-285.5 312,-285.5"/>
<text text-anchor="middle" x="374" y="-292.5" font-family="Helvetica,sans-Serif" font-size="10.00">GateEffectComponent</text>
</a>
</g>
</g>
<!-- Node2&#45;&gt;Node5 -->
<g id="edge4" class="edge">
<title>Node2&#45;&gt;Node5</title>
<path fill="none" stroke="midnightblue" d="M235.76,-234.04C255.36,-246.51 284.7,-264.07 312,-276 320.13,-279.55 329.14,-282.74 337.68,-285.45"/>
<polygon fill="midnightblue" stroke="midnightblue" points="237.53,-231.02 227.23,-228.54 233.74,-236.9 237.53,-231.02"/>
</g>
<!-- Node6 -->
<g id="node6" class="node">
<title>Node6</title>
<g id="a_node6"><a xlink:href="classLFOComponent.html" target="_top" xlink:title="Draws an LFO curve and shows a little dot moving long.">
<polygon fill="none" stroke="black" points="328,-247.5 328,-266.5 420,-266.5 420,-247.5 328,-247.5"/>
<text text-anchor="middle" x="374" y="-254.5" font-family="Helvetica,sans-Serif" font-size="10.00">LFOComponent</text>
</a>
</g>
</g>
<!-- Node2&#45;&gt;Node6 -->
<g id="edge5" class="edge">
<title>Node2&#45;&gt;Node6</title>
<path fill="none" stroke="midnightblue" d="M263.39,-230.97C285.81,-236.29 311.85,-242.48 332.92,-247.48"/>
<polygon fill="midnightblue" stroke="midnightblue" points="263.91,-227.49 253.37,-228.59 262.3,-234.31 263.91,-227.49"/>
</g>
<!-- Node7 -->
<g id="node7" class="node">
<title>Node7</title>
<g id="a_node7"><a xlink:href="classPagedControlBox.html" target="_top" xlink:title="A control for holding pags of controls on a grid Pages slide over top of each other to make room.">
<polygon fill="none" stroke="black" points="324,-209.5 324,-228.5 424,-228.5 424,-209.5 324,-209.5"/>
<text text-anchor="middle" x="374" y="-216.5" font-family="Helvetica,sans-Serif" font-size="10.00">PagedControlBox</text>
</a>
</g>
</g>
<!-- Node2&#45;&gt;Node7 -->
<g id="edge6" class="edge">
<title>Node2&#45;&gt;Node7</title>
<path fill="none" stroke="midnightblue" d="M286.28,-219C298.9,-219 311.74,-219 323.54,-219"/>
<polygon fill="midnightblue" stroke="midnightblue" points="286.24,-215.5 276.24,-219 286.24,-222.5 286.24,-215.5"/>
</g>
<!-- Node8 -->
<g id="node8" class="node">
<title>Node8</title>
<g id="a_node8"><a xlink:href="classParamArea.html" target="_top" xlink:title="A box for graphs without a header.">
<polygon fill="none" stroke="black" points="339,-171.5 339,-190.5 409,-190.5 409,-171.5 339,-171.5"/>
<text text-anchor="middle" x="374" y="-178.5" font-family="Helvetica,sans-Serif" font-size="10.00">ParamArea</text>
</a>
</g>
</g>
<!-- Node2&#45;&gt;Node8 -->
<g id="edge7" class="edge">
<title>Node2&#45;&gt;Node8</title>
<path fill="none" stroke="midnightblue" d="M263.27,-207.06C287.88,-201.22 316.87,-194.33 338.87,-189.11"/>
<polygon fill="midnightblue" stroke="midnightblue" points="262.3,-203.69 253.37,-209.41 263.91,-210.51 262.3,-203.69"/>
</g>
<!-- Node9 -->
<g id="node9" class="node">
<title>Node9</title>
<g id="a_node9"><a xlink:href="classParamBox.html" target="_top" xlink:title="A box for knobs with a header.">
<polygon fill="none" stroke="black" points="341,-133.5 341,-152.5 407,-152.5 407,-133.5 341,-133.5"/>
<text text-anchor="middle" x="374" y="-140.5" font-family="Helvetica,sans-Serif" font-size="10.00">ParamBox</text>
</a>
</g>
</g>
<!-- Node2&#45;&gt;Node9 -->
<g id="edge8" class="edge">
<title>Node2&#45;&gt;Node9</title>
<path fill="none" stroke="midnightblue" d="M235.76,-203.96C255.36,-191.49 284.7,-173.93 312,-162 321.15,-158 331.4,-154.47 340.85,-151.56"/>
<polygon fill="midnightblue" stroke="midnightblue" points="233.74,-201.1 227.23,-209.46 237.53,-206.98 233.74,-201.1"/>
</g>
<!-- Node10 -->
<g id="node10" class="node">
<title>Node10</title>
<g id="a_node10"><a xlink:href="classStepLFOComponent.html" target="_top" xlink:title="Draws a step LFO curve and shows a little dot moving long.">
<polygon fill="none" stroke="black" points="317.5,-95.5 317.5,-114.5 430.5,-114.5 430.5,-95.5 317.5,-95.5"/>
<text text-anchor="middle" x="374" y="-102.5" font-family="Helvetica,sans-Serif" font-size="10.00">StepLFOComponent</text>
</a>
</g>
</g>
<!-- Node2&#45;&gt;Node10 -->
<g id="edge9" class="edge">
<title>Node2&#45;&gt;Node10</title>
<path fill="none" stroke="midnightblue" d="M226.77,-201.53C244.39,-180.3 276.84,-144.76 312,-124 318.4,-120.22 325.63,-117.12 332.81,-114.6"/>
<polygon fill="midnightblue" stroke="midnightblue" points="223.96,-199.44 220.37,-209.41 229.39,-203.86 223.96,-199.44"/>
</g>
<!-- Node12 -->
<g id="node12" class="node">
<title>Node12</title>
<g id="a_node12"><a xlink:href="classPowerButton.html" target="_top" xlink:title="Button for toggling a parameter, drawn as a power button.">
<polygon fill="none" stroke="black" points="334.5,-57.5 334.5,-76.5 413.5,-76.5 413.5,-57.5 334.5,-57.5"/>
<text text-anchor="middle" x="374" y="-64.5" font-family="Helvetica,sans-Serif" font-size="10.00">PowerButton</text>
</a>
</g>
</g>
<!-- Node11&#45;&gt;Node12 -->
<g id="edge11" class="edge">
<title>Node11&#45;&gt;Node12</title>
<path fill="none" stroke="midnightblue" d="M258.82,-111.32C264.67,-109.37 270.52,-107.25 276,-105 292.74,-98.13 295.29,-92.94 312,-86 320.4,-82.51 329.68,-79.31 338.41,-76.56"/>
<polygon fill="midnightblue" stroke="midnightblue" points="257.53,-108.05 249.07,-114.43 259.66,-114.72 257.53,-108.05"/>
</g>
</g>
</svg>
