<?xml version="1.0" encoding="UTF-8" standalone="no"?>
<!DOCTYPE svg PUBLIC "-//W3C//DTD SVG 1.1//EN"
 "http://www.w3.org/Graphics/SVG/1.1/DTD/svg11.dtd">
<!-- Generated by graphviz version 2.43.0 (0)
 -->
<!-- Title: PluginLookAndFeel Pages: 1 -->
<svg width="311pt" height="192pt"
 viewBox="0.00 0.00 310.50 192.00" xmlns="http://www.w3.org/2000/svg" xmlns:xlink="http://www.w3.org/1999/xlink">
<g id="graph0" class="graph" transform="scale(1 1) rotate(0) translate(4 188)">
<title>PluginLookAndFeel</title>
<!-- Node1 -->
<g id="Node000001" class="node">
<title>Node1</title>
<g id="a_Node000001"><a xlink:title="Plugin specific addition to GinLookAndFeel Still black and white.">
<polygon fill="#999999" stroke="#666666" points="207,-129 98,-129 98,-110 207,-110 207,-129"/>
<text text-anchor="middle" x="152.5" y="-117" font-family="Helvetica,sans-Serif" font-size="10.00">PluginLookAndFeel</text>
</a>
</g>
</g>
<!-- Node3 -->
<g id="Node000003" class="node">
<title>Node3</title>
<g id="a_Node000003"><a xlink:href="classCopperLookAndFeel.html" target="_top" xlink:title="Plugin specific addition to GinLookAndFeel Still black and white.">
<polygon fill="white" stroke="#666666" points="134,-74 21,-74 21,-55 134,-55 134,-74"/>
<text text-anchor="middle" x="77.5" y="-62" font-family="Helvetica,sans-Serif" font-size="10.00">CopperLookAndFeel</text>
</a>
</g>
</g>
<!-- Node1&#45;&gt;Node3 -->
<g id="edge2_Node000001_Node000003" class="edge">
<title>Node1&#45;&gt;Node3</title>
<g id="a_edge2_Node000001_Node000003"><a xlink:title=" ">
<path fill="none" stroke="#63b8ff" d="M132.19,-104.15C118.64,-94.57 101.26,-82.29 89.77,-74.17"/>
<polygon fill="#63b8ff" stroke="#63b8ff" points="130.26,-107.07 140.45,-109.98 134.3,-101.36 130.26,-107.07"/>
</a>
</g>
</g>
<!-- Node5 -->
<g id="Node000005" class="node">
<title>Node5</title>
<g id="a_Node000005"><a xlink:href="classPluginLookAndFeelWrapper.html" target="_top" xlink:title="Auto sets and clears PluginLookAndFeel as default.">
<polygon fill="white" stroke="#666666" points="302.5,-74 152.5,-74 152.5,-55 302.5,-55 302.5,-74"/>
<text text-anchor="middle" x="227.5" y="-62" font-family="Helvetica,sans-Serif" font-size="10.00">PluginLookAndFeelWrapper</text>
</a>
</g>
</g>
<!-- Node1&#45;&gt;Node5 -->
<g id="edge4_Node000001_Node000005" class="edge">
<title>Node1&#45;&gt;Node5</title>
<g id="a_edge4_Node000001_Node000005"><a xlink:title=" ">
<path fill="none" stroke="#63b8ff" d="M172.81,-104.15C186.36,-94.57 203.74,-82.29 215.23,-74.17"/>
<polygon fill="#63b8ff" stroke="#63b8ff" points="170.7,-101.36 164.55,-109.98 174.74,-107.07 170.7,-101.36"/>
</a>
</g>
</g>
<!-- Node2 -->
<g id="Node000002" class="node">
<title>Node2</title>
<g id="a_Node000002"><a xlink:href="classGinLookAndFeel.html" target="_top" xlink:title="Minimalist dark look and feel with black background and white controls.">
<polygon fill="white" stroke="#666666" points="200,-184 105,-184 105,-165 200,-165 200,-184"/>
<text text-anchor="middle" x="152.5" y="-172" font-family="Helvetica,sans-Serif" font-size="10.00">GinLookAndFeel</text>
</a>
</g>
</g>
<!-- Node2&#45;&gt;Node1 -->
<g id="edge1_Node000001_Node000002" class="edge">
<title>Node2&#45;&gt;Node1</title>
<g id="a_edge1_Node000001_Node000002"><a xlink:title=" ">
<path fill="none" stroke="#63b8ff" d="M152.5,-154.66C152.5,-145.93 152.5,-135.99 152.5,-129.09"/>
<polygon fill="#63b8ff" stroke="#63b8ff" points="149,-154.75 152.5,-164.75 156,-154.75 149,-154.75"/>
</a>
</g>
</g>
<!-- Node4 -->
<g id="Node000004" class="node">
<title>Node4</title>
<g id="a_Node000004"><a xlink:href="classCopperLookAndFeelWrapper.html" target="_top" xlink:title="Auto sets and clears CopperLookAndFeel as default.">
<polygon fill="white" stroke="#666666" points="155,-19 0,-19 0,0 155,0 155,-19"/>
<text text-anchor="middle" x="77.5" y="-7" font-family="Helvetica,sans-Serif" font-size="10.00">CopperLookAndFeelWrapper</text>
</a>
</g>
</g>
<!-- Node3&#45;&gt;Node4 -->
<g id="edge3_Node000003_Node000004" class="edge">
<title>Node3&#45;&gt;Node4</title>
<g id="a_edge3_Node000003_Node000004"><a xlink:title=" ">
<path fill="none" stroke="#63b8ff" d="M77.5,-44.66C77.5,-35.93 77.5,-25.99 77.5,-19.09"/>
<polygon fill="#63b8ff" stroke="#63b8ff" points="74,-44.75 77.5,-54.75 81,-44.75 74,-44.75"/>
</a>
</g>
</g>
</g>
</svg>
