<?xml version="1.0" encoding="UTF-8" standalone="no"?>
<!DOCTYPE svg PUBLIC "-//W3C//DTD SVG 1.1//EN"
 "http://www.w3.org/Graphics/SVG/1.1/DTD/svg11.dtd">
<!-- Generated by graphviz version 2.40.1 (20161225.0304)
 -->
<!-- Title: PropertyComponentBase Pages: 1 -->
<svg width="304pt" height="84pt"
 viewBox="0.00 0.00 303.50 84.00" xmlns="http://www.w3.org/2000/svg" xmlns:xlink="http://www.w3.org/1999/xlink">
<g id="graph0" class="graph" transform="scale(1 1) rotate(0) translate(4 80)">
<title>PropertyComponentBase</title>
<!-- Node0 -->
<g id="node1" class="node">
<title>Node0</title>
<polygon fill="#bfbfbf" stroke="#000000" points="82,-56.5 82,-75.5 220,-75.5 220,-56.5 82,-56.5"/>
<text text-anchor="middle" x="151" y="-63.5" font-family="Helvetica,sans-Serif" font-size="10.00" fill="#000000">PropertyComponentBase</text>
</g>
<!-- Node1 -->
<g id="node2" class="node">
<title>Node1</title>
<g id="a_node2"><a xlink:href="classColourPropertyComponent.html" target="_top" xlink:title="ColourPropertyComponent">
<polygon fill="none" stroke="#000000" points="0,-.5 0,-19.5 146,-19.5 146,-.5 0,-.5"/>
<text text-anchor="middle" x="73" y="-7.5" font-family="Helvetica,sans-Serif" font-size="10.00" fill="#000000">ColourPropertyComponent</text>
</a>
</g>
</g>
<!-- Node0&#45;&gt;Node1 -->
<g id="edge1" class="edge">
<title>Node0&#45;&gt;Node1</title>
<path fill="none" stroke="#191970" d="M129.0064,-50.2097C115.3071,-40.3743 98.1264,-28.0394 86.4309,-19.6427"/>
<polygon fill="#191970" stroke="#191970" points="127.2489,-53.2566 137.4134,-56.2455 131.3314,-47.5703 127.2489,-53.2566"/>
</g>
<!-- Node2 -->
<g id="node3" class="node">
<title>Node2</title>
<g id="a_node3"><a xlink:href="classFilePropertyComponent.html" target="_top" xlink:title="FilePropertyComponent">
<polygon fill="none" stroke="#000000" points="164.5,-.5 164.5,-19.5 295.5,-19.5 295.5,-.5 164.5,-.5"/>
<text text-anchor="middle" x="230" y="-7.5" font-family="Helvetica,sans-Serif" font-size="10.00" fill="#000000">FilePropertyComponent</text>
</a>
</g>
</g>
<!-- Node0&#45;&gt;Node2 -->
<g id="edge2" class="edge">
<title>Node0&#45;&gt;Node2</title>
<path fill="none" stroke="#191970" d="M173.2756,-50.2097C187.1505,-40.3743 204.5515,-28.0394 216.3969,-19.6427"/>
<polygon fill="#191970" stroke="#191970" points="170.8949,-47.6071 164.7607,-56.2455 174.9431,-53.3178 170.8949,-47.6071"/>
</g>
</g>
</svg>
