<?xml version="1.0" encoding="UTF-8" standalone="no"?>
<!DOCTYPE svg PUBLIC "-//W3C//DTD SVG 1.1//EN"
 "http://www.w3.org/Graphics/SVG/1.1/DTD/svg11.dtd">
<!-- Generated by graphviz version 2.43.0 (0)
 -->
<!-- Title: AudioEquationParser Pages: 1 -->
<svg width="224pt" height="84pt"
 viewBox="0.00 0.00 223.50 84.00" xmlns="http://www.w3.org/2000/svg" xmlns:xlink="http://www.w3.org/1999/xlink">
<g id="graph0" class="graph" transform="scale(1 1) rotate(0) translate(4 80)">
<title>AudioEquationParser</title>
<!-- Node1 -->
<g id="node1" class="node">
<title>Node1</title>
<g id="a_node1"><a xlink:title="Enhances the EquationParser with math related functions like filters and oscilllators.">
<polygon fill="#bfbfbf" stroke="black" points="44,-0.5 44,-19.5 161,-19.5 161,-0.5 44,-0.5"/>
<text text-anchor="middle" x="102.5" y="-7.5" font-family="Helvetica,sans-Serif" font-size="10.00">AudioEquationParser</text>
</a>
</g>
</g>
<!-- Node2 -->
<g id="node2" class="node">
<title>Node2</title>
<g id="a_node2"><a xlink:href="classEquationParser.html" target="_top" xlink:title=" ">
<polygon fill="none" stroke="black" points="0,-56.5 0,-75.5 89,-75.5 89,-56.5 0,-56.5"/>
<text text-anchor="middle" x="44.5" y="-63.5" font-family="Helvetica,sans-Serif" font-size="10.00">EquationParser</text>
</a>
</g>
</g>
<!-- Node2&#45;&gt;Node1 -->
<g id="edge1" class="edge">
<title>Node2&#45;&gt;Node1</title>
<path fill="none" stroke="midnightblue" d="M61.41,-49.25C71.7,-39.67 84.47,-27.79 93.01,-19.83"/>
<polygon fill="midnightblue" stroke="midnightblue" points="58.75,-46.95 53.82,-56.32 63.52,-52.07 58.75,-46.95"/>
</g>
<!-- Node3 -->
<g id="node3" class="node">
<title>Node3</title>
<g id="a_node3"><a xlink:href="classAudioFunctionHost.html" target="_top" xlink:title="State managment for audio functions.">
<polygon fill="none" stroke="black" points="107.5,-56.5 107.5,-75.5 215.5,-75.5 215.5,-56.5 107.5,-56.5"/>
<text text-anchor="middle" x="161.5" y="-63.5" font-family="Helvetica,sans-Serif" font-size="10.00">AudioFunctionHost</text>
</a>
</g>
</g>
<!-- Node3&#45;&gt;Node1 -->
<g id="edge2" class="edge">
<title>Node3&#45;&gt;Node1</title>
<path fill="none" stroke="midnightblue" d="M144.61,-49.54C134.09,-39.91 120.93,-27.87 112.15,-19.83"/>
<polygon fill="midnightblue" stroke="midnightblue" points="142.28,-52.15 152.02,-56.32 147.01,-46.99 142.28,-52.15"/>
</g>
</g>
</svg>
