<?xml version="1.0" encoding="UTF-8" standalone="no"?>
<!DOCTYPE svg PUBLIC "-//W3C//DTD SVG 1.1//EN"
 "http://www.w3.org/Graphics/SVG/1.1/DTD/svg11.dtd">
<!-- Generated by graphviz version 2.43.0 (0)
 -->
<!-- Title: PropertyComponentBase Pages: 1 -->
<svg width="304pt" height="82pt"
 viewBox="0.00 0.00 303.50 82.00" xmlns="http://www.w3.org/2000/svg" xmlns:xlink="http://www.w3.org/1999/xlink">
<g id="graph0" class="graph" transform="scale(1 1) rotate(0) translate(4 78)">
<title>PropertyComponentBase</title>
<!-- Node1 -->
<g id="Node000001" class="node">
<title>Node1</title>
<g id="a_Node000001"><a xlink:title="Base class for property components that use juce::Value for data binding.">
<polygon fill="#999999" stroke="#666666" points="220,-74 82,-74 82,-55 220,-55 220,-74"/>
<text text-anchor="middle" x="151" y="-62" font-family="Helvetica,sans-Serif" font-size="10.00">PropertyComponentBase</text>
</a>
</g>
</g>
<!-- Node2 -->
<g id="Node000002" class="node">
<title>Node2</title>
<g id="a_Node000002"><a xlink:href="classColourPropertyComponent.html" target="_top" xlink:title="Property component for selecting colors with a visual color picker.">
<polygon fill="white" stroke="#666666" points="146,-19 0,-19 0,0 146,0 146,-19"/>
<text text-anchor="middle" x="73" y="-7" font-family="Helvetica,sans-Serif" font-size="10.00">ColourPropertyComponent</text>
</a>
</g>
</g>
<!-- Node1&#45;&gt;Node2 -->
<g id="edge1_Node000001_Node000002" class="edge">
<title>Node1&#45;&gt;Node2</title>
<g id="a_edge1_Node000001_Node000002"><a xlink:title=" ">
<path fill="none" stroke="#63b8ff" d="M129.88,-49.15C115.79,-39.57 97.71,-27.29 85.76,-19.17"/>
<polygon fill="#63b8ff" stroke="#63b8ff" points="128.23,-52.26 138.47,-54.98 132.16,-46.47 128.23,-52.26"/>
</a>
</g>
</g>
<!-- Node3 -->
<g id="Node000003" class="node">
<title>Node3</title>
<g id="a_Node000003"><a xlink:href="classFilePropertyComponent.html" target="_top" xlink:title="Property component for selecting files with a browse button.">
<polygon fill="white" stroke="#666666" points="295.5,-19 164.5,-19 164.5,0 295.5,0 295.5,-19"/>
<text text-anchor="middle" x="230" y="-7" font-family="Helvetica,sans-Serif" font-size="10.00">FilePropertyComponent</text>
</a>
</g>
</g>
<!-- Node1&#45;&gt;Node3 -->
<g id="edge2_Node000001_Node000003" class="edge">
<title>Node1&#45;&gt;Node3</title>
<g id="a_edge2_Node000001_Node000003"><a xlink:title=" ">
<path fill="none" stroke="#63b8ff" d="M172.39,-49.15C186.67,-39.57 204.97,-27.29 217.08,-19.17"/>
<polygon fill="#63b8ff" stroke="#63b8ff" points="170.05,-46.51 163.69,-54.98 173.95,-52.32 170.05,-46.51"/>
</a>
</g>
</g>
</g>
</svg>
