<?xml version="1.0" encoding="UTF-8" standalone="no"?>
<!DOCTYPE svg PUBLIC "-//W3C//DTD SVG 1.1//EN"
 "http://www.w3.org/Graphics/SVG/1.1/DTD/svg11.dtd">
<!-- Generated by graphviz version 2.43.0 (0)
 -->
<!-- Title: ImageMetadata Pages: 1 -->
<svg width="424pt" height="82pt"
 viewBox="0.00 0.00 423.50 82.00" xmlns="http://www.w3.org/2000/svg" xmlns:xlink="http://www.w3.org/1999/xlink">
<g id="graph0" class="graph" transform="scale(1 1) rotate(0) translate(4 78)">
<title>ImageMetadata</title>
<!-- Node1 -->
<g id="Node000001" class="node">
<title>Node1</title>
<g id="a_Node000001"><a xlink:title="Base class for reading metadata from image files (JPEG, PNG, GIF).">
<polygon fill="#999999" stroke="#666666" points="267.5,-74 173.5,-74 173.5,-55 267.5,-55 267.5,-74"/>
<text text-anchor="middle" x="220.5" y="-62" font-family="Helvetica,sans-Serif" font-size="10.00">ImageMetadata</text>
</a>
</g>
</g>
<!-- Node2 -->
<g id="Node000002" class="node">
<title>Node2</title>
<g id="a_Node000002"><a xlink:href="classCommentMetadata.html" target="_top" xlink:title="Reads simple text comment metadata from image files.">
<polygon fill="white" stroke="#666666" points="111,-19 0,-19 0,0 111,0 111,-19"/>
<text text-anchor="middle" x="55.5" y="-7" font-family="Helvetica,sans-Serif" font-size="10.00">CommentMetadata</text>
</a>
</g>
</g>
<!-- Node1&#45;&gt;Node2 -->
<g id="edge1_Node000001_Node000002" class="edge">
<title>Node1&#45;&gt;Node2</title>
<g id="a_edge1_Node000001_Node000002"><a xlink:title=" ">
<path fill="none" stroke="#63b8ff" d="M184.07,-51.8C153.28,-41.91 109.88,-27.97 82.22,-19.08"/>
<polygon fill="#63b8ff" stroke="#63b8ff" points="183.4,-55.26 193.99,-54.98 185.54,-48.59 183.4,-55.26"/>
</a>
</g>
</g>
<!-- Node3 -->
<g id="Node000003" class="node">
<title>Node3</title>
<g id="a_Node000003"><a xlink:href="classExifMetadata.html" target="_top" xlink:title="Reads EXIF (Exchangeable Image File Format) metadata from JPEG images.">
<polygon fill="white" stroke="#666666" points="211.5,-19 129.5,-19 129.5,0 211.5,0 211.5,-19"/>
<text text-anchor="middle" x="170.5" y="-7" font-family="Helvetica,sans-Serif" font-size="10.00">ExifMetadata</text>
</a>
</g>
</g>
<!-- Node1&#45;&gt;Node3 -->
<g id="edge2_Node000001_Node000003" class="edge">
<title>Node1&#45;&gt;Node3</title>
<g id="a_edge2_Node000001_Node000003"><a xlink:title=" ">
<path fill="none" stroke="#63b8ff" d="M205.16,-47.24C196.4,-37.95 185.76,-26.68 178.6,-19.09"/>
<polygon fill="#63b8ff" stroke="#63b8ff" points="202.84,-49.88 212.24,-54.75 207.93,-45.07 202.84,-49.88"/>
</a>
</g>
</g>
<!-- Node4 -->
<g id="Node000004" class="node">
<title>Node4</title>
<g id="a_Node000004"><a xlink:href="classIptcMetadata.html" target="_top" xlink:title="Reads IPTC (International Press Telecommunications Council) metadata from images.">
<polygon fill="white" stroke="#666666" points="311,-19 230,-19 230,0 311,0 311,-19"/>
<text text-anchor="middle" x="270.5" y="-7" font-family="Helvetica,sans-Serif" font-size="10.00">IptcMetadata</text>
</a>
</g>
</g>
<!-- Node1&#45;&gt;Node4 -->
<g id="edge3_Node000001_Node000004" class="edge">
<title>Node1&#45;&gt;Node4</title>
<g id="a_edge3_Node000001_Node000004"><a xlink:title=" ">
<path fill="none" stroke="#63b8ff" d="M235.84,-47.24C244.6,-37.95 255.24,-26.68 262.4,-19.09"/>
<polygon fill="#63b8ff" stroke="#63b8ff" points="233.07,-45.07 228.76,-54.75 238.16,-49.88 233.07,-45.07"/>
</a>
</g>
</g>
<!-- Node5 -->
<g id="Node000005" class="node">
<title>Node5</title>
<g id="a_Node000005"><a xlink:href="classXmpMetadata.html" target="_top" xlink:title="Reads XMP (Extensible Metadata Platform) metadata from JPEG and PNG images.">
<polygon fill="white" stroke="#666666" points="415.5,-19 329.5,-19 329.5,0 415.5,0 415.5,-19"/>
<text text-anchor="middle" x="372.5" y="-7" font-family="Helvetica,sans-Serif" font-size="10.00">XmpMetadata</text>
</a>
</g>
</g>
<!-- Node1&#45;&gt;Node5 -->
<g id="edge4_Node000001_Node000005" class="edge">
<title>Node1&#45;&gt;Node5</title>
<g id="a_edge4_Node000001_Node000005"><a xlink:title=" ">
<path fill="none" stroke="#63b8ff" d="M254.43,-51.67C282.77,-41.79 322.52,-27.93 347.89,-19.08"/>
<polygon fill="#63b8ff" stroke="#63b8ff" points="253.21,-48.39 244.92,-54.98 255.52,-55 253.21,-48.39"/>
</a>
</g>
</g>
</g>
</svg>
