<?xml version="1.0" encoding="UTF-8" standalone="no"?>
<!DOCTYPE svg PUBLIC "-//W3C//DTD SVG 1.1//EN"
 "http://www.w3.org/Graphics/SVG/1.1/DTD/svg11.dtd">
<!-- Generated by graphviz version 2.40.1 (20161225.0304)
 -->
<!-- Title: Parameter::Listener Pages: 1 -->
<svg width="444pt" height="389pt"
 viewBox="0.00 0.00 444.00 389.00" xmlns="http://www.w3.org/2000/svg" xmlns:xlink="http://www.w3.org/1999/xlink">
<g id="graph0" class="graph" transform="scale(1 1) rotate(0) translate(4 385)">
<title>Parameter::Listener</title>
<!-- Node0 -->
<g id="node1" class="node">
<title>Node0</title>
<polygon fill="#bfbfbf" stroke="#000000" points="0,-76.5 0,-95.5 112,-95.5 112,-76.5 0,-76.5"/>
<text text-anchor="middle" x="56" y="-83.5" font-family="Helvetica,sans-Serif" font-size="10.00" fill="#000000">Parameter::Listener</text>
</g>
<!-- Node1 -->
<g id="node2" class="node">
<title>Node1</title>
<g id="a_node2"><a xlink:href="classMultiParamComponent.html" target="_top" xlink:title="A base component for controlling multiple parameters at once. ">
<polygon fill="none" stroke="#000000" points="148,-209.5 148,-228.5 276,-228.5 276,-209.5 148,-209.5"/>
<text text-anchor="middle" x="212" y="-216.5" font-family="Helvetica,sans-Serif" font-size="10.00" fill="#000000">MultiParamComponent</text>
</a>
</g>
</g>
<!-- Node0&#45;&gt;Node1 -->
<g id="edge1" class="edge">
<title>Node0&#45;&gt;Node1</title>
<path fill="none" stroke="#191970" d="M75.1646,-102.339C107.9536,-130.2938 173.8506,-186.4752 200.4616,-209.1628"/>
<polygon fill="#191970" stroke="#191970" points="77.0997,-99.3894 67.2191,-95.565 72.5582,-104.7163 77.0997,-99.3894"/>
</g>
<!-- Node10 -->
<g id="node11" class="node">
<title>Node10</title>
<g id="a_node11"><a xlink:href="classPluginButton.html" target="_top" xlink:title="Button for toggling a parameter. ">
<polygon fill="none" stroke="#000000" points="172.5,-114.5 172.5,-133.5 251.5,-133.5 251.5,-114.5 172.5,-114.5"/>
<text text-anchor="middle" x="212" y="-121.5" font-family="Helvetica,sans-Serif" font-size="10.00" fill="#000000">PluginButton</text>
</a>
</g>
</g>
<!-- Node0&#45;&gt;Node10 -->
<g id="edge10" class="edge">
<title>Node0&#45;&gt;Node10</title>
<path fill="none" stroke="#8b1a1a" d="M105.1317,-97.968C126.9927,-103.2931 152.3761,-109.4762 172.9177,-114.4799"/>
<polygon fill="#8b1a1a" stroke="#8b1a1a" points="105.9097,-94.5552 95.3654,-95.589 104.2529,-101.3563 105.9097,-94.5552"/>
</g>
<!-- Node12 -->
<g id="node13" class="node">
<title>Node12</title>
<g id="a_node13"><a xlink:href="classPluginComboBox.html" target="_top" xlink:title="A control for selecting param values from a dropbox. ">
<polygon fill="none" stroke="#000000" points="162,-76.5 162,-95.5 262,-95.5 262,-76.5 162,-76.5"/>
<text text-anchor="middle" x="212" y="-83.5" font-family="Helvetica,sans-Serif" font-size="10.00" fill="#000000">PluginComboBox</text>
</a>
</g>
</g>
<!-- Node0&#45;&gt;Node12 -->
<g id="edge12" class="edge">
<title>Node0&#45;&gt;Node12</title>
<path fill="none" stroke="#8b1a1a" d="M122.3538,-86C135.627,-86 149.3606,-86 161.9701,-86"/>
<polygon fill="#8b1a1a" stroke="#8b1a1a" points="122.3196,-82.5001 112.3196,-86 122.3195,-89.5001 122.3196,-82.5001"/>
</g>
<!-- Node13 -->
<g id="node14" class="node">
<title>Node13</title>
<g id="a_node14"><a xlink:href="classPluginSlider.html" target="_top" xlink:title="A slider for controlling a parameter. ">
<polygon fill="none" stroke="#000000" points="175,-38.5 175,-57.5 249,-57.5 249,-38.5 175,-38.5"/>
<text text-anchor="middle" x="212" y="-45.5" font-family="Helvetica,sans-Serif" font-size="10.00" fill="#000000">PluginSlider</text>
</a>
</g>
</g>
<!-- Node0&#45;&gt;Node13 -->
<g id="edge13" class="edge">
<title>Node0&#45;&gt;Node13</title>
<path fill="none" stroke="#8b1a1a" d="M105.0958,-74.0408C127.6357,-68.5503 153.9264,-62.1461 174.7952,-57.0627"/>
<polygon fill="#8b1a1a" stroke="#8b1a1a" points="104.2529,-70.6437 95.3654,-76.411 105.9097,-77.4448 104.2529,-70.6437"/>
</g>
<!-- Node14 -->
<g id="node15" class="node">
<title>Node14</title>
<g id="a_node15"><a xlink:href="classReadout.html" target="_top" xlink:title="A control for displaying a parameter. ">
<polygon fill="none" stroke="#000000" points="184,-.5 184,-19.5 240,-19.5 240,-.5 184,-.5"/>
<text text-anchor="middle" x="212" y="-7.5" font-family="Helvetica,sans-Serif" font-size="10.00" fill="#000000">Readout</text>
</a>
</g>
</g>
<!-- Node0&#45;&gt;Node14 -->
<g id="edge14" class="edge">
<title>Node0&#45;&gt;Node14</title>
<path fill="none" stroke="#8b1a1a" d="M77.6961,-70.2455C95.7804,-57.6935 122.5977,-40.3938 148,-29 159.3156,-23.9246 172.3527,-19.7726 183.6955,-16.6588"/>
<polygon fill="#8b1a1a" stroke="#8b1a1a" points="75.2408,-67.6944 69.0889,-76.3202 79.2772,-73.4135 75.2408,-67.6944"/>
</g>
<!-- Node2 -->
<g id="node3" class="node">
<title>Node2</title>
<g id="a_node3"><a xlink:href="classADSRComponent.html" target="_top" xlink:title="Component for adjuting ADSR curves. ">
<polygon fill="none" stroke="#000000" points="324.5,-361.5 324.5,-380.5 423.5,-380.5 423.5,-361.5 324.5,-361.5"/>
<text text-anchor="middle" x="374" y="-368.5" font-family="Helvetica,sans-Serif" font-size="10.00" fill="#000000">ADSRComponent</text>
</a>
</g>
</g>
<!-- Node1&#45;&gt;Node2 -->
<g id="edge2" class="edge">
<title>Node1&#45;&gt;Node2</title>
<path fill="none" stroke="#191970" d="M221.106,-237.6914C236.0824,-266.4943 268.6307,-321.5766 312,-352 317.5298,-355.8792 323.8733,-358.9837 330.3453,-361.4636"/>
<polygon fill="#191970" stroke="#191970" points="224.1873,-236.0288 216.5526,-228.683 217.9401,-239.1866 224.1873,-236.0288"/>
</g>
<!-- Node3 -->
<g id="node4" class="node">
<title>Node3</title>
<g id="a_node4"><a xlink:href="classControlBox.html" target="_top" xlink:title="A box for holding controls on a grid. ">
<polygon fill="none" stroke="#000000" points="338.5,-323.5 338.5,-342.5 409.5,-342.5 409.5,-323.5 338.5,-323.5"/>
<text text-anchor="middle" x="374" y="-330.5" font-family="Helvetica,sans-Serif" font-size="10.00" fill="#000000">ControlBox</text>
</a>
</g>
</g>
<!-- Node1&#45;&gt;Node3 -->
<g id="edge3" class="edge">
<title>Node1&#45;&gt;Node3</title>
<path fill="none" stroke="#191970" d="M225.9368,-236.4912C243.7523,-257.7394 276.5599,-293.3033 312,-314 320.069,-318.7122 329.423,-322.366 338.3806,-325.1525"/>
<polygon fill="#191970" stroke="#191970" points="228.5094,-234.1087 219.4592,-228.6001 223.0989,-238.5502 228.5094,-234.1087"/>
</g>
<!-- Node4 -->
<g id="node5" class="node">
<title>Node4</title>
<g id="a_node5"><a xlink:href="classGateEffectComponent.html" target="_top" xlink:title="An editor for the gate effect pattern. ">
<polygon fill="none" stroke="#000000" points="312,-285.5 312,-304.5 436,-304.5 436,-285.5 312,-285.5"/>
<text text-anchor="middle" x="374" y="-292.5" font-family="Helvetica,sans-Serif" font-size="10.00" fill="#000000">GateEffectComponent</text>
</a>
</g>
</g>
<!-- Node1&#45;&gt;Node4 -->
<g id="edge4" class="edge">
<title>Node1&#45;&gt;Node4</title>
<path fill="none" stroke="#191970" d="M234.9992,-234.0588C254.7961,-246.5386 284.4433,-264.0977 312,-276 320.2681,-279.5712 329.4234,-282.7658 338.1038,-285.4705"/>
<polygon fill="#191970" stroke="#191970" points="236.6935,-230.988 226.382,-228.5544 232.9252,-236.8872 236.6935,-230.988"/>
</g>
<!-- Node5 -->
<g id="node6" class="node">
<title>Node5</title>
<g id="a_node6"><a xlink:href="classLFOComponent.html" target="_top" xlink:title="Draws an LFO curve and shows a little dot moving long. ">
<polygon fill="none" stroke="#000000" points="328.5,-247.5 328.5,-266.5 419.5,-266.5 419.5,-247.5 328.5,-247.5"/>
<text text-anchor="middle" x="374" y="-254.5" font-family="Helvetica,sans-Serif" font-size="10.00" fill="#000000">LFOComponent</text>
</a>
</g>
</g>
<!-- Node1&#45;&gt;Node5 -->
<g id="edge5" class="edge">
<title>Node1&#45;&gt;Node5</title>
<path fill="none" stroke="#191970" d="M262.7148,-230.8961C285.4856,-236.2374 311.9867,-242.4537 333.4145,-247.4799"/>
<polygon fill="#191970" stroke="#191970" points="263.4145,-227.4653 252.8794,-228.589 261.8159,-234.2803 263.4145,-227.4653"/>
</g>
<!-- Node6 -->
<g id="node7" class="node">
<title>Node6</title>
<g id="a_node7"><a xlink:href="classPagedControlBox.html" target="_top" xlink:title="A control for holding pags of controls on a grid Pages slide over top of each other to make room...">
<polygon fill="none" stroke="#000000" points="324,-209.5 324,-228.5 424,-228.5 424,-209.5 324,-209.5"/>
<text text-anchor="middle" x="374" y="-216.5" font-family="Helvetica,sans-Serif" font-size="10.00" fill="#000000">PagedControlBox</text>
</a>
</g>
</g>
<!-- Node1&#45;&gt;Node6 -->
<g id="edge6" class="edge">
<title>Node1&#45;&gt;Node6</title>
<path fill="none" stroke="#191970" d="M286.1984,-219C298.973,-219 311.9747,-219 323.9208,-219"/>
<polygon fill="#191970" stroke="#191970" points="286.0267,-215.5001 276.0267,-219 286.0267,-222.5001 286.0267,-215.5001"/>
</g>
<!-- Node7 -->
<g id="node8" class="node">
<title>Node7</title>
<g id="a_node8"><a xlink:href="classParamArea.html" target="_top" xlink:title="A box for graphs without a header. ">
<polygon fill="none" stroke="#000000" points="339,-171.5 339,-190.5 409,-190.5 409,-171.5 339,-171.5"/>
<text text-anchor="middle" x="374" y="-178.5" font-family="Helvetica,sans-Serif" font-size="10.00" fill="#000000">ParamArea</text>
</a>
</g>
</g>
<!-- Node1&#45;&gt;Node7 -->
<g id="edge7" class="edge">
<title>Node1&#45;&gt;Node7</title>
<path fill="none" stroke="#191970" d="M262.8244,-207.0782C287.5595,-201.2762 316.675,-194.4466 338.9045,-189.2323"/>
<polygon fill="#191970" stroke="#191970" points="261.8159,-203.7197 252.8794,-209.411 263.4145,-210.5347 261.8159,-203.7197"/>
</g>
<!-- Node8 -->
<g id="node9" class="node">
<title>Node8</title>
<g id="a_node9"><a xlink:href="classParamBox.html" target="_top" xlink:title="A box for knobs with a header. ">
<polygon fill="none" stroke="#000000" points="341,-133.5 341,-152.5 407,-152.5 407,-133.5 341,-133.5"/>
<text text-anchor="middle" x="374" y="-140.5" font-family="Helvetica,sans-Serif" font-size="10.00" fill="#000000">ParamBox</text>
</a>
</g>
</g>
<!-- Node1&#45;&gt;Node8 -->
<g id="edge8" class="edge">
<title>Node1&#45;&gt;Node8</title>
<path fill="none" stroke="#191970" d="M234.9992,-203.9412C254.7961,-191.4614 284.4433,-173.9023 312,-162 321.0949,-158.0717 331.2633,-154.599 340.6924,-151.7329"/>
<polygon fill="#191970" stroke="#191970" points="232.9252,-201.1128 226.382,-209.4456 236.6935,-207.012 232.9252,-201.1128"/>
</g>
<!-- Node9 -->
<g id="node10" class="node">
<title>Node9</title>
<g id="a_node10"><a xlink:href="classStepLFOComponent.html" target="_top" xlink:title="Draws a step LFO curve and shows a little dot moving long. ">
<polygon fill="none" stroke="#000000" points="317.5,-95.5 317.5,-114.5 430.5,-114.5 430.5,-95.5 317.5,-95.5"/>
<text text-anchor="middle" x="374" y="-102.5" font-family="Helvetica,sans-Serif" font-size="10.00" fill="#000000">StepLFOComponent</text>
</a>
</g>
</g>
<!-- Node1&#45;&gt;Node9 -->
<g id="edge9" class="edge">
<title>Node1&#45;&gt;Node9</title>
<path fill="none" stroke="#191970" d="M225.9368,-201.5088C243.7523,-180.2606 276.5599,-144.6967 312,-124 318.5135,-120.1962 325.8644,-117.082 333.1682,-114.557"/>
<polygon fill="#191970" stroke="#191970" points="223.0989,-199.4498 219.4592,-209.3999 228.5094,-203.8913 223.0989,-199.4498"/>
</g>
<!-- Node11 -->
<g id="node12" class="node">
<title>Node11</title>
<g id="a_node12"><a xlink:href="classPowerButton.html" target="_top" xlink:title="Circle with line power button for controlling a Parameter. ">
<polygon fill="none" stroke="#000000" points="334.5,-57.5 334.5,-76.5 413.5,-76.5 413.5,-57.5 334.5,-57.5"/>
<text text-anchor="middle" x="374" y="-64.5" font-family="Helvetica,sans-Serif" font-size="10.00" fill="#000000">PowerButton</text>
</a>
</g>
</g>
<!-- Node10&#45;&gt;Node11 -->
<g id="edge11" class="edge">
<title>Node10&#45;&gt;Node11</title>
<path fill="none" stroke="#191970" d="M258.5563,-111.3554C264.4896,-109.4011 270.4307,-107.2705 276,-105 292.753,-98.1702 295.2771,-92.9032 312,-86 320.5331,-82.4775 329.9609,-79.2622 338.8347,-76.5187"/>
<polygon fill="#191970" stroke="#191970" points="257.1353,-108.1332 248.6454,-114.4713 259.2348,-114.8109 257.1353,-108.1332"/>
</g>
</g>
</svg>
