<?xml version="1.0" encoding="UTF-8" standalone="no"?>
<!DOCTYPE svg PUBLIC "-//W3C//DTD SVG 1.1//EN"
 "http://www.w3.org/Graphics/SVG/1.1/DTD/svg11.dtd">
<!-- Generated by graphviz version 2.40.1 (20161225.0304)
 -->
<!-- Title: PropertyComponentBase Pages: 1 -->
<svg width="278pt" height="84pt"
 viewBox="0.00 0.00 277.50 84.00" xmlns="http://www.w3.org/2000/svg" xmlns:xlink="http://www.w3.org/1999/xlink">
<g id="graph0" class="graph" transform="scale(1 1) rotate(0) translate(4 80)">
<title>PropertyComponentBase</title>
<!-- Node0 -->
<g id="node1" class="node">
<title>Node0</title>
<polygon fill="#bfbfbf" stroke="#000000" points="75,-56.5 75,-75.5 201,-75.5 201,-56.5 75,-56.5"/>
<text text-anchor="middle" x="138" y="-63.5" font-family="Helvetica,sans-Serif" font-size="10.00" fill="#000000">PropertyComponentBase</text>
</g>
<!-- Node1 -->
<g id="node2" class="node">
<title>Node1</title>
<g id="a_node2"><a xlink:href="classColourPropertyComponent.html" target="_top" xlink:title="ColourPropertyComponent">
<polygon fill="none" stroke="#000000" points="0,-.5 0,-19.5 132,-19.5 132,-.5 0,-.5"/>
<text text-anchor="middle" x="66" y="-7.5" font-family="Helvetica,sans-Serif" font-size="10.00" fill="#000000">ColourPropertyComponent</text>
</a>
</g>
</g>
<!-- Node0&#45;&gt;Node1 -->
<g id="edge1" class="edge">
<title>Node0&#45;&gt;Node1</title>
<path fill="none" stroke="#191970" d="M117.336,-49.928C104.7511,-40.1397 89.0908,-27.9595 78.3977,-19.6427"/>
<polygon fill="#191970" stroke="#191970" points="115.4162,-52.8688 125.4586,-56.2455 119.7138,-47.3434 115.4162,-52.8688"/>
</g>
<!-- Node2 -->
<g id="node3" class="node">
<title>Node2</title>
<g id="a_node3"><a xlink:href="classFilePropertyComponent.html" target="_top" xlink:title="FilePropertyComponent">
<polygon fill="none" stroke="#000000" points="150.5,-.5 150.5,-19.5 269.5,-19.5 269.5,-.5 150.5,-.5"/>
<text text-anchor="middle" x="210" y="-7.5" font-family="Helvetica,sans-Serif" font-size="10.00" fill="#000000">FilePropertyComponent</text>
</a>
</g>
</g>
<!-- Node0&#45;&gt;Node2 -->
<g id="edge2" class="edge">
<title>Node0&#45;&gt;Node2</title>
<path fill="none" stroke="#191970" d="M158.664,-49.928C171.2489,-40.1397 186.9092,-27.9595 197.6023,-19.6427"/>
<polygon fill="#191970" stroke="#191970" points="156.2862,-47.3434 150.5414,-56.2455 160.5838,-52.8688 156.2862,-47.3434"/>
</g>
</g>
</svg>
