<?xml version="1.0" encoding="UTF-8" standalone="no"?>
<!DOCTYPE svg PUBLIC "-//W3C//DTD SVG 1.1//EN"
 "http://www.w3.org/Graphics/SVG/1.1/DTD/svg11.dtd">
<!-- Generated by graphviz version 2.40.1 (20161225.0304)
 -->
<!-- Title: ImageMetadata Pages: 1 -->
<svg width="388pt" height="84pt"
 viewBox="0.00 0.00 387.50 84.00" xmlns="http://www.w3.org/2000/svg" xmlns:xlink="http://www.w3.org/1999/xlink">
<g id="graph0" class="graph" transform="scale(1 1) rotate(0) translate(4 80)">
<title>ImageMetadata</title>
<!-- Node0 -->
<g id="node1" class="node">
<title>Node0</title>
<polygon fill="#bfbfbf" stroke="#000000" points="159,-56.5 159,-75.5 243,-75.5 243,-56.5 159,-56.5"/>
<text text-anchor="middle" x="201" y="-63.5" font-family="Helvetica,sans-Serif" font-size="10.00" fill="#000000">ImageMetadata</text>
</g>
<!-- Node1 -->
<g id="node2" class="node">
<title>Node1</title>
<g id="a_node2"><a xlink:href="classCommentMetadata.html" target="_top" xlink:title="CommentMetadata">
<polygon fill="none" stroke="#000000" points="0,-.5 0,-19.5 100,-19.5 100,-.5 0,-.5"/>
<text text-anchor="middle" x="50" y="-7.5" font-family="Helvetica,sans-Serif" font-size="10.00" fill="#000000">CommentMetadata</text>
</a>
</g>
</g>
<!-- Node0&#45;&gt;Node1 -->
<g id="edge1" class="edge">
<title>Node0&#45;&gt;Node1</title>
<path fill="none" stroke="#191970" d="M165.377,-52.7888C137.8062,-42.5639 100.2851,-28.6488 75.6191,-19.5011"/>
<polygon fill="#191970" stroke="#191970" points="164.4491,-56.1776 175.0422,-56.3733 166.8832,-49.6144 164.4491,-56.1776"/>
</g>
<!-- Node2 -->
<g id="node3" class="node">
<title>Node2</title>
<g id="a_node3"><a xlink:href="classExifMetadata.html" target="_top" xlink:title="ExifMetadata">
<polygon fill="none" stroke="#000000" points="118,-.5 118,-19.5 192,-19.5 192,-.5 118,-.5"/>
<text text-anchor="middle" x="155" y="-7.5" font-family="Helvetica,sans-Serif" font-size="10.00" fill="#000000">ExifMetadata</text>
</a>
</g>
</g>
<!-- Node0&#45;&gt;Node2 -->
<g id="edge2" class="edge">
<title>Node0&#45;&gt;Node2</title>
<path fill="none" stroke="#191970" d="M186.6253,-48.5004C178.8029,-38.9775 169.424,-27.5596 162.9208,-19.6427"/>
<polygon fill="#191970" stroke="#191970" points="183.9354,-50.7399 192.9874,-56.2455 189.3445,-46.2967 183.9354,-50.7399"/>
</g>
<!-- Node3 -->
<g id="node4" class="node">
<title>Node3</title>
<g id="a_node4"><a xlink:href="classIptcMetadata.html" target="_top" xlink:title="IptcMetadata">
<polygon fill="none" stroke="#000000" points="210,-.5 210,-19.5 284,-19.5 284,-.5 210,-.5"/>
<text text-anchor="middle" x="247" y="-7.5" font-family="Helvetica,sans-Serif" font-size="10.00" fill="#000000">IptcMetadata</text>
</a>
</g>
</g>
<!-- Node0&#45;&gt;Node3 -->
<g id="edge3" class="edge">
<title>Node0&#45;&gt;Node3</title>
<path fill="none" stroke="#191970" d="M215.3747,-48.5004C223.1971,-38.9775 232.576,-27.5596 239.0792,-19.6427"/>
<polygon fill="#191970" stroke="#191970" points="212.6555,-46.2967 209.0126,-56.2455 218.0646,-50.7399 212.6555,-46.2967"/>
</g>
<!-- Node4 -->
<g id="node5" class="node">
<title>Node4</title>
<g id="a_node5"><a xlink:href="classXmpMetadata.html" target="_top" xlink:title="XmpMetadata">
<polygon fill="none" stroke="#000000" points="302.5,-.5 302.5,-19.5 379.5,-19.5 379.5,-.5 302.5,-.5"/>
<text text-anchor="middle" x="341" y="-7.5" font-family="Helvetica,sans-Serif" font-size="10.00" fill="#000000">XmpMetadata</text>
</a>
</g>
</g>
<!-- Node0&#45;&gt;Node4 -->
<g id="edge4" class="edge">
<title>Node0&#45;&gt;Node4</title>
<path fill="none" stroke="#191970" d="M234.3649,-52.6541C259.8952,-42.4419 294.4784,-28.6086 317.2472,-19.5011"/>
<polygon fill="#191970" stroke="#191970" points="233.0517,-49.4096 225.0669,-56.3733 235.6515,-55.909 233.0517,-49.4096"/>
</g>
</g>
</svg>
