<?xml version="1.0" encoding="UTF-8" standalone="no"?>
<!DOCTYPE svg PUBLIC "-//W3C//DTD SVG 1.1//EN"
 "http://www.w3.org/Graphics/SVG/1.1/DTD/svg11.dtd">
<!-- Generated by graphviz version 2.40.1 (20161225.0304)
 -->
<!-- Title: MultiParamComponent Pages: 1 -->
<svg width="412pt" height="294pt"
 viewBox="0.00 0.00 412.00 294.00" xmlns="http://www.w3.org/2000/svg" xmlns:xlink="http://www.w3.org/1999/xlink">
<g id="graph0" class="graph" transform="scale(1 1) rotate(0) translate(4 290)">
<title>MultiParamComponent</title>
<!-- Node0 -->
<g id="node1" class="node">
<title>Node0</title>
<polygon fill="#bfbfbf" stroke="#000000" points="138,-133.5 138,-152.5 254,-152.5 254,-133.5 138,-133.5"/>
<text text-anchor="middle" x="196" y="-140.5" font-family="Helvetica,sans-Serif" font-size="10.00" fill="#000000">MultiParamComponent</text>
</g>
<!-- Node2 -->
<g id="node3" class="node">
<title>Node2</title>
<g id="a_node3"><a xlink:href="classADSRComponent.html" target="_top" xlink:title="Component for adjuting ADSR curves. ">
<polygon fill="none" stroke="#000000" points="299.5,-266.5 299.5,-285.5 394.5,-285.5 394.5,-266.5 299.5,-266.5"/>
<text text-anchor="middle" x="347" y="-273.5" font-family="Helvetica,sans-Serif" font-size="10.00" fill="#000000">ADSRComponent</text>
</a>
</g>
</g>
<!-- Node0&#45;&gt;Node2 -->
<g id="edge2" class="edge">
<title>Node0&#45;&gt;Node2</title>
<path fill="none" stroke="#191970" d="M206.7491,-161.7146C222.1108,-186.8661 252.6573,-231.3699 290,-257 295.5902,-260.8368 302.0163,-263.9502 308.4935,-266.46"/>
<polygon fill="#191970" stroke="#191970" points="209.5737,-159.6168 201.4539,-152.8109 203.5573,-163.1949 209.5737,-159.6168"/>
</g>
<!-- Node3 -->
<g id="node4" class="node">
<title>Node3</title>
<g id="a_node4"><a xlink:href="classControlBox.html" target="_top" xlink:title="A box for holding controls on a grid. ">
<polygon fill="none" stroke="#000000" points="314.5,-228.5 314.5,-247.5 379.5,-247.5 379.5,-228.5 314.5,-228.5"/>
<text text-anchor="middle" x="347" y="-235.5" font-family="Helvetica,sans-Serif" font-size="10.00" fill="#000000">ControlBox</text>
</a>
</g>
</g>
<!-- Node0&#45;&gt;Node3 -->
<g id="edge3" class="edge">
<title>Node0&#45;&gt;Node3</title>
<path fill="none" stroke="#191970" d="M212.8839,-159.8341C230.7149,-176.8041 260.3073,-202.7468 290,-219 297.5945,-223.1571 306.2562,-226.6158 314.4947,-229.392"/>
<polygon fill="#191970" stroke="#191970" points="215.1772,-157.1826 205.5608,-152.7356 210.3051,-162.2088 215.1772,-157.1826"/>
</g>
<!-- Node4 -->
<g id="node5" class="node">
<title>Node4</title>
<g id="a_node5"><a xlink:href="classGateEffectComponent.html" target="_top" xlink:title="An editor for the gate effect pattern. ">
<polygon fill="none" stroke="#000000" points="290,-190.5 290,-209.5 404,-209.5 404,-190.5 290,-190.5"/>
<text text-anchor="middle" x="347" y="-197.5" font-family="Helvetica,sans-Serif" font-size="10.00" fill="#000000">GateEffectComponent</text>
</a>
</g>
</g>
<!-- Node0&#45;&gt;Node4 -->
<g id="edge4" class="edge">
<title>Node0&#45;&gt;Node4</title>
<path fill="none" stroke="#191970" d="M228.1222,-156.5643C246.1947,-164.0496 269.2346,-173.3503 290,-181 298.8093,-184.2452 308.4695,-187.557 317.2936,-190.4874"/>
<polygon fill="#191970" stroke="#191970" points="229.216,-153.2285 218.639,-152.6146 226.5246,-159.6904 229.216,-153.2285"/>
</g>
<!-- Node5 -->
<g id="node6" class="node">
<title>Node5</title>
<g id="a_node6"><a xlink:href="classLFOComponent.html" target="_top" xlink:title="Draws an LFO curve and shows a little dot moving long. ">
<polygon fill="none" stroke="#000000" points="304,-152.5 304,-171.5 390,-171.5 390,-152.5 304,-152.5"/>
<text text-anchor="middle" x="347" y="-159.5" font-family="Helvetica,sans-Serif" font-size="10.00" fill="#000000">LFOComponent</text>
</a>
</g>
</g>
<!-- Node0&#45;&gt;Node5 -->
<g id="edge5" class="edge">
<title>Node0&#45;&gt;Node5</title>
<path fill="none" stroke="#191970" d="M264.5073,-151.6201C277.8616,-153.3005 291.5102,-155.0178 303.7626,-156.5595"/>
<polygon fill="#191970" stroke="#191970" points="264.7393,-148.1218 254.3805,-150.3459 263.8653,-155.067 264.7393,-148.1218"/>
</g>
<!-- Node6 -->
<g id="node7" class="node">
<title>Node6</title>
<g id="a_node7"><a xlink:href="classPagedControlBox.html" target="_top" xlink:title="A control for holding pags of controls on a grid Pages slide over top of each other to make room...">
<polygon fill="none" stroke="#000000" points="300.5,-114.5 300.5,-133.5 393.5,-133.5 393.5,-114.5 300.5,-114.5"/>
<text text-anchor="middle" x="347" y="-121.5" font-family="Helvetica,sans-Serif" font-size="10.00" fill="#000000">PagedControlBox</text>
</a>
</g>
</g>
<!-- Node0&#45;&gt;Node6 -->
<g id="edge6" class="edge">
<title>Node0&#45;&gt;Node6</title>
<path fill="none" stroke="#191970" d="M264.5152,-134.3789C276.6821,-132.848 289.0929,-131.2863 300.4693,-129.8549"/>
<polygon fill="#191970" stroke="#191970" points="263.8653,-130.933 254.3805,-135.6541 264.7393,-137.8782 263.8653,-130.933"/>
</g>
<!-- Node7 -->
<g id="node8" class="node">
<title>Node7</title>
<g id="a_node8"><a xlink:href="classParamArea.html" target="_top" xlink:title="A box for graphs without a header. ">
<polygon fill="none" stroke="#000000" points="314.5,-76.5 314.5,-95.5 379.5,-95.5 379.5,-76.5 314.5,-76.5"/>
<text text-anchor="middle" x="347" y="-83.5" font-family="Helvetica,sans-Serif" font-size="10.00" fill="#000000">ParamArea</text>
</a>
</g>
</g>
<!-- Node0&#45;&gt;Node7 -->
<g id="edge7" class="edge">
<title>Node0&#45;&gt;Node7</title>
<path fill="none" stroke="#191970" d="M228.1222,-129.4357C246.1947,-121.9504 269.2346,-112.6497 290,-105 298.8093,-101.7548 308.4695,-98.443 317.2936,-95.5126"/>
<polygon fill="#191970" stroke="#191970" points="226.5246,-126.3096 218.639,-133.3854 229.216,-132.7715 226.5246,-126.3096"/>
</g>
<!-- Node8 -->
<g id="node9" class="node">
<title>Node8</title>
<g id="a_node9"><a xlink:href="classParamBox.html" target="_top" xlink:title="A box for knobs with a header. ">
<polygon fill="none" stroke="#000000" points="316,-38.5 316,-57.5 378,-57.5 378,-38.5 316,-38.5"/>
<text text-anchor="middle" x="347" y="-45.5" font-family="Helvetica,sans-Serif" font-size="10.00" fill="#000000">ParamBox</text>
</a>
</g>
</g>
<!-- Node0&#45;&gt;Node8 -->
<g id="edge8" class="edge">
<title>Node0&#45;&gt;Node8</title>
<path fill="none" stroke="#191970" d="M212.8839,-126.1659C230.7149,-109.1959 260.3073,-83.2532 290,-67 298.052,-62.5925 307.3036,-58.97 315.9786,-56.1137"/>
<polygon fill="#191970" stroke="#191970" points="210.3051,-123.7912 205.5608,-133.2644 215.1772,-128.8174 210.3051,-123.7912"/>
</g>
<!-- Node9 -->
<g id="node10" class="node">
<title>Node9</title>
<g id="a_node10"><a xlink:href="classStepLFOComponent.html" target="_top" xlink:title="Draws a step LFO curve and shows a little dot moving long. ">
<polygon fill="none" stroke="#000000" points="294,-.5 294,-19.5 400,-19.5 400,-.5 294,-.5"/>
<text text-anchor="middle" x="347" y="-7.5" font-family="Helvetica,sans-Serif" font-size="10.00" fill="#000000">StepLFOComponent</text>
</a>
</g>
</g>
<!-- Node0&#45;&gt;Node9 -->
<g id="edge9" class="edge">
<title>Node0&#45;&gt;Node9</title>
<path fill="none" stroke="#191970" d="M206.7491,-124.2854C222.1108,-99.1339 252.6573,-54.6301 290,-29 295.5902,-25.1632 302.0163,-22.0498 308.4935,-19.54"/>
<polygon fill="#191970" stroke="#191970" points="203.5573,-122.8051 201.4539,-133.1891 209.5737,-126.3832 203.5573,-122.8051"/>
</g>
<!-- Node1 -->
<g id="node2" class="node">
<title>Node1</title>
<g id="a_node2"><a xlink:href="classParameter_1_1Listener.html" target="_top" xlink:title="Parameter::Listener">
<polygon fill="none" stroke="#000000" points="0,-133.5 0,-152.5 102,-152.5 102,-133.5 0,-133.5"/>
<text text-anchor="middle" x="51" y="-140.5" font-family="Helvetica,sans-Serif" font-size="10.00" fill="#000000">Parameter::Listener</text>
</a>
</g>
</g>
<!-- Node1&#45;&gt;Node0 -->
<g id="edge1" class="edge">
<title>Node1&#45;&gt;Node0</title>
<path fill="none" stroke="#191970" d="M112.33,-143C120.8104,-143 129.4997,-143 137.9187,-143"/>
<polygon fill="#191970" stroke="#191970" points="112.1216,-139.5001 102.1216,-143 112.1215,-146.5001 112.1216,-139.5001"/>
</g>
</g>
</svg>
