<?xml version="1.0" encoding="UTF-8" standalone="no"?>
<!DOCTYPE svg PUBLIC "-//W3C//DTD SVG 1.1//EN"
 "http://www.w3.org/Graphics/SVG/1.1/DTD/svg11.dtd">
<!-- Generated by graphviz version 2.40.1 (20161225.0304)
 -->
<!-- Title: ModMatrix::Listener Pages: 1 -->
<svg width="410pt" height="84pt"
 viewBox="0.00 0.00 410.00 84.00" xmlns="http://www.w3.org/2000/svg" xmlns:xlink="http://www.w3.org/1999/xlink">
<g id="graph0" class="graph" transform="scale(1 1) rotate(0) translate(4 80)">
<title>ModMatrix::Listener</title>
<!-- Node0 -->
<g id="node1" class="node">
<title>Node0</title>
<polygon fill="#bfbfbf" stroke="#000000" points="101,-56.5 101,-75.5 204,-75.5 204,-56.5 101,-56.5"/>
<text text-anchor="middle" x="152.5" y="-63.5" font-family="Helvetica,sans-Serif" font-size="10.00" fill="#000000">ModMatrix::Listener</text>
</g>
<!-- Node1 -->
<g id="node2" class="node">
<title>Node1</title>
<g id="a_node2"><a xlink:href="classKnob.html" target="_top" xlink:title="Slider + editable text for showing a param. ">
<polygon fill="none" stroke="#000000" points="0,-.5 0,-19.5 39,-19.5 39,-.5 0,-.5"/>
<text text-anchor="middle" x="19.5" y="-7.5" font-family="Helvetica,sans-Serif" font-size="10.00" fill="#000000">Knob</text>
</a>
</g>
</g>
<!-- Node0&#45;&gt;Node1 -->
<g id="edge1" class="edge">
<title>Node0&#45;&gt;Node1</title>
<path fill="none" stroke="#8b1a1a" d="M120.4083,-52.4877C95.0289,-41.8016 60.421,-27.2299 39.0398,-18.2273"/>
<polygon fill="#8b1a1a" stroke="#8b1a1a" points="119.0619,-55.7184 129.6365,-56.3733 121.7783,-49.2669 119.0619,-55.7184"/>
</g>
<!-- Node2 -->
<g id="node3" class="node">
<title>Node2</title>
<g id="a_node3"><a xlink:href="classModMatrixBox.html" target="_top" xlink:title="A list box of all assigned. ">
<polygon fill="none" stroke="#000000" points="57.5,-.5 57.5,-19.5 137.5,-19.5 137.5,-.5 57.5,-.5"/>
<text text-anchor="middle" x="97.5" y="-7.5" font-family="Helvetica,sans-Serif" font-size="10.00" fill="#000000">ModMatrixBox</text>
</a>
</g>
</g>
<!-- Node0&#45;&gt;Node2 -->
<g id="edge2" class="edge">
<title>Node0&#45;&gt;Node2</title>
<path fill="none" stroke="#8b1a1a" d="M135.8774,-49.0751C126.4145,-39.4402 114.9031,-27.7196 106.9705,-19.6427"/>
<polygon fill="#8b1a1a" stroke="#8b1a1a" points="133.4155,-51.5635 142.9197,-56.2455 138.4097,-46.6585 133.4155,-51.5635"/>
</g>
<!-- Node3 -->
<g id="node4" class="node">
<title>Node3</title>
<g id="a_node4"><a xlink:href="classModulationOverview.html" target="_top" xlink:title="A button and text readout that shows the current modulation source. ">
<polygon fill="none" stroke="#000000" points="156,-.5 156,-19.5 261,-19.5 261,-.5 156,-.5"/>
<text text-anchor="middle" x="208.5" y="-7.5" font-family="Helvetica,sans-Serif" font-size="10.00" fill="#000000">ModulationOverview</text>
</a>
</g>
</g>
<!-- Node0&#45;&gt;Node3 -->
<g id="edge3" class="edge">
<title>Node0&#45;&gt;Node3</title>
<path fill="none" stroke="#8b1a1a" d="M169.4249,-49.0751C179.0598,-39.4402 190.7804,-27.7196 198.8573,-19.6427"/>
<polygon fill="#8b1a1a" stroke="#8b1a1a" points="166.8507,-46.6996 162.2545,-56.2455 171.8004,-51.6493 166.8507,-46.6996"/>
</g>
<!-- Node4 -->
<g id="node5" class="node">
<title>Node4</title>
<g id="a_node5"><a xlink:href="classModulationSourceButton.html" target="_top" xlink:title="A button for enabling modulation learn. ">
<polygon fill="none" stroke="#000000" points="279,-.5 279,-19.5 402,-19.5 402,-.5 279,-.5"/>
<text text-anchor="middle" x="340.5" y="-7.5" font-family="Helvetica,sans-Serif" font-size="10.00" fill="#000000">ModulationSourceButton</text>
</a>
</g>
</g>
<!-- Node0&#45;&gt;Node4 -->
<g id="edge4" class="edge">
<title>Node0&#45;&gt;Node4</title>
<path fill="none" stroke="#8b1a1a" d="M194.6117,-53.4561C229.1218,-43.1765 277.2199,-28.8494 308.6034,-19.5011"/>
<polygon fill="#8b1a1a" stroke="#8b1a1a" points="193.403,-50.1641 184.8184,-56.3733 195.4014,-56.8728 193.403,-50.1641"/>
</g>
</g>
</svg>
