<?xml version="1.0" encoding="UTF-8" standalone="no"?>
<!DOCTYPE svg PUBLIC "-//W3C//DTD SVG 1.1//EN"
 "http://www.w3.org/Graphics/SVG/1.1/DTD/svg11.dtd">
<!-- Generated by graphviz version 2.40.1 (20161225.0304)
 -->
<!-- Title: ModMatrix::Listener Pages: 1 -->
<svg width="311pt" height="84pt"
 viewBox="0.00 0.00 311.00 84.00" xmlns="http://www.w3.org/2000/svg" xmlns:xlink="http://www.w3.org/1999/xlink">
<g id="graph0" class="graph" transform="scale(1 1) rotate(0) translate(4 80)">
<title>ModMatrix::Listener</title>
<!-- Node0 -->
<g id="node1" class="node">
<title>Node0</title>
<polygon fill="#bfbfbf" stroke="#000000" points="58,-56.5 58,-75.5 161,-75.5 161,-56.5 58,-56.5"/>
<text text-anchor="middle" x="109.5" y="-63.5" font-family="Helvetica,sans-Serif" font-size="10.00" fill="#000000">ModMatrix::Listener</text>
</g>
<!-- Node1 -->
<g id="node2" class="node">
<title>Node1</title>
<g id="a_node2"><a xlink:href="classKnob.html" target="_top" xlink:title="Knob">
<polygon fill="none" stroke="#000000" points="0,-.5 0,-19.5 39,-19.5 39,-.5 0,-.5"/>
<text text-anchor="middle" x="19.5" y="-7.5" font-family="Helvetica,sans-Serif" font-size="10.00" fill="#000000">Knob</text>
</a>
</g>
</g>
<!-- Node0&#45;&gt;Node1 -->
<g id="edge1" class="edge">
<title>Node0&#45;&gt;Node1</title>
<path fill="none" stroke="#8b1a1a" d="M85.0216,-50.769C69.0734,-40.8456 48.749,-28.1994 34.9972,-19.6427"/>
<polygon fill="#8b1a1a" stroke="#8b1a1a" points="83.4835,-53.9342 93.8232,-56.2455 87.1817,-47.9908 83.4835,-53.9342"/>
</g>
<!-- Node2 -->
<g id="node3" class="node">
<title>Node2</title>
<g id="a_node3"><a xlink:href="classModulationOverview.html" target="_top" xlink:title="ModulationOverview">
<polygon fill="none" stroke="#000000" points="57,-.5 57,-19.5 162,-19.5 162,-.5 57,-.5"/>
<text text-anchor="middle" x="109.5" y="-7.5" font-family="Helvetica,sans-Serif" font-size="10.00" fill="#000000">ModulationOverview</text>
</a>
</g>
</g>
<!-- Node0&#45;&gt;Node2 -->
<g id="edge2" class="edge">
<title>Node0&#45;&gt;Node2</title>
<path fill="none" stroke="#8b1a1a" d="M109.5,-46.1575C109.5,-37.155 109.5,-26.9199 109.5,-19.6427"/>
<polygon fill="#8b1a1a" stroke="#8b1a1a" points="106.0001,-46.2455 109.5,-56.2455 113.0001,-46.2456 106.0001,-46.2455"/>
</g>
<!-- Node3 -->
<g id="node4" class="node">
<title>Node3</title>
<g id="a_node4"><a xlink:href="classModulationSourceButton.html" target="_top" xlink:title="ModulationSourceButton">
<polygon fill="none" stroke="#000000" points="180,-.5 180,-19.5 303,-19.5 303,-.5 180,-.5"/>
<text text-anchor="middle" x="241.5" y="-7.5" font-family="Helvetica,sans-Serif" font-size="10.00" fill="#000000">ModulationSourceButton</text>
</a>
</g>
</g>
<!-- Node0&#45;&gt;Node3 -->
<g id="edge3" class="edge">
<title>Node0&#45;&gt;Node3</title>
<path fill="none" stroke="#8b1a1a" d="M141.5965,-52.3833C165.6035,-42.1985 197.8259,-28.5284 219.1045,-19.5011"/>
<polygon fill="#8b1a1a" stroke="#8b1a1a" points="140.0305,-49.2457 132.1916,-56.3733 142.7644,-55.6897 140.0305,-49.2457"/>
</g>
</g>
</svg>
