<?xml version="1.0" encoding="UTF-8" standalone="no"?>
<!DOCTYPE svg PUBLIC "-//W3C//DTD SVG 1.1//EN"
 "http://www.w3.org/Graphics/SVG/1.1/DTD/svg11.dtd">
<!-- Generated by graphviz version 2.40.1 (20161225.0304)
 -->
<!-- Title: GinLookAndFeel Pages: 1 -->
<svg width="308pt" height="196pt"
 viewBox="0.00 0.00 308.00 196.00" xmlns="http://www.w3.org/2000/svg" xmlns:xlink="http://www.w3.org/1999/xlink">
<g id="graph0" class="graph" transform="scale(1 1) rotate(0) translate(4 192)">
<title>GinLookAndFeel</title>
<!-- Node0 -->
<g id="node1" class="node">
<title>Node0</title>
<polygon fill="#bfbfbf" stroke="#000000" points="103,-168.5 103,-187.5 198,-187.5 198,-168.5 103,-168.5"/>
<text text-anchor="middle" x="150.5" y="-175.5" font-family="Helvetica,sans-Serif" font-size="10.00" fill="#000000">GinLookAndFeel</text>
</g>
<!-- Node1 -->
<g id="node2" class="node">
<title>Node1</title>
<g id="a_node2"><a xlink:href="classPluginLookAndFeel.html" target="_top" xlink:title="Plugin specific addition to GinLookAndFeel Still black and white. ">
<polygon fill="none" stroke="#000000" points="96.5,-112.5 96.5,-131.5 204.5,-131.5 204.5,-112.5 96.5,-112.5"/>
<text text-anchor="middle" x="150.5" y="-119.5" font-family="Helvetica,sans-Serif" font-size="10.00" fill="#000000">PluginLookAndFeel</text>
</a>
</g>
</g>
<!-- Node0&#45;&gt;Node1 -->
<g id="edge1" class="edge">
<title>Node0&#45;&gt;Node1</title>
<path fill="none" stroke="#191970" d="M150.5,-158.1575C150.5,-149.155 150.5,-138.9199 150.5,-131.6427"/>
<polygon fill="#191970" stroke="#191970" points="147.0001,-158.2455 150.5,-168.2455 154.0001,-158.2456 147.0001,-158.2455"/>
</g>
<!-- Node2 -->
<g id="node3" class="node">
<title>Node2</title>
<g id="a_node3"><a xlink:href="classCopperLookAndFeel.html" target="_top" xlink:title="Plugin specific addition to GinLookAndFeel Still black and white. ">
<polygon fill="none" stroke="#000000" points="20,-56.5 20,-75.5 133,-75.5 133,-56.5 20,-56.5"/>
<text text-anchor="middle" x="76.5" y="-63.5" font-family="Helvetica,sans-Serif" font-size="10.00" fill="#000000">CopperLookAndFeel</text>
</a>
</g>
</g>
<!-- Node1&#45;&gt;Node2 -->
<g id="edge2" class="edge">
<title>Node1&#45;&gt;Node2</title>
<path fill="none" stroke="#191970" d="M129.6343,-106.2097C116.6375,-96.3743 100.3378,-84.0394 89.2421,-75.6427"/>
<polygon fill="#191970" stroke="#191970" points="127.524,-109.002 137.6102,-112.2455 131.7482,-103.4201 127.524,-109.002"/>
</g>
<!-- Node4 -->
<g id="node5" class="node">
<title>Node4</title>
<g id="a_node5"><a xlink:href="classPluginLookAndFeelWrapper.html" target="_top" xlink:title="Auto sets and clears PluginLookAndFeel as default. ">
<polygon fill="none" stroke="#000000" points="151,-56.5 151,-75.5 300,-75.5 300,-56.5 151,-56.5"/>
<text text-anchor="middle" x="225.5" y="-63.5" font-family="Helvetica,sans-Serif" font-size="10.00" fill="#000000">PluginLookAndFeelWrapper</text>
</a>
</g>
</g>
<!-- Node1&#45;&gt;Node4 -->
<g id="edge4" class="edge">
<title>Node1&#45;&gt;Node4</title>
<path fill="none" stroke="#191970" d="M171.6477,-106.2097C184.8201,-96.3743 201.34,-84.0394 212.5857,-75.6427"/>
<polygon fill="#191970" stroke="#191970" points="169.4828,-103.4581 163.564,-112.2455 173.6709,-109.0671 169.4828,-103.4581"/>
</g>
<!-- Node3 -->
<g id="node4" class="node">
<title>Node3</title>
<g id="a_node4"><a xlink:href="classCopperLookAndFeelWrapper.html" target="_top" xlink:title="Auto sets and clears CopperLookAndFeel as default. ">
<polygon fill="none" stroke="#000000" points="0,-.5 0,-19.5 153,-19.5 153,-.5 0,-.5"/>
<text text-anchor="middle" x="76.5" y="-7.5" font-family="Helvetica,sans-Serif" font-size="10.00" fill="#000000">CopperLookAndFeelWrapper</text>
</a>
</g>
</g>
<!-- Node2&#45;&gt;Node3 -->
<g id="edge3" class="edge">
<title>Node2&#45;&gt;Node3</title>
<path fill="none" stroke="#191970" d="M76.5,-46.1575C76.5,-37.155 76.5,-26.9199 76.5,-19.6427"/>
<polygon fill="#191970" stroke="#191970" points="73.0001,-46.2455 76.5,-56.2455 80.0001,-46.2456 73.0001,-46.2455"/>
</g>
</g>
</svg>
