<?xml version="1.0" encoding="UTF-8" standalone="no"?>
<!DOCTYPE svg PUBLIC "-//W3C//DTD SVG 1.1//EN"
 "http://www.w3.org/Graphics/SVG/1.1/DTD/svg11.dtd">
<!-- Generated by graphviz version 2.43.0 (0)
 -->
<!-- Title: ParamComponent Pages: 1 -->
<svg width="292pt" height="84pt"
 viewBox="0.00 0.00 292.00 84.00" xmlns="http://www.w3.org/2000/svg" xmlns:xlink="http://www.w3.org/1999/xlink">
<g id="graph0" class="graph" transform="scale(1 1) rotate(0) translate(4 80)">
<title>ParamComponent</title>
<!-- Node1 -->
<g id="node1" class="node">
<title>Node1</title>
<g id="a_node1"><a xlink:title="Base class for a control showing a parameter with label.">
<polygon fill="#bfbfbf" stroke="black" points="110.5,-56.5 110.5,-75.5 214.5,-75.5 214.5,-56.5 110.5,-56.5"/>
<text text-anchor="middle" x="162.5" y="-63.5" font-family="Helvetica,sans-Serif" font-size="10.00">ParamComponent</text>
</a>
</g>
</g>
<!-- Node2 -->
<g id="node2" class="node">
<title>Node2</title>
<g id="a_node2"><a xlink:href="classHorizontalFader.html" target="_top" xlink:title="Horizontal slider wth text for controlling a param.">
<polygon fill="none" stroke="black" points="0,-0.5 0,-19.5 93,-19.5 93,-0.5 0,-0.5"/>
<text text-anchor="middle" x="46.5" y="-7.5" font-family="Helvetica,sans-Serif" font-size="10.00">HorizontalFader</text>
</a>
</g>
</g>
<!-- Node1&#45;&gt;Node2 -->
<g id="edge1" class="edge">
<title>Node1&#45;&gt;Node2</title>
<path fill="none" stroke="midnightblue" d="M134.78,-52.1C113.11,-42.01 83.6,-28.27 64.79,-19.52"/>
<polygon fill="midnightblue" stroke="midnightblue" points="133.58,-55.4 144.12,-56.44 136.53,-49.05 133.58,-55.4"/>
</g>
<!-- Node3 -->
<g id="node3" class="node">
<title>Node3</title>
<g id="a_node3"><a xlink:href="classKnob.html" target="_top" xlink:title="Slider + editable text for showing a param.">
<polygon fill="none" stroke="black" points="111,-0.5 111,-19.5 152,-19.5 152,-0.5 111,-0.5"/>
<text text-anchor="middle" x="131.5" y="-7.5" font-family="Helvetica,sans-Serif" font-size="10.00">Knob</text>
</a>
</g>
</g>
<!-- Node1&#45;&gt;Node3 -->
<g id="edge2" class="edge">
<title>Node1&#45;&gt;Node3</title>
<path fill="none" stroke="midnightblue" d="M152.32,-47.27C147.03,-38.05 140.78,-27.17 136.52,-19.75"/>
<polygon fill="midnightblue" stroke="midnightblue" points="149.37,-49.15 157.38,-56.08 155.44,-45.67 149.37,-49.15"/>
</g>
<!-- Node4 -->
<g id="node4" class="node">
<title>Node4</title>
<g id="a_node4"><a xlink:href="classSelect.html" target="_top" xlink:title="Control for picking param value with label.">
<polygon fill="none" stroke="black" points="170,-0.5 170,-19.5 217,-19.5 217,-0.5 170,-0.5"/>
<text text-anchor="middle" x="193.5" y="-7.5" font-family="Helvetica,sans-Serif" font-size="10.00">Select</text>
</a>
</g>
</g>
<!-- Node1&#45;&gt;Node4 -->
<g id="edge3" class="edge">
<title>Node1&#45;&gt;Node4</title>
<path fill="none" stroke="midnightblue" d="M172.68,-47.27C177.97,-38.05 184.22,-27.17 188.48,-19.75"/>
<polygon fill="midnightblue" stroke="midnightblue" points="169.56,-45.67 167.62,-56.08 175.63,-49.15 169.56,-45.67"/>
</g>
<!-- Node5 -->
<g id="node5" class="node">
<title>Node5</title>
<g id="a_node5"><a xlink:href="classSwitch.html" target="_top" xlink:title="Control for toggling param with label.">
<polygon fill="none" stroke="black" points="235,-0.5 235,-19.5 284,-19.5 284,-0.5 235,-0.5"/>
<text text-anchor="middle" x="259.5" y="-7.5" font-family="Helvetica,sans-Serif" font-size="10.00">Switch</text>
</a>
</g>
</g>
<!-- Node1&#45;&gt;Node5 -->
<g id="edge4" class="edge">
<title>Node1&#45;&gt;Node5</title>
<path fill="none" stroke="midnightblue" d="M186.84,-51.45C204.74,-41.48 228.55,-28.23 243.95,-19.65"/>
<polygon fill="midnightblue" stroke="midnightblue" points="185.12,-48.4 178.08,-56.32 188.52,-54.52 185.12,-48.4"/>
</g>
</g>
</svg>
