<?xml version="1.0" encoding="UTF-8" standalone="no"?>
<!DOCTYPE svg PUBLIC "-//W3C//DTD SVG 1.1//EN"
 "http://www.w3.org/Graphics/SVG/1.1/DTD/svg11.dtd">
<!-- Generated by graphviz version 2.43.0 (0)
 -->
<!-- Title: Parameter::ParameterListener Pages: 1 -->
<svg width="494pt" height="489pt"
 viewBox="0.00 0.00 494.00 489.00" xmlns="http://www.w3.org/2000/svg" xmlns:xlink="http://www.w3.org/1999/xlink">
<g id="graph0" class="graph" transform="scale(1 1) rotate(0) translate(4 485)">
<title>Parameter::ParameterListener</title>
<!-- Node1 -->
<g id="Node000001" class="node">
<title>Node1</title>
<g id="a_Node000001"><a xlink:title=" ">
<polygon fill="#999999" stroke="#666666" points="162,-111 0,-111 0,-92 162,-92 162,-111"/>
<text text-anchor="middle" x="81" y="-99" font-family="Helvetica,sans-Serif" font-size="10.00">Parameter::ParameterListener</text>
</a>
</g>
</g>
<!-- Node2 -->
<g id="Node000002" class="node">
<title>Node2</title>
<g id="a_Node000002"><a xlink:href="classMultiParamComponent.html" target="_top" xlink:title="A base component for controlling multiple parameters at once.">
<polygon fill="white" stroke="#666666" points="326,-314 198,-314 198,-295 326,-295 326,-314"/>
<text text-anchor="middle" x="262" y="-302" font-family="Helvetica,sans-Serif" font-size="10.00">MultiParamComponent</text>
</a>
</g>
</g>
<!-- Node1&#45;&gt;Node2 -->
<g id="edge1_Node000001_Node000002" class="edge">
<title>Node1&#45;&gt;Node2</title>
<g id="a_edge1_Node000001_Node000002"><a xlink:title=" ">
<path fill="none" stroke="#63b8ff" d="M97.05,-118.57C133.21,-159.57 224.07,-262.62 252.42,-294.77"/>
<polygon fill="#63b8ff" stroke="#63b8ff" points="99.63,-116.2 90.39,-111.02 94.38,-120.83 99.63,-116.2"/>
</a>
</g>
</g>
<!-- Node12 -->
<g id="Node000012" class="node">
<title>Node12</title>
<g id="a_Node000012"><a xlink:href="classPluginButton.html" target="_top" xlink:title="Button for toggling a parameter.">
<polygon fill="white" stroke="#666666" points="301.5,-167 222.5,-167 222.5,-148 301.5,-148 301.5,-167"/>
<text text-anchor="middle" x="262" y="-155" font-family="Helvetica,sans-Serif" font-size="10.00">PluginButton</text>
</a>
</g>
</g>
<!-- Node1&#45;&gt;Node12 -->
<g id="edge11_Node000001_Node000012" class="edge">
<title>Node1&#45;&gt;Node12</title>
<g id="a_edge11_Node000001_Node000012"><a xlink:title=" ">
<path fill="none" stroke="#8b1a1a" d="M119.61,-114.22C142.25,-121.78 171.7,-131.44 198,-139.5 207.24,-142.33 217.3,-145.27 226.6,-147.93"/>
<polygon fill="#8b1a1a" stroke="#8b1a1a" points="120.63,-110.87 110.03,-111.02 118.4,-117.51 120.63,-110.87"/>
</a>
</g>
</g>
<!-- Node14 -->
<g id="Node000014" class="node">
<title>Node14</title>
<g id="a_Node000014"><a xlink:href="classPluginComboBox.html" target="_top" xlink:title="A control for selecting param values from a dropbox.">
<polygon fill="white" stroke="#666666" points="312,-130 212,-130 212,-111 312,-111 312,-130"/>
<text text-anchor="middle" x="262" y="-118" font-family="Helvetica,sans-Serif" font-size="10.00">PluginComboBox</text>
</a>
</g>
</g>
<!-- Node1&#45;&gt;Node14 -->
<g id="edge13_Node000001_Node000014" class="edge">
<title>Node1&#45;&gt;Node14</title>
<g id="a_edge13_Node000001_Node000014"><a xlink:title=" ">
<path fill="none" stroke="#8b1a1a" d="M172.04,-111.06C185.74,-112.51 199.42,-113.96 211.8,-115.28"/>
<polygon fill="#8b1a1a" stroke="#8b1a1a" points="172.39,-107.57 162.08,-110 171.65,-114.54 172.39,-107.57"/>
</a>
</g>
</g>
<!-- Node15 -->
<g id="Node000015" class="node">
<title>Node15</title>
<g id="a_Node000015"><a xlink:href="classPluginSlider.html" target="_top" xlink:title="A slider for controlling a parameter.">
<polygon fill="white" stroke="#666666" points="299,-93 225,-93 225,-74 299,-74 299,-93"/>
<text text-anchor="middle" x="262" y="-81" font-family="Helvetica,sans-Serif" font-size="10.00">PluginSlider</text>
</a>
</g>
</g>
<!-- Node1&#45;&gt;Node15 -->
<g id="edge14_Node000001_Node000015" class="edge">
<title>Node1&#45;&gt;Node15</title>
<g id="a_edge14_Node000001_Node000015"><a xlink:title=" ">
<path fill="none" stroke="#8b1a1a" d="M172.15,-92.43C190.86,-90.55 209.54,-88.67 224.9,-87.13"/>
<polygon fill="#8b1a1a" stroke="#8b1a1a" points="171.68,-88.96 162.08,-93.45 172.38,-95.93 171.68,-88.96"/>
</a>
</g>
</g>
<!-- Node17 -->
<g id="Node000017" class="node">
<title>Node17</title>
<g id="a_Node000017"><a xlink:href="classReadout.html" target="_top" xlink:title="A control for displaying a parameter.">
<polygon fill="white" stroke="#666666" points="290.5,-56 233.5,-56 233.5,-37 290.5,-37 290.5,-56"/>
<text text-anchor="middle" x="262" y="-44" font-family="Helvetica,sans-Serif" font-size="10.00">Readout</text>
</a>
</g>
</g>
<!-- Node1&#45;&gt;Node17 -->
<g id="edge16_Node000001_Node000017" class="edge">
<title>Node1&#45;&gt;Node17</title>
<g id="a_edge16_Node000001_Node000017"><a xlink:title=" ">
<path fill="none" stroke="#8b1a1a" d="M120.55,-88.88C143.08,-81.59 172.09,-72.33 198,-64.5 209.54,-61.01 222.33,-57.33 233.35,-54.2"/>
<polygon fill="#8b1a1a" stroke="#8b1a1a" points="119.43,-85.56 111,-91.98 121.6,-92.22 119.43,-85.56"/>
</a>
</g>
</g>
<!-- Node18 -->
<g id="Node000018" class="node">
<title>Node18</title>
<g id="a_Node000018"><a xlink:href="classSVGPluginButton.html" target="_top" xlink:title="Button for toggling a parameter.">
<polygon fill="white" stroke="#666666" points="311.5,-19 212.5,-19 212.5,0 311.5,0 311.5,-19"/>
<text text-anchor="middle" x="262" y="-7" font-family="Helvetica,sans-Serif" font-size="10.00">SVGPluginButton</text>
</a>
</g>
</g>
<!-- Node1&#45;&gt;Node18 -->
<g id="edge17_Node000001_Node000018" class="edge">
<title>Node1&#45;&gt;Node18</title>
<g id="a_edge17_Node000001_Node000018"><a xlink:title=" ">
<path fill="none" stroke="#8b1a1a" d="M102.62,-85.72C125.03,-69.22 162.43,-43.52 198,-27.5 205.26,-24.23 213.26,-21.4 221.05,-19.02"/>
<polygon fill="#8b1a1a" stroke="#8b1a1a" points="100.44,-82.98 94.52,-91.77 104.63,-88.59 100.44,-82.98"/>
</a>
</g>
</g>
<!-- Node3 -->
<g id="Node000003" class="node">
<title>Node3</title>
<g id="a_Node000003"><a xlink:href="classADSRComponent.html" target="_top" xlink:title="Interactive visual editor for ADSR envelope parameters.">
<polygon fill="white" stroke="#666666" points="474,-481 374,-481 374,-462 474,-462 474,-481"/>
<text text-anchor="middle" x="424" y="-469" font-family="Helvetica,sans-Serif" font-size="10.00">ADSRComponent</text>
</a>
</g>
</g>
<!-- Node2&#45;&gt;Node3 -->
<g id="edge2_Node000002_Node000003" class="edge">
<title>Node2&#45;&gt;Node3</title>
<g id="a_edge2_Node000002_Node000003"><a xlink:title=" ">
<path fill="none" stroke="#63b8ff" d="M270.54,-323.69C284.02,-355.49 315.3,-419.04 362,-453.5 366.62,-456.91 371.88,-459.68 377.33,-461.92"/>
<polygon fill="#63b8ff" stroke="#63b8ff" points="273.69,-322.13 266.65,-314.21 267.21,-324.79 273.69,-322.13"/>
</a>
</g>
</g>
<!-- Node4 -->
<g id="Node000004" class="node">
<title>Node4</title>
<g id="a_Node000004"><a xlink:href="classControlBox.html" target="_top" xlink:title="Container for organizing plugin controls on a grid layout with page support.">
<polygon fill="white" stroke="#666666" points="459.5,-444 388.5,-444 388.5,-425 459.5,-425 459.5,-444"/>
<text text-anchor="middle" x="424" y="-432" font-family="Helvetica,sans-Serif" font-size="10.00">ControlBox</text>
</a>
</g>
</g>
<!-- Node2&#45;&gt;Node4 -->
<g id="edge3_Node000002_Node000004" class="edge">
<title>Node2&#45;&gt;Node4</title>
<g id="a_edge3_Node000002_Node000004"><a xlink:title=" ">
<path fill="none" stroke="#63b8ff" d="M274.3,-322.72C290.63,-347.56 323.18,-391.78 362,-416.5 369.92,-421.54 379.3,-425.22 388.31,-427.88"/>
<polygon fill="#63b8ff" stroke="#63b8ff" points="277.2,-320.76 268.85,-314.23 271.31,-324.54 277.2,-320.76"/>
</a>
</g>
</g>
<!-- Node5 -->
<g id="Node000005" class="node">
<title>Node5</title>
<g id="a_Node000005"><a xlink:href="classGateEffectComponent.html" target="_top" xlink:title="An editor for the gate effect pattern.">
<polygon fill="white" stroke="#666666" points="486,-407 362,-407 362,-388 486,-388 486,-407"/>
<text text-anchor="middle" x="424" y="-395" font-family="Helvetica,sans-Serif" font-size="10.00">GateEffectComponent</text>
</a>
</g>
</g>
<!-- Node2&#45;&gt;Node5 -->
<g id="edge4_Node000002_Node000005" class="edge">
<title>Node2&#45;&gt;Node5</title>
<g id="a_edge4_Node000002_Node000005"><a xlink:title=" ">
<path fill="none" stroke="#63b8ff" d="M280.62,-321.03C299.45,-337.89 330.81,-363.75 362,-379.5 368.51,-382.79 375.71,-385.57 382.82,-387.9"/>
<polygon fill="#63b8ff" stroke="#63b8ff" points="282.88,-318.35 273.13,-314.2 278.16,-323.53 282.88,-318.35"/>
</a>
</g>
</g>
<!-- Node6 -->
<g id="Node000006" class="node">
<title>Node6</title>
<g id="a_Node000006"><a xlink:href="classLFOComponent.html" target="_top" xlink:title="Visual display of LFO waveform with animated phase indicators.">
<polygon fill="white" stroke="#666666" points="470,-370 378,-370 378,-351 470,-351 470,-370"/>
<text text-anchor="middle" x="424" y="-358" font-family="Helvetica,sans-Serif" font-size="10.00">LFOComponent</text>
</a>
</g>
</g>
<!-- Node2&#45;&gt;Node6 -->
<g id="edge5_Node000002_Node000006" class="edge">
<title>Node2&#45;&gt;Node6</title>
<g id="a_edge5_Node000002_Node000006"><a xlink:title=" ">
<path fill="none" stroke="#63b8ff" d="M295.88,-317.88C315.03,-325.48 339.73,-334.95 362,-342.5 370.68,-345.44 380.14,-348.37 388.97,-350.98"/>
<polygon fill="#63b8ff" stroke="#63b8ff" points="297,-314.55 286.41,-314.09 294.4,-321.05 297,-314.55"/>
</a>
</g>
</g>
<!-- Node7 -->
<g id="Node000007" class="node">
<title>Node7</title>
<g id="a_Node000007"><a xlink:href="classMSEGComponent.html" target="_top" xlink:title="Draws an MSEG LFO curve and shows a little dot moving long.">
<polygon fill="white" stroke="#666666" points="474.5,-333 373.5,-333 373.5,-314 474.5,-314 474.5,-333"/>
<text text-anchor="middle" x="424" y="-321" font-family="Helvetica,sans-Serif" font-size="10.00">MSEGComponent</text>
</a>
</g>
</g>
<!-- Node2&#45;&gt;Node7 -->
<g id="edge6_Node000002_Node000007" class="edge">
<title>Node2&#45;&gt;Node7</title>
<g id="a_edge6_Node000002_Node000007"><a xlink:title=" ">
<path fill="none" stroke="#63b8ff" d="M336.17,-313.19C348.65,-314.67 361.34,-316.18 373.04,-317.57"/>
<polygon fill="#63b8ff" stroke="#63b8ff" points="336.58,-309.71 326.24,-312.01 335.75,-316.66 336.58,-309.71"/>
</a>
</g>
</g>
<!-- Node8 -->
<g id="Node000008" class="node">
<title>Node8</title>
<g id="a_Node000008"><a xlink:href="classPagedControlBox.html" target="_top" xlink:title="Advanced container with sliding page transitions for organizing controls.">
<polygon fill="white" stroke="#666666" points="474,-296 374,-296 374,-277 474,-277 474,-296"/>
<text text-anchor="middle" x="424" y="-284" font-family="Helvetica,sans-Serif" font-size="10.00">PagedControlBox</text>
</a>
</g>
</g>
<!-- Node2&#45;&gt;Node8 -->
<g id="edge7_Node000002_Node000008" class="edge">
<title>Node2&#45;&gt;Node8</title>
<g id="a_edge7_Node000002_Node000008"><a xlink:title=" ">
<path fill="none" stroke="#63b8ff" d="M336.28,-296.26C348.9,-294.84 361.74,-293.39 373.54,-292.06"/>
<polygon fill="#63b8ff" stroke="#63b8ff" points="335.78,-292.79 326.24,-297.39 336.56,-299.75 335.78,-292.79"/>
</a>
</g>
</g>
<!-- Node9 -->
<g id="Node000009" class="node">
<title>Node9</title>
<g id="a_Node000009"><a xlink:href="classParamArea.html" target="_top" xlink:title="A box for graphs without a header.">
<polygon fill="white" stroke="#666666" points="459,-259 389,-259 389,-240 459,-240 459,-259"/>
<text text-anchor="middle" x="424" y="-247" font-family="Helvetica,sans-Serif" font-size="10.00">ParamArea</text>
</a>
</g>
</g>
<!-- Node2&#45;&gt;Node9 -->
<g id="edge8_Node000002_Node000009" class="edge">
<title>Node2&#45;&gt;Node9</title>
<g id="a_edge8_Node000002_Node000009"><a xlink:title=" ">
<path fill="none" stroke="#63b8ff" d="M297.53,-291.49C316.49,-284.47 340.46,-275.77 362,-268.5 371.46,-265.31 381.81,-262.01 391.25,-259.08"/>
<polygon fill="#63b8ff" stroke="#63b8ff" points="296.26,-288.23 288.11,-295 298.71,-294.79 296.26,-288.23"/>
</a>
</g>
</g>
<!-- Node10 -->
<g id="Node000010" class="node">
<title>Node10</title>
<g id="a_Node000010"><a xlink:href="classParamBox.html" target="_top" xlink:title="A box for knobs with a header.">
<polygon fill="white" stroke="#666666" points="457,-222 391,-222 391,-203 457,-203 457,-222"/>
<text text-anchor="middle" x="424" y="-210" font-family="Helvetica,sans-Serif" font-size="10.00">ParamBox</text>
</a>
</g>
</g>
<!-- Node2&#45;&gt;Node10 -->
<g id="edge9_Node000002_Node000010" class="edge">
<title>Node2&#45;&gt;Node10</title>
<g id="a_edge9_Node000002_Node000010"><a xlink:title=" ">
<path fill="none" stroke="#63b8ff" d="M281.06,-288.26C300.02,-271.95 331.3,-247.04 362,-231.5 371.01,-226.94 381.32,-223.22 390.87,-220.32"/>
<polygon fill="#63b8ff" stroke="#63b8ff" points="278.71,-285.67 273.49,-294.89 283.32,-290.94 278.71,-285.67"/>
</a>
</g>
</g>
<!-- Node11 -->
<g id="Node000011" class="node">
<title>Node11</title>
<g id="a_Node000011"><a xlink:href="classStepLFOComponent.html" target="_top" xlink:title="Draws a step LFO curve and shows a little dot moving long.">
<polygon fill="white" stroke="#666666" points="480.5,-185 367.5,-185 367.5,-166 480.5,-166 480.5,-185"/>
<text text-anchor="middle" x="424" y="-173" font-family="Helvetica,sans-Serif" font-size="10.00">StepLFOComponent</text>
</a>
</g>
</g>
<!-- Node2&#45;&gt;Node11 -->
<g id="edge10_Node000002_Node000011" class="edge">
<title>Node2&#45;&gt;Node11</title>
<g id="a_edge10_Node000002_Node000011"><a xlink:title=" ">
<path fill="none" stroke="#63b8ff" d="M274.65,-286.37C291.2,-262.02 323.81,-218.98 362,-194.5 367.98,-190.67 374.78,-187.57 381.62,-185.07"/>
<polygon fill="#63b8ff" stroke="#63b8ff" points="271.54,-284.72 268.93,-294.99 277.37,-288.59 271.54,-284.72"/>
</a>
</g>
</g>
<!-- Node13 -->
<g id="Node000013" class="node">
<title>Node13</title>
<g id="a_Node000013"><a xlink:href="classPowerButton.html" target="_top" xlink:title="Button for toggling a parameter, drawn as a power button.">
<polygon fill="white" stroke="#666666" points="463.5,-148 384.5,-148 384.5,-129 463.5,-129 463.5,-148"/>
<text text-anchor="middle" x="424" y="-136" font-family="Helvetica,sans-Serif" font-size="10.00">PowerButton</text>
</a>
</g>
</g>
<!-- Node12&#45;&gt;Node13 -->
<g id="edge12_Node000012_Node000013" class="edge">
<title>Node12&#45;&gt;Node13</title>
<g id="a_edge12_Node000012_Node000013"><a xlink:title=" ">
<path fill="none" stroke="#63b8ff" d="M311.76,-151.71C335.05,-148.94 362.53,-145.68 384.35,-143.09"/>
<polygon fill="#63b8ff" stroke="#63b8ff" points="311.25,-148.25 301.73,-152.9 312.07,-155.2 311.25,-148.25"/>
</a>
</g>
</g>
<!-- Node16 -->
<g id="Node000016" class="node">
<title>Node16</title>
<g id="a_Node000016"><a xlink:href="classFaderSlider.html" target="_top" xlink:title="A vertical fader slider for controlling a parameter with custom drawing.">
<polygon fill="white" stroke="#666666" points="459.5,-93 388.5,-93 388.5,-74 459.5,-74 459.5,-93"/>
<text text-anchor="middle" x="424" y="-81" font-family="Helvetica,sans-Serif" font-size="10.00">FaderSlider</text>
</a>
</g>
</g>
<!-- Node15&#45;&gt;Node16 -->
<g id="edge15_Node000015_Node000016" class="edge">
<title>Node15&#45;&gt;Node16</title>
<g id="a_edge15_Node000015_Node000016"><a xlink:title=" ">
<path fill="none" stroke="#63b8ff" d="M309.4,-83.5C334.65,-83.5 365.36,-83.5 388.48,-83.5"/>
<polygon fill="#63b8ff" stroke="#63b8ff" points="309.31,-80 299.31,-83.5 309.31,-87 309.31,-80"/>
</a>
</g>
</g>
</g>
</svg>
