<?xml version="1.0" encoding="UTF-8" standalone="no"?>
<!DOCTYPE svg PUBLIC "-//W3C//DTD SVG 1.1//EN"
 "http://www.w3.org/Graphics/SVG/1.1/DTD/svg11.dtd">
<!-- Generated by graphviz version 2.40.1 (20161225.0304)
 -->
<!-- Title: AudioEquationParser Pages: 1 -->
<svg width="222pt" height="84pt"
 viewBox="0.00 0.00 222.00 84.00" xmlns="http://www.w3.org/2000/svg" xmlns:xlink="http://www.w3.org/1999/xlink">
<g id="graph0" class="graph" transform="scale(1 1) rotate(0) translate(4 80)">
<title>AudioEquationParser</title>
<!-- Node0 -->
<g id="node1" class="node">
<title>Node0</title>
<polygon fill="#bfbfbf" stroke="#000000" points="44,-.5 44,-19.5 161,-19.5 161,-.5 44,-.5"/>
<text text-anchor="middle" x="102.5" y="-7.5" font-family="Helvetica,sans-Serif" font-size="10.00" fill="#000000">AudioEquationParser</text>
</g>
<!-- Node1 -->
<g id="node2" class="node">
<title>Node1</title>
<g id="a_node2"><a xlink:href="classEquationParser.html" target="_top" xlink:title="EquationParser">
<polygon fill="none" stroke="#000000" points="0,-56.5 0,-75.5 89,-75.5 89,-56.5 0,-56.5"/>
<text text-anchor="middle" x="44.5" y="-63.5" font-family="Helvetica,sans-Serif" font-size="10.00" fill="#000000">EquationParser</text>
</a>
</g>
</g>
<!-- Node1&#45;&gt;Node0 -->
<g id="edge1" class="edge">
<title>Node1&#45;&gt;Node0</title>
<path fill="none" stroke="#191970" d="M62.0293,-49.0751C72.0083,-39.4402 84.1476,-27.7196 92.5129,-19.6427"/>
<polygon fill="#191970" stroke="#191970" points="59.3658,-46.7817 54.6028,-56.2455 64.228,-51.8175 59.3658,-46.7817"/>
</g>
<!-- Node2 -->
<g id="node3" class="node">
<title>Node2</title>
<g id="a_node3"><a xlink:href="classAudioFunctionHost.html" target="_top" xlink:title="State managment for audio functions. ">
<polygon fill="none" stroke="#000000" points="107,-56.5 107,-75.5 214,-75.5 214,-56.5 107,-56.5"/>
<text text-anchor="middle" x="160.5" y="-63.5" font-family="Helvetica,sans-Serif" font-size="10.00" fill="#000000">AudioFunctionHost</text>
</a>
</g>
</g>
<!-- Node2&#45;&gt;Node0 -->
<g id="edge2" class="edge">
<title>Node2&#45;&gt;Node0</title>
<path fill="none" stroke="#191970" d="M142.9707,-49.0751C132.9917,-39.4402 120.8524,-27.7196 112.4871,-19.6427"/>
<polygon fill="#191970" stroke="#191970" points="140.772,-51.8175 150.3972,-56.2455 145.6342,-46.7817 140.772,-51.8175"/>
</g>
</g>
</svg>
