<?xml version="1.0" encoding="UTF-8" standalone="no"?>
<!DOCTYPE svg PUBLIC "-//W3C//DTD SVG 1.1//EN"
 "http://www.w3.org/Graphics/SVG/1.1/DTD/svg11.dtd">
<!-- Generated by graphviz version 2.43.0 (0)
 -->
<!-- Title: Readout Pages: 1 -->
<svg width="254pt" height="95pt"
 viewBox="0.00 0.00 254.00 95.00" xmlns="http://www.w3.org/2000/svg" xmlns:xlink="http://www.w3.org/1999/xlink">
<g id="graph0" class="graph" transform="scale(1 1) rotate(0) translate(4 91)">
<title>Readout</title>
<!-- Node1 -->
<g id="node1" class="node">
<title>Node1</title>
<g id="a_node1"><a xlink:title="A control for displaying a parameter.">
<polygon fill="#bfbfbf" stroke="black" points="93.5,-0.5 93.5,-19.5 150.5,-19.5 150.5,-0.5 93.5,-0.5"/>
<text text-anchor="middle" x="122" y="-7.5" font-family="Helvetica,sans-Serif" font-size="10.00">Readout</text>
</a>
</g>
</g>
<!-- Node2 -->
<g id="node2" class="node">
<title>Node2</title>
<g id="a_node2"><a xlink:href="classParameter_1_1Listener.html" target="_top" xlink:title=" ">
<polygon fill="none" stroke="black" points="0,-62 0,-81 112,-81 112,-62 0,-62"/>
<text text-anchor="middle" x="56" y="-69" font-family="Helvetica,sans-Serif" font-size="10.00">Parameter::Listener</text>
</a>
</g>
</g>
<!-- Node2&#45;&gt;Node1 -->
<g id="edge1" class="edge">
<title>Node2&#45;&gt;Node1</title>
<path fill="none" stroke="#8b1a1a" d="M73.03,-55.15C85.61,-43.81 102.28,-28.78 112.56,-19.51"/>
<polygon fill="#8b1a1a" stroke="#8b1a1a" points="70.54,-52.68 65.46,-61.98 75.23,-57.88 70.54,-52.68"/>
</g>
<!-- Node3 -->
<g id="node3" class="node">
<title>Node3</title>
<g id="a_node3"><a xlink:href="classSingleLineTextEditor_1_1Listener.html" target="_top" xlink:title="Receives callbacks from a TextEditor component when it changes.">
<polygon fill="none" stroke="black" points="130,-56.5 130,-86.5 246,-86.5 246,-56.5 130,-56.5"/>
<text text-anchor="start" x="138" y="-74.5" font-family="Helvetica,sans-Serif" font-size="10.00">SingleLineTextEditor</text>
<text text-anchor="middle" x="188" y="-63.5" font-family="Helvetica,sans-Serif" font-size="10.00">::Listener</text>
</a>
</g>
</g>
<!-- Node3&#45;&gt;Node1 -->
<g id="edge2" class="edge">
<title>Node3&#45;&gt;Node1</title>
<path fill="none" stroke="#8b1a1a" d="M164.81,-49.6C153.41,-39.32 140.28,-27.48 131.6,-19.66"/>
<polygon fill="#8b1a1a" stroke="#8b1a1a" points="162.59,-52.3 172.36,-56.4 167.28,-47.1 162.59,-52.3"/>
</g>
</g>
</svg>
