<?xml version="1.0" encoding="UTF-8" standalone="no"?>
<!DOCTYPE svg PUBLIC "-//W3C//DTD SVG 1.1//EN"
 "http://www.w3.org/Graphics/SVG/1.1/DTD/svg11.dtd">
<!-- Generated by graphviz version 2.40.1 (20161225.0304)
 -->
<!-- Title: ParamComponent Pages: 1 -->
<svg width="280pt" height="84pt"
 viewBox="0.00 0.00 279.50 84.00" xmlns="http://www.w3.org/2000/svg" xmlns:xlink="http://www.w3.org/1999/xlink">
<g id="graph0" class="graph" transform="scale(1 1) rotate(0) translate(4 80)">
<title>ParamComponent</title>
<!-- Node0 -->
<g id="node1" class="node">
<title>Node0</title>
<polygon fill="#bfbfbf" stroke="#000000" points="106.5,-56.5 106.5,-75.5 201.5,-75.5 201.5,-56.5 106.5,-56.5"/>
<text text-anchor="middle" x="154" y="-63.5" font-family="Helvetica,sans-Serif" font-size="10.00" fill="#000000">ParamComponent</text>
</g>
<!-- Node1 -->
<g id="node2" class="node">
<title>Node1</title>
<g id="a_node2"><a xlink:href="classHorizontalFader.html" target="_top" xlink:title="HorizontalFader">
<polygon fill="none" stroke="#000000" points="0,-.5 0,-19.5 86,-19.5 86,-.5 0,-.5"/>
<text text-anchor="middle" x="43" y="-7.5" font-family="Helvetica,sans-Serif" font-size="10.00" fill="#000000">HorizontalFader</text>
</a>
</g>
</g>
<!-- Node0&#45;&gt;Node1 -->
<g id="edge1" class="edge">
<title>Node0&#45;&gt;Node1</title>
<path fill="none" stroke="#191970" d="M125.9266,-51.8368C105.8615,-41.7139 79.4078,-28.3679 61.8326,-19.5011"/>
<polygon fill="#191970" stroke="#191970" points="124.4138,-54.9938 134.9184,-56.3733 127.5668,-48.7441 124.4138,-54.9938"/>
</g>
<!-- Node2 -->
<g id="node3" class="node">
<title>Node2</title>
<g id="a_node3"><a xlink:href="classKnob.html" target="_top" xlink:title="Knob">
<polygon fill="none" stroke="#000000" points="104.5,-.5 104.5,-19.5 143.5,-19.5 143.5,-.5 104.5,-.5"/>
<text text-anchor="middle" x="124" y="-7.5" font-family="Helvetica,sans-Serif" font-size="10.00" fill="#000000">Knob</text>
</a>
</g>
</g>
<!-- Node0&#45;&gt;Node2 -->
<g id="edge2" class="edge">
<title>Node0&#45;&gt;Node2</title>
<path fill="none" stroke="#191970" d="M144.002,-47.3372C139.0324,-38.0605 133.2356,-27.2398 129.1657,-19.6427"/>
<polygon fill="#191970" stroke="#191970" points="140.9669,-49.0835 148.7744,-56.2455 147.1373,-45.7779 140.9669,-49.0835"/>
</g>
<!-- Node3 -->
<g id="node4" class="node">
<title>Node3</title>
<g id="a_node4"><a xlink:href="classSelect.html" target="_top" xlink:title="Select">
<polygon fill="none" stroke="#000000" points="162,-.5 162,-19.5 206,-19.5 206,-.5 162,-.5"/>
<text text-anchor="middle" x="184" y="-7.5" font-family="Helvetica,sans-Serif" font-size="10.00" fill="#000000">Select</text>
</a>
</g>
</g>
<!-- Node0&#45;&gt;Node3 -->
<g id="edge3" class="edge">
<title>Node0&#45;&gt;Node3</title>
<path fill="none" stroke="#191970" d="M163.998,-47.3372C168.9676,-38.0605 174.7644,-27.2398 178.8343,-19.6427"/>
<polygon fill="#191970" stroke="#191970" points="160.8627,-45.7779 159.2256,-56.2455 167.0331,-49.0835 160.8627,-45.7779"/>
</g>
<!-- Node4 -->
<g id="node5" class="node">
<title>Node4</title>
<g id="a_node5"><a xlink:href="classSwitch.html" target="_top" xlink:title="Switch">
<polygon fill="none" stroke="#000000" points="224.5,-.5 224.5,-19.5 271.5,-19.5 271.5,-.5 224.5,-.5"/>
<text text-anchor="middle" x="248" y="-7.5" font-family="Helvetica,sans-Serif" font-size="10.00" fill="#000000">Switch</text>
</a>
</g>
</g>
<!-- Node0&#45;&gt;Node4 -->
<g id="edge4" class="edge">
<title>Node0&#45;&gt;Node4</title>
<path fill="none" stroke="#191970" d="M179.1005,-51.0465C195.826,-41.0824 217.3168,-28.2794 231.8141,-19.6427"/>
<polygon fill="#191970" stroke="#191970" points="177.1732,-48.1206 170.3736,-56.2455 180.7559,-54.1343 177.1732,-48.1206"/>
</g>
</g>
</svg>
