<?xml version="1.0" encoding="UTF-8" standalone="no"?>
<!DOCTYPE svg PUBLIC "-//W3C//DTD SVG 1.1//EN"
 "http://www.w3.org/Graphics/SVG/1.1/DTD/svg11.dtd">
<!-- Generated by graphviz version 2.40.1 (20161225.0304)
 -->
<!-- Title: Knob Pages: 1 -->
<svg width="224pt" height="84pt"
 viewBox="0.00 0.00 224.00 84.00" xmlns="http://www.w3.org/2000/svg" xmlns:xlink="http://www.w3.org/1999/xlink">
<g id="graph0" class="graph" transform="scale(1 1) rotate(0) translate(4 80)">
<title>Knob</title>
<!-- Node0 -->
<g id="node1" class="node">
<title>Node0</title>
<polygon fill="#bfbfbf" stroke="#000000" points="86,-.5 86,-19.5 125,-19.5 125,-.5 86,-.5"/>
<text text-anchor="middle" x="105.5" y="-7.5" font-family="Helvetica,sans-Serif" font-size="10.00" fill="#000000">Knob</text>
</g>
<!-- Node1 -->
<g id="node2" class="node">
<title>Node1</title>
<g id="a_node2"><a xlink:href="classParamComponent.html" target="_top" xlink:title="ParamComponent">
<polygon fill="none" stroke="#000000" points="0,-56.5 0,-75.5 95,-75.5 95,-56.5 0,-56.5"/>
<text text-anchor="middle" x="47.5" y="-63.5" font-family="Helvetica,sans-Serif" font-size="10.00" fill="#000000">ParamComponent</text>
</a>
</g>
</g>
<!-- Node1&#45;&gt;Node0 -->
<g id="edge1" class="edge">
<title>Node1&#45;&gt;Node0</title>
<path fill="none" stroke="#191970" d="M65.0293,-49.0751C75.0083,-39.4402 87.1476,-27.7196 95.5129,-19.6427"/>
<polygon fill="#191970" stroke="#191970" points="62.3658,-46.7817 57.6028,-56.2455 67.228,-51.8175 62.3658,-46.7817"/>
</g>
<!-- Node2 -->
<g id="node3" class="node">
<title>Node2</title>
<g id="a_node3"><a xlink:href="classModMatrix_1_1Listener.html" target="_top" xlink:title="ModMatrix::Listener">
<polygon fill="none" stroke="#000000" points="113,-56.5 113,-75.5 216,-75.5 216,-56.5 113,-56.5"/>
<text text-anchor="middle" x="164.5" y="-63.5" font-family="Helvetica,sans-Serif" font-size="10.00" fill="#000000">ModMatrix::Listener</text>
</a>
</g>
</g>
<!-- Node2&#45;&gt;Node0 -->
<g id="edge2" class="edge">
<title>Node2&#45;&gt;Node0</title>
<path fill="none" stroke="#8b1a1a" d="M146.9693,-49.3607C136.7623,-39.6727 124.2531,-27.7995 115.6592,-19.6427"/>
<polygon fill="#8b1a1a" stroke="#8b1a1a" points="144.5604,-51.8998 154.223,-56.2455 149.3794,-46.8227 144.5604,-51.8998"/>
</g>
</g>
</svg>
