<?xml version="1.0" encoding="UTF-8" standalone="no"?>
<!DOCTYPE svg PUBLIC "-//W3C//DTD SVG 1.1//EN"
 "http://www.w3.org/Graphics/SVG/1.1/DTD/svg11.dtd">
<!-- Generated by graphviz version 2.43.0 (0)
 -->
<!-- Title: Knob Pages: 1 -->
<svg width="244pt" height="84pt"
 viewBox="0.00 0.00 244.00 84.00" xmlns="http://www.w3.org/2000/svg" xmlns:xlink="http://www.w3.org/1999/xlink">
<g id="graph0" class="graph" transform="scale(1 1) rotate(0) translate(4 80)">
<title>Knob</title>
<!-- Node1 -->
<g id="node1" class="node">
<title>Node1</title>
<g id="a_node1"><a xlink:title="Slider + editable text for showing a param.">
<polygon fill="#bfbfbf" stroke="black" points="94.5,-0.5 94.5,-19.5 135.5,-19.5 135.5,-0.5 94.5,-0.5"/>
<text text-anchor="middle" x="115" y="-7.5" font-family="Helvetica,sans-Serif" font-size="10.00">Knob</text>
</a>
</g>
</g>
<!-- Node2 -->
<g id="node2" class="node">
<title>Node2</title>
<g id="a_node2"><a xlink:href="classParamComponent.html" target="_top" xlink:title="Base class for a control showing a parameter with label.">
<polygon fill="none" stroke="black" points="0,-56.5 0,-75.5 104,-75.5 104,-56.5 0,-56.5"/>
<text text-anchor="middle" x="52" y="-63.5" font-family="Helvetica,sans-Serif" font-size="10.00">ParamComponent</text>
</a>
</g>
</g>
<!-- Node2&#45;&gt;Node1 -->
<g id="edge1" class="edge">
<title>Node2&#45;&gt;Node1</title>
<path fill="none" stroke="midnightblue" d="M70.04,-49.54C81.27,-39.91 95.32,-27.87 104.69,-19.83"/>
<polygon fill="midnightblue" stroke="midnightblue" points="67.44,-47.16 62.12,-56.32 71.99,-52.47 67.44,-47.16"/>
</g>
<!-- Node3 -->
<g id="node3" class="node">
<title>Node3</title>
<g id="a_node3"><a xlink:href="classModMatrix_1_1Listener.html" target="_top" xlink:title=" ">
<polygon fill="none" stroke="black" points="122,-56.5 122,-75.5 236,-75.5 236,-56.5 122,-56.5"/>
<text text-anchor="middle" x="179" y="-63.5" font-family="Helvetica,sans-Serif" font-size="10.00">ModMatrix::Listener</text>
</a>
</g>
</g>
<!-- Node3&#45;&gt;Node1 -->
<g id="edge2" class="edge">
<title>Node3&#45;&gt;Node1</title>
<path fill="none" stroke="#8b1a1a" d="M161.01,-49.82C149.54,-40.15 135.09,-27.95 125.47,-19.83"/>
<polygon fill="#8b1a1a" stroke="#8b1a1a" points="158.82,-52.55 168.72,-56.32 163.33,-47.2 158.82,-52.55"/>
</g>
</g>
</svg>
