<?xml version="1.0" encoding="UTF-8" standalone="no"?>
<!DOCTYPE svg PUBLIC "-//W3C//DTD SVG 1.1//EN"
 "http://www.w3.org/Graphics/SVG/1.1/DTD/svg11.dtd">
<!-- Generated by graphviz version 2.40.1 (20161225.0304)
 -->
<!-- Title: ModMatrix::Listener Pages: 1 -->
<svg width="444pt" height="84pt"
 viewBox="0.00 0.00 443.50 84.00" xmlns="http://www.w3.org/2000/svg" xmlns:xlink="http://www.w3.org/1999/xlink">
<g id="graph0" class="graph" transform="scale(1 1) rotate(0) translate(4 80)">
<title>ModMatrix::Listener</title>
<!-- Node0 -->
<g id="node1" class="node">
<title>Node0</title>
<polygon fill="#bfbfbf" stroke="#000000" points="106,-56.5 106,-75.5 219,-75.5 219,-56.5 106,-56.5"/>
<text text-anchor="middle" x="162.5" y="-63.5" font-family="Helvetica,sans-Serif" font-size="10.00" fill="#000000">ModMatrix::Listener</text>
</g>
<!-- Node1 -->
<g id="node2" class="node">
<title>Node1</title>
<g id="a_node2"><a xlink:href="classKnob.html" target="_top" xlink:title="Slider + editable text for showing a param. ">
<polygon fill="none" stroke="#000000" points="0,-.5 0,-19.5 41,-19.5 41,-.5 0,-.5"/>
<text text-anchor="middle" x="20.5" y="-7.5" font-family="Helvetica,sans-Serif" font-size="10.00" fill="#000000">Knob</text>
</a>
</g>
</g>
<!-- Node0&#45;&gt;Node1 -->
<g id="edge1" class="edge">
<title>Node0&#45;&gt;Node1</title>
<path fill="none" stroke="#8b1a1a" d="M128.5942,-52.6287C101.4657,-41.9301 64.2906,-27.2695 41.362,-18.2273"/>
<polygon fill="#8b1a1a" stroke="#8b1a1a" points="127.5025,-55.9605 138.0893,-56.3733 130.0707,-49.4486 127.5025,-55.9605"/>
</g>
<!-- Node2 -->
<g id="node3" class="node">
<title>Node2</title>
<g id="a_node3"><a xlink:href="classModMatrixBox.html" target="_top" xlink:title="A list box of all assigned. ">
<polygon fill="none" stroke="#000000" points="59.5,-.5 59.5,-19.5 145.5,-19.5 145.5,-.5 59.5,-.5"/>
<text text-anchor="middle" x="102.5" y="-7.5" font-family="Helvetica,sans-Serif" font-size="10.00" fill="#000000">ModMatrixBox</text>
</a>
</g>
</g>
<!-- Node0&#45;&gt;Node2 -->
<g id="edge2" class="edge">
<title>Node0&#45;&gt;Node2</title>
<path fill="none" stroke="#8b1a1a" d="M144.6722,-49.3607C134.2922,-39.6727 121.5709,-27.7995 112.8314,-19.6427"/>
<polygon fill="#8b1a1a" stroke="#8b1a1a" points="142.3501,-51.981 152.0488,-56.2455 147.1263,-46.8636 142.3501,-51.981"/>
</g>
<!-- Node3 -->
<g id="node4" class="node">
<title>Node3</title>
<g id="a_node4"><a xlink:href="classModulationOverview.html" target="_top" xlink:title="A button and text readout that shows the current modulation source. ">
<polygon fill="none" stroke="#000000" points="164,-.5 164,-19.5 281,-19.5 281,-.5 164,-.5"/>
<text text-anchor="middle" x="222.5" y="-7.5" font-family="Helvetica,sans-Serif" font-size="10.00" fill="#000000">ModulationOverview</text>
</a>
</g>
</g>
<!-- Node0&#45;&gt;Node3 -->
<g id="edge3" class="edge">
<title>Node0&#45;&gt;Node3</title>
<path fill="none" stroke="#8b1a1a" d="M180.3278,-49.3607C190.7078,-39.6727 203.4291,-27.7995 212.1686,-19.6427"/>
<polygon fill="#8b1a1a" stroke="#8b1a1a" points="177.8737,-46.8636 172.9512,-56.2455 182.6499,-51.981 177.8737,-46.8636"/>
</g>
<!-- Node4 -->
<g id="node5" class="node">
<title>Node4</title>
<g id="a_node5"><a xlink:href="classModulationSourceButton.html" target="_top" xlink:title="A button for enabling modulation learn. ">
<polygon fill="none" stroke="#000000" points="299.5,-.5 299.5,-19.5 435.5,-19.5 435.5,-.5 299.5,-.5"/>
<text text-anchor="middle" x="367.5" y="-7.5" font-family="Helvetica,sans-Serif" font-size="10.00" fill="#000000">ModulationSourceButton</text>
</a>
</g>
</g>
<!-- Node0&#45;&gt;Node4 -->
<g id="edge4" class="edge">
<title>Node0&#45;&gt;Node4</title>
<path fill="none" stroke="#8b1a1a" d="M207.454,-53.7199C245.1487,-43.4228 298.2041,-28.9296 332.7191,-19.5011"/>
<polygon fill="#8b1a1a" stroke="#8b1a1a" points="206.465,-50.3617 197.7408,-56.3733 208.3096,-57.1143 206.465,-50.3617"/>
</g>
</g>
</svg>
