<?xml version="1.0" encoding="UTF-8" standalone="no"?>
<!DOCTYPE svg PUBLIC "-//W3C//DTD SVG 1.1//EN"
 "http://www.w3.org/Graphics/SVG/1.1/DTD/svg11.dtd">
<!-- Generated by graphviz version 2.40.1 (20161225.0304)
 -->
<!-- Title: ImageMetadata Pages: 1 -->
<svg width="420pt" height="84pt"
 viewBox="0.00 0.00 419.50 84.00" xmlns="http://www.w3.org/2000/svg" xmlns:xlink="http://www.w3.org/1999/xlink">
<g id="graph0" class="graph" transform="scale(1 1) rotate(0) translate(4 80)">
<title>ImageMetadata</title>
<!-- Node0 -->
<g id="node1" class="node">
<title>Node0</title>
<polygon fill="#bfbfbf" stroke="#000000" points="171.5,-56.5 171.5,-75.5 264.5,-75.5 264.5,-56.5 171.5,-56.5"/>
<text text-anchor="middle" x="218" y="-63.5" font-family="Helvetica,sans-Serif" font-size="10.00" fill="#000000">ImageMetadata</text>
</g>
<!-- Node1 -->
<g id="node2" class="node">
<title>Node1</title>
<g id="a_node2"><a xlink:href="classCommentMetadata.html" target="_top" xlink:title="CommentMetadata">
<polygon fill="none" stroke="#000000" points="0,-.5 0,-19.5 110,-19.5 110,-.5 0,-.5"/>
<text text-anchor="middle" x="55" y="-7.5" font-family="Helvetica,sans-Serif" font-size="10.00" fill="#000000">CommentMetadata</text>
</a>
</g>
</g>
<!-- Node0&#45;&gt;Node1 -->
<g id="edge1" class="edge">
<title>Node0&#45;&gt;Node1</title>
<path fill="none" stroke="#191970" d="M180.3267,-53.057C150.4958,-42.8084 109.5148,-28.729 82.6551,-19.5011"/>
<polygon fill="#191970" stroke="#191970" points="179.3846,-56.4341 189.9793,-56.3733 181.6591,-49.8139 179.3846,-56.4341"/>
</g>
<!-- Node2 -->
<g id="node3" class="node">
<title>Node2</title>
<g id="a_node3"><a xlink:href="classExifMetadata.html" target="_top" xlink:title="ExifMetadata">
<polygon fill="none" stroke="#000000" points="128.5,-.5 128.5,-19.5 209.5,-19.5 209.5,-.5 128.5,-.5"/>
<text text-anchor="middle" x="169" y="-7.5" font-family="Helvetica,sans-Serif" font-size="10.00" fill="#000000">ExifMetadata</text>
</a>
</g>
</g>
<!-- Node0&#45;&gt;Node2 -->
<g id="edge2" class="edge">
<title>Node0&#45;&gt;Node2</title>
<path fill="none" stroke="#191970" d="M202.6878,-48.5004C194.3553,-38.9775 184.3647,-27.5596 177.4373,-19.6427"/>
<polygon fill="#191970" stroke="#191970" points="200.2457,-51.0245 209.4649,-56.2455 205.5138,-46.415 200.2457,-51.0245"/>
</g>
<!-- Node3 -->
<g id="node4" class="node">
<title>Node3</title>
<g id="a_node4"><a xlink:href="classIptcMetadata.html" target="_top" xlink:title="IptcMetadata">
<polygon fill="none" stroke="#000000" points="228,-.5 228,-19.5 308,-19.5 308,-.5 228,-.5"/>
<text text-anchor="middle" x="268" y="-7.5" font-family="Helvetica,sans-Serif" font-size="10.00" fill="#000000">IptcMetadata</text>
</a>
</g>
</g>
<!-- Node0&#45;&gt;Node3 -->
<g id="edge3" class="edge">
<title>Node0&#45;&gt;Node3</title>
<path fill="none" stroke="#191970" d="M233.6247,-48.5004C242.1273,-38.9775 252.3218,-27.5596 259.3905,-19.6427"/>
<polygon fill="#191970" stroke="#191970" points="230.7587,-46.4551 226.7093,-56.2455 235.9803,-51.1172 230.7587,-46.4551"/>
</g>
<!-- Node4 -->
<g id="node5" class="node">
<title>Node4</title>
<g id="a_node5"><a xlink:href="classXmpMetadata.html" target="_top" xlink:title="XmpMetadata">
<polygon fill="none" stroke="#000000" points="326.5,-.5 326.5,-19.5 411.5,-19.5 411.5,-.5 326.5,-.5"/>
<text text-anchor="middle" x="369" y="-7.5" font-family="Helvetica,sans-Serif" font-size="10.00" fill="#000000">XmpMetadata</text>
</a>
</g>
</g>
<!-- Node0&#45;&gt;Node4 -->
<g id="edge4" class="edge">
<title>Node0&#45;&gt;Node4</title>
<path fill="none" stroke="#191970" d="M253.623,-52.7888C281.1938,-42.5639 318.7149,-28.6488 343.3809,-19.5011"/>
<polygon fill="#191970" stroke="#191970" points="252.1168,-49.6144 243.9578,-56.3733 254.5509,-56.1776 252.1168,-49.6144"/>
</g>
</g>
</svg>
