<?xml version="1.0" encoding="UTF-8" standalone="no"?>
<!DOCTYPE svg PUBLIC "-//W3C//DTD SVG 1.1//EN"
 "http://www.w3.org/Graphics/SVG/1.1/DTD/svg11.dtd">
<!-- Generated by graphviz version 2.43.0 (0)
 -->
<!-- Title: Parameter::ParameterListener Pages: 1 -->
<svg width="494pt" height="427pt"
 viewBox="0.00 0.00 494.00 427.00" xmlns="http://www.w3.org/2000/svg" xmlns:xlink="http://www.w3.org/1999/xlink">
<g id="graph0" class="graph" transform="scale(1 1) rotate(0) translate(4 423)">
<title>Parameter::ParameterListener</title>
<!-- Node1 -->
<g id="node1" class="node">
<title>Node1</title>
<g id="a_node1"><a xlink:title=" ">
<polygon fill="#bfbfbf" stroke="black" points="0,-95.5 0,-114.5 162,-114.5 162,-95.5 0,-95.5"/>
<text text-anchor="middle" x="81" y="-102.5" font-family="Helvetica,sans-Serif" font-size="10.00">Parameter::ParameterListener</text>
</a>
</g>
</g>
<!-- Node2 -->
<g id="node2" class="node">
<title>Node2</title>
<g id="a_node2"><a xlink:href="classMultiParamComponent.html" target="_top" xlink:title="A base component for controlling multiple parameters at once.">
<polygon fill="none" stroke="black" points="198,-247.5 198,-266.5 326,-266.5 326,-247.5 198,-247.5"/>
<text text-anchor="middle" x="262" y="-254.5" font-family="Helvetica,sans-Serif" font-size="10.00">MultiParamComponent</text>
</a>
</g>
</g>
<!-- Node1&#45;&gt;Node2 -->
<g id="edge1" class="edge">
<title>Node1&#45;&gt;Node2</title>
<path fill="none" stroke="midnightblue" d="M100.83,-120.99C138.03,-152.58 219.93,-222.12 249.81,-247.5"/>
<polygon fill="midnightblue" stroke="midnightblue" points="103.09,-118.31 93.2,-114.51 98.55,-123.65 103.09,-118.31"/>
</g>
<!-- Node11 -->
<g id="node11" class="node">
<title>Node11</title>
<g id="a_node11"><a xlink:href="classPluginButton.html" target="_top" xlink:title="Button for toggling a parameter.">
<polygon fill="none" stroke="black" points="222.5,-152.5 222.5,-171.5 301.5,-171.5 301.5,-152.5 222.5,-152.5"/>
<text text-anchor="middle" x="262" y="-159.5" font-family="Helvetica,sans-Serif" font-size="10.00">PluginButton</text>
</a>
</g>
</g>
<!-- Node1&#45;&gt;Node11 -->
<g id="edge10" class="edge">
<title>Node1&#45;&gt;Node11</title>
<path fill="none" stroke="#8b1a1a" d="M120.11,-117.73C142.71,-125.22 171.94,-134.8 198,-143 208.03,-146.15 218.98,-149.49 228.91,-152.48"/>
<polygon fill="#8b1a1a" stroke="#8b1a1a" points="121.14,-114.39 110.54,-114.56 118.93,-121.03 121.14,-114.39"/>
</g>
<!-- Node13 -->
<g id="node13" class="node">
<title>Node13</title>
<g id="a_node13"><a xlink:href="classPluginComboBox.html" target="_top" xlink:title="A control for selecting param values from a dropbox.">
<polygon fill="none" stroke="black" points="212,-114.5 212,-133.5 312,-133.5 312,-114.5 212,-114.5"/>
<text text-anchor="middle" x="262" y="-121.5" font-family="Helvetica,sans-Serif" font-size="10.00">PluginComboBox</text>
</a>
</g>
</g>
<!-- Node1&#45;&gt;Node13 -->
<g id="edge12" class="edge">
<title>Node1&#45;&gt;Node13</title>
<path fill="none" stroke="#8b1a1a" d="M172.04,-114.56C185.74,-116.01 199.42,-117.46 211.8,-118.78"/>
<polygon fill="#8b1a1a" stroke="#8b1a1a" points="172.39,-111.07 162.08,-113.5 171.65,-118.04 172.39,-111.07"/>
</g>
<!-- Node14 -->
<g id="node14" class="node">
<title>Node14</title>
<g id="a_node14"><a xlink:href="classPluginSlider.html" target="_top" xlink:title="A slider for controlling a parameter.">
<polygon fill="none" stroke="black" points="225,-76.5 225,-95.5 299,-95.5 299,-76.5 225,-76.5"/>
<text text-anchor="middle" x="262" y="-83.5" font-family="Helvetica,sans-Serif" font-size="10.00">PluginSlider</text>
</a>
</g>
</g>
<!-- Node1&#45;&gt;Node14 -->
<g id="edge13" class="edge">
<title>Node1&#45;&gt;Node14</title>
<path fill="none" stroke="#8b1a1a" d="M172.15,-95.43C190.86,-93.44 209.54,-91.46 224.9,-89.83"/>
<polygon fill="#8b1a1a" stroke="#8b1a1a" points="171.65,-91.96 162.08,-96.5 172.39,-98.93 171.65,-91.96"/>
</g>
<!-- Node15 -->
<g id="node15" class="node">
<title>Node15</title>
<g id="a_node15"><a xlink:href="classReadout.html" target="_top" xlink:title="A control for displaying a parameter.">
<polygon fill="none" stroke="black" points="233.5,-38.5 233.5,-57.5 290.5,-57.5 290.5,-38.5 233.5,-38.5"/>
<text text-anchor="middle" x="262" y="-45.5" font-family="Helvetica,sans-Serif" font-size="10.00">Readout</text>
</a>
</g>
</g>
<!-- Node1&#45;&gt;Node15 -->
<g id="edge14" class="edge">
<title>Node1&#45;&gt;Node15</title>
<path fill="none" stroke="#8b1a1a" d="M120.11,-92.27C142.71,-84.78 171.94,-75.2 198,-67 209.55,-63.37 222.34,-59.48 233.36,-56.18"/>
<polygon fill="#8b1a1a" stroke="#8b1a1a" points="118.93,-88.97 110.54,-95.44 121.14,-95.61 118.93,-88.97"/>
</g>
<!-- Node16 -->
<g id="node16" class="node">
<title>Node16</title>
<g id="a_node16"><a xlink:href="classSVGPluginButton.html" target="_top" xlink:title="Button for toggling a parameter.">
<polygon fill="none" stroke="black" points="212.5,-0.5 212.5,-19.5 311.5,-19.5 311.5,-0.5 212.5,-0.5"/>
<text text-anchor="middle" x="262" y="-7.5" font-family="Helvetica,sans-Serif" font-size="10.00">SVGPluginButton</text>
</a>
</g>
</g>
<!-- Node1&#45;&gt;Node16 -->
<g id="edge15" class="edge">
<title>Node1&#45;&gt;Node16</title>
<path fill="none" stroke="#8b1a1a" d="M102.23,-89.14C124.58,-72.25 162.17,-45.71 198,-29 205.87,-25.33 214.62,-22.16 223.03,-19.53"/>
<polygon fill="#8b1a1a" stroke="#8b1a1a" points="99.99,-86.45 94.17,-95.31 104.24,-92.01 99.99,-86.45"/>
</g>
<!-- Node3 -->
<g id="node3" class="node">
<title>Node3</title>
<g id="a_node3"><a xlink:href="classADSRComponent.html" target="_top" xlink:title="Component for adjuting ADSR curves.">
<polygon fill="none" stroke="black" points="374,-399.5 374,-418.5 474,-418.5 474,-399.5 374,-399.5"/>
<text text-anchor="middle" x="424" y="-406.5" font-family="Helvetica,sans-Serif" font-size="10.00">ADSRComponent</text>
</a>
</g>
</g>
<!-- Node2&#45;&gt;Node3 -->
<g id="edge2" class="edge">
<title>Node2&#45;&gt;Node3</title>
<path fill="none" stroke="midnightblue" d="M271.98,-275.67C286.77,-304.44 318.93,-359.48 362,-390 367.43,-393.85 373.67,-396.94 380.03,-399.41"/>
<polygon fill="midnightblue" stroke="midnightblue" points="275.09,-274.05 267.49,-266.67 268.83,-277.18 275.09,-274.05"/>
</g>
<!-- Node4 -->
<g id="node4" class="node">
<title>Node4</title>
<g id="a_node4"><a xlink:href="classControlBox.html" target="_top" xlink:title="A box for holding controls on a grid.">
<polygon fill="none" stroke="black" points="388.5,-361.5 388.5,-380.5 459.5,-380.5 459.5,-361.5 388.5,-361.5"/>
<text text-anchor="middle" x="424" y="-368.5" font-family="Helvetica,sans-Serif" font-size="10.00">ControlBox</text>
</a>
</g>
</g>
<!-- Node2&#45;&gt;Node4 -->
<g id="edge3" class="edge">
<title>Node2&#45;&gt;Node4</title>
<path fill="none" stroke="midnightblue" d="M276.77,-274.47C294.39,-295.7 326.84,-331.24 362,-352 370.02,-356.74 379.35,-360.41 388.26,-363.21"/>
<polygon fill="midnightblue" stroke="midnightblue" points="279.39,-272.14 270.37,-266.59 273.96,-276.56 279.39,-272.14"/>
</g>
<!-- Node5 -->
<g id="node5" class="node">
<title>Node5</title>
<g id="a_node5"><a xlink:href="classGateEffectComponent.html" target="_top" xlink:title="An editor for the gate effect pattern.">
<polygon fill="none" stroke="black" points="362,-323.5 362,-342.5 486,-342.5 486,-323.5 362,-323.5"/>
<text text-anchor="middle" x="424" y="-330.5" font-family="Helvetica,sans-Serif" font-size="10.00">GateEffectComponent</text>
</a>
</g>
</g>
<!-- Node2&#45;&gt;Node5 -->
<g id="edge4" class="edge">
<title>Node2&#45;&gt;Node5</title>
<path fill="none" stroke="midnightblue" d="M285.76,-272.04C305.36,-284.51 334.7,-302.07 362,-314 370.13,-317.55 379.14,-320.74 387.68,-323.45"/>
<polygon fill="midnightblue" stroke="midnightblue" points="287.53,-269.02 277.23,-266.54 283.74,-274.9 287.53,-269.02"/>
</g>
<!-- Node6 -->
<g id="node6" class="node">
<title>Node6</title>
<g id="a_node6"><a xlink:href="classLFOComponent.html" target="_top" xlink:title="Draws an LFO curve and shows a little dot moving long.">
<polygon fill="none" stroke="black" points="378,-285.5 378,-304.5 470,-304.5 470,-285.5 378,-285.5"/>
<text text-anchor="middle" x="424" y="-292.5" font-family="Helvetica,sans-Serif" font-size="10.00">LFOComponent</text>
</a>
</g>
</g>
<!-- Node2&#45;&gt;Node6 -->
<g id="edge5" class="edge">
<title>Node2&#45;&gt;Node6</title>
<path fill="none" stroke="midnightblue" d="M313.39,-268.97C335.81,-274.29 361.85,-280.48 382.92,-285.48"/>
<polygon fill="midnightblue" stroke="midnightblue" points="313.91,-265.49 303.37,-266.59 312.3,-272.31 313.91,-265.49"/>
</g>
<!-- Node7 -->
<g id="node7" class="node">
<title>Node7</title>
<g id="a_node7"><a xlink:href="classPagedControlBox.html" target="_top" xlink:title="A control for holding pags of controls on a grid Pages slide over top of each other to make room.">
<polygon fill="none" stroke="black" points="374,-247.5 374,-266.5 474,-266.5 474,-247.5 374,-247.5"/>
<text text-anchor="middle" x="424" y="-254.5" font-family="Helvetica,sans-Serif" font-size="10.00">PagedControlBox</text>
</a>
</g>
</g>
<!-- Node2&#45;&gt;Node7 -->
<g id="edge6" class="edge">
<title>Node2&#45;&gt;Node7</title>
<path fill="none" stroke="midnightblue" d="M336.28,-257C348.9,-257 361.74,-257 373.54,-257"/>
<polygon fill="midnightblue" stroke="midnightblue" points="336.24,-253.5 326.24,-257 336.24,-260.5 336.24,-253.5"/>
</g>
<!-- Node8 -->
<g id="node8" class="node">
<title>Node8</title>
<g id="a_node8"><a xlink:href="classParamArea.html" target="_top" xlink:title="A box for graphs without a header.">
<polygon fill="none" stroke="black" points="389,-209.5 389,-228.5 459,-228.5 459,-209.5 389,-209.5"/>
<text text-anchor="middle" x="424" y="-216.5" font-family="Helvetica,sans-Serif" font-size="10.00">ParamArea</text>
</a>
</g>
</g>
<!-- Node2&#45;&gt;Node8 -->
<g id="edge7" class="edge">
<title>Node2&#45;&gt;Node8</title>
<path fill="none" stroke="midnightblue" d="M313.27,-245.06C337.88,-239.22 366.87,-232.33 388.87,-227.11"/>
<polygon fill="midnightblue" stroke="midnightblue" points="312.3,-241.69 303.37,-247.41 313.91,-248.51 312.3,-241.69"/>
</g>
<!-- Node9 -->
<g id="node9" class="node">
<title>Node9</title>
<g id="a_node9"><a xlink:href="classParamBox.html" target="_top" xlink:title="A box for knobs with a header.">
<polygon fill="none" stroke="black" points="391,-171.5 391,-190.5 457,-190.5 457,-171.5 391,-171.5"/>
<text text-anchor="middle" x="424" y="-178.5" font-family="Helvetica,sans-Serif" font-size="10.00">ParamBox</text>
</a>
</g>
</g>
<!-- Node2&#45;&gt;Node9 -->
<g id="edge8" class="edge">
<title>Node2&#45;&gt;Node9</title>
<path fill="none" stroke="midnightblue" d="M285.76,-241.96C305.36,-229.49 334.7,-211.93 362,-200 371.15,-196 381.4,-192.47 390.85,-189.56"/>
<polygon fill="midnightblue" stroke="midnightblue" points="283.74,-239.1 277.23,-247.46 287.53,-244.98 283.74,-239.1"/>
</g>
<!-- Node10 -->
<g id="node10" class="node">
<title>Node10</title>
<g id="a_node10"><a xlink:href="classStepLFOComponent.html" target="_top" xlink:title="Draws a step LFO curve and shows a little dot moving long.">
<polygon fill="none" stroke="black" points="367.5,-133.5 367.5,-152.5 480.5,-152.5 480.5,-133.5 367.5,-133.5"/>
<text text-anchor="middle" x="424" y="-140.5" font-family="Helvetica,sans-Serif" font-size="10.00">StepLFOComponent</text>
</a>
</g>
</g>
<!-- Node2&#45;&gt;Node10 -->
<g id="edge9" class="edge">
<title>Node2&#45;&gt;Node10</title>
<path fill="none" stroke="midnightblue" d="M276.77,-239.53C294.39,-218.3 326.84,-182.76 362,-162 368.4,-158.22 375.63,-155.12 382.81,-152.6"/>
<polygon fill="midnightblue" stroke="midnightblue" points="273.96,-237.44 270.37,-247.41 279.39,-241.86 273.96,-237.44"/>
</g>
<!-- Node12 -->
<g id="node12" class="node">
<title>Node12</title>
<g id="a_node12"><a xlink:href="classPowerButton.html" target="_top" xlink:title="Button for toggling a parameter, drawn as a power button.">
<polygon fill="none" stroke="black" points="384.5,-95.5 384.5,-114.5 463.5,-114.5 463.5,-95.5 384.5,-95.5"/>
<text text-anchor="middle" x="424" y="-102.5" font-family="Helvetica,sans-Serif" font-size="10.00">PowerButton</text>
</a>
</g>
</g>
<!-- Node11&#45;&gt;Node12 -->
<g id="edge11" class="edge">
<title>Node11&#45;&gt;Node12</title>
<path fill="none" stroke="midnightblue" d="M308.82,-149.32C314.67,-147.37 320.52,-145.25 326,-143 342.74,-136.13 345.29,-130.94 362,-124 370.4,-120.51 379.68,-117.31 388.41,-114.56"/>
<polygon fill="midnightblue" stroke="midnightblue" points="307.53,-146.05 299.07,-152.43 309.66,-152.72 307.53,-146.05"/>
</g>
</g>
</svg>
