<?xml version="1.0" encoding="UTF-8" standalone="no"?>
<!DOCTYPE svg PUBLIC "-//W3C//DTD SVG 1.1//EN"
 "http://www.w3.org/Graphics/SVG/1.1/DTD/svg11.dtd">
<!-- Generated by graphviz version 2.43.0 (0)
 -->
<!-- Title: CopperLookAndFeelWrapper Pages: 1 -->
<svg width="163pt" height="192pt"
 viewBox="0.00 0.00 163.00 192.00" xmlns="http://www.w3.org/2000/svg" xmlns:xlink="http://www.w3.org/1999/xlink">
<g id="graph0" class="graph" transform="scale(1 1) rotate(0) translate(4 188)">
<title>CopperLookAndFeelWrapper</title>
<!-- Node1 -->
<g id="Node000001" class="node">
<title>Node1</title>
<g id="a_Node000001"><a xlink:title="Auto sets and clears CopperLookAndFeel as default.">
<polygon fill="#999999" stroke="#666666" points="155,-19 0,-19 0,0 155,0 155,-19"/>
<text text-anchor="middle" x="77.5" y="-7" font-family="Helvetica,sans-Serif" font-size="10.00">CopperLookAndFeelWrapper</text>
</a>
</g>
</g>
<!-- Node2 -->
<g id="Node000002" class="node">
<title>Node2</title>
<g id="a_Node000002"><a xlink:href="classCopperLookAndFeel.html" target="_top" xlink:title="Plugin specific addition to GinLookAndFeel Still black and white.">
<polygon fill="white" stroke="#666666" points="134,-74 21,-74 21,-55 134,-55 134,-74"/>
<text text-anchor="middle" x="77.5" y="-62" font-family="Helvetica,sans-Serif" font-size="10.00">CopperLookAndFeel</text>
</a>
</g>
</g>
<!-- Node2&#45;&gt;Node1 -->
<g id="edge1_Node000001_Node000002" class="edge">
<title>Node2&#45;&gt;Node1</title>
<g id="a_edge1_Node000001_Node000002"><a xlink:title=" ">
<path fill="none" stroke="#63b8ff" d="M77.5,-44.66C77.5,-35.93 77.5,-25.99 77.5,-19.09"/>
<polygon fill="#63b8ff" stroke="#63b8ff" points="74,-44.75 77.5,-54.75 81,-44.75 74,-44.75"/>
</a>
</g>
</g>
<!-- Node3 -->
<g id="Node000003" class="node">
<title>Node3</title>
<g id="a_Node000003"><a xlink:href="classPluginLookAndFeel.html" target="_top" xlink:title="Plugin specific addition to GinLookAndFeel Still black and white.">
<polygon fill="white" stroke="#666666" points="132,-129 23,-129 23,-110 132,-110 132,-129"/>
<text text-anchor="middle" x="77.5" y="-117" font-family="Helvetica,sans-Serif" font-size="10.00">PluginLookAndFeel</text>
</a>
</g>
</g>
<!-- Node3&#45;&gt;Node2 -->
<g id="edge2_Node000002_Node000003" class="edge">
<title>Node3&#45;&gt;Node2</title>
<g id="a_edge2_Node000002_Node000003"><a xlink:title=" ">
<path fill="none" stroke="#63b8ff" d="M77.5,-99.66C77.5,-90.93 77.5,-80.99 77.5,-74.09"/>
<polygon fill="#63b8ff" stroke="#63b8ff" points="74,-99.75 77.5,-109.75 81,-99.75 74,-99.75"/>
</a>
</g>
</g>
<!-- Node4 -->
<g id="Node000004" class="node">
<title>Node4</title>
<g id="a_Node000004"><a xlink:href="classGinLookAndFeel.html" target="_top" xlink:title="Minimalist dark look and feel with black background and white controls.">
<polygon fill="white" stroke="#666666" points="125,-184 30,-184 30,-165 125,-165 125,-184"/>
<text text-anchor="middle" x="77.5" y="-172" font-family="Helvetica,sans-Serif" font-size="10.00">GinLookAndFeel</text>
</a>
</g>
</g>
<!-- Node4&#45;&gt;Node3 -->
<g id="edge3_Node000003_Node000004" class="edge">
<title>Node4&#45;&gt;Node3</title>
<g id="a_edge3_Node000003_Node000004"><a xlink:title=" ">
<path fill="none" stroke="#63b8ff" d="M77.5,-154.66C77.5,-145.93 77.5,-135.99 77.5,-129.09"/>
<polygon fill="#63b8ff" stroke="#63b8ff" points="74,-154.75 77.5,-164.75 81,-154.75 74,-154.75"/>
</a>
</g>
</g>
</g>
</svg>
