<?xml version="1.0" encoding="UTF-8" standalone="no"?>
<!DOCTYPE svg PUBLIC "-//W3C//DTD SVG 1.1//EN"
 "http://www.w3.org/Graphics/SVG/1.1/DTD/svg11.dtd">
<!-- Generated by graphviz version 2.40.1 (20161225.0304)
 -->
<!-- Title: FuncState Pages: 1 -->
<svg width="191pt" height="332pt"
 viewBox="0.00 0.00 191.00 332.00" xmlns="http://www.w3.org/2000/svg" xmlns:xlink="http://www.w3.org/1999/xlink">
<g id="graph0" class="graph" transform="scale(1 1) rotate(0) translate(4 328)">
<title>FuncState</title>
<!-- Node0 -->
<g id="node1" class="node">
<title>Node0</title>
<polygon fill="#bfbfbf" stroke="#000000" points="0,-152.5 0,-171.5 64,-171.5 64,-152.5 0,-152.5"/>
<text text-anchor="middle" x="32" y="-159.5" font-family="Helvetica,sans-Serif" font-size="10.00" fill="#000000">FuncState</text>
</g>
<!-- Node1 -->
<g id="node2" class="node">
<title>Node1</title>
<g id="a_node2"><a xlink:href="structBP12State.html" target="_top" xlink:title="State for band pass filter. ">
<polygon fill="none" stroke="#000000" points="108,-304.5 108,-323.5 175,-323.5 175,-304.5 108,-304.5"/>
<text text-anchor="middle" x="141.5" y="-311.5" font-family="Helvetica,sans-Serif" font-size="10.00" fill="#000000">BP12State</text>
</a>
</g>
</g>
<!-- Node0&#45;&gt;Node1 -->
<g id="edge1" class="edge">
<title>Node0&#45;&gt;Node1</title>
<path fill="none" stroke="#191970" d="M37.4931,-181.6251C46.3433,-210.0224 66.2683,-262.6976 100,-295 103.8917,-298.7268 108.644,-301.8143 113.5252,-304.3392"/>
<polygon fill="#191970" stroke="#191970" points="40.7491,-180.2945 34.5477,-171.7042 34.0386,-182.2868 40.7491,-180.2945"/>
</g>
<!-- Node2 -->
<g id="node3" class="node">
<title>Node2</title>
<g id="a_node3"><a xlink:href="structBP24State.html" target="_top" xlink:title="State for band pass filter. ">
<polygon fill="none" stroke="#000000" points="108,-266.5 108,-285.5 175,-285.5 175,-266.5 108,-266.5"/>
<text text-anchor="middle" x="141.5" y="-273.5" font-family="Helvetica,sans-Serif" font-size="10.00" fill="#000000">BP24State</text>
</a>
</g>
</g>
<!-- Node0&#45;&gt;Node2 -->
<g id="edge2" class="edge">
<title>Node0&#45;&gt;Node2</title>
<path fill="none" stroke="#191970" d="M41.3675,-180.4712C52.7703,-201.3976 73.7897,-235.3919 100,-257 104.4022,-260.6292 109.6109,-263.72 114.8242,-266.288"/>
<polygon fill="#191970" stroke="#191970" points="44.455,-178.8224 36.6911,-171.6132 38.2647,-182.0905 44.455,-178.8224"/>
</g>
<!-- Node3 -->
<g id="node4" class="node">
<title>Node3</title>
<g id="a_node4"><a xlink:href="structHP12State.html" target="_top" xlink:title="State for high pass filter. ">
<polygon fill="none" stroke="#000000" points="107.5,-228.5 107.5,-247.5 175.5,-247.5 175.5,-228.5 107.5,-228.5"/>
<text text-anchor="middle" x="141.5" y="-235.5" font-family="Helvetica,sans-Serif" font-size="10.00" fill="#000000">HP12State</text>
</a>
</g>
</g>
<!-- Node0&#45;&gt;Node3 -->
<g id="edge3" class="edge">
<title>Node0&#45;&gt;Node3</title>
<path fill="none" stroke="#191970" d="M49.3212,-178.7797C62.4915,-190.9561 81.4504,-207.2801 100,-219 105.4932,-222.4707 111.7252,-225.6674 117.6591,-228.4095"/>
<polygon fill="#191970" stroke="#191970" points="51.6034,-176.1212 41.9243,-171.8123 46.8038,-181.2167 51.6034,-176.1212"/>
</g>
<!-- Node4 -->
<g id="node5" class="node">
<title>Node4</title>
<g id="a_node5"><a xlink:href="structHP24State.html" target="_top" xlink:title="State for high pass filter. ">
<polygon fill="none" stroke="#000000" points="107.5,-190.5 107.5,-209.5 175.5,-209.5 175.5,-190.5 107.5,-190.5"/>
<text text-anchor="middle" x="141.5" y="-197.5" font-family="Helvetica,sans-Serif" font-size="10.00" fill="#000000">HP24State</text>
</a>
</g>
</g>
<!-- Node0&#45;&gt;Node4 -->
<g id="edge4" class="edge">
<title>Node0&#45;&gt;Node4</title>
<path fill="none" stroke="#191970" d="M69.3792,-174.9718C83.9676,-180.0344 100.3917,-185.7341 113.8774,-190.4141"/>
<polygon fill="#191970" stroke="#191970" points="70.2263,-171.561 59.6315,-171.589 67.9313,-178.1741 70.2263,-171.561"/>
</g>
<!-- Node5 -->
<g id="node6" class="node">
<title>Node5</title>
<g id="a_node6"><a xlink:href="structLP12State.html" target="_top" xlink:title="State for low pass filter. ">
<polygon fill="none" stroke="#000000" points="109,-152.5 109,-171.5 174,-171.5 174,-152.5 109,-152.5"/>
<text text-anchor="middle" x="141.5" y="-159.5" font-family="Helvetica,sans-Serif" font-size="10.00" fill="#000000">LP12State</text>
</a>
</g>
</g>
<!-- Node0&#45;&gt;Node5 -->
<g id="edge5" class="edge">
<title>Node0&#45;&gt;Node5</title>
<path fill="none" stroke="#191970" d="M74.4398,-162C85.8177,-162 97.9437,-162 108.7113,-162"/>
<polygon fill="#191970" stroke="#191970" points="74.2614,-158.5001 64.2614,-162 74.2613,-165.5001 74.2614,-158.5001"/>
</g>
<!-- Node6 -->
<g id="node7" class="node">
<title>Node6</title>
<g id="a_node7"><a xlink:href="structLP24State.html" target="_top" xlink:title="State for low pass filter. ">
<polygon fill="none" stroke="#000000" points="109,-114.5 109,-133.5 174,-133.5 174,-114.5 109,-114.5"/>
<text text-anchor="middle" x="141.5" y="-121.5" font-family="Helvetica,sans-Serif" font-size="10.00" fill="#000000">LP24State</text>
</a>
</g>
</g>
<!-- Node0&#45;&gt;Node6 -->
<g id="edge6" class="edge">
<title>Node0&#45;&gt;Node6</title>
<path fill="none" stroke="#191970" d="M69.3792,-149.0282C83.9676,-143.9656 100.3917,-138.2659 113.8774,-133.5859"/>
<polygon fill="#191970" stroke="#191970" points="67.9313,-145.8259 59.6315,-152.411 70.2263,-152.439 67.9313,-145.8259"/>
</g>
<!-- Node7 -->
<g id="node8" class="node">
<title>Node7</title>
<g id="a_node8"><a xlink:href="structNotch12State.html" target="_top" xlink:title="State for notch filter. ">
<polygon fill="none" stroke="#000000" points="100,-76.5 100,-95.5 183,-95.5 183,-76.5 100,-76.5"/>
<text text-anchor="middle" x="141.5" y="-83.5" font-family="Helvetica,sans-Serif" font-size="10.00" fill="#000000">Notch12State</text>
</a>
</g>
</g>
<!-- Node0&#45;&gt;Node7 -->
<g id="edge7" class="edge">
<title>Node0&#45;&gt;Node7</title>
<path fill="none" stroke="#191970" d="M49.3212,-145.2203C62.4915,-133.0439 81.4504,-116.7199 100,-105 105.4932,-101.5293 111.7252,-98.3326 117.6591,-95.5905"/>
<polygon fill="#191970" stroke="#191970" points="46.8038,-142.7833 41.9243,-152.1877 51.6034,-147.8788 46.8038,-142.7833"/>
</g>
<!-- Node8 -->
<g id="node9" class="node">
<title>Node8</title>
<g id="a_node9"><a xlink:href="structNotch24State.html" target="_top" xlink:title="State for notch filter. ">
<polygon fill="none" stroke="#000000" points="100,-38.5 100,-57.5 183,-57.5 183,-38.5 100,-38.5"/>
<text text-anchor="middle" x="141.5" y="-45.5" font-family="Helvetica,sans-Serif" font-size="10.00" fill="#000000">Notch24State</text>
</a>
</g>
</g>
<!-- Node0&#45;&gt;Node8 -->
<g id="edge8" class="edge">
<title>Node0&#45;&gt;Node8</title>
<path fill="none" stroke="#191970" d="M41.3675,-143.5288C52.7703,-122.6024 73.7897,-88.6081 100,-67 104.4022,-63.3708 109.6109,-60.28 114.8242,-57.712"/>
<polygon fill="#191970" stroke="#191970" points="38.2647,-141.9095 36.6911,-152.3868 44.455,-145.1776 38.2647,-141.9095"/>
</g>
<!-- Node9 -->
<g id="node10" class="node">
<title>Node9</title>
<g id="a_node10"><a xlink:href="structOscState.html" target="_top" xlink:title="State for an oscillator. ">
<polygon fill="none" stroke="#000000" points="111.5,-.5 111.5,-19.5 171.5,-19.5 171.5,-.5 111.5,-.5"/>
<text text-anchor="middle" x="141.5" y="-7.5" font-family="Helvetica,sans-Serif" font-size="10.00" fill="#000000">OscState</text>
</a>
</g>
</g>
<!-- Node0&#45;&gt;Node9 -->
<g id="edge9" class="edge">
<title>Node0&#45;&gt;Node9</title>
<path fill="none" stroke="#191970" d="M37.4931,-142.3749C46.3433,-113.9776 66.2683,-61.3024 100,-29 103.8917,-25.2732 108.644,-22.1857 113.5252,-19.6608"/>
<polygon fill="#191970" stroke="#191970" points="34.0386,-141.7132 34.5477,-152.2958 40.7491,-143.7055 34.0386,-141.7132"/>
</g>
</g>
</svg>
