<?xml version="1.0" encoding="UTF-8" standalone="no"?>
<!DOCTYPE svg PUBLIC "-//W3C//DTD SVG 1.1//EN"
 "http://www.w3.org/Graphics/SVG/1.1/DTD/svg11.dtd">
<!-- Generated by graphviz version 2.40.1 (20161225.0304)
 -->
<!-- Title: FuncState Pages: 1 -->
<svg width="183pt" height="332pt"
 viewBox="0.00 0.00 183.00 332.00" xmlns="http://www.w3.org/2000/svg" xmlns:xlink="http://www.w3.org/1999/xlink">
<g id="graph0" class="graph" transform="scale(1 1) rotate(0) translate(4 328)">
<title>FuncState</title>
<!-- Node0 -->
<g id="node1" class="node">
<title>Node0</title>
<polygon fill="#bfbfbf" stroke="#000000" points="0,-152.5 0,-171.5 62,-171.5 62,-152.5 0,-152.5"/>
<text text-anchor="middle" x="31" y="-159.5" font-family="Helvetica,sans-Serif" font-size="10.00" fill="#000000">FuncState</text>
</g>
<!-- Node1 -->
<g id="node2" class="node">
<title>Node1</title>
<g id="a_node2"><a xlink:href="structBP12State.html" target="_top" xlink:title="State for band pass filter. ">
<polygon fill="none" stroke="#000000" points="104.5,-304.5 104.5,-323.5 168.5,-323.5 168.5,-304.5 104.5,-304.5"/>
<text text-anchor="middle" x="136.5" y="-311.5" font-family="Helvetica,sans-Serif" font-size="10.00" fill="#000000">BP12State</text>
</a>
</g>
</g>
<!-- Node0&#45;&gt;Node1 -->
<g id="edge1" class="edge">
<title>Node0&#45;&gt;Node1</title>
<path fill="none" stroke="#191970" d="M36.4587,-181.4966C45.2368,-209.7337 64.9404,-262.2107 98,-295 101.7045,-298.6742 106.2617,-301.7597 110.9282,-304.3036"/>
<polygon fill="#191970" stroke="#191970" points="39.7333,-180.2284 33.5349,-171.6359 33.0221,-182.2184 39.7333,-180.2284"/>
</g>
<!-- Node2 -->
<g id="node3" class="node">
<title>Node2</title>
<g id="a_node3"><a xlink:href="structBP24State.html" target="_top" xlink:title="State for band pass filter. ">
<polygon fill="none" stroke="#000000" points="104.5,-266.5 104.5,-285.5 168.5,-285.5 168.5,-266.5 104.5,-266.5"/>
<text text-anchor="middle" x="136.5" y="-273.5" font-family="Helvetica,sans-Serif" font-size="10.00" fill="#000000">BP24State</text>
</a>
</g>
</g>
<!-- Node0&#45;&gt;Node2 -->
<g id="edge2" class="edge">
<title>Node0&#45;&gt;Node2</title>
<path fill="none" stroke="#191970" d="M40.4325,-180.6253C51.7473,-201.455 72.428,-235.1314 98,-257 102.3052,-260.6817 107.4474,-263.852 112.5501,-266.49"/>
<polygon fill="#191970" stroke="#191970" points="43.4052,-178.7584 35.65,-171.5398 37.2109,-182.019 43.4052,-178.7584"/>
</g>
<!-- Node3 -->
<g id="node4" class="node">
<title>Node3</title>
<g id="a_node4"><a xlink:href="structHP12State.html" target="_top" xlink:title="State for high pass filter. ">
<polygon fill="none" stroke="#000000" points="104,-228.5 104,-247.5 169,-247.5 169,-228.5 104,-228.5"/>
<text text-anchor="middle" x="136.5" y="-235.5" font-family="Helvetica,sans-Serif" font-size="10.00" fill="#000000">HP12State</text>
</a>
</g>
</g>
<!-- Node0&#45;&gt;Node3 -->
<g id="edge3" class="edge">
<title>Node0&#45;&gt;Node3</title>
<path fill="none" stroke="#191970" d="M48.1263,-178.6428C61.133,-190.7505 79.8246,-207.0483 98,-219 103.2314,-222.44 109.1748,-225.6682 114.7998,-228.4532"/>
<polygon fill="#191970" stroke="#191970" points="50.4855,-176.0566 40.8179,-171.7219 45.6723,-181.1392 50.4855,-176.0566"/>
</g>
<!-- Node4 -->
<g id="node5" class="node">
<title>Node4</title>
<g id="a_node5"><a xlink:href="structHP24State.html" target="_top" xlink:title="State for high pass filter. ">
<polygon fill="none" stroke="#000000" points="104,-190.5 104,-209.5 169,-209.5 169,-190.5 104,-190.5"/>
<text text-anchor="middle" x="136.5" y="-197.5" font-family="Helvetica,sans-Serif" font-size="10.00" fill="#000000">HP24State</text>
</a>
</g>
</g>
<!-- Node0&#45;&gt;Node4 -->
<g id="edge4" class="edge">
<title>Node0&#45;&gt;Node4</title>
<path fill="none" stroke="#191970" d="M67.4197,-175.118C81.3733,-180.1439 97.0183,-185.7791 109.8864,-190.4141"/>
<polygon fill="#191970" stroke="#191970" points="68.2165,-171.6849 57.6221,-171.589 65.8443,-178.2708 68.2165,-171.6849"/>
</g>
<!-- Node5 -->
<g id="node6" class="node">
<title>Node5</title>
<g id="a_node6"><a xlink:href="structLP12State.html" target="_top" xlink:title="State for low pass filter. ">
<polygon fill="none" stroke="#000000" points="105.5,-152.5 105.5,-171.5 167.5,-171.5 167.5,-152.5 105.5,-152.5"/>
<text text-anchor="middle" x="136.5" y="-159.5" font-family="Helvetica,sans-Serif" font-size="10.00" fill="#000000">LP12State</text>
</a>
</g>
</g>
<!-- Node0&#45;&gt;Node5 -->
<g id="edge5" class="edge">
<title>Node0&#45;&gt;Node5</title>
<path fill="none" stroke="#191970" d="M72.3191,-162C83.2858,-162 94.9449,-162 105.2747,-162"/>
<polygon fill="#191970" stroke="#191970" points="72.0829,-158.5001 62.0829,-162 72.0828,-165.5001 72.0829,-158.5001"/>
</g>
<!-- Node6 -->
<g id="node7" class="node">
<title>Node6</title>
<g id="a_node7"><a xlink:href="structLP24State.html" target="_top" xlink:title="State for low pass filter. ">
<polygon fill="none" stroke="#000000" points="105.5,-114.5 105.5,-133.5 167.5,-133.5 167.5,-114.5 105.5,-114.5"/>
<text text-anchor="middle" x="136.5" y="-121.5" font-family="Helvetica,sans-Serif" font-size="10.00" fill="#000000">LP24State</text>
</a>
</g>
</g>
<!-- Node0&#45;&gt;Node6 -->
<g id="edge6" class="edge">
<title>Node0&#45;&gt;Node6</title>
<path fill="none" stroke="#191970" d="M67.4197,-148.882C81.3733,-143.8561 97.0183,-138.2209 109.8864,-133.5859"/>
<polygon fill="#191970" stroke="#191970" points="65.8443,-145.7292 57.6221,-152.411 68.2165,-152.3151 65.8443,-145.7292"/>
</g>
<!-- Node7 -->
<g id="node8" class="node">
<title>Node7</title>
<g id="a_node8"><a xlink:href="structNotch12State.html" target="_top" xlink:title="State for notch filter. ">
<polygon fill="none" stroke="#000000" points="98,-76.5 98,-95.5 175,-95.5 175,-76.5 98,-76.5"/>
<text text-anchor="middle" x="136.5" y="-83.5" font-family="Helvetica,sans-Serif" font-size="10.00" fill="#000000">Notch12State</text>
</a>
</g>
</g>
<!-- Node0&#45;&gt;Node7 -->
<g id="edge7" class="edge">
<title>Node0&#45;&gt;Node7</title>
<path fill="none" stroke="#191970" d="M48.1263,-145.3572C61.133,-133.2495 79.8246,-116.9517 98,-105 103.2314,-101.56 109.1748,-98.3318 114.7998,-95.5468"/>
<polygon fill="#191970" stroke="#191970" points="45.6723,-142.8608 40.8179,-152.2781 50.4855,-147.9434 45.6723,-142.8608"/>
</g>
<!-- Node8 -->
<g id="node9" class="node">
<title>Node8</title>
<g id="a_node9"><a xlink:href="structNotch24State.html" target="_top" xlink:title="State for notch filter. ">
<polygon fill="none" stroke="#000000" points="98,-38.5 98,-57.5 175,-57.5 175,-38.5 98,-38.5"/>
<text text-anchor="middle" x="136.5" y="-45.5" font-family="Helvetica,sans-Serif" font-size="10.00" fill="#000000">Notch24State</text>
</a>
</g>
</g>
<!-- Node0&#45;&gt;Node8 -->
<g id="edge8" class="edge">
<title>Node0&#45;&gt;Node8</title>
<path fill="none" stroke="#191970" d="M40.4325,-143.3747C51.7473,-122.545 72.428,-88.8686 98,-67 102.3052,-63.3183 107.4474,-60.148 112.5501,-57.51"/>
<polygon fill="#191970" stroke="#191970" points="37.2109,-141.981 35.65,-152.4602 43.4052,-145.2416 37.2109,-141.981"/>
</g>
<!-- Node9 -->
<g id="node10" class="node">
<title>Node9</title>
<g id="a_node10"><a xlink:href="structOscState.html" target="_top" xlink:title="State for an oscillator. ">
<polygon fill="none" stroke="#000000" points="107.5,-.5 107.5,-19.5 165.5,-19.5 165.5,-.5 107.5,-.5"/>
<text text-anchor="middle" x="136.5" y="-7.5" font-family="Helvetica,sans-Serif" font-size="10.00" fill="#000000">OscState</text>
</a>
</g>
</g>
<!-- Node0&#45;&gt;Node9 -->
<g id="edge9" class="edge">
<title>Node0&#45;&gt;Node9</title>
<path fill="none" stroke="#191970" d="M36.4587,-142.5034C45.2368,-114.2663 64.9404,-61.7893 98,-29 101.7045,-25.3258 106.2617,-22.2403 110.9282,-19.6964"/>
<polygon fill="#191970" stroke="#191970" points="33.0221,-141.7816 33.5349,-152.3641 39.7333,-143.7716 33.0221,-141.7816"/>
</g>
</g>
</svg>
