<?xml version="1.0" encoding="UTF-8" standalone="no"?>
<!DOCTYPE svg PUBLIC "-//W3C//DTD SVG 1.1//EN"
 "http://www.w3.org/Graphics/SVG/1.1/DTD/svg11.dtd">
<!-- Generated by graphviz version 2.43.0 (0)
 -->
<!-- Title: FuncState Pages: 1 -->
<svg width="192pt" height="370pt"
 viewBox="0.00 0.00 192.00 370.00" xmlns="http://www.w3.org/2000/svg" xmlns:xlink="http://www.w3.org/1999/xlink">
<g id="graph0" class="graph" transform="scale(1 1) rotate(0) translate(4 366)">
<title>FuncState</title>
<!-- Node1 -->
<g id="node1" class="node">
<title>Node1</title>
<g id="a_node1"><a xlink:title="Base class to store an audio functions state But you say &quot;functions don&#39;t have state!...">
<polygon fill="#bfbfbf" stroke="black" points="0,-171.5 0,-190.5 65,-190.5 65,-171.5 0,-171.5"/>
<text text-anchor="middle" x="32.5" y="-178.5" font-family="Helvetica,sans-Serif" font-size="10.00">FuncState</text>
</a>
</g>
</g>
<!-- Node2 -->
<g id="node2" class="node">
<title>Node2</title>
<g id="a_node2"><a xlink:href="structBP12State.html" target="_top" xlink:title="State for band pass filter.">
<polygon fill="none" stroke="black" points="109,-342.5 109,-361.5 176,-361.5 176,-342.5 109,-342.5"/>
<text text-anchor="middle" x="142.5" y="-349.5" font-family="Helvetica,sans-Serif" font-size="10.00">BP12State</text>
</a>
</g>
</g>
<!-- Node1&#45;&gt;Node2 -->
<g id="edge1" class="edge">
<title>Node1&#45;&gt;Node2</title>
<path fill="none" stroke="midnightblue" d="M37.54,-200.66C44.97,-232.28 63.57,-294.79 101,-333 104.7,-336.77 109.29,-339.88 114.03,-342.41"/>
<polygon fill="midnightblue" stroke="midnightblue" points="40.87,-199.51 35.3,-190.5 34.04,-201.02 40.87,-199.51"/>
</g>
<!-- Node3 -->
<g id="node3" class="node">
<title>Node3</title>
<g id="a_node3"><a xlink:href="structBP24State.html" target="_top" xlink:title="State for band pass filter.">
<polygon fill="none" stroke="black" points="109,-304.5 109,-323.5 176,-323.5 176,-304.5 109,-304.5"/>
<text text-anchor="middle" x="142.5" y="-311.5" font-family="Helvetica,sans-Serif" font-size="10.00">BP24State</text>
</a>
</g>
</g>
<!-- Node1&#45;&gt;Node3 -->
<g id="edge2" class="edge">
<title>Node1&#45;&gt;Node3</title>
<path fill="none" stroke="midnightblue" d="M40.55,-199.89C50.6,-224.6 71.21,-267.94 101,-295 105.14,-298.76 110.15,-301.91 115.22,-304.49"/>
<polygon fill="midnightblue" stroke="midnightblue" points="43.79,-198.57 36.89,-190.54 37.27,-201.13 43.79,-198.57"/>
</g>
<!-- Node4 -->
<g id="node4" class="node">
<title>Node4</title>
<g id="a_node4"><a xlink:href="structHP12State.html" target="_top" xlink:title="State for high pass filter.">
<polygon fill="none" stroke="black" points="108.5,-266.5 108.5,-285.5 176.5,-285.5 176.5,-266.5 108.5,-266.5"/>
<text text-anchor="middle" x="142.5" y="-273.5" font-family="Helvetica,sans-Serif" font-size="10.00">HP12State</text>
</a>
</g>
</g>
<!-- Node1&#45;&gt;Node4 -->
<g id="edge3" class="edge">
<title>Node1&#45;&gt;Node4</title>
<path fill="none" stroke="midnightblue" d="M46.03,-198.89C58.46,-215.61 78.81,-240.42 101,-257 105.85,-260.63 111.51,-263.81 117.03,-266.48"/>
<polygon fill="midnightblue" stroke="midnightblue" points="48.68,-196.58 39.98,-190.53 43.01,-200.69 48.68,-196.58"/>
</g>
<!-- Node5 -->
<g id="node5" class="node">
<title>Node5</title>
<g id="a_node5"><a xlink:href="structHP24State.html" target="_top" xlink:title="State for high pass filter.">
<polygon fill="none" stroke="black" points="108.5,-228.5 108.5,-247.5 176.5,-247.5 176.5,-228.5 108.5,-228.5"/>
<text text-anchor="middle" x="142.5" y="-235.5" font-family="Helvetica,sans-Serif" font-size="10.00">HP24State</text>
</a>
</g>
</g>
<!-- Node1&#45;&gt;Node5 -->
<g id="edge4" class="edge">
<title>Node1&#45;&gt;Node5</title>
<path fill="none" stroke="midnightblue" d="M58.67,-195.75C71.26,-202.98 86.81,-211.69 101,-219 107.21,-222.2 114.06,-225.5 120.34,-228.43"/>
<polygon fill="midnightblue" stroke="midnightblue" points="60.09,-192.53 49.68,-190.56 56.59,-198.59 60.09,-192.53"/>
</g>
<!-- Node6 -->
<g id="node6" class="node">
<title>Node6</title>
<g id="a_node6"><a xlink:href="structLP12State.html" target="_top" xlink:title="State for low pass filter.">
<polygon fill="none" stroke="black" points="110,-190.5 110,-209.5 175,-209.5 175,-190.5 110,-190.5"/>
<text text-anchor="middle" x="142.5" y="-197.5" font-family="Helvetica,sans-Serif" font-size="10.00">LP12State</text>
</a>
</g>
</g>
<!-- Node1&#45;&gt;Node6 -->
<g id="edge5" class="edge">
<title>Node1&#45;&gt;Node6</title>
<path fill="none" stroke="midnightblue" d="M74.92,-188.29C86.47,-190.32 98.84,-192.5 109.75,-194.41"/>
<polygon fill="midnightblue" stroke="midnightblue" points="75.48,-184.83 65.03,-186.55 74.27,-191.73 75.48,-184.83"/>
</g>
<!-- Node7 -->
<g id="node7" class="node">
<title>Node7</title>
<g id="a_node7"><a xlink:href="structLP24State.html" target="_top" xlink:title="State for low pass filter.">
<polygon fill="none" stroke="black" points="110,-152.5 110,-171.5 175,-171.5 175,-152.5 110,-152.5"/>
<text text-anchor="middle" x="142.5" y="-159.5" font-family="Helvetica,sans-Serif" font-size="10.00">LP24State</text>
</a>
</g>
</g>
<!-- Node1&#45;&gt;Node7 -->
<g id="edge6" class="edge">
<title>Node1&#45;&gt;Node7</title>
<path fill="none" stroke="midnightblue" d="M74.92,-173.71C86.47,-171.68 98.84,-169.5 109.75,-167.59"/>
<polygon fill="midnightblue" stroke="midnightblue" points="74.27,-170.27 65.03,-175.45 75.48,-177.17 74.27,-170.27"/>
</g>
<!-- Node8 -->
<g id="node8" class="node">
<title>Node8</title>
<g id="a_node8"><a xlink:href="structNoiseState.html" target="_top" xlink:title="State for noise.">
<polygon fill="none" stroke="black" points="107.5,-114.5 107.5,-133.5 177.5,-133.5 177.5,-114.5 107.5,-114.5"/>
<text text-anchor="middle" x="142.5" y="-121.5" font-family="Helvetica,sans-Serif" font-size="10.00">NoiseState</text>
</a>
</g>
</g>
<!-- Node1&#45;&gt;Node8 -->
<g id="edge7" class="edge">
<title>Node1&#45;&gt;Node8</title>
<path fill="none" stroke="midnightblue" d="M58.67,-166.25C71.26,-159.02 86.81,-150.31 101,-143 107.21,-139.8 114.06,-136.5 120.34,-133.57"/>
<polygon fill="midnightblue" stroke="midnightblue" points="56.59,-163.41 49.68,-171.44 60.09,-169.47 56.59,-163.41"/>
</g>
<!-- Node9 -->
<g id="node9" class="node">
<title>Node9</title>
<g id="a_node9"><a xlink:href="structNotch12State.html" target="_top" xlink:title="State for notch filter.">
<polygon fill="none" stroke="black" points="101,-76.5 101,-95.5 184,-95.5 184,-76.5 101,-76.5"/>
<text text-anchor="middle" x="142.5" y="-83.5" font-family="Helvetica,sans-Serif" font-size="10.00">Notch12State</text>
</a>
</g>
</g>
<!-- Node1&#45;&gt;Node9 -->
<g id="edge8" class="edge">
<title>Node1&#45;&gt;Node9</title>
<path fill="none" stroke="midnightblue" d="M46.03,-163.11C58.46,-146.39 78.81,-121.58 101,-105 105.85,-101.37 111.51,-98.19 117.03,-95.52"/>
<polygon fill="midnightblue" stroke="midnightblue" points="43.01,-161.31 39.98,-171.47 48.68,-165.42 43.01,-161.31"/>
</g>
<!-- Node10 -->
<g id="node10" class="node">
<title>Node10</title>
<g id="a_node10"><a xlink:href="structNotch24State.html" target="_top" xlink:title="State for notch filter.">
<polygon fill="none" stroke="black" points="101,-38.5 101,-57.5 184,-57.5 184,-38.5 101,-38.5"/>
<text text-anchor="middle" x="142.5" y="-45.5" font-family="Helvetica,sans-Serif" font-size="10.00">Notch24State</text>
</a>
</g>
</g>
<!-- Node1&#45;&gt;Node10 -->
<g id="edge9" class="edge">
<title>Node1&#45;&gt;Node10</title>
<path fill="none" stroke="midnightblue" d="M40.55,-162.11C50.6,-137.4 71.21,-94.06 101,-67 105.14,-63.24 110.15,-60.09 115.22,-57.51"/>
<polygon fill="midnightblue" stroke="midnightblue" points="37.27,-160.87 36.89,-171.46 43.79,-163.43 37.27,-160.87"/>
</g>
<!-- Node11 -->
<g id="node11" class="node">
<title>Node11</title>
<g id="a_node11"><a xlink:href="structOscState.html" target="_top" xlink:title="State for an oscillator.">
<polygon fill="none" stroke="black" points="112.5,-0.5 112.5,-19.5 172.5,-19.5 172.5,-0.5 112.5,-0.5"/>
<text text-anchor="middle" x="142.5" y="-7.5" font-family="Helvetica,sans-Serif" font-size="10.00">OscState</text>
</a>
</g>
</g>
<!-- Node1&#45;&gt;Node11 -->
<g id="edge10" class="edge">
<title>Node1&#45;&gt;Node11</title>
<path fill="none" stroke="midnightblue" d="M37.54,-161.34C44.97,-129.72 63.57,-67.21 101,-29 104.7,-25.23 109.29,-22.12 114.03,-19.59"/>
<polygon fill="midnightblue" stroke="midnightblue" points="34.04,-160.98 35.3,-171.5 40.87,-162.49 34.04,-160.98"/>
</g>
</g>
</svg>
