<?xml version="1.0" encoding="UTF-8" standalone="no"?>
<!DOCTYPE svg PUBLIC "-//W3C//DTD SVG 1.1//EN"
 "http://www.w3.org/Graphics/SVG/1.1/DTD/svg11.dtd">
<!-- Generated by graphviz version 2.43.0 (0)
 -->
<!-- Title: VoicedOscillatorParams Pages: 1 -->
<svg width="332pt" height="93pt"
 viewBox="0.00 0.00 332.00 93.00" xmlns="http://www.w3.org/2000/svg" xmlns:xlink="http://www.w3.org/1999/xlink">
<g id="graph0" class="graph" transform="scale(1 1) rotate(0) translate(4 89)">
<title>VoicedOscillatorParams</title>
<!-- Node1 -->
<g id="Node000001" class="node">
<title>Node1</title>
<g id="a_Node000001"><a xlink:title="Parameters for VoicedStereoOscillator configuration.">
<polygon fill="#999999" stroke="#666666" points="232,-85 101,-85 101,-66 232,-66 232,-85"/>
<text text-anchor="middle" x="166.5" y="-73" font-family="Helvetica,sans-Serif" font-size="10.00">VoicedOscillatorParams</text>
</a>
</g>
</g>
<!-- Node2 -->
<g id="Node000002" class="node">
<title>Node2</title>
<g id="a_Node000002"><a xlink:href="structVoicedStereoOscillatorParams.html" target="_top" xlink:title="Extended parameters for band&#45;limited voiced stereo oscillator.">
<polygon fill="white" stroke="#666666" points="163,-24.5 0,-24.5 0,-5.5 163,-5.5 163,-24.5"/>
<text text-anchor="middle" x="81.5" y="-12.5" font-family="Helvetica,sans-Serif" font-size="10.00">VoicedStereoOscillatorParams</text>
</a>
</g>
</g>
<!-- Node1&#45;&gt;Node2 -->
<g id="edge1_Node000001_Node000002" class="edge">
<title>Node1&#45;&gt;Node2</title>
<g id="a_edge1_Node000001_Node000002"><a xlink:title=" ">
<path fill="none" stroke="#63b8ff" d="M145.66,-60.16C129.51,-49.05 107.67,-34.01 94.09,-24.67"/>
<polygon fill="#63b8ff" stroke="#63b8ff" points="143.74,-63.08 153.96,-65.87 147.7,-57.32 143.74,-63.08"/>
</a>
</g>
</g>
<!-- Node3 -->
<g id="Node000003" class="node">
<title>Node3</title>
<g id="a_Node000003"><a xlink:href="structWTVoicedStereoOscillatorParams.html" target="_top" xlink:title="Extended parameters for wavetable voiced stereo oscillator.">
<polygon fill="white" stroke="#666666" points="324,-30 181,-30 181,0 324,0 324,-30"/>
<text text-anchor="start" x="189" y="-18" font-family="Helvetica,sans-Serif" font-size="10.00">WTVoicedStereoOscillator</text>
<text text-anchor="middle" x="252.5" y="-7" font-family="Helvetica,sans-Serif" font-size="10.00">Params</text>
</a>
</g>
</g>
<!-- Node1&#45;&gt;Node3 -->
<g id="edge2_Node000001_Node000003" class="edge">
<title>Node1&#45;&gt;Node3</title>
<g id="a_edge2_Node000001_Node000003"><a xlink:title=" ">
<path fill="none" stroke="#63b8ff" d="M187.77,-60.03C201.19,-50.9 218.43,-39.17 231.75,-30.11"/>
<polygon fill="#63b8ff" stroke="#63b8ff" points="185.49,-57.35 179.19,-65.87 189.43,-63.14 185.49,-57.35"/>
</a>
</g>
</g>
</g>
</svg>
