<?xml version="1.0" encoding="UTF-8" standalone="no"?>
<!DOCTYPE svg PUBLIC "-//W3C//DTD SVG 1.1//EN"
 "http://www.w3.org/Graphics/SVG/1.1/DTD/svg11.dtd">
<!-- Generated by graphviz version 2.43.0 (0)
 -->
<!-- Title: FuncState Pages: 1 -->
<svg width="192pt" height="332pt"
 viewBox="0.00 0.00 192.00 332.00" xmlns="http://www.w3.org/2000/svg" xmlns:xlink="http://www.w3.org/1999/xlink">
<g id="graph0" class="graph" transform="scale(1 1) rotate(0) translate(4 328)">
<title>FuncState</title>
<!-- Node1 -->
<g id="node1" class="node">
<title>Node1</title>
<g id="a_node1"><a xlink:title="Base class to store an audio functions state But you say &quot;functions don&#39;t have state!...">
<polygon fill="#bfbfbf" stroke="black" points="0,-152.5 0,-171.5 65,-171.5 65,-152.5 0,-152.5"/>
<text text-anchor="middle" x="32.5" y="-159.5" font-family="Helvetica,sans-Serif" font-size="10.00">FuncState</text>
</a>
</g>
</g>
<!-- Node2 -->
<g id="node2" class="node">
<title>Node2</title>
<g id="a_node2"><a xlink:href="structBP12State.html" target="_top" xlink:title="State for band pass filter.">
<polygon fill="none" stroke="black" points="109,-304.5 109,-323.5 176,-323.5 176,-304.5 109,-304.5"/>
<text text-anchor="middle" x="142.5" y="-311.5" font-family="Helvetica,sans-Serif" font-size="10.00">BP12State</text>
</a>
</g>
</g>
<!-- Node1&#45;&gt;Node2 -->
<g id="edge1" class="edge">
<title>Node1&#45;&gt;Node2</title>
<path fill="none" stroke="midnightblue" d="M38.95,-181.58C47.74,-209.93 67.52,-262.54 101,-295 104.9,-298.78 109.7,-301.92 114.61,-304.48"/>
<polygon fill="midnightblue" stroke="midnightblue" points="42.22,-180.28 36.03,-171.68 35.5,-182.26 42.22,-180.28"/>
</g>
<!-- Node3 -->
<g id="node3" class="node">
<title>Node3</title>
<g id="a_node3"><a xlink:href="structBP24State.html" target="_top" xlink:title="State for band pass filter.">
<polygon fill="none" stroke="black" points="109,-266.5 109,-285.5 176,-285.5 176,-266.5 109,-266.5"/>
<text text-anchor="middle" x="142.5" y="-273.5" font-family="Helvetica,sans-Serif" font-size="10.00">BP24State</text>
</a>
</g>
</g>
<!-- Node1&#45;&gt;Node3 -->
<g id="edge2" class="edge">
<title>Node1&#45;&gt;Node3</title>
<path fill="none" stroke="midnightblue" d="M42.96,-180.71C54.31,-201.63 75.11,-235.38 101,-257 105.41,-260.68 110.66,-263.83 115.88,-266.43"/>
<polygon fill="midnightblue" stroke="midnightblue" points="45.91,-178.81 38.16,-171.59 39.72,-182.07 45.91,-178.81"/>
</g>
<!-- Node4 -->
<g id="node4" class="node">
<title>Node4</title>
<g id="a_node4"><a xlink:href="structHP12State.html" target="_top" xlink:title="State for high pass filter.">
<polygon fill="none" stroke="black" points="108.5,-228.5 108.5,-247.5 176.5,-247.5 176.5,-228.5 108.5,-228.5"/>
<text text-anchor="middle" x="142.5" y="-235.5" font-family="Helvetica,sans-Serif" font-size="10.00">HP12State</text>
</a>
</g>
</g>
<!-- Node1&#45;&gt;Node4 -->
<g id="edge3" class="edge">
<title>Node1&#45;&gt;Node4</title>
<path fill="none" stroke="midnightblue" d="M50.71,-178.74C63.78,-190.9 82.61,-207.21 101,-219 106.36,-222.44 112.44,-225.62 118.24,-228.36"/>
<polygon fill="midnightblue" stroke="midnightblue" points="53.03,-176.12 43.36,-171.79 48.22,-181.2 53.03,-176.12"/>
</g>
<!-- Node5 -->
<g id="node5" class="node">
<title>Node5</title>
<g id="a_node5"><a xlink:href="structHP24State.html" target="_top" xlink:title="State for high pass filter.">
<polygon fill="none" stroke="black" points="108.5,-190.5 108.5,-209.5 176.5,-209.5 176.5,-190.5 108.5,-190.5"/>
<text text-anchor="middle" x="142.5" y="-197.5" font-family="Helvetica,sans-Serif" font-size="10.00">HP24State</text>
</a>
</g>
</g>
<!-- Node1&#45;&gt;Node5 -->
<g id="edge4" class="edge">
<title>Node1&#45;&gt;Node5</title>
<path fill="none" stroke="midnightblue" d="M70.37,-174.97C84.76,-180.03 100.95,-185.73 114.26,-190.41"/>
<polygon fill="midnightblue" stroke="midnightblue" points="71.35,-171.61 60.75,-171.59 69.02,-178.21 71.35,-171.61"/>
</g>
<!-- Node6 -->
<g id="node6" class="node">
<title>Node6</title>
<g id="a_node6"><a xlink:href="structLP12State.html" target="_top" xlink:title="State for low pass filter.">
<polygon fill="none" stroke="black" points="110,-152.5 110,-171.5 175,-171.5 175,-152.5 110,-152.5"/>
<text text-anchor="middle" x="142.5" y="-159.5" font-family="Helvetica,sans-Serif" font-size="10.00">LP12State</text>
</a>
</g>
</g>
<!-- Node1&#45;&gt;Node6 -->
<g id="edge5" class="edge">
<title>Node1&#45;&gt;Node6</title>
<path fill="none" stroke="midnightblue" d="M75.27,-162C86.72,-162 98.95,-162 109.75,-162"/>
<polygon fill="midnightblue" stroke="midnightblue" points="75.03,-158.5 65.03,-162 75.03,-165.5 75.03,-158.5"/>
</g>
<!-- Node7 -->
<g id="node7" class="node">
<title>Node7</title>
<g id="a_node7"><a xlink:href="structLP24State.html" target="_top" xlink:title="State for low pass filter.">
<polygon fill="none" stroke="black" points="110,-114.5 110,-133.5 175,-133.5 175,-114.5 110,-114.5"/>
<text text-anchor="middle" x="142.5" y="-121.5" font-family="Helvetica,sans-Serif" font-size="10.00">LP24State</text>
</a>
</g>
</g>
<!-- Node1&#45;&gt;Node7 -->
<g id="edge6" class="edge">
<title>Node1&#45;&gt;Node7</title>
<path fill="none" stroke="midnightblue" d="M70.37,-149.03C84.76,-143.97 100.95,-138.27 114.26,-133.59"/>
<polygon fill="midnightblue" stroke="midnightblue" points="69.02,-145.79 60.75,-152.41 71.35,-152.39 69.02,-145.79"/>
</g>
<!-- Node8 -->
<g id="node8" class="node">
<title>Node8</title>
<g id="a_node8"><a xlink:href="structNotch12State.html" target="_top" xlink:title="State for notch filter.">
<polygon fill="none" stroke="black" points="101,-76.5 101,-95.5 184,-95.5 184,-76.5 101,-76.5"/>
<text text-anchor="middle" x="142.5" y="-83.5" font-family="Helvetica,sans-Serif" font-size="10.00">Notch12State</text>
</a>
</g>
</g>
<!-- Node1&#45;&gt;Node8 -->
<g id="edge7" class="edge">
<title>Node1&#45;&gt;Node8</title>
<path fill="none" stroke="midnightblue" d="M50.71,-145.26C63.78,-133.1 82.61,-116.79 101,-105 106.36,-101.56 112.44,-98.38 118.24,-95.64"/>
<polygon fill="midnightblue" stroke="midnightblue" points="48.22,-142.8 43.36,-152.21 53.03,-147.88 48.22,-142.8"/>
</g>
<!-- Node9 -->
<g id="node9" class="node">
<title>Node9</title>
<g id="a_node9"><a xlink:href="structNotch24State.html" target="_top" xlink:title="State for notch filter.">
<polygon fill="none" stroke="black" points="101,-38.5 101,-57.5 184,-57.5 184,-38.5 101,-38.5"/>
<text text-anchor="middle" x="142.5" y="-45.5" font-family="Helvetica,sans-Serif" font-size="10.00">Notch24State</text>
</a>
</g>
</g>
<!-- Node1&#45;&gt;Node9 -->
<g id="edge8" class="edge">
<title>Node1&#45;&gt;Node9</title>
<path fill="none" stroke="midnightblue" d="M42.96,-143.29C54.31,-122.37 75.11,-88.62 101,-67 105.41,-63.32 110.66,-60.17 115.88,-57.57"/>
<polygon fill="midnightblue" stroke="midnightblue" points="39.72,-141.93 38.16,-152.41 45.91,-145.19 39.72,-141.93"/>
</g>
<!-- Node10 -->
<g id="node10" class="node">
<title>Node10</title>
<g id="a_node10"><a xlink:href="structOscState.html" target="_top" xlink:title="State for an oscillator.">
<polygon fill="none" stroke="black" points="112.5,-0.5 112.5,-19.5 172.5,-19.5 172.5,-0.5 112.5,-0.5"/>
<text text-anchor="middle" x="142.5" y="-7.5" font-family="Helvetica,sans-Serif" font-size="10.00">OscState</text>
</a>
</g>
</g>
<!-- Node1&#45;&gt;Node10 -->
<g id="edge9" class="edge">
<title>Node1&#45;&gt;Node10</title>
<path fill="none" stroke="midnightblue" d="M38.95,-142.42C47.74,-114.07 67.52,-61.46 101,-29 104.9,-25.22 109.7,-22.08 114.61,-19.52"/>
<polygon fill="midnightblue" stroke="midnightblue" points="35.5,-141.74 36.03,-152.32 42.22,-143.72 35.5,-141.74"/>
</g>
</g>
</svg>
