<?xml version="1.0" encoding="UTF-8" standalone="no"?>
<!DOCTYPE svg PUBLIC "-//W3C//DTD SVG 1.1//EN"
 "http://www.w3.org/Graphics/SVG/1.1/DTD/svg11.dtd">
<!-- Generated by graphviz version 2.43.0 (0)
 -->
<!-- Title: FuncState Pages: 1 -->
<svg width="192pt" height="360pt"
 viewBox="0.00 0.00 192.00 360.00" xmlns="http://www.w3.org/2000/svg" xmlns:xlink="http://www.w3.org/1999/xlink">
<g id="graph0" class="graph" transform="scale(1 1) rotate(0) translate(4 356)">
<title>FuncState</title>
<!-- Node1 -->
<g id="Node000001" class="node">
<title>Node1</title>
<g id="a_Node000001"><a xlink:title="Base class for storing state in audio functions.">
<polygon fill="#999999" stroke="#666666" points="65,-185 0,-185 0,-166 65,-166 65,-185"/>
<text text-anchor="middle" x="32.5" y="-173" font-family="Helvetica,sans-Serif" font-size="10.00">FuncState</text>
</a>
</g>
</g>
<!-- Node2 -->
<g id="Node000002" class="node">
<title>Node2</title>
<g id="a_Node000002"><a xlink:href="structBP12State.html" target="_top" xlink:title="State storage for 12dB/octave bandpass filter in AudioEquationParser.">
<polygon fill="white" stroke="#666666" points="176,-352 109,-352 109,-333 176,-333 176,-352"/>
<text text-anchor="middle" x="142.5" y="-340" font-family="Helvetica,sans-Serif" font-size="10.00">BP12State</text>
</a>
</g>
</g>
<!-- Node1&#45;&gt;Node2 -->
<g id="edge1_Node000001_Node000002" class="edge">
<title>Node1&#45;&gt;Node2</title>
<g id="a_edge1_Node000001_Node000002"><a xlink:title=" ">
<path fill="none" stroke="#63b8ff" d="M37.67,-195.31C45.2,-226.58 63.85,-287.61 101,-324.5 104.39,-327.86 108.51,-330.65 112.81,-332.95"/>
<polygon fill="#63b8ff" stroke="#63b8ff" points="41.01,-194.21 35.39,-185.23 34.18,-195.76 41.01,-194.21"/>
</a>
</g>
</g>
<!-- Node3 -->
<g id="Node000003" class="node">
<title>Node3</title>
<g id="a_Node000003"><a xlink:href="structBP24State.html" target="_top" xlink:title="State storage for 24dB/octave bandpass filter in AudioEquationParser.">
<polygon fill="white" stroke="#666666" points="176,-315 109,-315 109,-296 176,-296 176,-315"/>
<text text-anchor="middle" x="142.5" y="-303" font-family="Helvetica,sans-Serif" font-size="10.00">BP24State</text>
</a>
</g>
</g>
<!-- Node1&#45;&gt;Node3 -->
<g id="edge2_Node000001_Node000003" class="edge">
<title>Node1&#45;&gt;Node3</title>
<g id="a_edge2_Node000001_Node000003"><a xlink:title=" ">
<path fill="none" stroke="#63b8ff" d="M40.84,-194.84C51,-219.33 71.5,-261.45 101,-287.5 104.69,-290.76 109.07,-293.51 113.56,-295.81"/>
<polygon fill="#63b8ff" stroke="#63b8ff" points="43.97,-193.23 37.01,-185.24 37.46,-195.82 43.97,-193.23"/>
</a>
</g>
</g>
<!-- Node4 -->
<g id="Node000004" class="node">
<title>Node4</title>
<g id="a_Node000004"><a xlink:href="structHP12State.html" target="_top" xlink:title="State storage for 12dB/octave highpass filter in AudioEquationParser.">
<polygon fill="white" stroke="#666666" points="176.5,-278 108.5,-278 108.5,-259 176.5,-259 176.5,-278"/>
<text text-anchor="middle" x="142.5" y="-266" font-family="Helvetica,sans-Serif" font-size="10.00">HP12State</text>
</a>
</g>
</g>
<!-- Node1&#45;&gt;Node4 -->
<g id="edge3_Node000001_Node000004" class="edge">
<title>Node1&#45;&gt;Node4</title>
<g id="a_edge3_Node000001_Node000004"><a xlink:title=" ">
<path fill="none" stroke="#63b8ff" d="M46.41,-193.78C58.85,-210.34 78.99,-234.52 101,-250.5 105.36,-253.66 110.36,-256.44 115.33,-258.81"/>
<polygon fill="#63b8ff" stroke="#63b8ff" points="49.06,-191.47 40.33,-185.47 43.41,-195.6 49.06,-191.47"/>
</a>
</g>
</g>
<!-- Node5 -->
<g id="Node000005" class="node">
<title>Node5</title>
<g id="a_Node000005"><a xlink:href="structHP24State.html" target="_top" xlink:title="State storage for 24dB/octave highpass filter in AudioEquationParser.">
<polygon fill="white" stroke="#666666" points="176.5,-241 108.5,-241 108.5,-222 176.5,-222 176.5,-241"/>
<text text-anchor="middle" x="142.5" y="-229" font-family="Helvetica,sans-Serif" font-size="10.00">HP24State</text>
</a>
</g>
</g>
<!-- Node1&#45;&gt;Node5 -->
<g id="edge4_Node000001_Node000005" class="edge">
<title>Node1&#45;&gt;Node5</title>
<g id="a_edge4_Node000001_Node000005"><a xlink:title=" ">
<path fill="none" stroke="#63b8ff" d="M58.6,-190.38C71.18,-197.64 86.73,-206.33 101,-213.5 106.78,-216.4 113.12,-219.34 119.04,-221.97"/>
<polygon fill="#63b8ff" stroke="#63b8ff" points="60.04,-187.16 49.63,-185.15 56.51,-193.21 60.04,-187.16"/>
</a>
</g>
</g>
<!-- Node6 -->
<g id="Node000006" class="node">
<title>Node6</title>
<g id="a_Node000006"><a xlink:href="structLP12State.html" target="_top" xlink:title="State storage for 12dB/octave lowpass filter in AudioEquationParser.">
<polygon fill="white" stroke="#666666" points="175,-204 110,-204 110,-185 175,-185 175,-204"/>
<text text-anchor="middle" x="142.5" y="-192" font-family="Helvetica,sans-Serif" font-size="10.00">LP12State</text>
</a>
</g>
</g>
<!-- Node1&#45;&gt;Node6 -->
<g id="edge5_Node000001_Node000006" class="edge">
<title>Node1&#45;&gt;Node6</title>
<g id="a_edge5_Node000001_Node000006"><a xlink:title=" ">
<path fill="none" stroke="#63b8ff" d="M74.92,-182.79C86.47,-184.82 98.84,-187 109.75,-188.91"/>
<polygon fill="#63b8ff" stroke="#63b8ff" points="75.48,-179.33 65.03,-181.05 74.27,-186.23 75.48,-179.33"/>
</a>
</g>
</g>
<!-- Node7 -->
<g id="Node000007" class="node">
<title>Node7</title>
<g id="a_Node000007"><a xlink:href="structLP24State.html" target="_top" xlink:title="State storage for 24dB/octave lowpass filter in AudioEquationParser.">
<polygon fill="white" stroke="#666666" points="175,-167 110,-167 110,-148 175,-148 175,-167"/>
<text text-anchor="middle" x="142.5" y="-155" font-family="Helvetica,sans-Serif" font-size="10.00">LP24State</text>
</a>
</g>
</g>
<!-- Node1&#45;&gt;Node7 -->
<g id="edge6_Node000001_Node000007" class="edge">
<title>Node1&#45;&gt;Node7</title>
<g id="a_edge6_Node000001_Node000007"><a xlink:title=" ">
<path fill="none" stroke="#63b8ff" d="M74.92,-168.6C86.47,-166.67 98.84,-164.61 109.75,-162.79"/>
<polygon fill="#63b8ff" stroke="#63b8ff" points="74.32,-165.15 65.03,-170.25 75.47,-172.05 74.32,-165.15"/>
</a>
</g>
</g>
<!-- Node8 -->
<g id="Node000008" class="node">
<title>Node8</title>
<g id="a_Node000008"><a xlink:href="structNoiseState.html" target="_top" xlink:title="State storage for noise generator in AudioEquationParser.">
<polygon fill="white" stroke="#666666" points="177.5,-130 107.5,-130 107.5,-111 177.5,-111 177.5,-130"/>
<text text-anchor="middle" x="142.5" y="-118" font-family="Helvetica,sans-Serif" font-size="10.00">NoiseState</text>
</a>
</g>
</g>
<!-- Node1&#45;&gt;Node8 -->
<g id="edge7_Node000001_Node000008" class="edge">
<title>Node1&#45;&gt;Node8</title>
<g id="a_edge7_Node000001_Node000008"><a xlink:title=" ">
<path fill="none" stroke="#63b8ff" d="M59.77,-161.09C72.19,-154.37 87.28,-146.37 101,-139.5 107.25,-136.37 114.11,-133.09 120.38,-130.16"/>
<polygon fill="#63b8ff" stroke="#63b8ff" points="57.97,-158.08 50.85,-165.93 61.31,-164.23 57.97,-158.08"/>
</a>
</g>
</g>
<!-- Node9 -->
<g id="Node000009" class="node">
<title>Node9</title>
<g id="a_Node000009"><a xlink:href="structNotch12State.html" target="_top" xlink:title="State storage for 12dB/octave notch filter in AudioEquationParser.">
<polygon fill="white" stroke="#666666" points="184,-93 101,-93 101,-74 184,-74 184,-93"/>
<text text-anchor="middle" x="142.5" y="-81" font-family="Helvetica,sans-Serif" font-size="10.00">Notch12State</text>
</a>
</g>
</g>
<!-- Node1&#45;&gt;Node9 -->
<g id="edge8_Node000001_Node000009" class="edge">
<title>Node1&#45;&gt;Node9</title>
<g id="a_edge8_Node000001_Node000009"><a xlink:title=" ">
<path fill="none" stroke="#63b8ff" d="M46.59,-157.83C59.15,-141.8 79.37,-118.32 101,-102.5 105.89,-98.92 111.56,-95.76 117.08,-93.1"/>
<polygon fill="#63b8ff" stroke="#63b8ff" points="43.73,-155.81 40.43,-165.87 49.29,-160.06 43.73,-155.81"/>
</a>
</g>
</g>
<!-- Node10 -->
<g id="Node000010" class="node">
<title>Node10</title>
<g id="a_Node000010"><a xlink:href="structNotch24State.html" target="_top" xlink:title="State storage for 24dB/octave notch filter in AudioEquationParser.">
<polygon fill="white" stroke="#666666" points="184,-56 101,-56 101,-37 184,-37 184,-56"/>
<text text-anchor="middle" x="142.5" y="-44" font-family="Helvetica,sans-Serif" font-size="10.00">Notch24State</text>
</a>
</g>
</g>
<!-- Node1&#45;&gt;Node10 -->
<g id="edge9_Node000001_Node000010" class="edge">
<title>Node1&#45;&gt;Node10</title>
<g id="a_edge9_Node000001_Node000010"><a xlink:title=" ">
<path fill="none" stroke="#63b8ff" d="M41.01,-156.6C51.35,-132.65 72.04,-91.39 101,-65.5 105.17,-61.77 110.2,-58.64 115.27,-56.06"/>
<polygon fill="#63b8ff" stroke="#63b8ff" points="37.71,-155.41 37.11,-165.99 44.18,-158.1 37.71,-155.41"/>
</a>
</g>
</g>
<!-- Node11 -->
<g id="Node000011" class="node">
<title>Node11</title>
<g id="a_Node000011"><a xlink:href="structOscState.html" target="_top" xlink:title="State storage for oscillator functions in AudioEquationParser.">
<polygon fill="white" stroke="#666666" points="172.5,-19 112.5,-19 112.5,0 172.5,0 172.5,-19"/>
<text text-anchor="middle" x="142.5" y="-7" font-family="Helvetica,sans-Serif" font-size="10.00">OscState</text>
</a>
</g>
</g>
<!-- Node1&#45;&gt;Node11 -->
<g id="edge10_Node000001_Node000011" class="edge">
<title>Node1&#45;&gt;Node11</title>
<g id="a_edge10_Node000001_Node000011"><a xlink:title=" ">
<path fill="none" stroke="#63b8ff" d="M37.83,-156.04C45.59,-125.31 64.54,-65.26 101,-28.5 104.72,-24.75 109.32,-21.65 114.07,-19.12"/>
<polygon fill="#63b8ff" stroke="#63b8ff" points="34.39,-155.4 35.47,-165.94 41.2,-157.03 34.39,-155.4"/>
</a>
</g>
</g>
</g>
</svg>
