<svg width="17" height="17" viewBox="0 0 17 17" fill="none" xmlns="http://www.w3.org/2000/svg">
<path fill-rule="evenodd" clip-rule="evenodd" d="M17 8.5C17 3.80558 13.1944 0 8.5 0C3.80558 0 0 3.80558 0 8.5C0 13.1944 3.80558 17 8.5 17C13.1944 17 17 13.1944 17 8.5ZM9.14583 15.6345C8.84842 15.94 8.63054 16 8.5 16C8.36946 16 8.15158 15.94 7.85417 15.6345C7.55369 15.3258 7.23702 14.8272 6.9498 14.1297C6.80899 13.7877 6.67999 13.4094 6.5655 13H10.4345C10.32 13.4094 10.191 13.7877 10.0502 14.1297C9.76298 14.8272 9.44631 15.3258 9.14583 15.6345ZM6.00625 9C6.03338 10.0817 6.14773 11.095 6.32791 12H10.6721C10.8523 11.095 10.9666 10.0817 10.9937 9H6.00625ZM10.3071 15.7809C10.7788 15.0888 11.1779 14.134 11.4698 13H14.5005C13.4797 14.3591 12.0078 15.3601 10.3071 15.7809ZM15 12C15.0437 12 15.086 12.0056 15.1264 12.0161C15.6103 11.1061 15.9122 10.0845 15.9836 9H11.994C11.9686 10.0644 11.8626 11.0762 11.6905 12H15ZM2 12H5.30954C5.13745 11.0762 5.03138 10.0644 5.00595 9H1.0164C1.08779 10.0845 1.3897 11.1061 1.87359 12.0161C1.91397 12.0056 1.95633 12 2 12ZM5.53017 13H2.49945C3.52033 14.3591 4.9922 15.3601 6.69289 15.7809C6.22116 15.0888 5.82213 14.134 5.53017 13ZM10.9937 8H6.00625C6.03338 6.91834 6.14773 5.90503 6.32791 5H10.6721C10.8523 5.90503 10.9666 6.91834 10.9937 8ZM10.4345 4H6.5655C6.67999 3.59055 6.80899 3.21231 6.9498 2.87034C7.23702 2.17282 7.55369 1.67418 7.85417 1.36553C8.15158 1.06003 8.36946 1 8.5 1C8.63054 1 8.84842 1.06003 9.14583 1.36553C9.44631 1.67418 9.76298 2.17282 10.0502 2.87034C10.191 3.21231 10.32 3.59055 10.4345 4ZM11.6905 5H15C15.0437 5 15.086 4.9944 15.1264 4.98388C15.6103 5.89393 15.9122 6.91548 15.9836 8H11.994C11.9686 6.93562 11.8626 5.92378 11.6905 5ZM11.4698 4C11.1779 2.86596 10.7788 1.91118 10.3071 1.21915C12.0078 1.63986 13.4797 2.64088 14.5005 4H11.4698ZM5.53017 4C5.82213 2.86596 6.22116 1.91118 6.69289 1.21915C4.9922 1.63986 3.52033 2.64088 2.49945 4H5.53017ZM5.30954 5H2C1.95633 5 1.91397 4.9944 1.87359 4.98388C1.3897 5.89393 1.08779 6.91548 1.0164 8H5.00595C5.03138 6.93562 5.13745 5.92378 5.30954 5Z" fill="#9B9EA5"/>
</svg>
