<svg width="6" height="6" viewBox="0 0 6 6" fill="none" xmlns="http://www.w3.org/2000/svg">
<path d="M5.14645 0.146447C5.34171 -0.0488155 5.65829 -0.0488155 5.85355 0.146447C6.04882 0.341709 6.04882 0.658291 5.85355 0.853553L3.70711 3L5.85355 5.14645C6.04882 5.34171 6.04882 5.65829 5.85355 5.85355C5.65829 6.04882 5.34171 6.04882 5.14645 5.85355L3 3.70711L0.853553 5.85355C0.658291 6.04882 0.341709 6.04882 0.146447 5.85355C-0.0488156 5.65829 -0.0488156 5.34171 0.146447 5.14645L2.29289 3L0.146447 0.853553C-0.0488154 0.658291 -0.0488154 0.341709 0.146447 0.146447C0.341709 -0.0488155 0.658291 -0.0488155 0.853554 0.146447L3 2.29289L5.14645 0.146447Z" fill="#585A62"/>
</svg>
