<svg width="17" height="13" viewBox="0 0 17 13" fill="none" xmlns="http://www.w3.org/2000/svg">
<path fill-rule="evenodd" clip-rule="evenodd" d="M2 12H15C15.5523 12 16 11.5523 16 11V4C16 3.44772 15.5523 3 15 3H10.8284C10.0328 3 9.26972 2.68393 8.70711 2.12132L7.87868 1.29289C7.69114 1.10536 7.43679 1 7.17157 1H2C1.44772 1 1 1.44772 1 2V11C1 11.5523 1.44772 12 2 12ZM2 0C0.895431 0 0 0.89543 0 2V11C0 12.1046 0.89543 13 2 13H15C16.1046 13 17 12.1046 17 11V4C17 2.89543 16.1046 2 15 2H10.8284C10.298 2 9.78929 1.78929 9.41421 1.41421L8.58579 0.585787C8.21071 0.210714 7.70201 0 7.17157 0H2Z" fill="#9B9EA5"/>
</svg>
