<svg width="11" height="10" viewBox="0 0 11 10" fill="none" xmlns="http://www.w3.org/2000/svg">
<path d="M2.99994 1.75839C3.73996 1.26392 4.60999 1 5.5 1C6.39002 1 7.26005 1.26392 8.00007 1.75839C8.74009 2.25285 9.31687 2.95566 9.65746 3.77792C9.99805 4.60019 10.0872 5.50499 9.91354 6.37791C9.7399 7.25082 9.31132 8.05264 8.68198 8.68198L9.38909 9.38909C10.1583 8.6199 10.6821 7.63989 10.8943 6.573C11.1065 5.5061 10.9976 4.40023 10.5813 3.39524C10.1651 2.39025 9.46011 1.53126 8.55564 0.926917C7.65117 0.322569 6.5878 0 5.5 0C4.41221 0 3.34884 0.322569 2.44437 0.926917C1.5399 1.53126 0.834947 2.39025 0.418665 3.39524C0.00238305 4.40023 -0.106535 5.5061 0.105683 6.573C0.317902 7.63989 0.841726 8.6199 1.61092 9.38909L2.31802 8.68198C1.68869 8.05264 1.2601 7.25082 1.08647 6.37791C0.912835 5.50499 1.00195 4.60019 1.34254 3.77792C1.68314 2.95566 2.25992 2.25285 2.99994 1.75839Z" fill="#CC8866"/>
<path d="M4.66665 4.2528C4.91332 4.08797 5.20333 4 5.5 4C5.79667 4 6.08668 4.08797 6.33335 4.2528C6.58003 4.41762 6.77229 4.65189 6.88582 4.92597C6.99935 5.20006 7.02905 5.50166 6.97118 5.79263C6.9133 6.08361 6.77044 6.35088 6.56066 6.56066L7.26777 7.26777C7.6174 6.91813 7.8555 6.47268 7.95196 5.98772C8.04843 5.50277 7.99892 5.00011 7.8097 4.54329C7.62048 4.08648 7.30005 3.69603 6.88893 3.42133C6.4778 3.14662 5.99445 3 5.5 3C5.00555 3 4.5222 3.14662 4.11107 3.42133C3.69995 3.69603 3.37952 4.08648 3.1903 4.54329C3.00108 5.00011 2.95157 5.50277 3.04804 5.98772C3.1445 6.47268 3.3826 6.91813 3.73223 7.26777L4.43934 6.56066C4.22956 6.35088 4.0867 6.08361 4.02882 5.79263C3.97095 5.50166 4.00065 5.20006 4.11418 4.92597C4.22771 4.65189 4.41997 4.41762 4.66665 4.2528Z" fill="#CC8866"/>
</svg>
