<svg width="11" height="10" viewBox="0 0 11 10" fill="none" xmlns="http://www.w3.org/2000/svg">
<path d="M2.99994 1.75839C3.73996 1.26392 4.60999 1 5.5 1C6.39002 1 7.26005 1.26392 8.00007 1.75839C8.74009 2.25285 9.31687 2.95566 9.65746 3.77792C9.99805 4.60019 10.0872 5.50499 9.91354 6.37791C9.7399 7.25082 9.31132 8.05264 8.68198 8.68198L9.38909 9.38909C10.1583 8.6199 10.6821 7.63989 10.8943 6.573C11.1065 5.5061 10.9976 4.40023 10.5813 3.39524C10.1651 2.39025 9.46011 1.53126 8.55564 0.926917C7.65117 0.322569 6.5878 0 5.5 0C4.41221 0 3.34884 0.322569 2.44437 0.926917C1.5399 1.53126 0.834947 2.39025 0.418665 3.39524C0.00238305 4.40023 -0.106535 5.5061 0.105683 6.573C0.317902 7.63989 0.841726 8.6199 1.61092 9.38909L2.31802 8.68198C1.68869 8.05264 1.2601 7.25082 1.08647 6.37791C0.912835 5.50499 1.00195 4.60019 1.34254 3.77792C1.68314 2.95566 2.25992 2.25285 2.99994 1.75839Z" fill="#CC8866"/>
<path d="M5.5 7C6.32843 7 7 6.32843 7 5.5C7 4.67157 6.32843 4 5.5 4C4.67157 4 4 4.67157 4 5.5C4 6.32843 4.67157 7 5.5 7Z" fill="#CC8866"/>
</svg>
