<svg width="19" height="19" viewBox="0 0 19 19" fill="none" xmlns="http://www.w3.org/2000/svg">
<path fill-rule="evenodd" clip-rule="evenodd" d="M1 9.5C1 14.1944 4.80558 18 9.5 18C14.1944 18 18 14.1944 18 9.5C18 4.80558 14.1944 1 9.5 1C4.80558 1 1 4.80558 1 9.5ZM9.5 0C4.25329 0 0 4.25329 0 9.5C0 14.7467 4.25329 19 9.5 19C14.7467 19 19 14.7467 19 9.5C19 4.25329 14.7467 0 9.5 0ZM8.5 8C8.22386 8 8 8.22386 8 8.5C8 8.77614 8.22386 9 8.5 9H9V13H8.5C8.22386 13 8 13.2239 8 13.5C8 13.7761 8.22386 14 8.5 14H9.5H10.5C10.7761 14 11 13.7761 11 13.5C11 13.2239 10.7761 13 10.5 13H10V8.5C10 8.22386 9.77614 8 9.5 8H8.5ZM9.33002 6.5C9.8823 6.5 10.33 6.05228 10.33 5.5C10.33 4.94772 9.8823 4.5 9.33002 4.5C8.77773 4.5 8.33002 4.94772 8.33002 5.5C8.33002 6.05228 8.77773 6.5 9.33002 6.5Z" fill="#9B9EA5"/>
</svg>
