<svg width="19" height="19" viewBox="0 0 19 19" fill="none" xmlns="http://www.w3.org/2000/svg">
<path fill-rule="evenodd" clip-rule="evenodd" d="M9.5 18C4.80558 18 1 14.1944 1 9.5C1 4.80558 4.80558 1 9.5 1C14.1944 1 18 4.80558 18 9.5C18 14.1944 14.1944 18 9.5 18ZM0 9.5C0 4.25329 4.25329 0 9.5 0C14.7467 0 19 4.25329 19 9.5C19 14.7467 14.7467 19 9.5 19C4.25329 19 0 14.7467 0 9.5ZM6.14645 6.14645C6.34171 5.95118 6.65829 5.95118 6.85355 6.14645L9.5 8.79289L12.1464 6.14645C12.3417 5.95118 12.6583 5.95118 12.8536 6.14645C13.0488 6.34171 13.0488 6.65829 12.8536 6.85355L10.2071 9.5L12.8536 12.1464C13.0488 12.3417 13.0488 12.6583 12.8536 12.8536C12.6583 13.0488 12.3417 13.0488 12.1464 12.8536L9.5 10.2071L6.85355 12.8536C6.65829 13.0488 6.34171 13.0488 6.14645 12.8536C5.95118 12.6583 5.95118 12.3417 6.14645 12.1464L8.79289 9.5L6.14645 6.85355C5.95118 6.65829 5.95118 6.34171 6.14645 6.14645Z" fill="#585A62"/>
</svg>
